<svg 
     version="1.1" 
     xmlns="http://www.w3.org/2000/svg" 
     viewBox="-15.142136623730954 -13.982296636750847 30.284273247461908 21.146846822755176" 
     fill="none" 
     stroke="black" 
     stroke-width="0.2%" 
     vector-effect="non-scaling-stroke">
  <path d="M -12.86934 0 L -9.54594 1.91877 L -8.90955 3.02104 L 0 -2.12289 L 8.90955 3.02104 L 8.90955 4.49073 M -12.86934 0 L -12.86934 -0.73485 L -14.14214 -1.46969 L -14.14214 -0.73485 L -12.86934 1.46969 L -12.86934 2.20454 M -8.90955 4.49073 L -8.90955 3.02104 M -8.90955 4.49073 L -10.25234 3.71547 L -10.88874 2.6132 M -10.89015 2.61238 L -10.88874 2.6132 M -10.89015 2.61238 L -11.52655 2.9798 L -10.25234 3.71547 M -11.52655 2.9798 L -12.86934 2.20454 M -9.54594 1.91877 L 0 -3.59258 L 0 -2.12289 M 0 -7.43012 L -12.86934 0 M 0 -3.59258 L 9.54594 1.91877 L 8.90955 3.02104 M 12.86934 0 L 0 -7.43012 L 0 -11.5126 L -9.97021 -5.7563 L -11.243 -6.49115 L 0 -12.9823 L 11.243 -6.49115 L 14.14214 -1.46969 L 12.86934 -0.73485 M 9.54594 1.91877 L 12.86934 0 L 12.86934 -0.73485 M -12.86934 -0.73485 L -9.97021 -5.7563 M 0 2.69444 L 0 -2.12289 M 0 2.69444 L -6.01041 6.16455 M -8.90955 4.49073 L -6.01041 6.16455 M -14.14214 -1.46969 L -11.243 -6.49115 M 10.88874 2.6132 L 10.89015 2.61238 L 11.52655 2.9798 L 10.89015 2.61238 M -10.89015 2.61238 L -11.52655 2.9798 M 9.97021 -5.7563 L 12.86934 -0.73485 M 9.97021 -5.7563 L 0 -11.5126 M 10.25234 3.71547 L 8.90955 4.49073 M 14.14214 -0.73485 L 14.14214 -1.46969 M 10.25234 3.71547 L 10.88874 2.6132 M 12.86934 1.46969 L 14.14214 -0.73485 M 12.86934 1.46969 L 12.86934 2.20454 L 11.52655 2.9798 M 11.243 -6.49115 L 9.97021 -5.7563 M 6.01041 6.16455 L 0 2.69444 M 6.01041 6.16455 L 8.90955 4.49073 M 10.25234 3.71547 L 11.52655 2.9798" />
  </svg>