<svg 
     version="1.1" 
     xmlns="http://www.w3.org/2000/svg" 
     viewBox="-61.51066380003881 -56.37998744969516 121.01508301602621 112.87633910815546" 
     fill="none" 
     stroke="black" 
     stroke-width="0.2%" 
     vector-effect="non-scaling-stroke">
  <path d="M -48.03023 20.68798 L -13.80626 40.4472 L 56.90442 -0.37763 L 22.68045 -20.13685 L 21.54908 -19.48365 M -46.20401 21.74235 L 21.54908 -17.37491 L 21.54908 -19.48365 M 21.54908 -9.11414 L 21.54908 -17.37491 M -48.03023 20.68798 L -48.07631 20.71459 M -47.7793 22.13925 L -14.93763 41.1004 A 1.6 0.92376 180 0 0 -12.67489 41.1004 L 17.0236 23.95397 L 16.91046 23.88865 L 16.91046 23.36609 L 16.91046 23.88865 M 23.81182 -20.79004 L 22.68045 -20.13685 M 58.03579 -1.03083 L 23.81182 -20.79004 M 58.03579 0.27557 A 1.6 0.92376 180 0 0 58.50442 -0.37763 A 1.6 0.92376 180 0 0 58.03579 -1.03083 M 28.3373 17.422 L 58.03579 0.27557 M 16.91046 23.36609 L 27.31907 17.35668 L 28.22417 17.35668 L 28.3373 17.422 M 21.54908 -9.11414 L 21.54908 -9.01759 L 21.54908 -8.91198 L 21.54908 -8.79865 L 21.54908 -8.67902 L 21.54908 -8.55459 L 21.54908 -8.42693 L 21.54908 -8.29765 L 21.54908 -8.16836 L 21.54908 -8.0407 L 21.54908 -7.91627 L 21.54908 -7.79664 L 21.54908 -7.68331 L 21.54908 -7.5777 L 21.54908 -7.48115 L -37.63576 26.68923 M 24.18305 -8.67528 A 1 0.57735 60 0 0 22.76884 -9.49177 A 1 0.57735 60 0 0 23.47595 -8.26703 A 1 0.57735 60 0 0 24.18305 -8.67528 Z M -45.52 37.56905 L -14.93763 55.22579 A 1.6 0.92376 180 0 0 -12.67489 55.22579 L 58.03579 14.40096 A 1.6 0.92376 180 0 0 58.50442 13.74776 M -15.69424 43.27636 A 0.93 0.53694 240 1 1 -16.35184 42.13735 A 0.93 0.53694 240 0 1 -15.69424 43.27636 Z M 28.3373 19.67553 L 28.3373 17.422 M 28.1245 20.78213 L 28.3373 19.67553 M 28.1245 20.78213 A 8.9 5.13842 120 0 1 18.23045 27.98736 A 8.9 5.13842 120 0 1 17.2364 27.06837 M 17.0236 26.2075 L 17.2364 27.06837 M 17.0236 23.95397 L 17.0236 26.2075 M 23.90021 -8.18538 A 2.6 1.50111 240 0 1 23.74999 -8.35375 M 22.98097 -9.68574 A 2.6 1.50111 240 0 1 22.91026 -9.90002 M 27.31907 19.61021 L 27.31907 17.35668 M 27.16733 20.4194 L 27.31907 19.61021 L 28.22417 19.61021 L 28.22417 17.35668 M 17.0622 26.2536 A 8.26 4.76891 300 0 0 27.16733 20.4194 L 28.01136 20.71681 L 28.22417 19.61021 L 28.3373 19.67553 M 17.0236 26.09232 L 17.0622 26.2536 L 17.12326 27.00305 M -46.21532 21.73582 L 21.54908 -17.38798 M -15.70712 43.11931 A 0.6 0.34641 240 1 1 -16.22228 42.22703 M 28.01136 20.71681 L 28.1245 20.78213 M 18.17424 27.95408 A 8.9 5.13842 300 0 0 28.01136 20.71681 M -57.75295 -11.62487 L -59.16716 -12.44137 A 1.6 0.92376 120 0 1 -58.03579 -14.40096 L 12.67489 -55.22579 A 1.6 0.92376 120 0 1 13.47489 -55.30503 L 14.8891 -54.48854 A 1.6 0.92376 120 0 1 15.22047 -53.75609 M -57.75295 -11.62487 A 1.6 0.92376 120 0 1 -56.62158 -13.58446 L -58.03579 -14.40096 M -59.39061 -12.31236 L -59.16716 -12.44137 M -55.16822 -9.88763 L -55.17954 -9.8811 L -59.39061 -12.31236 M -57.96508 -11.5024 L -57.75295 -11.62487 M -57.96508 -11.5024 L -55.16822 -9.88763 A 1.5 0.86603 240 0 1 -54.14518 -8.39552 L -54.1565 -8.38899 C -54.16 -8.41 -54.16 -8.43 -54.16875 -8.44391 C -54.17 -8.46 -54.18 -8.48 -54.18268 -8.49918 C -54.19 -8.52 -54.19 -8.54 -54.19826 -8.55471 C -54.2 -8.57 -54.21 -8.59 -54.21547 -8.61041 C -54.22 -8.63 -54.23 -8.65 -54.23428 -8.66619 C -54.24 -8.68 -54.25 -8.7 -54.25467 -8.72195 C -54.26 -8.74 -54.27 -8.76 -54.27658 -8.7776 C -54.28 -8.8 -54.29 -8.81 -54.29999 -8.83305 C -54.31 -8.85 -54.32 -8.87 -54.32487 -8.8882 C -54.33 -8.91 -54.34 -8.92 -54.35116 -8.94298 C -54.36 -8.96 -54.37 -8.98 -54.37882 -8.99727 C -54.39 -9.02 -54.4 -9.03 -54.40782 -9.051 C -54.42 -9.07 -54.43 -9.09 -54.4381 -9.10408 C -54.45 -9.12 -54.46 -9.14 -54.4696 -9.15641 C -54.48 -9.17 -54.49 -9.19 -54.50229 -9.20791 C -54.51 -9.22 -54.52 -9.24 -54.53609 -9.2585 C -54.55 -9.28 -54.56 -9.29 -54.57097 -9.30809 C -54.58 -9.32 -54.59 -9.34 -54.60686 -9.3566 C -54.62 -9.37 -54.63 -9.39 -54.64369 -9.40394 C -54.66 -9.42 -54.67 -9.43 -54.68142 -9.45004 C -54.69 -9.47 -54.71 -9.48 -54.71997 -9.49483 C -54.73 -9.51 -54.75 -9.52 -54.75928 -9.53823 C -54.77 -9.55 -54.79 -9.57 -54.7993 -9.58016 C -54.81 -9.59 -54.83 -9.61 -54.83994 -9.62056 C -54.85 -9.63 -54.87 -9.65 -54.88114 -9.65936 C -54.89 -9.67 -54.91 -9.68 -54.92285 -9.69649 C -54.94 -9.71 -54.95 -9.72 -54.96497 -9.7319 C -54.98 -9.74 -54.99 -9.75 -55.00746 -9.76552 C -55.04 -9.79 -55.06 -9.81 -55.09321 -9.82719 C -55.12 -9.85 -55.15 -9.86 -55.17954 -9.8811 M -56.62158 -13.58446 L 14.0891 -54.40929 L 12.67489 -55.22579 M 15.43261 -13.85663 L 15.43261 -53.87857 L 18.22946 -52.2638 L 18.24077 -52.27033 L 15.19209 -54.03049 M 15.43261 -53.87857 L 15.22047 -53.75609 M 14.0891 -54.40929 A 1.6 0.92376 120 0 1 14.8891 -54.48854 M 14.82171 -54.78005 A 1.584 0.91452 300 0 0 14.31071 -54.82247 M -60.51066 29.81233 L -60.51066 -10.37236 A 1.584 0.91452 120 0 1 -59.39061 -12.31236 M -45.52 32.97626 L -45.52 37.814 L -46.08568 38.1406 M -54.14518 -8.39552 L -45.52 32.97626 L -45.53131 32.98279 L -54.1565 -8.38899 M 19.2525 -50.7717 L 25.7345 -19.67999 M 18.22946 -52.2638 A 1.5 0.86603 240 0 1 19.2525 -50.7717 L 19.26382 -50.77823 C 19.26 -50.8 19.26 -50.81 19.25156 -50.83315 C 19.25 -50.85 19.24 -50.87 19.23763 -50.88842 C 19.23 -50.91 19.23 -50.93 19.22205 -50.94395 C 19.22 -50.96 19.21 -50.98 19.20484 -50.99965 C 19.2 -51.02 19.19 -51.04 19.18603 -51.05542 C 19.18 -51.07 19.17 -51.09 19.16565 -51.11118 C 19.16 -51.13 19.15 -51.15 19.14373 -51.16683 C 19.14 -51.19 19.13 -51.2 19.12032 -51.22228 C 19.11 -51.24 19.1 -51.26 19.09544 -51.27744 C 19.09 -51.3 19.08 -51.31 19.06915 -51.33221 C 19.06 -51.35 19.05 -51.37 19.04149 -51.38651 C 19.03 -51.4 19.02 -51.42 19.01249 -51.44024 C 19 -51.46 18.99 -51.48 18.98222 -51.49332 C 18.97 -51.51 18.96 -51.53 18.95071 -51.54565 C 18.94 -51.56 18.93 -51.58 18.91803 -51.59715 C 18.91 -51.61 18.9 -51.63 18.88422 -51.64774 C 18.87 -51.66 18.86 -51.68 18.84934 -51.69733 C 18.84 -51.71 18.83 -51.73 18.81346 -51.74583 C 18.8 -51.76 18.79 -51.78 18.77662 -51.79318 C 18.76 -51.81 18.75 -51.82 18.73889 -51.83928 C 18.73 -51.85 18.71 -51.87 18.70034 -51.88407 C 18.69 -51.9 18.67 -51.91 18.66103 -51.92746 C 18.65 -51.94 18.63 -51.96 18.62102 -51.9694 C 18.61 -51.98 18.59 -52 18.58037 -52.00979 C 18.57 -52.02 18.55 -52.04 18.53917 -52.04859 C 18.53 -52.06 18.51 -52.07 18.49747 -52.08573 C 18.48 -52.1 18.47 -52.11 18.45534 -52.12114 C 18.44 -52.13 18.43 -52.14 18.41285 -52.15476 C 18.38 -52.18 18.36 -52.2 18.3271 -52.21643 C 18.3 -52.24 18.27 -52.25 18.24077 -52.27033 M 17.90748 -51.57605 A 0.93 0.53694 240 0 1 17.90748 -50.05736 M 17.24987 -51.19638 A 0.93 0.53694 240 0 1 17.90748 -51.57605 M -60.51066 29.81233 L -46.82085 37.71615 L -56.34492 -7.96727 C -56.34 -7.99 -56.34 -8.01 -56.34215 -8.03069 C -56.34 -8.05 -56.34 -8.07 -56.33669 -8.09552 C -56.33 -8.12 -56.33 -8.14 -56.32855 -8.16159 C -56.33 -8.18 -56.32 -8.21 -56.31773 -8.22874 C -56.31 -8.25 -56.31 -8.27 -56.30427 -8.29682 C -56.3 -8.32 -56.29 -8.34 -56.28819 -8.36564 C -56.28 -8.39 -56.28 -8.41 -56.26953 -8.43506 C -56.26 -8.46 -56.26 -8.48 -56.24833 -8.50489 C -56.24 -8.53 -56.23 -8.55 -56.22463 -8.57497 C -56.22 -8.6 -56.21 -8.62 -56.1985 -8.64512 C -56.19 -8.67 -56.18 -8.69 -56.16999 -8.71518 C -56.16 -8.74 -56.15 -8.76 -56.13916 -8.78498 C -56.13 -8.81 -56.12 -8.83 -56.10609 -8.85434 C -56.09 -8.88 -56.08 -8.9 -56.07085 -8.92309 C -56.06 -8.95 -56.05 -8.97 -56.03352 -8.99107 C -56.02 -9.01 -56.01 -9.04 -55.9942 -9.05811 C -55.98 -9.08 -55.97 -9.1 -55.95297 -9.12406 C -55.94 -9.15 -55.92 -9.17 -55.90992 -9.18873 C -55.9 -9.21 -55.88 -9.23 -55.86517 -9.25199 C -55.85 -9.27 -55.83 -9.29 -55.8188 -9.31368 C -55.8 -9.33 -55.79 -9.35 -55.77094 -9.37364 C -55.75 -9.39 -55.74 -9.41 -55.72169 -9.43173 C -55.71 -9.45 -55.69 -9.47 -55.67117 -9.4878 C -55.65 -9.51 -55.64 -9.52 -55.6195 -9.54172 C -55.6 -9.56 -55.58 -9.58 -55.56679 -9.59337 C -55.55 -9.61 -55.53 -9.63 -55.51317 -9.6426 C -55.5 -9.66 -55.48 -9.67 -55.45877 -9.6893 C -55.44 -9.7 -55.42 -9.72 -55.40371 -9.73336 C -55.37 -9.76 -55.33 -9.79 -55.29215 -9.81312 C -55.25 -9.84 -55.22 -9.86 -55.17954 -9.8811 M -46.82085 37.71615 L -46.80885 37.72308 L -46.79671 37.73009 L -46.78441 37.73719 L -46.77197 37.74437 L -46.75939 37.75163 L -46.74666 37.75898 L -46.73379 37.76641 L -46.72078 37.77392 L -46.70763 37.78152 L -46.69434 37.78919 L -46.68091 37.79694 L -46.66735 37.80477 L -46.65365 37.81268 L -46.63982 37.82066 L -46.61775 37.31813 L -46.58439 36.82145 L -46.5401 36.33578 L -46.48534 35.86617 L -46.42067 35.41749 L -46.34677 34.99441 L -46.26441 34.6013 L -46.17443 34.24226 L -46.07778 33.92101 L -45.97545 33.64088 L -45.86852 33.40479 L -45.75808 33.21518 L -45.64529 33.07402 L -45.53131 32.98279 M -46.63982 37.82066 L -46.08568 38.1406 M 23.47595 -9.65507 A 0.7 0.40415 240 0 1 23.47595 -8.51198 L 23.98092 -8.22043 M 23.47595 -8.51198 A 0.7 0.40415 240 0 1 22.98097 -9.3693 L 22.98097 -9.95239 M 22.98097 -9.3693 A 0.7 0.40415 240 0 1 23.47595 -9.65507 M 17.67413 -51.17188 A 0.6 0.34641 240 0 1 17.67413 -50.19209 L 17.90748 -50.05736 M 17.67413 -50.19209 A 0.6 0.34641 240 0 1 17.24987 -50.92693 L 17.24987 -51.19638 M 17.24987 -50.92693 A 0.6 0.34641 240 0 1 17.67413 -51.17188 M 21.54908 -9.11414 L -39.04997 25.87274 M 46.79279 5.46032 L 21.54908 -9.11414 M 45.37858 6.27682 L 21.54908 -7.48115 M -14.93763 55.22579 L -14.93763 41.1004 M -12.67489 55.22579 L -12.67489 41.1004 M 58.03579 14.40096 L 58.03579 0.27557 M -56.34492 -7.96727 L -60.51066 -10.37236 M 19.01011 -52.36187 Q 19.01 -52.36 19.00863 -52.36273 C 19 -52.37 18.98 -52.38 18.97025 -52.38252 C 18.96 -52.39 18.94 -52.39 18.93008 -52.39897 C 18.92 -52.4 18.9 -52.41 18.8882 -52.41203 C 18.87 -52.42 18.86 -52.42 18.84473 -52.42169 C 18.83 -52.42 18.81 -52.43 18.79977 -52.4279 C 18.78 -52.43 18.77 -52.43 18.75344 -52.43066 C 18.74 -52.43 18.72 -52.43 18.70584 -52.42995 C 18.69 -52.43 18.67 -52.43 18.65709 -52.42578 C 18.64 -52.42 18.62 -52.42 18.60732 -52.41815 C 18.59 -52.42 18.57 -52.41 18.55665 -52.40708 C 18.54 -52.4 18.52 -52.4 18.5052 -52.39259 C 18.49 -52.39 18.47 -52.38 18.4531 -52.37472 C 18.44 -52.37 18.42 -52.36 18.40048 -52.35351 C 18.38 -52.35 18.37 -52.34 18.34746 -52.329 C 18.33 -52.32 18.31 -52.31 18.29418 -52.30125 C 18.28 -52.29 18.26 -52.28 18.24077 -52.27033 M -56.34492 -7.96727 C -56.33 -7.96 -56.31 -7.96 -56.29094 -7.95599 C -56.27 -7.95 -56.25 -7.95 -56.23438 -7.94629 C -56.22 -7.94 -56.2 -7.94 -56.1754 -7.93821 C -56.16 -7.94 -56.13 -7.93 -56.11414 -7.93177 C -56.09 -7.93 -56.07 -7.93 -56.05073 -7.92699 C -56.03 -7.93 -56.01 -7.92 -55.98533 -7.9239 C -55.96 -7.92 -55.94 -7.92 -55.91811 -7.92249 C -55.9 -7.92 -55.87 -7.92 -55.84923 -7.92278 C -55.83 -7.92 -55.8 -7.92 -55.77885 -7.92477 C -55.76 -7.93 -55.73 -7.93 -55.70714 -7.92846 C -55.68 -7.93 -55.66 -7.93 -55.63428 -7.93385 C -55.61 -7.94 -55.59 -7.94 -55.56044 -7.94092 C -55.54 -7.94 -55.51 -7.95 -55.48581 -7.94967 C -55.46 -7.95 -55.44 -7.96 -55.41056 -7.96007 C -55.39 -7.96 -55.36 -7.97 -55.33487 -7.9721 C -55.31 -7.98 -55.28 -7.98 -55.25893 -7.98575 C -55.23 -7.99 -55.21 -8 -55.18293 -8.00097 C -55.16 -8.01 -55.13 -8.01 -55.10704 -8.01775 C -55.08 -8.02 -55.06 -8.03 -55.03146 -8.03603 C -55.01 -8.04 -54.98 -8.05 -54.95635 -8.05579 C -54.93 -8.06 -54.91 -8.07 -54.88191 -8.07698 C -54.86 -8.08 -54.83 -8.09 -54.80831 -8.09955 C -54.78 -8.11 -54.76 -8.12 -54.73574 -8.12346 C -54.71 -8.13 -54.69 -8.14 -54.66437 -8.14865 C -54.64 -8.16 -54.62 -8.17 -54.59437 -8.17507 C -54.57 -8.18 -54.55 -8.19 -54.52591 -8.20265 C -54.5 -8.21 -54.48 -8.22 -54.45915 -8.23134 C -54.44 -8.24 -54.42 -8.25 -54.39427 -8.26107 C -54.35 -8.28 -54.31 -8.3 -54.27073 -8.32337 C -54.23 -8.34 -54.19 -8.37 -54.1565 -8.38899 M 25.74891 -19.67167 L 19.26382 -50.77823 M 19.74087 -51.35141 Q 19.74 -51.35 19.74099 -51.35081 C 19.74 -51.34 19.74 -51.33 19.74534 -51.31758 C 19.75 -51.31 19.75 -51.29 19.74491 -51.28348 C 19.74 -51.27 19.74 -51.26 19.73972 -51.2486 C 19.74 -51.24 19.73 -51.23 19.72977 -51.21307 C 19.73 -51.2 19.72 -51.19 19.7151 -51.17699 C 19.71 -51.16 19.7 -51.15 19.69574 -51.14049 C 19.69 -51.13 19.68 -51.12 19.67175 -51.10368 C 19.66 -51.09 19.65 -51.08 19.64321 -51.06668 C 19.63 -51.05 19.62 -51.04 19.61019 -51.02962 C 19.6 -51.02 19.59 -51 19.5728 -50.9926 C 19.56 -50.98 19.55 -50.97 19.53114 -50.95576 C 19.52 -50.94 19.5 -50.93 19.48535 -50.9192 C 19.47 -50.91 19.45 -50.9 19.43556 -50.88305 C 19.42 -50.87 19.4 -50.86 19.38192 -50.84743 C 19.36 -50.84 19.34 -50.82 19.32462 -50.81245 C 19.3 -50.8 19.28 -50.79 19.26382 -50.77823 M 58.50442 -0.37763 L 58.50442 13.74776 M 19.01011 -52.36187 L 14.82171 -54.78005 M 19.74103 -51.35081 C 19.74 -51.36 19.74 -51.36 19.73806 -51.36471 C 19.74 -51.37 19.74 -51.37 19.73485 -51.37864 C 19.73 -51.38 19.73 -51.39 19.73143 -51.39258 C 19.73 -51.4 19.73 -51.4 19.72783 -51.4065 C 19.73 -51.41 19.73 -51.42 19.72406 -51.42037 C 19.72 -51.42 19.72 -51.43 19.72013 -51.4342 C 19.72 -51.44 19.72 -51.44 19.71607 -51.44797 C 19.71 -51.45 19.71 -51.46 19.71188 -51.46168 C 19.71 -51.47 19.71 -51.48 19.70356 -51.48768 C 19.7 -51.5 19.7 -51.5 19.69486 -51.51347 C 19.69 -51.52 19.69 -51.53 19.68581 -51.53906 C 19.68 -51.55 19.68 -51.56 19.67644 -51.56445 C 19.67 -51.57 19.67 -51.58 19.66741 -51.58797 C 19.66 -51.6 19.66 -51.6 19.65813 -51.61131 C 19.65 -51.62 19.65 -51.63 19.6486 -51.63443 C 19.65 -51.64 19.64 -51.65 19.63883 -51.65733 C 19.64 -51.66 19.63 -51.67 19.62882 -51.67998 C 19.63 -51.69 19.62 -51.69 19.61856 -51.70237 C 19.62 -51.71 19.61 -51.72 19.60805 -51.72448 C 19.6 -51.73 19.6 -51.74 19.59728 -51.74631 C 19.59 -51.75 19.59 -51.76 19.58625 -51.76784 C 19.58 -51.77 19.58 -51.78 19.57493 -51.78908 C 19.57 -51.8 19.57 -51.8 19.56331 -51.81003 C 19.56 -51.82 19.56 -51.82 19.55137 -51.83069 C 19.55 -51.84 19.54 -51.84 19.53909 -51.85108 C 19.53 -51.86 19.53 -51.86 19.52645 -51.87121 C 19.52 -51.88 19.52 -51.88 19.51343 -51.89109 C 19.51 -51.9 19.5 -51.9 19.5 -51.91077 C 19.42 -52.03 19.33 -52.12 19.24718 -52.18769 C 19.16 -52.26 19.08 -52.32 19.00863 -52.36273 M 26.42713 -19.2801 L 19.7409 -51.35142" />
  </svg>