<svg 
     version="1.1" 
     xmlns="http://www.w3.org/2000/svg" 
     viewBox="-29.111616161117727 -23.006374888153946 58.23146917934046 46.36391548948852" 
     fill="none" 
     stroke="black" 
     stroke-width="0.2%" 
     vector-effect="non-scaling-stroke">
  <path d="M -28.11139 6.43493 A 1 0.57735 180 0 0 -28.11162 6.4471 A 1 0.57735 180 0 0 -27.81872 6.85535 L -20.09667 11.31368 A 1 0.57735 180 0 0 -18.38963 10.91199 L -18.17775 0.14511 L -17.28144 0.6626 M -17.88144 12.3535 A 1 0.57735 180 0 0 -17.58855 12.76175 L -11.49327 16.28085 A 1 0.57735 180 0 0 -10.07906 16.28085 L -9.18077 15.76223 M -8.7146 15.49308 L -8.6801 15.47317 M -9.2801 17.31948 A 1 0.57735 180 0 0 -8.98721 17.72773 L -1.26104 22.18844 A 1 0.57735 180 0 0 -0.53254 22.35741 L 26.51524 22.02333 A 1 0.57735 180 0 0 27.49358 21.45945 L 28.11959 5.81844 A 1 0.57735 180 0 0 28.11985 5.8051 A 1 0.57735 180 0 0 28.11959 5.79176 M 17.77589 0.16508 A 1 0.57735 180 0 0 17.88762 -0.1001 M -24.09221 -7.7598 L -24.22464 -4.13355 M -19.26202 -7.82337 L -24.09221 -7.7598 L -24.09221 -9.0662 L -24.27137 -4.16053 M -6.16584 0.95761 L -6.24972 0.90918 M 6.21265 1.06612 L 6.12877 1.11454 M 21.81532 4.78377 L 21.71311 9.25771 M 24.54471 6.35958 L 21.81532 4.78377 L 21.81532 3.47738 L 21.68326 9.25808 M -28.11139 5.12854 A 1 0.57735 180 0 0 -28.11162 5.14071 A 1 0.57735 180 0 0 -27.81872 5.54896 L -20.09667 10.00729 A 1 0.57735 180 0 0 -18.38963 9.6056 L -18.17775 -1.16128 L -16.7149 -0.3167 M -27.54099 -10.48988 L -28.11139 5.12854 M -27.32786 -10.83417 A 1 0.57735 180 0 0 -27.54099 -10.48988 M -18.17775 0.14511 L -18.17775 -1.16128 M -17.28144 10.46155 L -17.58855 10.63885 A 1 0.57735 180 0 0 -17.88144 11.0471 A 1 0.57735 180 0 0 -17.58855 11.45535 L -11.49327 14.97446 A 1 0.57735 180 0 0 -10.07906 14.97446 L -8.6801 14.16677 M 17.59472 -1.81475 L 17.28762 -1.99205 M 17.59472 -0.99825 A 1 0.57735 180 0 0 17.88762 -1.4065 A 1 0.57735 180 0 0 17.59472 -1.81475 M -8.6801 15.48394 A 1 0.57735 180 0 0 -9.2801 16.01309 A 1 0.57735 180 0 0 -8.98721 16.42134 L -1.26104 20.88204 A 1 0.57735 180 0 0 -0.53254 21.05101 L 26.51524 20.71694 A 1 0.57735 180 0 0 27.49358 20.15305 L 28.11959 4.51205 A 1 0.57735 180 0 0 28.11985 4.49871 A 1 0.57735 180 0 0 27.82696 4.09046 L 27.51985 3.91315 M 16.67783 -0.46888 L 17.59472 -0.99825 M 18.39377 0.03039 L 18.38269 0.51542 M 18.75382 -0.40569 A 1 0.57735 180 0 0 18.39377 0.03039 M -19.2363 -9.13011 L -24.09221 -9.0662 M -21.64417 -2.64372 A 2.5 1.44338 360 0 1 -19.33767 -3.97884 M -5.03447 0.30441 L -6.24972 -0.39721 M 6.21265 -0.24028 L 4.9974 0.46135 M 24.59581 5.08269 L 21.81532 3.47738 M 24.43006 9.22415 L 24.59581 5.08269 M -19.6724 9.76234 L -27.39446 5.30401 A 0.4 0.23094 0 0 1 -27.51162 5.14071 A 0.4 0.23094 0 0 1 -27.51153 5.13584 L -27.51153 -5.79548 M -18.98959 9.60166 A 0.4 0.23094 0 0 1 -19.6724 9.76234 L -19.6724 -1.17872 A 0.4 0.23094 180 0 0 -18.98959 -1.33939 L -18.76152 -12.92927 L -6.8154 -6.03218 L -17.16428 -0.05725 A 0.4 0.23094 180 0 0 -17.28144 0.10605 L -17.28144 11.0471 M -18.76152 -1.98822 L -18.98959 9.60166 L -18.98959 -1.33939 M -16.29063 -0.56165 L -18.76152 -1.98822 L -18.76152 -12.92927 M -17.16428 11.2104 A 0.4 0.23094 360 0 1 -17.28144 11.0471 M -11.06901 14.72951 L -17.16428 11.2104 L -17.16428 0.26935 L -11.06901 3.78846 A 0.4 0.23094 180 0 0 -10.50332 3.78846 L -0.15444 -2.18647 L 11.79551 4.71284 L -8.28453 4.84111 A 0.4 0.23094 180 0 0 -8.6801 5.07203 L -8.6801 16.01309 M -10.50332 14.72951 A 0.4 0.23094 0 0 1 -11.06901 14.72951 L -11.06901 3.78846 M -8.6801 13.67687 L -10.50332 14.72951 L -10.50332 3.78846 M -8.56294 16.17639 A 0.4 0.23094 0 0 1 -8.6801 16.01309 M -0.83677 20.63709 L -8.56294 16.17639 L -8.56294 5.23533 L -0.83677 9.69604 A 0.4 0.23094 180 0 0 -0.54537 9.76363 L 26.50241 9.42955 A 0.4 0.23094 180 0 0 26.89374 9.204 L 27.51975 -6.43701 A 0.4 0.23094 180 0 0 27.51985 -6.44235 L 27.51985 4.49871 A 0.4 0.23094 360 0 1 27.51975 4.50404 L 27.51975 -6.43701 M -0.54537 20.70468 A 0.4 0.23094 0 0 1 -0.83677 20.63709 L -0.83677 9.69604 M 26.50241 20.3706 L -0.54537 20.70468 L -0.54537 9.76363 M 26.89374 20.14505 A 0.4 0.23094 360 0 1 26.50241 20.3706 L 26.50241 9.42955 M 27.51975 4.50404 L 26.89374 20.14505 L 26.89374 9.204 M 27.51975 4.49337 A 0.4 0.23094 360 0 1 27.51985 4.49871 M 17.17046 -1.2432 L 16.25357 -0.71383 M 17.28762 -1.4065 A 0.4 0.23094 0 0 1 17.17046 -1.2432 L 17.17046 -12.18425 A 0.4 0.23094 180 0 0 17.28762 -12.34755 L 17.28762 -1.4065 Z M -26.72029 -5.57441 L -26.54121 -10.47771 L -26.54121 -21.41877 L -27.11162 -5.80035 L -19.38956 -1.34202 L -19.15069 -13.48056 L -6.24972 -6.03218 L -16.88144 0.10605 L -10.78616 3.62516 L -0.15444 -2.51307 L 12.75065 4.93769 L -8.2801 5.07203 L -0.55393 9.53274 L 26.49385 9.19866 L 27.11985 -6.44235 L 19.39368 -10.90305 L 19.11569 1.26521 L 6.21265 -6.18436 L 16.88762 -12.34755 L 10.79234 -15.86666 L 0.11738 -9.70347 L -12.78772 -17.15423 L 8.2801 -17.3171 L 0.55805 -21.77543 L -26.54121 -21.41877 M -26.54121 -10.47771 L -19.20789 -10.57423 M -14.23025 -10.63974 L -12.78772 -10.65873 M -6.24972 -2.43845 L -3.2667 -0.71621 M 3.22963 -0.55928 L 6.21265 -2.28152 M 12.75065 8.53142 L 14.17001 9.35088 M 19.18233 9.28897 L 19.39368 0.038 L 19.39368 -10.90305 M 19.39368 0.038 L 26.69185 4.2516 M -27.39446 -5.63705 L -19.6724 -1.17872 M -17.28144 0.10605 A 0.4 0.23094 180 0 0 -17.16428 0.26935 M -0.15444 4.78917 L -0.15444 -2.18647 M -8.6801 5.07203 A 0.4 0.23094 180 0 0 -8.56294 5.23533 M 27.51985 -6.44235 A 0.4 0.23094 180 0 0 27.40269 -6.60565 L 19.67652 -11.06635 A 0.4 0.23094 180 0 0 18.99371 -10.9061 L 18.72822 0.71491 L 6.77833 -6.18436 L 17.17046 -12.18425 M 17.28762 -12.34755 A 0.4 0.23094 180 0 0 17.17046 -12.51085 L 11.07518 -16.02996 A 0.4 0.23094 180 0 0 10.5095 -16.02996 L 0.11738 -10.03006 L -11.83476 -16.93063 L 8.28546 -17.08618 A 0.4 0.23094 180 0 0 8.6801 -17.3171 L 8.6801 -14.97376 M 8.6801 -17.3171 A 0.4 0.23094 180 0 0 8.56294 -17.4804 L 0.84089 -21.93873 A 0.4 0.23094 180 0 0 0.54893 -22.00631 L -26.55033 -21.64965 A 0.4 0.23094 180 0 0 -26.94112 -21.42364 L -27.51153 -5.80522 A 0.4 0.23094 180 0 0 -27.51162 -5.80035 L -27.51162 5.14071 M -27.51162 -5.80035 A 0.4 0.23094 180 0 0 -27.39446 -5.63705 M 0.55805 -17.2574 L 0.55805 -21.77543 M -12.78772 -9.8069 L -12.78772 -17.15423 M 0.11738 -2.35614 L 0.11738 -9.70347 M 10.79234 -8.82844 L 10.79234 -15.86666 M 6.21265 1.16297 L 6.21265 -6.18436 M 19.11569 9.28979 L 19.11569 1.26521 M 12.75065 9.36841 L 12.75065 4.93769 M -6.24972 1.00604 L -6.24972 -6.03218 M -28.11139 6.43493 L -28.11139 5.15288 M -27.81872 6.85535 L -27.81872 5.54896 M -20.09667 11.31368 L -20.09667 10.00729 M -18.38963 10.91199 L -18.38963 9.6056 M -17.58855 12.76175 L -17.58855 11.45535 M -11.49327 16.28085 L -11.49327 14.97446 M -10.07906 16.28085 L -10.07906 14.97446 M 17.59472 0.06049 L 17.59472 -0.99825 M -8.98721 17.72773 L -8.98721 16.42134 M -1.26104 22.18844 L -1.26104 20.88204 M -0.53254 22.35741 L -0.53254 21.05101 M 26.51524 22.02333 L 26.51524 20.71694 M 27.49358 21.45945 L 27.49358 20.15305 M 28.11959 5.81844 L 28.11959 4.51205 M -27.39446 5.30401 L -27.39446 -5.63705 M 8.28546 -14.74591 L 8.28546 -17.08618 M -28.11162 5.14071 L -28.11162 6.4471 M -17.88144 11.0471 L -17.88144 12.3535 M 17.88762 -1.4065 L 17.88762 -0.1001 M -9.2801 16.01309 L -9.2801 17.31948 M 28.11985 4.49871 L 28.11985 5.8051" />
  </svg>