<svg 
     version="1.1" 
     xmlns="http://www.w3.org/2000/svg" 
     viewBox="-15.14213662373095 -11.66878400211712 30.284273247461904 29.270882147647548" 
     fill="none" 
     stroke="black" 
     stroke-width="0.2%" 
     vector-effect="non-scaling-stroke">
  <path d="M 14.14214 9.25363 L 1.41421 16.6021 L -14.14214 7.62063 M 14.14214 5.98764 L 1.41421 13.33611 A 1.76777 1.02062 60 0 0 0.35355 13.13199 A 1.76777 1.02062 60 0 0 0 14.15261 L -3.50018 12.13178 L -1.27538 -0.57039 L -7.00294 -3.8772 A 6 3.4641 120 0 1 0.13622 -10.38771 L 5.86378 -7.0809 A 6 3.4641 120 0 1 7.00294 -5.34988 L 9.22774 4.78331 L -3.50018 12.13178 L -9.22774 8.82497 L -7.00294 -3.8772 M 14.14214 9.25363 L 14.14214 5.98764 A 1.76777 1.02062 60 0 0 13.08148 5.78352 M 1.41421 16.6021 L 1.41421 13.33611 M 12.02082 6.39589 L 9.22774 4.78331 M -9.22774 8.82497 L -12.72792 6.80414 A 1.76777 1.02062 60 0 0 -14.14214 4.35465 L -14.14214 7.62063 M -7.80381 0.69521 L -14.14214 4.35465 M -8.4402 4.32862 L -12.72792 6.80414 M -1.27538 -0.57039 A 6 3.4641 120 0 1 5.86378 -7.0809 M 0.35355 13.13199 L 13.08148 5.78352" />
  </svg>