<svg 
     version="1.1" 
     xmlns="http://www.w3.org/2000/svg" 
     viewBox="-43.53732057466684 -37.35356834661084 87.07464114933369 73.30420581918354" 
     fill="none" 
     stroke="black" 
     stroke-width="0.2%" 
     vector-effect="non-scaling-stroke">
  <path d="M -41.36575 -18.48121 L -41.36575 1.27631 L -17.67767 14.95262 A 4 2.3094 180 0 0 -16.51664 15.41882 M -41.36575 -18.48121 L 12.02082 12.34154 C 12.07 12.37 12.11 12.39 12.163 12.4197 C 12.21 12.45 12.26 12.47 12.31166 12.49373 C 12.36 12.52 12.41 12.54 12.46644 12.56347 C 12.52 12.59 12.57 12.61 12.62695 12.62874 C 12.68 12.65 12.74 12.67 12.79282 12.68938 C 12.85 12.71 12.91 12.73 12.96365 12.74525 C 13.02 12.76 13.08 12.78 13.13902 12.79622 C 13.2 12.81 13.26 12.83 13.31851 12.84215 C 13.38 12.86 13.44 12.87 13.50168 12.88295 C 13.56 12.9 13.63 12.91 13.68811 12.9185 C 13.75 12.93 13.81 12.94 13.87733 12.94873 C 13.94 12.96 14 12.97 14.06889 12.97357 C 14.13 12.98 14.2 12.99 14.26233 12.99295 C 14.33 13 14.39 13 14.45718 13.00682 C 14.52 13.01 14.59 13.01 14.65297 13.01516 C 14.72 13.02 14.78 13.02 14.84924 13.01794 C 14.91 13.02 14.98 13.02 15.04551 13.01516 C 15.11 13.01 15.18 13.01 15.24131 13.00682 C 15.31 13 15.37 13 15.43616 12.99295 C 15.5 12.99 15.57 12.98 15.6296 12.97357 C 15.69 12.97 15.76 12.96 15.82116 12.94873 C 15.88 12.94 15.95 12.93 16.01038 12.9185 C 16.07 12.91 16.14 12.9 16.1968 12.88295 C 16.26 12.87 16.32 12.86 16.37998 12.84215 C 16.44 12.83 16.5 12.81 16.55947 12.79622 C 16.62 12.78 16.68 12.76 16.73484 12.74525 C 16.79 12.73 16.85 12.71 16.90566 12.68938 C 16.96 12.67 17.02 12.65 17.07153 12.62874 C 17.18 12.59 17.29 12.54 17.38682 12.49373 C 17.49 12.45 17.59 12.39 17.67767 12.34154 L 41.36575 -1.33478 C 41.41 -1.36 41.46 -1.39 41.50112 -1.41688 C 41.55 -1.44 41.59 -1.47 41.62936 -1.5027 C 41.67 -1.53 41.71 -1.56 41.75015 -1.59206 C 41.79 -1.62 41.83 -1.65 41.8632 -1.68474 C 41.88 -1.7 41.9 -1.72 41.91673 -1.73225 C 41.93 -1.75 41.95 -1.76 41.96823 -1.7805 C 41.99 -1.8 42 -1.81 42.01767 -1.82947 C 42.03 -1.85 42.05 -1.86 42.065 -1.87913 C 42.08 -1.9 42.1 -1.91 42.11022 -1.92944 C 42.12 -1.95 42.14 -1.96 42.15328 -1.98038 C 42.17 -2 42.18 -2.01 42.19416 -2.03191 C 42.21 -2.05 42.22 -2.07 42.23284 -2.08401 C 42.25 -2.1 42.26 -2.12 42.26929 -2.13663 C 42.28 -2.15 42.29 -2.17 42.3035 -2.18976 C 42.31 -2.21 42.33 -2.23 42.33543 -2.24336 C 42.35 -2.26 42.36 -2.28 42.36508 -2.29739 C 42.37 -2.32 42.38 -2.33 42.39242 -2.35183 C 42.4 -2.37 42.41 -2.39 42.41744 -2.40664 C 42.43 -2.42 42.43 -2.44 42.44013 -2.46179 C 42.45 -2.48 42.45 -2.5 42.46046 -2.51724 C 42.47 -2.54 42.47 -2.55 42.47843 -2.57296 C 42.48 -2.59 42.49 -2.61 42.49403 -2.62892 C 42.5 -2.65 42.5 -2.67 42.50724 -2.68508 C 42.51 -2.7 42.51 -2.72 42.51806 -2.74142 C 42.52 -2.76 42.52 -2.78 42.52648 -2.79789 C 42.53 -2.82 42.53 -2.84 42.5325 -2.85446 C 42.53 -2.87 42.54 -2.89 42.53611 -2.9111 C 42.54 -2.93 42.54 -2.95 42.53732 -2.96778 C 42.54 -2.99 42.54 -3.02 42.5354 -3.04932 C 42.53 -3.08 42.53 -3.1 42.52964 -3.13079 C 42.53 -3.16 42.52 -3.19 42.52005 -3.21209 C 42.52 -3.24 42.51 -3.27 42.50663 -3.29314 C 42.5 -3.32 42.5 -3.35 42.48938 -3.37385 C 42.48 -3.4 42.48 -3.43 42.46831 -3.45415 C 42.46 -3.48 42.45 -3.51 42.44343 -3.53395 C 42.43 -3.56 42.42 -3.59 42.41475 -3.61317 C 42.4 -3.64 42.39 -3.68 42.37528 -3.70747 C 42.36 -3.74 42.35 -3.77 42.33038 -3.80067 C 42.31 -3.83 42.3 -3.86 42.28009 -3.89261 C 42.26 -3.92 42.24 -3.95 42.22446 -3.98317 C 42.21 -4.01 42.18 -4.04 42.16354 -4.0722 C 42.14 -4.1 42.12 -4.13 42.0974 -4.15956 C 42.07 -4.19 42.05 -4.22 42.02612 -4.24513 C 42 -4.27 41.98 -4.3 41.94979 -4.32878 C 41.93 -4.35 41.9 -4.38 41.87501 -4.4041 C 41.85 -4.43 41.82 -4.45 41.79611 -4.47759 C 41.77 -4.5 41.74 -4.53 41.71316 -4.54916 C 41.68 -4.57 41.66 -4.6 41.62628 -4.61873 C 41.6 -4.64 41.57 -4.66 41.53556 -4.68622 C 41.5 -4.71 41.47 -4.73 41.44111 -4.75154 C 41.41 -4.77 41.38 -4.79 41.34305 -4.81464 C 41.31 -4.84 41.28 -4.86 41.24148 -4.87543 L -12.14508 -35.69818 C -12.19 -35.72 -12.23 -35.75 -12.27522 -35.77003 C -12.32 -35.79 -12.36 -35.82 -12.41027 -35.83815 C -12.46 -35.86 -12.5 -35.88 -12.54998 -35.90243 C -12.6 -35.92 -12.65 -35.94 -12.6941 -35.96277 C -12.73 -35.98 -12.77 -35.99 -12.80177 -36.00421 C -12.84 -36.02 -12.87 -36.03 -12.91152 -36.04347 C -12.95 -36.06 -12.99 -36.07 -13.02326 -36.08052 C -13.06 -36.09 -13.1 -36.1 -13.13686 -36.11532 C -13.17 -36.13 -13.2 -36.13 -13.23736 -36.14381 C -13.27 -36.15 -13.3 -36.16 -13.33911 -36.17056 C -13.37 -36.18 -13.41 -36.19 -13.44204 -36.19553 C -13.48 -36.2 -13.51 -36.21 -13.54607 -36.21872 C -13.58 -36.23 -13.62 -36.23 -13.65112 -36.24012 C -13.69 -36.25 -13.72 -36.25 -13.7571 -36.2597 C -13.79 -36.27 -13.83 -36.27 -13.86394 -36.27745 C -13.9 -36.28 -13.94 -36.29 -13.97155 -36.29337 C -14.01 -36.3 -14.04 -36.3 -14.07985 -36.30744 C -14.12 -36.31 -14.15 -36.32 -14.18874 -36.31965 C -14.23 -36.32 -14.26 -36.33 -14.29816 -36.32999 C -14.33 -36.33 -14.37 -36.34 -14.40801 -36.33846 C -14.44 -36.34 -14.48 -36.34 -14.51821 -36.34505 C -14.55 -36.35 -14.59 -36.35 -14.62867 -36.34976 C -14.67 -36.35 -14.7 -36.35 -14.7393 -36.35258 C -14.78 -36.35 -14.81 -36.35 -14.85001 -36.35351 C -14.91 -36.35 -14.96 -36.35 -15.02196 -36.35121 C -15.08 -36.35 -15.14 -36.35 -15.19358 -36.34436 C -15.25 -36.34 -15.31 -36.34 -15.36454 -36.33296 C -15.42 -36.33 -15.48 -36.32 -15.53454 -36.31704 C -15.76 -36.29 -15.98 -36.26 -16.19838 -36.20873 C -16.7 -36.1 -17.16 -35.92 -17.55341 -35.69818 L -41.24148 -22.02186 C -41.28 -22 -41.31 -21.98 -41.34318 -21.96098 C -41.38 -21.94 -41.41 -21.92 -41.44137 -21.8978 C -41.47 -21.88 -41.51 -21.85 -41.53593 -21.83238 C -41.57 -21.81 -41.6 -21.79 -41.62676 -21.76479 C -41.66 -21.74 -41.69 -21.72 -41.71373 -21.69512 C -41.74 -21.67 -41.77 -21.65 -41.79676 -21.62344 C -41.82 -21.6 -41.85 -21.57 -41.87573 -21.54983 C -41.9 -21.52 -41.93 -21.5 -41.95057 -21.47439 C -41.97 -21.45 -42 -21.42 -42.02061 -21.39788 C -42.04 -21.37 -42.07 -21.35 -42.0864 -21.31974 C -42.11 -21.29 -42.13 -21.27 -42.1479 -21.24007 C -42.17 -21.21 -42.19 -21.19 -42.20504 -21.15899 C -42.22 -21.13 -42.24 -21.1 -42.25777 -21.07659 C -42.27 -21.05 -42.29 -21.02 -42.30604 -20.99298 C -42.32 -20.96 -42.34 -20.94 -42.34981 -20.90826 C -42.36 -20.88 -42.38 -20.85 -42.38906 -20.82255 C -42.4 -20.79 -42.41 -20.76 -42.42374 -20.73595 C -42.43 -20.71 -42.44 -20.68 -42.45383 -20.64857 C -42.46 -20.62 -42.47 -20.59 -42.47932 -20.56053 C -42.49 -20.53 -42.49 -20.5 -42.50019 -20.47192 C -42.51 -20.44 -42.51 -20.41 -42.51642 -20.38288 C -42.52 -20.35 -42.52 -20.32 -42.52802 -20.2935 C -42.53 -20.26 -42.53 -20.23 -42.53498 -20.2039 C -42.54 -20.17 -42.54 -20.14 -42.53732 -20.1142 C -42.54 -20.1 -42.54 -20.08 -42.53611 -20.05753 C -42.54 -20.04 -42.53 -20.02 -42.5325 -20.00089 C -42.53 -19.98 -42.53 -19.96 -42.52648 -19.94432 C -42.52 -19.93 -42.52 -19.91 -42.51806 -19.88785 C -42.51 -19.87 -42.51 -19.85 -42.50724 -19.83151 C -42.5 -19.81 -42.5 -19.79 -42.49403 -19.77535 C -42.49 -19.76 -42.48 -19.74 -42.47843 -19.71939 C -42.47 -19.7 -42.47 -19.68 -42.46046 -19.66367 C -42.45 -19.65 -42.45 -19.63 -42.44013 -19.60821 C -42.43 -19.59 -42.43 -19.57 -42.41744 -19.55307 C -42.41 -19.53 -42.4 -19.52 -42.39242 -19.49826 C -42.38 -19.48 -42.37 -19.46 -42.36508 -19.44382 C -42.36 -19.43 -42.35 -19.41 -42.33543 -19.38979 C -42.33 -19.37 -42.31 -19.35 -42.3035 -19.33619 C -42.29 -19.32 -42.28 -19.3 -42.26929 -19.28306 C -42.26 -19.27 -42.25 -19.25 -42.23284 -19.23043 C -42.22 -19.21 -42.21 -19.2 -42.19416 -19.17834 C -42.18 -19.16 -42.17 -19.14 -42.15328 -19.12681 C -42.14 -19.11 -42.12 -19.09 -42.11022 -19.07587 C -42.1 -19.06 -42.08 -19.04 -42.065 -19.02556 C -42.05 -19.01 -42.03 -18.99 -42.01767 -18.9759 C -42 -18.96 -41.99 -18.94 -41.96823 -18.92693 C -41.95 -18.91 -41.93 -18.89 -41.91673 -18.87868 C -41.9 -18.86 -41.88 -18.85 -41.8632 -18.83116 C -41.83 -18.8 -41.79 -18.77 -41.75015 -18.73849 C -41.71 -18.71 -41.67 -18.68 -41.62936 -18.64913 C -41.59 -18.62 -41.55 -18.59 -41.50112 -18.5633 C -41.46 -18.54 -41.41 -18.51 -41.36575 -18.48121 Z M 12.02082 32.09905 L 12.02082 12.34154 M -11.66726 18.42274 L 12.02082 32.09905 A 4 2.3094 180 0 0 17.67767 32.09905 L 41.36575 18.42274 A 4 2.3094 180 0 0 42.53732 16.78974 M -11.66726 18.21861 L -11.66726 18.42274 M -17.67767 14.7485 L -11.66726 18.21861 M -17.67767 14.7485 L -17.67767 14.95262 L -16.15739 15.83036 A 1.85 1.0681 180 0 0 -15.32392 16.10744 M -42.53732 -0.35669 A 4 2.3094 180 0 0 -41.36575 1.27631 M 17.67767 32.09905 L 17.67767 12.34154 M 12.02082 32.09905 L 13.54109 32.97679 A 1.85 1.0681 180 0 0 16.15739 32.97679 L 17.67767 32.09905 M 12.02082 32.09905 L 13.54109 32.97679 L 13.54109 34.44648 A 1.85 1.0681 180 0 0 16.15739 34.44648 L 16.15739 32.97679 L 17.67767 32.09905 M -12.47474 17.75242 A 4 2.3094 180 0 0 -11.66726 18.42274 M -17.67767 14.95262 L -16.15739 15.83036 L -16.15739 17.30005 A 1.85 1.0681 180 0 0 -13.54109 17.30005 L -13.54109 17.13675 M -40.64148 -19.24577 L 12.74508 11.57697 A 0.6 0.34641 300 0 0 12.02082 12.34154 M 41.36575 18.42274 L 41.36575 -1.33478 M -10.14698 20.77016 L 13.54109 34.44648 L 14.10678 34.77308 A 1.05 0.60622 180 0 0 15.5917 34.77308 L 16.15739 34.44648 L 39.84547 20.77016 A 1.85 1.0681 180 0 0 40.38732 20.0149 L 40.38732 18.98763 M -39.84547 3.62373 L -16.15739 17.30005 L -15.5917 17.62665 A 1.05 0.60622 180 0 0 -14.10678 17.62665 L -13.54109 17.30005 L -13.39967 17.2184 M -40.38732 2.86848 A 1.85 1.0681 180 0 0 -39.84547 3.62373 M -39.97047 -18.85836 L -40.64148 -19.24577 A 0.6 0.34641 300 0 0 -41.36575 -18.48121 M -10.68883 20.0149 A 1.85 1.0681 180 0 0 -10.14698 20.77016 M -39.97047 -20.51322 A 2.02678 1.17016 180 0 0 -40.5641 -19.68579 A 2.02678 1.17016 180 0 0 -39.97047 -18.85836 M 16.95341 11.57697 L 40.64148 -2.09935 A 0.6 0.34641 240 0 1 41.36575 -1.33478 M -16.28239 -34.18954 L -39.97047 -20.51322 L -40.64148 -21.67545 A 0.6 0.34641 60 0 0 -41.24148 -22.02186 M -39.97047 -19.04353 A 2.02678 1.17016 180 0 0 -40.1146 -18.95094 M 39.97047 -1.71194 L 40.64148 -2.09935 C 40.68 -2.12 40.71 -2.14 40.74219 -2.16042 C 40.77 -2.18 40.81 -2.2 40.83759 -2.22427 C 40.87 -2.25 40.9 -2.27 40.92745 -2.29075 C 40.96 -2.31 40.98 -2.34 41.01155 -2.35969 C 41.04 -2.38 41.06 -2.41 41.08969 -2.43093 C 41.11 -2.46 41.14 -2.48 41.16168 -2.5043 C 41.18 -2.53 41.21 -2.55 41.22735 -2.57963 C 41.25 -2.61 41.27 -2.63 41.28654 -2.65672 C 41.31 -2.68 41.32 -2.71 41.33911 -2.7354 C 41.36 -2.76 41.37 -2.79 41.38492 -2.81547 C 41.4 -2.84 41.41 -2.87 41.42388 -2.89674 C 41.44 -2.92 41.45 -2.95 41.45588 -2.97901 C 41.47 -3.01 41.47 -3.03 41.48085 -3.0621 C 41.49 -3.09 41.49 -3.12 41.49873 -3.14579 C 41.5 -3.17 41.51 -3.2 41.50947 -3.22989 C 41.51 -3.26 41.51 -3.29 41.51306 -3.31419 C 41.51 -3.34 41.51 -3.37 41.50947 -3.39849 C 41.51 -3.43 41.5 -3.45 41.49873 -3.48258 C 41.49 -3.51 41.49 -3.54 41.48085 -3.56627 C 41.47 -3.59 41.47 -3.62 41.45588 -3.64936 C 41.45 -3.68 41.44 -3.7 41.42388 -3.73163 C 41.41 -3.76 41.4 -3.79 41.38492 -3.81291 C 41.37 -3.84 41.36 -3.87 41.33911 -3.89298 C 41.32 -3.92 41.31 -3.95 41.28654 -3.97165 C 41.27 -4 41.25 -4.02 41.22735 -4.04874 C 41.21 -4.07 41.18 -4.1 41.16168 -4.12407 C 41.14 -4.15 41.11 -4.17 41.08969 -4.19744 C 41.06 -4.22 41.04 -4.25 41.01155 -4.26868 C 40.96 -4.32 40.9 -4.36 40.83759 -4.4041 C 40.78 -4.45 40.71 -4.49 40.64148 -4.52902 C 40.65 -4.54 40.65 -4.55 40.65656 -4.55431 C 40.66 -4.56 40.67 -4.57 40.67233 -4.57912 C 40.68 -4.59 40.68 -4.6 40.68875 -4.60339 C 40.69 -4.61 40.7 -4.62 40.70577 -4.62707 C 40.71 -4.63 40.72 -4.64 40.72337 -4.65009 C 40.73 -4.66 40.74 -4.67 40.74148 -4.6724 C 40.75 -4.68 40.75 -4.69 40.76009 -4.69395 C 40.77 -4.7 40.77 -4.71 40.77912 -4.71469 C 40.79 -4.72 40.79 -4.73 40.79855 -4.73456 C 40.81 -4.74 40.81 -4.75 40.81832 -4.75352 C 40.82 -4.76 40.83 -4.77 40.83839 -4.77152 C 40.85 -4.78 40.85 -4.78 40.85871 -4.78852 C 40.87 -4.79 40.87 -4.8 40.87923 -4.80447 C 40.89 -4.81 40.89 -4.81 40.8999 -4.81935 C 40.91 -4.82 40.91 -4.83 40.92066 -4.83311 C 40.93 -4.84 40.93 -4.84 40.94148 -4.84572 C 40.95 -4.85 40.96 -4.85 40.9623 -4.85715 C 40.97 -4.86 40.98 -4.86 40.98307 -4.86737 C 40.99 -4.87 41 -4.87 41.00374 -4.87636 C 41.01 -4.88 41.02 -4.88 41.02425 -4.88409 C 41.03 -4.89 41.04 -4.89 41.04457 -4.89055 C 41.05 -4.89 41.06 -4.89 41.06464 -4.89573 C 41.07 -4.9 41.08 -4.9 41.08441 -4.8996 C 41.09 -4.9 41.1 -4.9 41.10384 -4.90216 C 41.11 -4.9 41.12 -4.9 41.12288 -4.90341 C 41.13 -4.9 41.14 -4.9 41.14148 -4.90334 C 41.15 -4.9 41.15 -4.9 41.1596 -4.90195 C 41.17 -4.9 41.17 -4.9 41.17719 -4.89924 C 41.19 -4.9 41.2 -4.89 41.21063 -4.88991 C 41.22 -4.89 41.23 -4.88 41.24148 -4.87543 M 39.97047 -3.36679 L -13.41609 -34.18954 L -12.74508 -35.35177 A 0.6 0.34641 120 0 1 -12.14508 -35.69818 M -13.41609 -34.18954 A 2.02678 1.17016 180 0 0 -16.28239 -34.18954 L -16.95341 -35.35177 C -16.96 -35.36 -16.96 -35.37 -16.96849 -35.37706 C -16.97 -35.39 -16.98 -35.39 -16.98425 -35.40187 C -16.99 -35.41 -17 -35.42 -17.00067 -35.42614 C -17.01 -35.43 -17.01 -35.44 -17.0177 -35.44981 C -17.02 -35.46 -17.03 -35.47 -17.03529 -35.47283 C -17.04 -35.48 -17.05 -35.49 -17.05341 -35.49515 C -17.06 -35.5 -17.07 -35.51 -17.07201 -35.5167 C -17.08 -35.52 -17.08 -35.53 -17.09105 -35.53743 C -17.1 -35.54 -17.1 -35.55 -17.11047 -35.5573 C -17.12 -35.56 -17.12 -35.57 -17.13025 -35.57626 C -17.14 -35.58 -17.14 -35.59 -17.15032 -35.59426 C -17.16 -35.6 -17.16 -35.61 -17.17064 -35.61126 C -17.18 -35.62 -17.18 -35.62 -17.19115 -35.62722 C -17.2 -35.63 -17.2 -35.64 -17.21182 -35.6421 C -17.22 -35.65 -17.23 -35.65 -17.23259 -35.65585 C -17.24 -35.66 -17.25 -35.66 -17.25341 -35.66846 C -17.26 -35.67 -17.27 -35.68 -17.27422 -35.67989 C -17.28 -35.68 -17.29 -35.69 -17.29499 -35.69011 C -17.3 -35.69 -17.31 -35.7 -17.31566 -35.6991 C -17.32 -35.7 -17.33 -35.7 -17.33618 -35.70684 C -17.34 -35.71 -17.35 -35.71 -17.35649 -35.7133 C -17.36 -35.72 -17.37 -35.72 -17.37656 -35.71847 C -17.38 -35.72 -17.39 -35.72 -17.39634 -35.72235 C -17.4 -35.72 -17.41 -35.72 -17.41576 -35.72491 C -17.42 -35.73 -17.43 -35.73 -17.4348 -35.72616 C -17.44 -35.73 -17.45 -35.73 -17.4534 -35.72609 C -17.46 -35.73 -17.47 -35.73 -17.47152 -35.72469 C -17.48 -35.72 -17.48 -35.72 -17.48911 -35.72199 C -17.5 -35.72 -17.51 -35.72 -17.52256 -35.71266 C -17.53 -35.71 -17.54 -35.7 -17.55341 -35.69818 M -16.28239 -32.71984 L -39.97047 -19.04353 L -39.97047 -20.51322 M 39.97047 -1.71194 A 2.02678 1.17016 180 0 0 40.5641 -2.53936 A 2.02678 1.17016 180 0 0 39.97047 -3.36679 L 40.64148 -4.52902 L -12.74508 -35.35177 C -12.78 -35.37 -12.81 -35.39 -12.85086 -35.40992 C -12.89 -35.43 -12.92 -35.45 -12.96145 -35.465 C -13 -35.48 -13.04 -35.5 -13.07659 -35.51688 C -13.12 -35.53 -13.16 -35.55 -13.19601 -35.56543 C -13.24 -35.58 -13.28 -35.6 -13.3194 -35.61055 C -13.36 -35.62 -13.4 -35.64 -13.44649 -35.65211 C -13.49 -35.67 -13.53 -35.68 -13.57695 -35.69002 C -13.62 -35.7 -13.67 -35.71 -13.71048 -35.7242 C -13.76 -35.73 -13.8 -35.75 -13.84675 -35.75454 C -13.89 -35.76 -13.94 -35.77 -13.98543 -35.781 C -14.03 -35.79 -14.08 -35.8 -14.1262 -35.80349 C -14.17 -35.81 -14.22 -35.82 -14.26871 -35.82196 C -14.32 -35.83 -14.36 -35.83 -14.41262 -35.83638 C -14.46 -35.84 -14.51 -35.84 -14.55757 -35.8467 C -14.61 -35.85 -14.65 -35.85 -14.70323 -35.8529 C -14.75 -35.85 -14.8 -35.85 -14.84924 -35.85497 C -14.9 -35.85 -14.95 -35.85 -14.99525 -35.8529 C -15.04 -35.85 -15.09 -35.85 -15.14091 -35.8467 C -15.19 -35.84 -15.24 -35.84 -15.28587 -35.83638 C -15.33 -35.83 -15.38 -35.83 -15.42978 -35.82196 C -15.48 -35.82 -15.53 -35.81 -15.57228 -35.80349 C -15.62 -35.8 -15.67 -35.79 -15.71305 -35.781 C -15.76 -35.77 -15.81 -35.76 -15.85174 -35.75454 C -15.9 -35.75 -15.94 -35.73 -15.98801 -35.7242 C -16.03 -35.71 -16.08 -35.7 -16.12154 -35.69002 C -16.17 -35.68 -16.21 -35.67 -16.252 -35.65211 C -16.29 -35.64 -16.34 -35.62 -16.37908 -35.61055 C -16.42 -35.6 -16.46 -35.58 -16.50248 -35.56543 C -16.58 -35.53 -16.66 -35.5 -16.73703 -35.465 C -16.81 -35.43 -16.88 -35.39 -16.95341 -35.35177 L -40.64148 -21.67545 C -40.68 -21.66 -40.71 -21.64 -40.74219 -21.61438 C -40.77 -21.59 -40.81 -21.57 -40.83759 -21.55053 C -40.87 -21.53 -40.9 -21.51 -40.92745 -21.48405 C -40.96 -21.46 -40.98 -21.44 -41.01155 -21.41511 C -41.04 -21.39 -41.06 -21.37 -41.08969 -21.34387 C -41.11 -21.32 -41.14 -21.3 -41.16168 -21.2705 C -41.18 -21.25 -41.21 -21.22 -41.22735 -21.19517 C -41.25 -21.17 -41.27 -21.14 -41.28654 -21.11808 C -41.31 -21.09 -41.32 -21.07 -41.33911 -21.0394 C -41.36 -21.01 -41.37 -20.99 -41.38492 -20.95933 C -41.4 -20.93 -41.41 -20.91 -41.42388 -20.87806 C -41.44 -20.85 -41.45 -20.82 -41.45588 -20.79578 C -41.47 -20.77 -41.47 -20.74 -41.48085 -20.7127 C -41.49 -20.68 -41.49 -20.66 -41.49873 -20.62901 C -41.5 -20.6 -41.51 -20.57 -41.50947 -20.54491 C -41.51 -20.52 -41.51 -20.49 -41.51306 -20.46061 C -41.51 -20.43 -41.51 -20.4 -41.50947 -20.37631 C -41.51 -20.35 -41.5 -20.32 -41.49873 -20.29222 C -41.49 -20.26 -41.49 -20.24 -41.48085 -20.20853 C -41.47 -20.18 -41.47 -20.15 -41.45588 -20.12544 C -41.45 -20.1 -41.44 -20.07 -41.42388 -20.04317 C -41.41 -20.02 -41.4 -19.99 -41.38492 -19.96189 C -41.37 -19.93 -41.36 -19.91 -41.33911 -19.88182 C -41.32 -19.86 -41.31 -19.83 -41.28654 -19.80315 C -41.27 -19.78 -41.25 -19.75 -41.22735 -19.72605 C -41.21 -19.7 -41.18 -19.68 -41.16168 -19.65073 C -41.14 -19.63 -41.11 -19.6 -41.08969 -19.57736 C -41.06 -19.55 -41.04 -19.53 -41.01155 -19.50612 C -40.96 -19.46 -40.9 -19.41 -40.83759 -19.3707 C -40.78 -19.33 -40.71 -19.29 -40.64148 -19.24577 M 39.97047 -1.8971 L -13.41609 -32.71984 L -13.41609 -34.18954 M -13.41609 -32.71984 A 2.02678 1.17016 180 0 0 -16.28239 -32.71984 L -16.28239 -34.18954 M -15.7167 -31.74005 L -38.99945 -18.29775 M 40.1146 -1.80452 A 2.02678 1.17016 180 0 0 39.97047 -1.8971 L 39.97047 -3.36679 M 38.99945 -1.15132 L -13.98178 -31.74005 L -13.41609 -32.71984 M -13.98178 -31.74005 A 1.22678 0.70828 180 0 0 -15.7167 -31.74005 L -16.28239 -32.71984 M -15.7167 -30.76025 L -38.15092 -17.80785 M 38.15092 -0.66142 L -13.98178 -30.76025 L -13.98178 -31.74005 M -13.98178 -30.76025 A 1.22678 0.70828 180 0 0 -15.7167 -30.76025 L -15.7167 -31.74005 M 26.23617 6.21756 L -12.86934 -16.36002 L -12.86934 -30.11799 A 2.8 1.61658 180 0 0 -16.82914 -30.11799 M -16.82914 -16.36002 A 2.8 1.61658 360 0 1 -12.86934 -16.36002 M -16.82914 -16.36002 L -26.23617 -10.92887 M -10.14698 19.30047 L -10.14698 20.77016 M -39.84547 2.15404 L -39.84547 3.62373 M 16.95341 11.57697 C 16.96 11.57 16.97 11.57 16.97629 11.56564 C 16.98 11.56 16.99 11.56 17.00067 11.55718 C 17.01 11.55 17.02 11.55 17.02642 11.55165 C 17.04 11.55 17.04 11.55 17.05341 11.54907 C 17.06 11.55 17.07 11.55 17.08148 11.54945 C 17.09 11.55 17.1 11.55 17.11047 11.5528 C 17.12 11.55 17.13 11.56 17.14025 11.5591 C 17.15 11.56 17.16 11.56 17.17064 11.56831 C 17.18 11.57 17.19 11.58 17.20147 11.58039 C 17.21 11.58 17.22 11.59 17.23259 11.59526 C 17.24 11.6 17.25 11.61 17.26382 11.61285 C 17.27 11.62 17.28 11.63 17.29499 11.63306 C 17.31 11.64 17.32 11.65 17.32594 11.65578 C 17.34 11.66 17.35 11.67 17.35649 11.68089 C 17.37 11.69 17.38 11.7 17.38649 11.70825 C 17.4 11.72 17.41 11.73 17.41576 11.73772 C 17.43 11.75 17.43 11.76 17.44416 11.76913 C 17.45 11.78 17.46 11.79 17.47152 11.80232 C 17.48 11.81 17.49 11.83 17.4977 11.8371 C 17.51 11.85 17.51 11.86 17.52256 11.87328 C 17.53 11.89 17.54 11.9 17.54595 11.91068 C 17.55 11.92 17.56 11.94 17.56776 11.94909 C 17.57 11.96 17.58 11.98 17.58787 11.98829 C 17.59 12 17.6 12.01 17.60617 12.02808 C 17.61 12.04 17.62 12.05 17.62255 12.06824 C 17.63 12.08 17.63 12.1 17.63694 12.10856 C 17.64 12.12 17.65 12.14 17.64924 12.14881 C 17.65 12.16 17.66 12.18 17.6594 12.18878 C 17.67 12.22 17.67 12.24 17.67308 12.267 C 17.68 12.29 17.68 12.32 17.67767 12.34154 M 39.84547 19.30047 L 39.84547 20.77016 M -39.81011 -18.76578 L -39.97047 -19.04353 M 39.81011 -1.61935 L 39.97047 -1.8971 M -16.82914 -16.36002 L -16.82914 -30.11799 M -42.53732 -20.1142 L -42.53732 -0.35669 M -40.38732 2.86848 L -40.38732 1.8412 M 12.74508 11.57697 C 12.76 11.59 12.78 11.6 12.80132 11.60853 C 12.82 11.62 12.84 11.63 12.85977 11.63953 C 12.88 11.65 12.9 11.66 12.92039 11.6699 C 12.94 11.68 12.96 11.69 12.9831 11.69955 C 13 11.71 13.03 11.72 13.04786 11.72842 C 13.07 11.74 13.09 11.75 13.11457 11.75646 C 13.14 11.77 13.16 11.77 13.18318 11.78358 C 13.21 11.79 13.23 11.8 13.25361 11.80975 C 13.28 11.82 13.32 11.83 13.34748 11.84216 C 13.38 11.85 13.41 11.86 13.4441 11.87275 C 13.48 11.88 13.51 11.89 13.54328 11.90142 C 13.58 11.91 13.61 11.92 13.64483 11.9281 C 13.67 11.93 13.69 11.94 13.71521 11.94506 C 13.74 11.95 13.76 11.96 13.78653 11.96103 C 13.81 11.97 13.83 11.97 13.85874 11.97599 C 13.88 11.98 13.91 11.99 13.93178 11.98992 C 13.96 11.99 13.98 12 14.00559 12.0028 C 14.03 12.01 14.06 12.01 14.0801 12.01462 C 14.11 12.02 14.13 12.02 14.15525 12.02535 C 14.18 12.03 14.21 12.03 14.23097 12.03499 C 14.26 12.04 14.28 12.04 14.30721 12.04352 C 14.33 12.05 14.36 12.05 14.3839 12.05093 C 14.41 12.05 14.44 12.06 14.46097 12.05722 C 14.49 12.06 14.51 12.06 14.53837 12.06237 C 14.56 12.06 14.59 12.07 14.61602 12.06638 C 14.64 12.07 14.67 12.07 14.69386 12.06925 C 14.72 12.07 14.75 12.07 14.77183 12.07096 C 14.8 12.07 14.82 12.07 14.84987 12.07153 C 15.26 12.07 15.68 12.02 16.04757 11.92961 C 16.4 11.84 16.71 11.72 16.95341 11.57697 M 42.53732 -2.96778 L 42.53732 16.78974 M -10.68883 20.0149 L -10.68883 18.98763" />
  </svg>