<svg 
     version="1.1" 
     xmlns="http://www.w3.org/2000/svg" 
     viewBox="-32.89051683151331 -18.02395471234311 62.12884753295681 38.49739916746937" 
     fill="none" 
     stroke="black" 
     stroke-width="0.2%" 
     vector-effect="non-scaling-stroke">
  <path d="M -14.91995 19.31014 L 13.43503 2.93939 A 7.5 4.33013 360 0 1 16.06701 1.9551 M -14.91995 3.63341 L 13.43503 -12.73735 A 7.5 4.33013 360 0 1 26.23833 -9.67548 A 7.5 4.33013 360 0 1 24.04163 -6.61362 M -14.91995 19.31014 L -14.91995 3.63341 L -15.48564 3.63341 M -15.2028 19.47344 L -14.91995 19.31014 L -15.48564 19.31014 L -15.48564 3.63341 M -15.2028 3.14351 L -14.91995 3.63341 M -15.2028 3.14351 L 13.15219 -13.22724 A 7.9 4.56107 360 0 1 24.32447 -6.77692 L 18.59691 -3.47011 M 13.15219 3.10269 A 7.9 4.56107 360 0 1 16.0449 2.04006 M 18.04912 -3.02223 L 18.31407 -3.30681 L 18.59691 -3.47011 M 15.48564 6.16455 A 14.1 8.14064 120 0 1 18.04912 -3.02223 L 18.12185 -2.95625 L 18.59691 -3.47011 M -15.2028 19.47344 L -15.48564 19.31014 M -15.2028 3.14351 L -15.48564 3.63341 M -31.60767 -6.32785 L -15.2028 3.14351 M -13.08148 -17.02395 L -31.60767 -6.32785 L -31.89052 -5.83795 L -31.89052 -6.16455 M -12.23295 -16.53406 L -13.08148 -17.02395 M 19.44544 -2.98021 L 18.59691 -3.47011 M -29.34493 -6.65445 L -12.23295 -16.53406 L -11.9501 -16.37076 M 19.44544 -2.98021 L 25.173 -6.28702 L 25.45584 -5.79713 A 9.5 5.48483 180 0 0 28.23833 -9.67548 L 28.23833 6.00125 M -29.34493 -6.65445 L -29.34493 -6.00125 M 25.173 -6.28702 A 9.1 5.25389 180 0 0 25.173 -13.71714 L 25.45584 -13.55384 M 25.173 -13.71714 A 9.1 5.25389 180 0 0 12.30366 -13.71714 L -14.63711 1.83712 M -15.76848 1.83712 L -29.34493 -6.00125 M -15.76848 1.83712 L -14.63711 1.83712 M -31.89052 9.83878 L -15.48564 19.31014 M -31.89052 -5.83795 L -15.48564 3.63341 M -31.89052 9.83878 L -31.89052 -5.83795 M 18.12185 12.89451 A 14.5 8.37158 120 0 1 15.48564 6.49115 A 14.5 8.37158 120 0 1 18.12185 -2.95625 M 18.97037 13.38441 L 19.44544 13.34972 M 18.97037 13.38441 L 18.12185 12.89451 M -15.76848 1.83712 L -11.9501 -0.36742 L -11.9501 -16.04416 L -12.23295 -16.53406 M 19.72828 13.18642 L 19.44544 13.34972 M 19.72828 13.18642 L 25.45584 9.87961 L 25.45584 -5.79713 M 25.45584 9.87961 A 9.5 5.48483 180 0 0 28.23833 6.00125 M -31.60767 -6.32785 L -31.89052 -6.16455 M 18.97037 -2.46635 L 19.44544 -2.98021 M 18.97037 -2.46635 L 18.12185 -2.95625 M -29.34493 -6.65445 L -29.06209 -6.16455 L -29.06209 -5.83795 M -29.06209 -6.16455 L -11.9501 -16.04416 L -11.9501 -16.37076 M 19.72828 -2.49031 L 19.44544 -2.98021 M 19.72828 -2.49031 L 25.45584 -5.79713 M 28.23833 -9.67548 A 9.5 5.48483 180 0 0 25.45584 -13.55384 M 18.97037 -2.46635 A 14.5 8.37158 300 0 0 18.97037 13.38441 M 19.46334 13.20777 L 18.97037 13.38441 M 19.46334 13.20777 L 19.72828 13.18642 M 19.46334 -2.20573 L 19.72828 -2.49031 M 19.46334 -2.20573 A 14.1 8.14064 300 0 0 19.46334 13.20777 M 19.46334 -2.20573 L 18.97037 -2.46635 M 13.43503 2.93939 L 13.43503 -12.73735 L 13.15219 -13.22724 M 15.48564 6.16455 L 15.48564 6.49115" />
  </svg>