<svg 
     version="1.1" 
     xmlns="http://www.w3.org/2000/svg" 
     viewBox="-112.89444742404866 -63.07115036287271 225.78889484809736 132.02107610842506" 
     fill="none" 
     stroke="black" 
     stroke-width="0.2%" 
     vector-effect="non-scaling-stroke">
  <path d="M 20.85329 8.58422 A 3 1.73205 300 0 0 20.75098 8.51648 A 3 1.73205 300 0 0 17.34179 13.28454 M 17.37455 6.5671 A 3 1.73205 300 0 0 14.37455 11.76325 L 17.34179 13.47639 M 30.59744 19.78833 L 44.83057 28.00583 A 3 1.73205 180 0 0 49.07321 28.00583 L 111.01577 -7.75672 A 3 1.73205 180 0 0 111.89445 -8.98146 M -43.58793 -23.76005 A 3 1.73205 180 0 0 -42.70925 -22.53531 L -32.12125 -16.42232 M -15.29379 -6.70698 L 13.76998 10.07299 M 75.73114 -21.02479 L 56.2857 -9.79796 M 79.97378 -21.02479 A 3 1.73205 180 0 0 75.73114 -21.02479 L 75.73114 -21.84128 L 55.57859 -10.20621 M 99.41921 -9.79796 L 79.97378 -21.02479 L 79.97378 -21.84128 A 3 1.73205 180 0 0 75.73114 -21.84128 M -11.66726 -37.84462 L -31.1127 -26.61779 M -7.42462 -37.84462 A 3 1.73205 180 0 0 -11.66726 -37.84462 L -11.66726 -38.66111 L -31.8198 -27.02604 M 12.02082 -26.61779 L -7.42462 -37.84462 L -7.42462 -38.66111 A 3 1.73205 180 0 0 -11.66726 -38.66111 M 17.46554 -21.02479 L -1.9799 -9.79796 M 21.70818 -21.02479 A 3 1.73205 180 0 0 17.46554 -21.02479 L 17.46554 -21.84128 L -2.68701 -10.20621 M 41.15362 -9.79796 L 21.70818 -21.02479 L 21.70818 -21.84128 A 3 1.73205 180 0 0 17.46554 -21.84128 M 46.59834 -4.20496 L 27.1529 7.02187 M 50.84098 -4.20496 A 3 1.73205 180 0 0 46.59834 -4.20496 L 46.59834 -5.02145 L 26.44579 6.61362 M 70.28641 7.02187 L 50.84098 -4.20496 L 50.84098 -5.02145 A 3 1.73205 180 0 0 46.59834 -5.02145 M 17.46554 -54.66445 L -1.9799 -43.43762 M 21.70818 -54.66445 A 3 1.73205 180 0 0 17.46554 -54.66445 L 17.46554 -55.48094 L -2.68701 -43.84587 M 41.15362 -43.43762 L 21.70818 -54.66445 L 21.70818 -55.48094 A 3 1.73205 180 0 0 17.46554 -55.48094 M 46.59834 -37.84462 L 27.1529 -26.61779 M 50.84098 -37.84462 A 3 1.73205 180 0 0 46.59834 -37.84462 L 46.59834 -38.66111 L 26.44579 -27.02604 M 70.28641 -26.61779 L 50.84098 -37.84462 L 50.84098 -38.66111 A 3 1.73205 180 0 0 46.59834 -38.66111 M -42.70925 -25.80129 A 3 1.73205 180 0 0 -43.58793 -24.57655 A 3 1.73205 180 0 0 -42.70925 -23.3518 L -31.97161 -17.15242 M 19.23331 -61.56384 L 16.05132 -59.72673 M -6.01041 -46.98938 L -13.08147 -42.9069 M -35.14321 -30.16955 L -42.70925 -25.80129 M 23.47595 -61.56384 A 3 1.73205 180 0 0 19.23331 -61.56384 M 111.01577 -11.0227 L 103.44972 -15.39096 M 81.16477 -28.25719 L 74.31692 -32.21079 M 52.81083 -44.62734 L 49.93283 -46.28895 M 23.67803 -61.44717 L 23.47595 -61.56384 M 111.01577 -8.57321 A 3 1.73205 180 0 0 111.89445 -9.79796 A 3 1.73205 180 0 0 111.01577 -11.0227 M 49.07321 27.18934 L 111.01577 -8.57321 M 44.83057 27.18934 A 3 1.73205 180 0 0 49.07321 27.18934 M 30.951 19.17596 L 44.83057 27.18934 M -14.94023 -7.31935 L 13.91962 9.34289 M -35.14321 -23.06603 L -29.71182 -19.93022 M -13.80362 -10.89155 L -13.08147 -11.30848 L -13.08147 -15.39096 A 1 0.57735 60 0 0 -13.78858 -16.61571 L -33.58757 -28.04666 L -13.08147 -39.88586 L -13.08147 -43.96834 A 1 0.57735 300 0 0 -13.28858 -44.42612 A 1 0.57735 300 0 0 -13.78858 -44.37659 L -14.63711 -44.86649 L -34.4361 -33.43554 L -33.58757 -32.94564 L -13.78858 -44.37659 M -35.14321 -28.12831 L -34.58757 -27.80751 M -13.08147 -13.34972 L -11.66726 -12.53322 A 3 1.73205 180 0 0 -7.42462 -12.53322 L -6.01041 -13.34972 M 12.72792 -27.02604 L -7.42462 -38.66111 M -6.01041 -11.30848 L -5.45477 -10.98768 M -4.45477 -11.22683 L 16.05132 -23.06603 L 16.05132 -27.14851 A 1 0.57735 300 0 0 15.84422 -27.60629 A 1 0.57735 300 0 0 15.34422 -27.55676 L 14.49569 -28.04666 L -5.3033 -16.61571 L -4.45477 -16.12581 L 15.34422 -27.55676 M -6.01041 -39.88586 L 14.49569 -28.04666 M 15.49569 -27.80751 L 16.05132 -28.12831 L 16.05132 -32.21079 A 1 0.57735 60 0 0 15.34422 -33.43554 L -4.45477 -44.86649 L 16.05132 -56.70569 L 16.05132 -60.78817 A 1 0.57735 300 0 0 15.84422 -61.24595 L 14.99569 -61.73585 A 1 0.57735 300 0 0 14.49569 -61.68632 L -5.3033 -50.25536 L -4.45477 -49.76547 L 15.34422 -61.19642 L 14.49569 -61.68632 M -6.01041 -6.2462 L 15.2028 6.00125 L 15.2028 1.91877 L 16.05132 1.42887 A 1 0.57735 60 0 0 15.34422 0.20412 L -4.45477 -11.22683 L -5.3033 -10.73693 L 14.49569 0.69402 L 15.34422 0.20412 M 15.2028 6.00125 L 16.05132 5.51135 L 16.05132 1.42887 M 16.05132 3.47011 L 17.46554 4.28661 A 3 1.73205 180 0 0 21.70818 4.28661 L 23.12239 3.47011 M 41.86072 -10.20621 L 21.70818 -21.84128 M 23.12239 5.51135 L 23.67803 5.83215 M 24.67803 5.593 L 45.18412 -6.2462 L 45.18412 -10.32868 A 1 0.57735 300 0 0 44.97702 -10.78646 A 1 0.57735 300 0 0 44.47702 -10.73693 L 43.62849 -11.22683 L 23.8295 0.20412 L 24.67803 0.69402 L 44.47702 -10.73693 M 32.11598 15.76608 L 44.3356 22.82108 L 44.3356 18.7386 L 45.18412 18.2487 A 1 0.57735 60 0 0 44.47702 17.02395 L 24.67803 5.593 L 23.8295 6.0829 L 43.62849 17.51385 L 44.47702 17.02395 M 44.3356 22.82108 L 45.18412 22.33118 L 45.18412 18.2487 M 45.18412 20.28994 L 46.59834 21.10644 A 3 1.73205 180 0 0 50.84098 21.10644 L 52.25519 20.28994 M 70.99352 6.61362 L 50.84098 -5.02145 M 52.25519 22.33118 L 53.10372 22.82108 L 53.10372 18.7386 A 1 0.57735 120 0 1 53.81083 17.51385 L 73.60982 6.0829 L 72.76129 5.593 L 52.9623 17.02395 L 53.81083 17.51385 M 53.10372 22.82108 L 74.31692 10.57363 L 74.31692 6.49115 A 1 0.57735 300 0 0 74.10982 6.03337 A 1 0.57735 300 0 0 73.60982 6.0829 M 23.12239 -23.06603 L 43.62849 -11.22683 M 44.62849 -10.98768 L 45.18412 -11.30848 L 45.18412 -15.39096 A 1 0.57735 60 0 0 44.47702 -16.61571 L 24.67803 -28.04666 L 45.18412 -39.88586 L 45.18412 -43.96834 A 1 0.57735 300 0 0 44.97702 -44.42612 L 44.12849 -44.91602 A 1 0.57735 300 0 0 43.62849 -44.86649 L 23.8295 -33.43554 L 24.67803 -32.94564 L 44.47702 -44.37659 L 43.62849 -44.86649 M 52.25519 -6.2462 L 72.76129 5.593 M 73.76129 5.83215 L 74.31692 5.51135 L 74.31692 1.42887 A 1 0.57735 60 0 0 73.60982 0.20412 L 53.81083 -11.22683 L 52.9623 -10.73693 L 72.76129 0.69402 L 73.60982 0.20412 M -6.01041 -44.94814 L -5.45477 -44.62734 M 16.05132 -30.16955 L 17.46554 -29.35305 A 3 1.73205 180 0 0 21.70818 -29.35305 L 23.12239 -30.16955 M 41.86072 -43.84587 L 21.70818 -55.48094 M 23.12239 -28.12831 L 23.67803 -27.80751 M 23.12239 -56.70569 L 43.62849 -44.86649 M 44.62849 -44.62734 L 45.18412 -44.94814 L 45.18412 -49.03062 A 1 0.57735 60 0 0 44.47702 -50.25536 L 24.67803 -61.68632 L 23.8295 -61.19642 L 43.62849 -49.76547 L 44.47702 -50.25536 M 45.18412 -46.58113 L 48.96715 -44.397 A 0.4 0.23094 180 0 0 49.53283 -44.397 L 49.81567 -44.5603 A 0.4 0.23094 180 0 0 49.93283 -44.7236 M 45.18412 -13.34972 L 46.59834 -12.53322 A 3 1.73205 180 0 0 50.84098 -12.53322 L 52.25519 -13.34972 M 70.99352 -27.02604 L 50.84098 -38.66111 M 52.25519 -11.30848 L 52.81083 -10.98768 M 53.81083 -11.22683 L 74.31692 -23.06603 L 74.31692 -27.14851 A 1 0.57735 300 0 0 74.10982 -27.60629 L 73.26129 -28.09619 A 1 0.57735 300 0 0 72.76129 -28.04666 L 52.9623 -16.61571 L 53.81083 -16.12581 L 73.60982 -27.55676 L 72.76129 -28.04666 M 74.31692 3.47011 L 75.73114 4.28661 A 3 1.73205 180 0 0 79.97378 4.28661 L 81.38799 3.47011 M 100.12632 -10.20621 L 79.97378 -21.84128 M 81.38799 5.51135 L 82.23652 6.00125 L 82.23652 1.91877 A 1 0.57735 120 0 1 82.94363 0.69402 L 102.74262 -10.73693 L 101.89409 -11.22683 L 82.0951 0.20412 L 82.94363 0.69402 M 82.23652 6.00125 L 103.44972 -6.2462 L 103.44972 -10.32868 A 1 0.57735 300 0 0 103.24262 -10.78646 L 102.39409 -11.27636 A 1 0.57735 300 0 0 101.89409 -11.22683 M 52.25519 -39.88586 L 72.76129 -28.04666 M 73.76129 -27.80751 L 74.31692 -28.12831 L 74.31692 -32.21079 A 1 0.57735 60 0 0 73.60982 -33.43554 L 53.81083 -44.86649 L 52.9623 -44.37659 L 72.76129 -32.94564 L 73.60982 -33.43554 M 81.28193 -25.74006 L 81.38799 -25.67882 M 81.16477 -25.90335 A 0.4 0.23094 180 0 0 81.28193 -25.74006 L 81.28193 -31.29223 A 0.4 0.23094 120 0 1 81.56477 -31.78213 L 95.14122 -23.94376 L 95.42406 -24.10706 L 81.84761 -31.94543 L 81.56477 -31.78213 M 81.38799 -23.06603 L 101.89409 -11.22683 M 102.89409 -10.98768 L 103.44972 -11.30848 L 103.44972 -15.39096 A 1 0.57735 60 0 0 102.74262 -16.61571 L 82.94363 -28.04666 L 82.0951 -27.55676 L 101.89409 -16.12581 L 102.74262 -16.61571 M 24.55168 10.71082 A 3 1.73205 300 0 0 21.55168 15.90697 L 24.51893 17.62011 M 28.03043 12.72794 A 3 1.73205 300 0 0 27.92812 12.6602 A 3 1.73205 300 0 0 24.51893 17.42826 M -17.8608 -13.76737 A 3 1.73205 300 0 0 -17.96311 -13.83511 A 3 1.73205 300 0 0 -21.3723 -9.06706 M -21.33955 -15.7845 A 3 1.73205 300 0 0 -24.33955 -10.58834 L -21.3723 -8.8752 M -25.03794 -17.91109 A 3 1.73205 300 0 0 -25.14025 -17.97883 A 3 1.73205 300 0 0 -28.54944 -13.21078 M -28.51668 -19.92822 A 3 1.73205 300 0 0 -31.51668 -14.73206 L -28.54944 -13.01892 M -35.14321 -23.06603 L -35.14321 -27.14851 A 1 0.57735 240 0 1 -34.9361 -27.60629 A 1 0.57735 240 0 1 -34.4361 -27.55676 L -14.63711 -16.12581 L -13.78858 -16.61571 M -13.93 -11.2668 L -13.93 -14.90106 A 1 0.57735 60 0 0 -14.63711 -16.12581 M -34.08757 -28.09619 A 1 0.57735 240 0 1 -33.58757 -28.04666 L -34.4361 -27.55676 M -35.14321 -28.12831 L -35.14321 -32.21079 A 1 0.57735 120 0 1 -34.4361 -33.43554 M -34.29468 -27.97661 L -34.29468 -31.72089 A 1 0.57735 120 0 1 -33.58757 -32.94564 M -14.13711 -44.91602 A 1 0.57735 300 0 0 -14.63711 -44.86649 M -6.01041 -11.30848 L -6.01041 -15.39096 A 1 0.57735 120 0 1 -5.3033 -16.61571 M -5.16188 -11.15678 L -5.16188 -14.90106 A 1 0.57735 120 0 1 -4.45477 -16.12581 M 14.99569 -28.09619 A 1 0.57735 300 0 0 14.49569 -28.04666 M -6.01041 -39.88586 L -6.01041 -43.96834 A 1 0.57735 240 0 1 -5.8033 -44.42612 A 1 0.57735 240 0 1 -5.3033 -44.37659 L 14.49569 -32.94564 L 15.34422 -33.43554 M 15.2028 -27.97661 L 15.2028 -31.72089 L 16.05132 -32.21079 M 15.2028 -31.72089 A 1 0.57735 60 0 0 14.49569 -32.94564 M -4.95477 -44.91602 A 1 0.57735 240 0 1 -4.45477 -44.86649 L -5.3033 -44.37659 M -6.01041 -6.2462 L -6.01041 -10.32868 A 1 0.57735 240 0 1 -5.8033 -10.78646 A 1 0.57735 240 0 1 -5.3033 -10.73693 M 15.2028 1.91877 A 1 0.57735 60 0 0 14.49569 0.69402 M -4.95477 -11.27636 A 1 0.57735 240 0 1 -4.45477 -11.22683 M 23.12239 5.51135 L 23.12239 1.42887 L 23.97092 1.91877 A 1 0.57735 120 0 1 24.67803 0.69402 M 23.97092 5.66305 L 23.97092 1.91877 M 44.12849 -11.27636 A 1 0.57735 300 0 0 43.62849 -11.22683 M 23.12239 1.42887 A 1 0.57735 120 0 1 23.8295 0.20412 M 23.12239 9.88562 L 23.12239 6.49115 A 1 0.57735 240 0 1 23.3295 6.03337 A 1 0.57735 240 0 1 23.8295 6.0829 M 44.3356 18.7386 A 1 0.57735 60 0 0 43.62849 17.51385 M 24.17803 5.54347 A 1 0.57735 240 0 1 24.67803 5.593 M 52.25519 22.33118 L 52.25519 18.2487 L 53.10372 18.7386 M 73.26129 5.54347 A 1 0.57735 300 0 0 72.76129 5.593 M 52.25519 18.2487 A 1 0.57735 120 0 1 52.9623 17.02395 M 23.12239 -23.06603 L 23.12239 -27.14851 A 1 0.57735 240 0 1 23.3295 -27.60629 A 1 0.57735 240 0 1 23.8295 -27.55676 L 43.62849 -16.12581 L 44.47702 -16.61571 M 44.3356 -11.15678 L 44.3356 -14.90106 L 45.18412 -15.39096 M 44.3356 -14.90106 A 1 0.57735 60 0 0 43.62849 -16.12581 M 24.17803 -28.09619 A 1 0.57735 240 0 1 24.67803 -28.04666 L 23.8295 -27.55676 M 52.25519 -6.2462 L 52.25519 -10.32868 A 1 0.57735 240 0 1 52.4623 -10.78646 A 1 0.57735 240 0 1 52.9623 -10.73693 M 73.4684 5.66305 L 73.4684 1.91877 L 74.31692 1.42887 M 73.4684 1.91877 A 1 0.57735 60 0 0 72.76129 0.69402 M 53.31083 -11.27636 A 1 0.57735 240 0 1 53.81083 -11.22683 M -6.01041 -44.94814 L -6.01041 -49.03062 L -5.16188 -48.54072 A 1 0.57735 120 0 1 -4.45477 -49.76547 M -5.16188 -44.79644 L -5.16188 -48.54072 M -6.01041 -49.03062 A 1 0.57735 120 0 1 -5.3033 -50.25536 M 15.84422 -61.24595 A 1 0.57735 300 0 0 15.34422 -61.19642 M 23.12239 -28.12831 L 23.12239 -32.21079 L 23.97092 -31.72089 A 1 0.57735 120 0 1 24.67803 -32.94564 M 23.97092 -27.97661 L 23.97092 -31.72089 M 23.12239 -32.21079 A 1 0.57735 120 0 1 23.8295 -33.43554 M 44.97702 -44.42612 A 1 0.57735 300 0 0 44.47702 -44.37659 M 23.12239 -56.70569 L 23.12239 -60.78817 A 1 0.57735 240 0 1 23.3295 -61.24595 A 1 0.57735 240 0 1 23.8295 -61.19642 M 44.3356 -44.79644 L 44.3356 -48.54072 L 45.18412 -49.03062 M 44.3356 -48.54072 A 1 0.57735 60 0 0 43.62849 -49.76547 M 24.17803 -61.73585 A 1 0.57735 240 0 1 24.67803 -61.68632 M 52.25519 -11.30848 L 52.25519 -15.39096 L 53.10372 -14.90106 A 1 0.57735 120 0 1 53.81083 -16.12581 M 53.10372 -11.15678 L 53.10372 -14.90106 M 52.25519 -15.39096 A 1 0.57735 120 0 1 52.9623 -16.61571 M 74.10982 -27.60629 A 1 0.57735 300 0 0 73.60982 -27.55676 M 81.38799 5.51135 L 81.38799 1.42887 L 82.23652 1.91877 M 81.38799 1.42887 A 1 0.57735 120 0 1 82.0951 0.20412 M 103.24262 -10.78646 A 1 0.57735 300 0 0 102.74262 -10.73693 M 52.25519 -39.88586 L 52.25519 -43.96834 A 1 0.57735 240 0 1 52.4623 -44.42612 A 1 0.57735 240 0 1 52.9623 -44.37659 M 73.4684 -27.97661 L 73.4684 -31.72089 L 74.31692 -32.21079 M 73.4684 -31.72089 A 1 0.57735 60 0 0 72.76129 -32.94564 M 53.31083 -44.91602 A 1 0.57735 240 0 1 53.81083 -44.86649 M 81.38799 -23.06603 L 81.38799 -27.14851 A 1 0.57735 240 0 1 81.5951 -27.60629 A 1 0.57735 240 0 1 82.0951 -27.55676 M 102.60119 -11.15678 L 102.60119 -14.90106 L 103.44972 -15.39096 M 102.60119 -14.90106 A 1 0.57735 60 0 0 101.89409 -16.12581 M 82.44363 -28.09619 A 1 0.57735 240 0 1 82.94363 -28.04666 M -44.83057 -22.12706 L -28.54944 -12.72714 M -23.40523 -9.75713 L -23.15254 -9.90303 M -16.2281 -5.61341 L -15.77369 -5.87577 M 22.486 16.73818 L 22.73869 16.59229 M 29.66313 20.8819 L 30.11755 20.61954 M 43.58793 30.45532 A 3 1.73205 360 0 1 42.70925 31.68007 L 42.70925 30.86357 L -19.23331 66.62612 A 3 1.73205 360 0 1 -23.47595 66.62612 L -111.01577 16.08498 A 3 1.73205 360 0 1 -111.89445 14.86024 L -111.89445 15.67673 M 42.70925 31.68007 L -19.23331 67.44262 L -19.23331 66.62612 M -19.23331 67.44262 A 3 1.73205 360 0 1 -23.47595 67.44262 L -23.47595 66.62612 M -23.47595 67.44262 L -111.01577 16.90148 L -111.01577 16.08498 M -111.01577 16.90148 A 3 1.73205 360 0 1 -111.89445 15.67673 M -46.59834 -15.22766 L -26.09224 -3.38846 L -26.09224 -4.20496 A 3 1.73205 360 0 1 -25.21356 -2.98021 A 3 1.73205 360 0 1 -26.09224 -1.75547 L -46.59834 10.08373 A 3 1.73205 360 0 1 -50.84098 10.08373 L -71.34707 -1.75547 A 3 1.73205 360 0 1 -72.22575 -2.98021 A 3 1.73205 360 0 1 -71.34707 -4.20496 L -50.84098 -16.04416 A 3 1.73205 360 0 1 -46.59834 -16.04416 L -26.09224 -4.20496 M -50.84098 -15.22766 A 3 1.73205 360 0 1 -46.59834 -15.22766 L -46.59834 -16.04416 M -71.34707 -3.38846 L -50.84098 -15.22766 L -50.84098 -16.04416 M -72.14123 -2.57196 A 3 1.73205 360 0 1 -71.34707 -3.38846 L -71.34707 -4.20496 M -26.09224 -3.38846 A 3 1.73205 360 0 1 -25.29809 -2.57196 M -17.46554 1.59217 L 3.04056 13.43137 L 3.04056 12.61487 A 3 1.73205 360 0 1 3.91924 13.83962 A 3 1.73205 360 0 1 3.04056 15.06436 L -17.46554 26.90356 A 3 1.73205 360 0 1 -21.70818 26.90356 L -42.21428 15.06436 A 3 1.73205 360 0 1 -43.09296 13.83962 A 3 1.73205 360 0 1 -42.21428 12.61487 L -21.70818 0.77567 A 3 1.73205 360 0 1 -17.46554 0.77567 L 3.04056 12.61487 M -21.70818 1.59217 A 3 1.73205 360 0 1 -17.46554 1.59217 L -17.46554 0.77567 M -42.21428 13.43137 L -21.70818 1.59217 L -21.70818 0.77567 M -43.00843 14.24787 A 3 1.73205 360 0 1 -42.21428 13.43137 L -42.21428 12.61487 M 3.04056 13.43137 A 3 1.73205 360 0 1 3.83471 14.24787 M 11.66726 18.412 L 32.17336 30.2512 L 32.17336 29.4347 A 3 1.73205 360 0 1 33.05204 30.65945 A 3 1.73205 360 0 1 32.17336 31.88419 L 11.66726 43.72339 A 3 1.73205 360 0 1 7.42462 43.72339 L -13.08148 31.88419 A 3 1.73205 360 0 1 -13.96016 30.65945 A 3 1.73205 360 0 1 -13.08148 29.4347 L 7.42462 17.5955 A 3 1.73205 360 0 1 11.66726 17.5955 L 32.17336 29.4347 M 7.42462 18.412 A 3 1.73205 360 0 1 11.66726 18.412 L 11.66726 17.5955 M -13.08148 30.2512 L 7.42462 18.412 L 7.42462 17.5955 M -13.87563 31.0677 A 3 1.73205 360 0 1 -13.08148 30.2512 L -13.08148 29.4347 M 32.17336 30.2512 A 3 1.73205 360 0 1 32.96751 31.0677 M -75.73114 1.59217 L -55.22504 13.43137 L -55.22504 12.61487 A 3 1.73205 360 0 1 -54.34636 13.83962 A 3 1.73205 360 0 1 -55.22504 15.06436 L -75.73114 26.90356 A 3 1.73205 360 0 1 -79.97378 26.90356 L -100.47987 15.06436 A 3 1.73205 360 0 1 -101.35855 13.83962 A 3 1.73205 360 0 1 -100.47987 12.61487 L -79.97378 0.77567 A 3 1.73205 360 0 1 -75.73114 0.77567 L -55.22504 12.61487 M -79.97378 1.59217 A 3 1.73205 360 0 1 -75.73114 1.59217 L -75.73114 0.77567 M -100.47987 13.43137 L -79.97378 1.59217 L -79.97378 0.77567 M -101.27403 14.24787 A 3 1.73205 360 0 1 -100.47987 13.43137 L -100.47987 12.61487 M -55.22504 13.43137 A 3 1.73205 360 0 1 -54.43088 14.24787 M -81.64446 31.3687 L -94.85838 23.73964 L -94.85838 22.92314 A 0.4 0.23094 180 0 0 -95.42406 22.92314 L -95.77762 23.12727 A 0.4 0.23094 180 0 0 -95.89477 23.29057 A 0.4 0.23094 180 0 0 -95.77762 23.45386 L -95.77762 23.12727 M -94.85838 23.73964 A 0.4 0.23094 180 0 0 -95.34437 23.704 M -46.59834 18.412 L -26.09224 30.2512 L -26.09224 29.4347 A 3 1.73205 360 0 1 -25.21356 30.65945 A 3 1.73205 360 0 1 -26.09224 31.88419 L -46.59834 43.72339 A 3 1.73205 360 0 1 -50.84098 43.72339 L -71.34707 31.88419 A 3 1.73205 360 0 1 -72.22575 30.65945 A 3 1.73205 360 0 1 -71.34707 29.4347 L -50.84098 17.5955 A 3 1.73205 360 0 1 -46.59834 17.5955 L -26.09224 29.4347 M -50.84098 18.412 A 3 1.73205 360 0 1 -46.59834 18.412 L -46.59834 17.5955 M -71.34707 30.2512 L -50.84098 18.412 L -50.84098 17.5955 M -72.14123 31.0677 A 3 1.73205 360 0 1 -71.34707 30.2512 L -71.34707 29.4347 M -26.09224 30.2512 A 3 1.73205 360 0 1 -25.29809 31.0677 M -17.46554 35.23183 L 3.04056 47.07103 L 3.04056 46.25453 A 3 1.73205 360 0 1 3.91924 47.47928 A 3 1.73205 360 0 1 3.04056 48.70402 L -17.46554 60.54322 A 3 1.73205 360 0 1 -21.70818 60.54322 L -42.21428 48.70402 A 3 1.73205 360 0 1 -43.09296 47.47928 A 3 1.73205 360 0 1 -42.21428 46.25453 L -21.70818 34.41533 A 3 1.73205 360 0 1 -17.46554 34.41533 L 3.04056 46.25453 M -21.70818 35.23183 A 3 1.73205 360 0 1 -17.46554 35.23183 L -17.46554 34.41533 M -42.21428 47.07103 L -21.70818 35.23183 L -21.70818 34.41533 M -43.00843 47.88752 A 3 1.73205 360 0 1 -42.21428 47.07103 L -42.21428 46.25453 M 3.04056 47.07103 A 3 1.73205 360 0 1 3.83471 47.88752 M -35.75323 57.86401 L -48.96715 50.23495 L -48.96715 49.41846 A 0.4 0.23094 180 0 0 -49.53283 49.41846 L -49.88638 49.62258 A 0.4 0.23094 180 0 0 -50.00354 49.78588 A 0.4 0.23094 180 0 0 -49.88638 49.94918 L -49.88638 49.62258 M -48.96715 50.23495 A 0.4 0.23094 180 0 0 -49.45314 50.19931 M -24.92812 -17.85636 A 3 1.73205 300 0 0 -28.54944 -14.03354 L -25.173 -12.08415 M -28.54944 -11.5024 L -28.54944 -14.03354 M -111.01577 13.63549 L -49.07321 -22.12706 A 3 1.73205 360 0 1 -44.83057 -22.12706 M -111.89445 14.86024 A 3 1.73205 360 0 1 -111.01577 13.63549 M 42.70925 28.41408 A 3 1.73205 360 0 1 43.58793 29.63883 L 43.58793 30.45532 M 43.58793 29.63883 A 3 1.73205 360 0 1 42.70925 30.86357 M 28.95602 20.47365 L 42.70925 28.41408 M 27.89536 21.08602 L 28.95602 20.47365 M 27.89536 21.08602 L 24.51893 19.13664 L 24.51893 16.6055 L 27.89536 18.55489 M 21.77889 16.32993 L 24.51893 17.91189 M 20.71823 16.9423 L 21.77889 16.32993 M 20.71823 16.9423 L 17.34179 14.99292 L 17.34179 12.46178 L 20.71823 14.41116 M -16.93521 -6.02166 L 17.34179 13.76817 M -17.99587 -5.40929 L -16.93521 -6.02166 M -17.99587 -5.40929 L -21.3723 -7.35868 L -21.3723 -9.88982 L -17.99587 -7.94043 M -24.11234 -10.16538 L -21.3723 -8.58342 M -25.173 -9.55301 L -24.11234 -10.16538 M -25.173 -9.55301 L -28.54944 -11.5024 M -95.77762 23.45386 L -82.13045 31.33306 A 0.4 0.23094 180 0 0 -81.56477 31.33306 L -81.21122 31.12893 L -81.21122 30.80233 L -94.85838 22.92314 M -81.21122 31.12893 A 0.4 0.23094 180 0 0 -81.09406 30.96563 A 0.4 0.23094 180 0 0 -81.21122 30.80233 M -49.88638 49.94918 L -36.23922 57.82837 A 0.4 0.23094 180 0 0 -35.67354 57.82837 L -35.31998 57.62425 L -35.31998 57.29765 L -48.96715 49.41846 M -35.31998 57.62425 A 0.4 0.23094 180 0 0 -35.20283 57.46095 A 0.4 0.23094 180 0 0 -35.31998 57.29765 M 31.51668 18.19617 L 30.11755 20.61954 M 31.51668 18.19617 A 3 1.73205 300 0 0 31.51668 14.73206 L 28.14025 12.78268 A 3 1.73205 300 0 0 24.51893 16.6055 M 31.51668 14.73206 A 3 1.73205 300 0 0 27.89536 18.55489 M 27.89536 21.08602 L 27.89536 18.55489 M 24.44186 10.65608 A 3 1.73205 300 0 0 24.33955 10.58834 L 20.96311 8.63896 A 3 1.73205 300 0 0 17.34179 12.46178 M 24.33955 10.58834 A 3 1.73205 300 0 0 20.71823 14.41116 M 20.71823 16.9423 L 20.71823 14.41116 M -21.44937 -15.83923 A 3 1.73205 300 0 0 -21.55168 -15.90697 L -24.92812 -17.85636 M -21.55168 -15.90697 A 3 1.73205 300 0 0 -25.173 -12.08415 M -25.173 -9.55301 L -25.173 -12.08415 M -14.37455 -8.29915 L -15.77369 -5.87577 M -14.37455 -8.29915 A 3 1.73205 300 0 0 -14.37455 -11.76325 L -17.75098 -13.71264 A 3 1.73205 300 0 0 -21.3723 -9.88982 M -14.37455 -11.76325 A 3 1.73205 300 0 0 -17.99587 -7.94043 M -17.99587 -5.40929 L -17.99587 -7.94043 M -42.70925 -22.53531 L -42.70925 -23.3518 M 111.01577 -7.75672 L 111.01577 -8.57321 M 49.07321 28.00583 L 49.07321 27.18934 M 44.83057 28.00583 L 44.83057 27.18934 M -13.93 -14.90106 L -13.08147 -15.39096 M -35.14321 -32.21079 L -34.29468 -31.72089 M -6.01041 -15.39096 L -5.16188 -14.90106 M 35.3907 -55.50136 L 35.3907 -57.78755 A 0.4 0.23094 120 0 1 35.67354 -58.27744 L 49.24999 -50.43908 L 49.53283 -50.60238 L 35.95638 -58.44074 L 35.67354 -58.27744 M 35.3907 -57.78755 L 48.96715 -49.94918 A 0.4 0.23094 120 0 1 49.24999 -50.43908 M 48.96715 -44.397 L 48.96715 -49.94918 A 0.4 0.23094 180 0 0 49.53283 -49.94918 A 0.4 0.23094 60 0 0 49.24999 -50.43908 M 35.3907 -58.11415 A 0.4 0.23094 180 0 0 35.27354 -57.95085 L 35.27354 -55.569 M 35.27354 -57.95085 A 0.4 0.23094 180 0 0 35.3907 -57.78755 M 49.53283 -44.397 L 49.53283 -49.94918 L 49.81567 -50.11248 A 0.4 0.23094 60 0 0 49.53283 -50.60238 M 49.81567 -44.5603 L 49.81567 -50.11248 A 0.4 0.23094 180 0 0 49.93283 -50.27578 A 0.3999999999999998 0.3999999999999998 0 0 0 49.73283 -50.62219 A 0.4 0.23094 300 0 0 49.53283 -50.60238 M 81.28193 -31.29223 L 94.85838 -23.45386 A 0.4 0.23094 120 0 1 95.14122 -23.94376 M 94.85838 -21.16767 L 94.85838 -23.45386 A 0.4 0.23094 180 0 0 95.42406 -23.45386 A 0.4 0.23094 60 0 0 95.14122 -23.94376 M 81.28193 -31.61883 A 0.4 0.23094 180 0 0 81.16477 -31.45553 L 81.16477 -25.90335 M 81.16477 -31.45553 A 0.4 0.23094 180 0 0 81.28193 -31.29223 M 95.42406 -20.84108 L 95.42406 -23.45386 L 95.7069 -23.61716 A 0.4 0.23094 60 0 0 95.42406 -24.10706 M 95.7069 -20.67778 L 95.7069 -23.61716 A 0.4 0.23094 180 0 0 95.82406 -23.78046 A 0.4000000000000029 0.4000000000000029 0 0 0 95.62406 -24.12687 A 0.4 0.23094 300 0 0 95.42406 -24.10706 M 35.3907 -58.11415 A 0.4 0.23094 240 0 1 35.47354 -58.29726 A 0.3999999999999998 0.3999999999999998 0 0 0 35.27354 -57.95085 M 35.47354 -58.29726 A 0.4 0.23094 240 0 1 35.67354 -58.27744 M 35.75638 -58.46056 A 0.4 0.23094 240 0 1 35.95638 -58.44074 M 36.15638 -58.46056 A 0.4 0.23094 300 0 0 35.95638 -58.44074 M 49.81567 -50.43908 A 0.4 0.23094 300 0 0 49.73283 -50.62219 L 36.15638 -58.46056 A 0.3999999999999998 0.3999999999999998 0 0 0 35.75638 -58.46056 L 35.47354 -58.29726 M 81.28193 -31.61883 A 0.4 0.23094 240 0 1 81.36477 -31.80194 A 0.4000000000000029 0.4000000000000029 0 0 0 81.16477 -31.45553 M 81.36477 -31.80194 A 0.4 0.23094 240 0 1 81.56477 -31.78213 M 81.64761 -31.96524 A 0.4 0.23094 240 0 1 81.84761 -31.94543 M 82.04761 -31.96524 A 0.4 0.23094 300 0 0 81.84761 -31.94543 M 95.7069 -23.94376 A 0.4 0.23094 300 0 0 95.62406 -24.12687 L 82.04761 -31.96524 A 0.4000000000000029 0.4000000000000029 0 0 0 81.64761 -31.96524 L 81.36477 -31.80194 M -95.42406 23.65799 L -95.42406 22.92314 M -49.53283 50.1533 L -49.53283 49.41846 M 20.75098 8.51648 L 17.37455 6.5671 M -43.58793 -24.57655 L -43.58793 -23.76005 M 111.89445 -9.79796 L 111.89445 -8.98146 M 49.93283 -50.27578 L 49.93283 -44.7236 M 95.82406 -23.78046 L 95.82406 -20.61013 M 27.92812 12.6602 L 24.55168 10.71082 M -17.96311 -13.83511 L -21.33955 -15.7845 M -25.14025 -17.97883 L -28.51668 -19.92822 M -34.08757 -28.09619 L -34.9361 -27.60629 M -13.28858 -44.42612 L -14.13711 -44.91602 M 15.84422 -27.60629 L 14.99569 -28.09619 M -4.95477 -44.91602 L -5.8033 -44.42612 M -4.95477 -11.27636 L -5.8033 -10.78646 M 44.97702 -10.78646 L 44.12849 -11.27636 M 24.17803 5.54347 L 23.3295 6.03337 M 74.10982 6.03337 L 73.26129 5.54347 M 24.17803 -28.09619 L 23.3295 -27.60629 M 53.31083 -11.27636 L 52.4623 -10.78646 M 24.17803 -61.73585 L 23.3295 -61.24595 M 53.31083 -44.91602 L 52.4623 -44.42612 M 82.44363 -28.09619 L 81.5951 -27.60629" />
  </svg>