<svg 
     version="1.1" 
     xmlns="http://www.w3.org/2000/svg" 
     viewBox="-97.30025992732456 -55.04763791095881 186.25665983664786 114.9126056493912" 
     fill="none" 
     stroke="black" 
     stroke-width="0.2%" 
     vector-effect="non-scaling-stroke">
  <path d="M -15.69645 56.82892 L -15.69645 50.29695 L -12.16992 42.69833 L 0.99127 40.66229 L 4.5178 33.06367 L 17.67899 31.02763 L 21.20552 23.42902 L 34.36671 21.39297 L 37.89324 13.79436 L 51.05443 11.75831 L 54.58096 4.1597 L 67.74215 2.12365 L 71.26868 -5.47496 L 84.42987 -7.51101 L 87.9564 -15.10962 L 78.32174 -20.6722 L 81.84827 -28.27081 L 72.21361 -33.83339 L 59.05242 -31.79734 L 49.41776 -37.35992 L 52.94429 -44.95853 L 43.30963 -50.52111 L 30.14844 -48.48506 L 20.51378 -54.04764 L 7.35259 -52.01159 L 3.82606 -44.41298 L -9.33513 -42.37693 L -12.86166 -34.77832 L -26.02285 -32.74227 L -29.54938 -25.14366 L -42.71057 -23.10761 L -46.2371 -15.509 L -59.39829 -13.47296 L -62.92482 -5.87434 L -76.08601 -3.8383 L -79.61254 3.76032 L -92.77373 5.79636 L -96.30026 13.39498 L -86.6656 18.95755 L -73.50441 16.92151 L -63.86975 22.48408 L -67.39628 30.0827 L -57.76162 35.64527 L -44.60043 33.60923 L -34.96577 39.1718 L -38.4923 46.77042 L -28.85764 52.33299 L -15.69645 50.29695 M -15.69645 56.82892 L -12.16992 49.23031 L -12.16992 42.69833 M -12.16992 49.23031 L 0.99127 47.19426 L 4.5178 39.59565 L 17.67899 37.5596 L 21.20552 29.96099 L 34.36671 27.92494 L 37.89324 20.32633 L 51.05443 18.29028 L 54.58096 10.69167 L 67.74215 8.65563 L 71.26868 1.05701 L 84.42987 -0.97903 L 87.9564 -8.57765 L 87.9564 -15.10962 M 0.99127 47.19426 L 0.99127 40.66229 M 4.5178 39.59565 L 4.5178 33.06367 M 17.67899 37.5596 L 17.67899 31.02763 M 21.20552 29.96099 L 21.20552 23.42902 M 34.36671 27.92494 L 34.36671 21.39297 M 37.89324 20.32633 L 37.89324 13.79436 M 51.05443 18.29028 L 51.05443 11.75831 M 54.58096 10.69167 L 54.58096 4.1597 M 67.74215 8.65563 L 67.74215 2.12365 M 71.26868 1.05701 L 71.26868 -5.47496 M 84.42987 -0.97903 L 84.42987 -7.51101 M 80.71261 -19.29183 L 81.84827 -21.73884 L 81.84827 -28.27081 M 51.80863 -35.97955 L 52.94429 -38.42656 L 52.94429 -44.95853 M -96.30026 19.92695 L -96.30026 13.39498 M -96.30026 19.92695 L -86.6656 25.48953 L -73.50441 23.45348 L -66.26062 27.63569 M -86.6656 25.48953 L -86.6656 18.95755 M -73.50441 23.45348 L -73.50441 16.92151 M -67.39628 36.61467 L -67.39628 30.0827 M -67.39628 36.61467 L -57.76162 42.17725 L -44.60043 40.1412 L -37.35664 44.32341 M -57.76162 42.17725 L -57.76162 35.64527 M -44.60043 40.1412 L -44.60043 33.60923 M -38.4923 53.30239 L -38.4923 46.77042 M -38.4923 53.30239 L -28.85764 58.86497 L -15.69645 56.82892 M -28.85764 58.86497 L -28.85764 52.33299 M -70.87016 9.46093 L -79.85163 4.27548 L -92.12053 6.17349 L -95.40797 13.25694 L -86.42651 18.44239 L -74.15761 16.54439 L -70.87016 9.46093 Z M -54.18244 -0.17373 L -63.16391 -5.35918 L -75.43281 -3.46117 L -78.72025 3.62228 L -69.73879 8.80773 L -57.46989 6.90973 L -54.18244 -0.17373 Z M -37.49472 -9.80839 L -46.47619 -14.99384 L -58.74509 -13.09583 L -62.03253 -6.01238 L -53.05107 -0.82693 L -40.78217 -2.72493 L -37.49472 -9.80839 Z M -20.807 -19.44305 L -29.78847 -24.6285 L -42.05737 -22.73049 L -45.34481 -15.64704 L -36.36335 -10.46159 L -24.09445 -12.35959 L -20.807 -19.44305 Z M -4.11928 -29.07771 L -13.10075 -34.26316 L -25.36965 -32.36515 L -28.65709 -25.28169 L -19.67563 -20.09625 L -7.40673 -21.99425 L -4.11928 -29.07771 Z M 12.56844 -38.71237 L 3.58697 -43.89782 L -8.68193 -41.99981 L -11.96937 -34.91635 L -2.98791 -29.7309 L 9.28099 -31.62891 L 12.56844 -38.71237 Z M 29.25616 -48.34703 L 20.27469 -53.53248 L 8.00579 -51.63447 L 4.71835 -44.55101 L 13.69981 -39.36556 L 25.96871 -41.26357 L 29.25616 -48.34703 Z M -48.07431 12.98746 L -57.05578 7.80201 L -69.32468 9.70002 L -72.61213 16.78347 L -63.63066 21.96892 L -51.36176 20.07092 L -48.07431 12.98746 Z M -31.38659 3.3528 L -40.36806 -1.83265 L -52.63696 0.06536 L -55.92441 7.14881 L -46.94294 12.33426 L -34.67404 10.43626 L -31.38659 3.3528 Z M -14.69887 -6.28186 L -23.68034 -11.46731 L -35.94924 -9.5693 L -39.23669 -2.48585 L -30.25522 2.6996 L -17.98632 0.8016 L -14.69887 -6.28186 Z M 1.98885 -15.91652 L -6.99262 -21.10197 L -19.26152 -19.20396 L -22.54897 -12.1205 L -13.5675 -6.93506 L -1.2986 -8.83306 L 1.98885 -15.91652 Z M 18.67657 -25.55118 L 9.6951 -30.73663 L -2.5738 -28.83862 L -5.86125 -21.75516 L 3.12022 -16.56971 L 15.38912 -18.46772 L 18.67657 -25.55118 Z M 35.36429 -35.18584 L 26.38282 -40.37129 L 14.11392 -38.47328 L 10.82647 -31.38982 L 19.80794 -26.20437 L 32.07684 -28.10238 L 35.36429 -35.18584 Z M 52.05201 -44.8205 L 43.07054 -50.00595 L 30.80164 -48.10794 L 27.51419 -41.02448 L 36.49566 -35.83903 L 48.76456 -37.73704 L 52.05201 -44.8205 Z M -41.96618 26.14865 L -50.94765 20.9632 L -63.21655 22.86121 L -66.504 29.94466 L -57.52253 35.13011 L -45.25363 33.23211 L -41.96618 26.14865 Z M -25.27846 16.51399 L -34.25993 11.32854 L -46.52883 13.22655 L -49.81628 20.31 L -40.83481 25.49545 L -28.56591 23.59745 L -25.27846 16.51399 Z M -8.59074 6.87933 L -17.57221 1.69388 L -29.84111 3.59189 L -33.12856 10.67534 L -24.14709 15.86079 L -11.87819 13.96279 L -8.59074 6.87933 Z M 8.09698 -2.75533 L -0.88449 -7.94078 L -13.15339 -6.04277 L -16.44084 1.04068 L -7.45937 6.22613 L 4.80953 4.32813 L 8.09698 -2.75533 Z M 24.7847 -12.38999 L 15.80323 -17.57544 L 3.53433 -15.67743 L 0.24688 -8.59397 L 9.22835 -3.40853 L 21.49725 -5.30653 L 24.7847 -12.38999 Z M 41.47242 -22.02465 L 32.49095 -27.2101 L 20.22205 -25.31209 L 16.9346 -18.22863 L 25.91607 -13.04318 L 38.18497 -14.94119 L 41.47242 -22.02465 Z M 58.16014 -31.65931 L 49.17867 -36.84476 L 36.90977 -34.94675 L 33.62232 -27.86329 L 42.60379 -22.67784 L 54.87269 -24.57585 L 58.16014 -31.65931 Z M -19.17033 29.67518 L -28.1518 24.48973 L -40.4207 26.38774 L -43.70815 33.47119 L -34.72668 38.65664 L -22.45778 36.75864 L -19.17033 29.67518 Z M -2.48261 20.04052 L -11.46408 14.85507 L -23.73298 16.75308 L -27.02043 23.83653 L -18.03896 29.02198 L -5.77006 27.12398 L -2.48261 20.04052 Z M 14.20511 10.40586 L 5.22364 5.22041 L -7.04526 7.11842 L -10.33271 14.20187 L -1.35124 19.38732 L 10.91766 17.48932 L 14.20511 10.40586 Z M 30.89283 0.7712 L 21.91136 -4.41425 L 9.64246 -2.51624 L 6.35501 4.56722 L 15.33648 9.75266 L 27.60538 7.85466 L 30.89283 0.7712 Z M 47.58055 -8.86346 L 38.59908 -14.04891 L 26.33018 -12.1509 L 23.04273 -5.06744 L 32.0242 0.11801 L 44.2931 -1.78 L 47.58055 -8.86346 Z M 64.26827 -18.49812 L 55.2868 -23.68357 L 43.0179 -21.78556 L 39.73045 -14.7021 L 48.71192 -9.51665 L 60.98082 -11.41466 L 64.26827 -18.49812 Z M 80.95599 -28.13278 L 71.97452 -33.31823 L 59.70562 -31.42022 L 56.41817 -24.33676 L 65.39964 -19.15131 L 77.66854 -21.04932 L 80.95599 -28.13278 Z M -13.06221 42.83637 L -22.04367 37.65092 L -34.31257 39.54893 L -37.60002 46.63238 L -28.61855 51.81783 L -16.34965 49.91983 L -13.06221 42.83637 Z M 3.62551 33.20171 L -5.35595 28.01626 L -17.62485 29.91427 L -20.9123 36.99772 L -11.93083 42.18317 L 0.33807 40.28517 L 3.62551 33.20171 Z M 20.31323 23.56705 L 11.33177 18.3816 L -0.93713 20.27961 L -4.22458 27.36306 L 4.75689 32.54851 L 17.02579 30.65051 L 20.31323 23.56705 Z M 37.00095 13.93239 L 28.01949 8.74694 L 15.75059 10.64495 L 12.46314 17.7284 L 21.44461 22.91385 L 33.71351 21.01585 L 37.00095 13.93239 Z M 53.68867 4.29773 L 44.70721 -0.88772 L 32.43831 1.01029 L 29.15086 8.09375 L 38.13233 13.2792 L 50.40123 11.38119 L 53.68867 4.29773 Z M 70.37639 -5.33693 L 61.39493 -10.52238 L 49.12603 -8.62437 L 45.83858 -1.54091 L 54.82005 3.64454 L 67.08895 1.74653 L 70.37639 -5.33693 Z M 87.06411 -14.97159 L 78.08265 -20.15704 L 65.81375 -18.25903 L 62.5263 -11.17557 L 71.50777 -5.99012 L 83.77667 -7.88813 L 87.06411 -14.97159 Z M -73.44035 14.99891 L -80.03094 11.19382 L -80.15048 11.04316 L -91.30403 12.76862 L -92.35004 15.02244 M -80.03094 11.19382 L -91.38862 12.95086 M -56.75263 5.36425 L -63.34322 1.55916 L -63.46276 1.4085 L -74.61631 3.13396 L -75.66232 5.38778 M -63.34322 1.55916 L -74.7009 3.3162 M -40.06491 -4.27041 L -46.6555 -8.07549 L -46.77504 -8.22616 L -57.92859 -6.5007 L -58.9746 -4.24688 M -46.6555 -8.07549 L -58.01318 -6.31846 M -23.37719 -13.90507 L -29.96778 -17.71015 L -30.08732 -17.86082 L -41.24087 -16.13536 L -42.28688 -13.88154 M -29.96778 -17.71015 L -41.32546 -15.95312 M -6.68947 -23.53973 L -13.28006 -27.34481 L -13.3996 -27.49548 L -24.55315 -25.77002 L -25.59916 -23.5162 M -13.28006 -27.34481 L -24.63774 -25.58778 M 9.99825 -33.17439 L 3.40766 -36.97947 L 3.28812 -37.13014 L -7.86543 -35.40468 L -8.91144 -33.15085 M 3.40766 -36.97947 L -7.95002 -35.22244 M 26.68597 -42.80905 L 20.09538 -46.61413 L 19.97584 -46.7648 L 8.82229 -45.03934 L 7.77628 -42.78551 M 20.09538 -46.61413 L 8.7377 -44.8571 M -50.6445 18.52544 L -57.23509 14.72035 L -57.35463 14.56969 L -68.50819 16.29515 L -69.55419 18.54897 M -57.23509 14.72035 L -68.59277 16.47739 M -33.95678 8.89078 L -40.54737 5.08569 L -40.66691 4.93503 L -51.82047 6.66049 L -52.86647 8.91431 M -40.54737 5.08569 L -51.90505 6.84273 M -17.26906 -0.74388 L -23.85965 -4.54896 L -23.97919 -4.69963 L -35.13275 -2.97417 L -36.17875 -0.72035 M -23.85965 -4.54896 L -35.21733 -2.79193 M -0.58134 -10.37854 L -7.17193 -14.18362 L -7.29147 -14.33429 L -18.44503 -12.60883 L -19.49103 -10.35501 M -7.17193 -14.18362 L -18.52961 -12.42659 M 16.10638 -20.0132 L 9.51579 -23.81828 L 9.39625 -23.96895 L -1.75731 -22.24349 L -2.80331 -19.98966 M 9.51579 -23.81828 L -1.84189 -22.06125 M 32.7941 -29.64786 L 26.20351 -33.45294 L 26.08397 -33.60361 L 14.93041 -31.87815 L 13.88441 -29.62432 M 26.20351 -33.45294 L 14.84583 -31.69591 M 49.48182 -39.28252 L 42.89123 -43.0876 L 42.77169 -43.23827 L 31.61813 -41.51281 L 30.57213 -39.25898 M 42.89123 -43.0876 L 31.53355 -41.33056 M -44.53637 31.68663 L -51.12696 27.88154 L -51.24651 27.73088 L -62.40006 29.45634 L -63.44606 31.71016 M -51.12696 27.88154 L -62.48464 29.63858 M -27.84865 22.05197 L -34.43924 18.24688 L -34.55879 18.09622 L -45.71234 19.82168 L -46.75834 22.0755 M -34.43924 18.24688 L -45.79692 20.00392 M -11.16093 12.41731 L -17.75152 8.61223 L -17.87107 8.46156 L -29.02462 10.18702 L -30.07062 12.44084 M -17.75152 8.61223 L -29.1092 10.36926 M 5.52679 2.78265 L -1.0638 -1.02243 L -1.18335 -1.1731 L -12.3369 0.55236 L -13.3829 2.80618 M -1.0638 -1.02243 L -12.42148 0.7346 M 22.21451 -6.85201 L 15.62392 -10.65709 L 15.50437 -10.80776 L 4.35082 -9.0823 L 3.30482 -6.82847 M 15.62392 -10.65709 L 4.26624 -8.90006 M 38.90223 -16.48667 L 32.31164 -20.29175 L 32.19209 -20.44242 L 21.03854 -18.71696 L 19.99254 -16.46313 M 32.31164 -20.29175 L 20.95396 -18.53472 M 55.58995 -26.12133 L 48.99936 -29.92641 L 48.87982 -30.07708 L 37.72626 -28.35162 L 36.68026 -26.09779 M 48.99936 -29.92641 L 37.64168 -28.16938 M -21.74052 35.21316 L -28.33111 31.40807 L -28.45066 31.25741 L -39.60421 32.98287 L -40.65021 35.23669 M -28.33111 31.40807 L -39.68879 33.16511 M -5.0528 25.5785 L -11.64339 21.77342 L -11.76294 21.62275 L -22.91649 23.34821 L -23.96249 25.60203 M -11.64339 21.77342 L -23.00107 23.53045 M 11.63492 15.94384 L 5.04433 12.13876 L 4.92478 11.98809 L -6.22877 13.71355 L -7.27477 15.96737 M 5.04433 12.13876 L -6.31335 13.89579 M 28.32264 6.30918 L 21.73205 2.5041 L 21.6125 2.35343 L 10.45895 4.07889 L 9.41295 6.33271 M 21.73205 2.5041 L 10.37437 4.26113 M 45.01036 -3.32548 L 38.41977 -7.13056 L 38.30022 -7.28123 L 27.14667 -5.55577 L 26.10067 -3.30194 M 38.41977 -7.13056 L 27.06209 -5.37353 M 61.69808 -12.96014 L 55.10749 -16.76522 L 54.98794 -16.91589 L 43.83439 -15.19043 L 42.78839 -12.9366 M 55.10749 -16.76522 L 43.74981 -15.00819 M 78.3858 -22.5948 L 71.79521 -26.39988 L 71.67566 -26.55055 L 60.52211 -24.82509 L 59.47611 -22.57126 M 71.79521 -26.39988 L 60.43753 -24.64284 M -15.63239 48.37435 L -22.22298 44.56926 L -22.34253 44.4186 L -33.49608 46.14406 L -34.54208 48.39788 M -22.22298 44.56926 L -33.58066 46.3263 M 1.05533 38.73969 L -5.53526 34.9346 L -5.65481 34.78394 L -16.80836 36.5094 L -17.85436 38.76322 M -5.53526 34.9346 L -16.89294 36.69164 M 17.74305 29.10503 L 11.15246 25.29995 L 11.03291 25.14928 L -0.12064 26.87474 L -1.16664 29.12856 M 11.15246 25.29995 L -0.20522 27.05698 M 34.43077 19.47037 L 27.84018 15.66529 L 27.72063 15.51462 L 16.56708 17.24008 L 15.52108 19.4939 M 27.84018 15.66529 L 16.4825 17.42232 M 51.11849 9.83571 L 44.5279 6.03063 L 44.40835 5.87996 L 33.2548 7.60542 L 32.2088 9.85925 M 44.5279 6.03063 L 33.17022 7.78766 M 67.80621 0.20105 L 61.21562 -3.60403 L 61.09607 -3.7547 L 49.94252 -2.02924 L 48.89652 0.22459 M 61.21562 -3.60403 L 49.85794 -1.847 M 84.49393 -9.43361 L 77.90334 -13.23869 L 77.78379 -13.38936 L 66.63024 -11.6639 L 65.58424 -9.41007 M 77.90334 -13.23869 L 66.54566 -11.48166 M -73.41046 14.93451 L -80.15048 11.04316 L -80.15048 7.28727 L -91.30403 9.01273 L -93.72479 14.22873 M -72.03571 11.97234 L -80.15048 7.28727 L -79.85163 5.90847 L -92.12053 7.80648 L -94.81026 13.60204 M -71.46788 10.74883 L -79.85163 5.90847 L -79.85163 4.27548 M -91.30403 12.76862 L -91.30403 9.01273 L -92.12053 7.80648 L -92.12053 6.17349 M -56.72274 5.29985 L -63.46276 1.4085 L -63.46276 -2.34739 L -74.61631 -0.62193 L -77.03707 4.59407 M -55.34799 2.33768 L -63.46276 -2.34739 L -63.16391 -3.72619 L -75.43281 -1.82818 L -78.12254 3.96738 M -54.78016 1.11417 L -63.16391 -3.72619 L -63.16391 -5.35918 M -74.61631 3.13396 L -74.61631 -0.62193 L -75.43281 -1.82818 L -75.43281 -3.46117 M -40.03502 -4.33481 L -46.77504 -8.22616 L -46.77504 -11.98205 L -57.92859 -10.25659 L -60.34935 -5.04059 M -38.66027 -7.29698 L -46.77504 -11.98205 L -46.47619 -13.36084 L -58.74509 -11.46284 L -61.43482 -5.66728 M -38.09244 -8.52049 L -46.47619 -13.36084 L -46.47619 -14.99384 M -57.92859 -6.5007 L -57.92859 -10.25659 L -58.74509 -11.46284 L -58.74509 -13.09583 M -23.3473 -13.96947 L -30.08732 -17.86082 L -30.08732 -21.61671 L -41.24087 -19.89125 L -43.66163 -14.67525 M -21.97255 -16.93164 L -30.08732 -21.61671 L -29.78847 -22.9955 L -42.05737 -21.0975 L -44.7471 -15.30194 M -21.40472 -18.15515 L -29.78847 -22.9955 L -29.78847 -24.6285 M -41.24087 -16.13536 L -41.24087 -19.89125 L -42.05737 -21.0975 L -42.05737 -22.73049 M -6.65958 -23.60413 L -13.3996 -27.49548 L -13.3996 -31.25137 L -24.55315 -29.52591 L -26.97391 -24.30991 M -5.28483 -26.5663 L -13.3996 -31.25137 L -13.10075 -32.63016 L -25.36965 -30.73216 L -28.05938 -24.9366 M -4.717 -27.78981 L -13.10075 -32.63016 L -13.10075 -34.26316 M -24.55315 -25.77002 L -24.55315 -29.52591 L -25.36965 -30.73216 L -25.36965 -32.36515 M 10.02814 -33.23879 L 3.28812 -37.13014 L 3.28812 -40.88603 L -7.86543 -39.16057 L -10.28619 -33.94457 M 11.40289 -36.20096 L 3.28812 -40.88603 L 3.58697 -42.26482 L -8.68193 -40.36682 L -11.37166 -34.57126 M 11.97072 -37.42447 L 3.58697 -42.26482 L 3.58697 -43.89782 M -7.86543 -35.40468 L -7.86543 -39.16057 L -8.68193 -40.36682 L -8.68193 -41.99981 M 26.71586 -42.87345 L 19.97584 -46.7648 L 19.97584 -50.52069 L 8.82229 -48.79523 L 6.40153 -43.57923 M 28.09061 -45.83562 L 19.97584 -50.52069 L 20.27469 -51.89948 L 8.00579 -50.00148 L 5.31606 -44.20592 M 28.65844 -47.05913 L 20.27469 -51.89948 L 20.27469 -53.53248 M 8.82229 -45.03934 L 8.82229 -48.79523 L 8.00579 -50.00148 L 8.00579 -51.63447 M -50.61461 18.46104 L -57.35463 14.56969 L -57.35463 10.8138 L -68.50819 12.53926 L -70.92894 17.75526 M -49.23986 15.49887 L -57.35463 10.8138 L -57.05578 9.435 L -69.32468 11.33301 L -72.01441 17.12857 M -48.67203 14.27536 L -57.05578 9.435 L -57.05578 7.80201 M -68.50819 16.29515 L -68.50819 12.53926 L -69.32468 11.33301 L -69.32468 9.70002 M -33.92689 8.82638 L -40.66691 4.93503 L -40.66691 1.17914 L -51.82047 2.9046 L -54.24122 8.1206 M -32.55214 5.86421 L -40.66691 1.17914 L -40.36806 -0.19965 L -52.63696 1.69835 L -55.32669 7.49391 M -31.98431 4.6407 L -40.36806 -0.19965 L -40.36806 -1.83265 M -51.82047 6.66049 L -51.82047 2.9046 L -52.63696 1.69835 L -52.63696 0.06536 M -17.23917 -0.80828 L -23.97919 -4.69963 L -23.97919 -8.45552 L -35.13275 -6.73006 L -37.5535 -1.51406 M -15.86442 -3.77045 L -23.97919 -8.45552 L -23.68034 -9.83431 L -35.94924 -7.93631 L -38.63897 -2.14075 M -15.29659 -4.99396 L -23.68034 -9.83431 L -23.68034 -11.46731 M -35.13275 -2.97417 L -35.13275 -6.73006 L -35.94924 -7.93631 L -35.94924 -9.5693 M -0.55145 -10.44294 L -7.29147 -14.33429 L -7.29147 -18.09018 L -18.44503 -16.36472 L -20.86578 -11.14872 M 0.8233 -13.40511 L -7.29147 -18.09018 L -6.99262 -19.46897 L -19.26152 -17.57097 L -21.95125 -11.77541 M 1.39113 -14.62862 L -6.99262 -19.46897 L -6.99262 -21.10197 M -18.44503 -12.60883 L -18.44503 -16.36472 L -19.26152 -17.57097 L -19.26152 -19.20396 M 16.13627 -20.0776 L 9.39625 -23.96895 L 9.39625 -27.72484 L -1.75731 -25.99938 L -4.17806 -20.78338 M 17.51102 -23.03977 L 9.39625 -27.72484 L 9.6951 -29.10363 L -2.5738 -27.20563 L -5.26353 -21.41007 M 18.07885 -24.26328 L 9.6951 -29.10363 L 9.6951 -30.73663 M -1.75731 -22.24349 L -1.75731 -25.99938 L -2.5738 -27.20563 L -2.5738 -28.83862 M 32.82399 -29.71226 L 26.08397 -33.60361 L 26.08397 -37.3595 L 14.93041 -35.63404 L 12.50966 -30.41804 M 34.19874 -32.67443 L 26.08397 -37.3595 L 26.38282 -38.73829 L 14.11392 -36.84029 L 11.42419 -31.04473 M 34.76657 -33.89794 L 26.38282 -38.73829 L 26.38282 -40.37129 M 14.93041 -31.87815 L 14.93041 -35.63404 L 14.11392 -36.84029 L 14.11392 -38.47328 M 49.51171 -39.34692 L 42.77169 -43.23827 L 42.77169 -46.99416 L 31.61813 -45.2687 L 29.19738 -40.0527 M 50.88646 -42.30909 L 42.77169 -46.99416 L 43.07054 -48.37295 L 30.80164 -46.47495 L 28.11191 -40.67939 M 51.45429 -43.5326 L 43.07054 -48.37295 L 43.07054 -50.00595 M 31.61813 -41.51281 L 31.61813 -45.2687 L 30.80164 -46.47495 L 30.80164 -48.10794 M -44.50648 31.62223 L -51.24651 27.73088 L -51.24651 23.97499 L -62.40006 25.70045 L -64.82081 30.91645 M -43.13173 28.66006 L -51.24651 23.97499 L -50.94765 22.59619 L -63.21655 24.4942 L -65.90628 30.28976 M -42.5639 27.43655 L -50.94765 22.59619 L -50.94765 20.9632 M -62.40006 29.45634 L -62.40006 25.70045 L -63.21655 24.4942 L -63.21655 22.86121 M -27.81876 21.98757 L -34.55879 18.09622 L -34.55879 14.34033 L -45.71234 16.06579 L -48.13309 21.28179 M -26.44401 19.0254 L -34.55879 14.34033 L -34.25993 12.96154 L -46.52883 14.85954 L -49.21856 20.6551 M -25.87618 17.80189 L -34.25993 12.96154 L -34.25993 11.32854 M -45.71234 19.82168 L -45.71234 16.06579 L -46.52883 14.85954 L -46.52883 13.22655 M -11.13104 12.35291 L -17.87107 8.46156 L -17.87107 4.70567 L -29.02462 6.43113 L -31.44537 11.64713 M -9.75629 9.39074 L -17.87107 4.70567 L -17.57221 3.32688 L -29.84111 5.22488 L -32.53084 11.02044 M -9.18846 8.16723 L -17.57221 3.32688 L -17.57221 1.69388 M -29.02462 10.18702 L -29.02462 6.43113 L -29.84111 5.22488 L -29.84111 3.59189 M 5.55668 2.71825 L -1.18335 -1.1731 L -1.18335 -4.92899 L -12.3369 -3.20353 L -14.75765 2.01247 M 6.93143 -0.24392 L -1.18335 -4.92899 L -0.88449 -6.30778 L -13.15339 -4.40978 L -15.84312 1.38578 M 7.49926 -1.46743 L -0.88449 -6.30778 L -0.88449 -7.94078 M -12.3369 0.55236 L -12.3369 -3.20353 L -13.15339 -4.40978 L -13.15339 -6.04277 M 22.2444 -6.91641 L 15.50437 -10.80776 L 15.50437 -14.56365 L 4.35082 -12.83819 L 1.93007 -7.62219 M 23.61915 -9.87858 L 15.50437 -14.56365 L 15.80323 -15.94244 L 3.53433 -14.04444 L 0.8446 -8.24888 M 24.18698 -11.10209 L 15.80323 -15.94244 L 15.80323 -17.57544 M 4.35082 -9.0823 L 4.35082 -12.83819 L 3.53433 -14.04444 L 3.53433 -15.67743 M 38.93212 -16.55107 L 32.19209 -20.44242 L 32.19209 -24.19831 L 21.03854 -22.47285 L 18.61779 -17.25685 M 40.30687 -19.51324 L 32.19209 -24.19831 L 32.49095 -25.5771 L 20.22205 -23.6791 L 17.53232 -17.88354 M 40.8747 -20.73675 L 32.49095 -25.5771 L 32.49095 -27.2101 M 21.03854 -18.71696 L 21.03854 -22.47285 L 20.22205 -23.6791 L 20.22205 -25.31209 M 55.61984 -26.18573 L 48.87982 -30.07708 L 48.87982 -33.83297 L 37.72626 -32.10751 L 35.30551 -26.89151 M 56.99459 -29.1479 L 48.87982 -33.83297 L 49.17867 -35.21176 L 36.90977 -33.31376 L 34.22004 -27.5182 M 57.56242 -30.37141 L 49.17867 -35.21176 L 49.17867 -36.84476 M 37.72626 -28.35162 L 37.72626 -32.10751 L 36.90977 -33.31376 L 36.90977 -34.94675 M -21.71063 35.14876 L -28.45066 31.25741 L -28.45066 27.50152 L -39.60421 29.22698 L -42.02496 34.44298 M -20.33588 32.18659 L -28.45066 27.50152 L -28.1518 26.12272 L -40.4207 28.02073 L -43.11043 33.81629 M -19.76805 30.96308 L -28.1518 26.12272 L -28.1518 24.48973 M -39.60421 32.98287 L -39.60421 29.22698 L -40.4207 28.02073 L -40.4207 26.38774 M -5.02291 25.5141 L -11.76294 21.62275 L -11.76294 17.86686 L -22.91649 19.59232 L -25.33724 24.80832 M -3.64816 22.55193 L -11.76294 17.86686 L -11.46408 16.48807 L -23.73298 18.38607 L -26.42271 24.18163 M -3.08033 21.32842 L -11.46408 16.48807 L -11.46408 14.85507 M -22.91649 23.34821 L -22.91649 19.59232 L -23.73298 18.38607 L -23.73298 16.75308 M 11.66481 15.87944 L 4.92478 11.98809 L 4.92478 8.2322 L -6.22877 9.95766 L -8.64952 15.17366 M 13.03956 12.91727 L 4.92478 8.2322 L 5.22364 6.85341 L -7.04526 8.75141 L -9.73499 14.54697 M 13.60739 11.69376 L 5.22364 6.85341 L 5.22364 5.22041 M -6.22877 13.71355 L -6.22877 9.95766 L -7.04526 8.75141 L -7.04526 7.11842 M 28.35253 6.24478 L 21.6125 2.35343 L 21.6125 -1.40246 L 10.45895 0.323 L 8.0382 5.539 M 29.72728 3.28261 L 21.6125 -1.40246 L 21.91136 -2.78125 L 9.64246 -0.88325 L 6.95273 4.91231 M 30.29511 2.0591 L 21.91136 -2.78125 L 21.91136 -4.41425 M 10.45895 4.07889 L 10.45895 0.323 L 9.64246 -0.88325 L 9.64246 -2.51624 M 45.04025 -3.38988 L 38.30022 -7.28123 L 38.30022 -11.03712 L 27.14667 -9.31166 L 24.72592 -4.09566 M 46.415 -6.35205 L 38.30022 -11.03712 L 38.59908 -12.41591 L 26.33018 -10.51791 L 23.64045 -4.72235 M 46.98283 -7.57556 L 38.59908 -12.41591 L 38.59908 -14.04891 M 27.14667 -5.55577 L 27.14667 -9.31166 L 26.33018 -10.51791 L 26.33018 -12.1509 M 61.72797 -13.02454 L 54.98794 -16.91589 L 54.98794 -20.67178 L 43.83439 -18.94632 L 41.41364 -13.73032 M 63.10272 -15.98671 L 54.98794 -20.67178 L 55.2868 -22.05057 L 43.0179 -20.15257 L 40.32817 -14.35701 M 63.67055 -17.21022 L 55.2868 -22.05057 L 55.2868 -23.68357 M 43.83439 -15.19043 L 43.83439 -18.94632 L 43.0179 -20.15257 L 43.0179 -21.78556 M 78.41569 -22.6592 L 71.67566 -26.55055 L 71.67566 -30.30644 L 60.52211 -28.58098 L 58.10136 -23.36498 M 79.79044 -25.62137 L 71.67566 -30.30644 L 71.97452 -31.68523 L 59.70562 -29.78723 L 57.01589 -23.99167 M 80.35827 -26.84488 L 71.97452 -31.68523 L 71.97452 -33.31823 M 60.52211 -24.82509 L 60.52211 -28.58098 L 59.70562 -29.78723 L 59.70562 -31.42022 M -15.6025 48.30995 L -22.34253 44.4186 L -22.34253 40.66271 L -33.49608 42.38817 L -35.91683 47.60417 M -14.22775 45.34778 L -22.34253 40.66271 L -22.04367 39.28391 L -34.31257 41.18192 L -37.0023 46.97748 M -13.65992 44.12427 L -22.04367 39.28391 L -22.04367 37.65092 M -33.49608 46.14406 L -33.49608 42.38817 L -34.31257 41.18192 L -34.31257 39.54893 M 1.08522 38.67529 L -5.65481 34.78394 L -5.65481 31.02805 L -16.80836 32.75351 L -19.22911 37.96951 M 2.45997 35.71312 L -5.65481 31.02805 L -5.35595 29.64926 L -17.62485 31.54726 L -20.31458 37.34282 M 3.0278 34.48961 L -5.35595 29.64926 L -5.35595 28.01626 M -16.80836 36.5094 L -16.80836 32.75351 L -17.62485 31.54726 L -17.62485 29.91427 M 17.77294 29.04063 L 11.03291 25.14928 L 11.03291 21.39339 L -0.12064 23.11885 L -2.54139 28.33485 M 19.14769 26.07846 L 11.03291 21.39339 L 11.33177 20.0146 L -0.93713 21.9126 L -3.62686 27.70816 M 19.71552 24.85495 L 11.33177 20.0146 L 11.33177 18.3816 M -0.12064 26.87474 L -0.12064 23.11885 L -0.93713 21.9126 L -0.93713 20.27961 M 34.46066 19.40597 L 27.72063 15.51462 L 27.72063 11.75873 L 16.56708 13.48419 L 14.14633 18.70019 M 35.83541 16.4438 L 27.72063 11.75873 L 28.01949 10.37994 L 15.75059 12.27794 L 13.06086 18.0735 M 36.40324 15.22029 L 28.01949 10.37994 L 28.01949 8.74694 M 16.56708 17.24008 L 16.56708 13.48419 L 15.75059 12.27794 L 15.75059 10.64495 M 51.14838 9.77131 L 44.40835 5.87996 L 44.40835 2.12407 L 33.2548 3.84953 L 30.83405 9.06553 M 52.52313 6.80914 L 44.40835 2.12407 L 44.70721 0.74528 L 32.43831 2.64328 L 29.74858 8.43884 M 53.09096 5.58563 L 44.70721 0.74528 L 44.70721 -0.88772 M 33.2548 7.60542 L 33.2548 3.84953 L 32.43831 2.64328 L 32.43831 1.01029 M 67.8361 0.13665 L 61.09607 -3.7547 L 61.09607 -7.51059 L 49.94252 -5.78513 L 47.52177 -0.56913 M 69.21085 -2.82552 L 61.09607 -7.51059 L 61.39493 -8.88938 L 49.12603 -6.99138 L 46.4363 -1.19582 M 69.77868 -4.04903 L 61.39493 -8.88938 L 61.39493 -10.52238 M 49.94252 -2.02924 L 49.94252 -5.78513 L 49.12603 -6.99138 L 49.12603 -8.62437 M 84.52382 -9.49801 L 77.78379 -13.38936 L 77.78379 -17.14525 L 66.63024 -15.41979 L 64.20949 -10.20379 M 85.89857 -12.46018 L 77.78379 -17.14525 L 78.08265 -18.52404 L 65.81375 -16.62604 L 63.12402 -10.83048 M 86.4664 -13.68369 L 78.08265 -18.52404 L 78.08265 -20.15704 M 66.63024 -11.6639 L 66.63024 -15.41979 L 65.81375 -16.62604 L 65.81375 -18.25903" />
  </svg>