<svg 
     version="1.1" 
     xmlns="http://www.w3.org/2000/svg" 
     viewBox="-91.45420359616787 -56.43173850863277 180.33161794775367 123.1149084209099" 
     fill="none" 
     stroke="black" 
     stroke-width="0.2%" 
     vector-effect="non-scaling-stroke">
  <path d="M -72.70618 28.59529 L -14.01632 62.4799 L -13.54491 62.75207 A 17.33333 10.0074 180 0 0 10.96812 62.75207 M -71.25153 6.30107 Q -70.54 7.53 -70.58486 7.45577 Q -71.65 5.62 -72.70618 3.78154 L -71.90144 3.31692 L -72.69711 2.46217 L -73.1863 3.268 C -73.17 3.28 -73.15 3.29 -73.13201 3.30456 C -73.11 3.32 -73.1 3.33 -73.0772 3.34673 C -73.06 3.36 -73.04 3.38 -73.02236 3.39398 C -73 3.41 -72.99 3.43 -72.96801 3.44579 C -72.95 3.46 -72.94 3.47 -72.92575 3.48961 C -72.91 3.5 -72.9 3.52 -72.8844 3.53571 C -72.87 3.55 -72.86 3.57 -72.8442 3.58383 C -72.83 3.6 -72.82 3.62 -72.80543 3.63371 C -72.79 3.66 -72.77 3.68 -72.75373 3.70657 C -72.74 3.73 -72.72 3.76 -72.70618 3.78176 M -71.25153 6.30107 L -71.05626 6.95813 L -70.11345 6.95813 M -14.02551 37.67145 L -15.47097 38.50599 L -15.3329 37.65647 M -71.05626 23.0159 L -71.05626 6.95813 M -15.66623 38.93758 L -15.47097 38.50599 M -71.05626 23.0159 L -70.58486 24.6022 L -69.78012 24.13758 M -15.66623 38.93758 L -15.66623 54.99535 M -69.13021 27.12173 L -70.58486 24.6022 M -16.13764 56.03732 L -15.66623 54.99535 M -69.13021 27.12173 L -67.99213 28.32313 L -67.52073 27.50663 M -16.13764 56.03732 L -17.59229 56.87716 L -17.45422 56.02765 M -18.73036 56.76443 L -67.99213 28.32313 M -18.73036 56.76443 L -17.59229 56.87716 M -77.97826 21.24683 A 18 10.3923 180 0 0 -72.70618 28.59529 L -72.70618 3.79655 M -76.29079 0.60082 A 18 10.3923 180 0 0 -73.1863 3.268 M -76.29079 0.77773 L -76.29079 0.60082 M -73.1863 -10.8528 A 18 10.3923 180 0 0 -76.1014 -8.4128 M -76.29079 0.77773 C -76.36 1.15 -76.43 1.52 -76.50225 1.89644 L -77.37471 1.25613 L -83.12747 1.25613 C -83.13 1.26 -83.14 1.26 -83.14789 1.2561 C -83.15 1.26 -83.16 1.26 -83.1683 1.25603 C -83.18 1.26 -83.18 1.26 -83.18873 1.25591 C -83.2 1.26 -83.2 1.26 -83.20915 1.25573 C -83.22 1.26 -83.22 1.26 -83.22958 1.25551 C -83.24 1.26 -83.24 1.26 -83.25001 1.25524 C -83.26 1.26 -83.26 1.26 -83.27043 1.25492 C -83.28 1.25 -83.28 1.25 -83.29086 1.25456 C -83.3 1.25 -83.3 1.25 -83.3113 1.25414 C -83.32 1.25 -83.32 1.25 -83.33175 1.25368 C -83.34 1.25 -83.35 1.25 -83.35222 1.25316 C -83.36 1.25 -83.36 1.25 -83.36245 1.25289 C -83.37 1.25 -83.37 1.25 -83.37268 1.2526 C -83.38 1.25 -83.38 1.25 -83.3829 1.2523 C -83.39 1.25 -83.39 1.25 -83.3931 1.25199 C -83.4 1.25 -83.4 1.25 -83.40328 1.25166 C -83.41 1.25 -83.41 1.25 -83.41342 1.25133 C -83.42 1.25 -83.42 1.25 -83.42351 1.25099 C -83.43 1.25 -83.43 1.25 -83.43352 1.25064 C -83.44 1.25 -83.44 1.25 -83.44344 1.25028 C -83.45 1.25 -83.45 1.25 -83.45325 1.24992 C -83.51 1.25 -83.56 1.25 -83.6168 1.24266 C -83.67 1.24 -83.73 1.24 -83.77998 1.23312 C -83.83 1.23 -83.89 1.23 -83.94271 1.22133 C -84 1.22 -84.05 1.21 -84.10489 1.20729 C -84.21 1.2 -84.32 1.19 -84.42721 1.17254 C -84.53 1.16 -84.64 1.14 -84.74625 1.12902 C -84.85 1.11 -84.96 1.1 -85.06129 1.07688 C -85.17 1.06 -85.27 1.04 -85.37166 1.01626 C -85.47 0.99 -85.58 0.97 -85.67666 0.94735 C -85.78 0.92 -85.88 0.9 -85.97566 0.87033 C -86.07 0.84 -86.17 0.82 -86.26799 0.7854 C -86.36 0.76 -86.46 0.72 -86.55304 0.69278 C -86.6 0.68 -86.65 0.66 -86.69264 0.64365 C -86.74 0.63 -86.78 0.61 -86.83019 0.59268 C -86.88 0.58 -86.92 0.56 -86.96561 0.5399 C -87.01 0.52 -87.05 0.5 -87.09884 0.48534 C -87.14 0.47 -87.19 0.45 -87.22979 0.42903 C -87.27 0.41 -87.32 0.39 -87.35841 0.37101 C -87.4 0.35 -87.44 0.33 -87.48461 0.3113 C -87.53 0.29 -87.57 0.27 -87.60834 0.24995 C -87.65 0.23 -87.69 0.21 -87.72952 0.18699 C -87.77 0.17 -87.81 0.14 -87.84809 0.12245 C -87.89 0.1 -87.93 0.08 -87.96398 0.05636 C -88 0.03 -88.04 0.01 -88.07713 -0.01122 C -88.12 -0.04 -88.16 -0.06 -88.20608 -0.09224 C -88.25 -0.12 -88.29 -0.15 -88.33109 -0.17521 C -88.37 -0.2 -88.41 -0.23 -88.45207 -0.26006 C -88.49 -0.29 -88.53 -0.32 -88.56892 -0.34672 C -88.61 -0.38 -88.64 -0.41 -88.68156 -0.43515 C -88.72 -0.46 -88.75 -0.49 -88.78989 -0.52526 C -88.83 -0.56 -88.86 -0.59 -88.89385 -0.61698 C -88.93 -0.65 -88.96 -0.68 -88.99334 -0.71025 C -89.03 -0.74 -89.06 -0.77 -89.08829 -0.80499 C -89.12 -0.84 -89.15 -0.87 -89.17863 -0.90114 C -89.21 -0.93 -89.24 -0.97 -89.26429 -0.99861 C -89.29 -1.03 -89.32 -1.06 -89.3452 -1.09734 C -89.37 -1.13 -89.4 -1.16 -89.4213 -1.19724 C -89.45 -1.23 -89.47 -1.26 -89.49254 -1.29824 C -89.52 -1.33 -89.54 -1.37 -89.55885 -1.40027 C -89.58 -1.43 -89.6 -1.47 -89.62019 -1.50323 M -76.50225 1.89644 C -76.54 1.98 -76.58 2.06 -76.61645 2.13804 C -76.65 2.22 -76.69 2.3 -76.72624 2.38109 C -76.76 2.46 -76.8 2.54 -76.8316 2.62551 C -76.87 2.71 -76.9 2.79 -76.93249 2.87125 C -76.97 2.95 -77 3.04 -77.02888 3.11824 C -77.06 3.2 -77.09 3.28 -77.12075 3.3664 C -77.15 3.45 -77.18 3.53 -77.20806 3.61569 C -77.24 3.7 -77.26 3.78 -77.29078 3.86602 C -77.32 3.95 -77.34 4.03 -77.36889 4.11736 C -77.39 4.2 -77.42 4.29 -77.44236 4.36966 C -77.47 4.45 -77.49 4.54 -77.51115 4.62289 C -77.53 4.71 -77.55 4.79 -77.57525 4.87703 C -77.59 4.92 -77.6 4.96 -77.60554 5.00443 C -77.62 5.05 -77.63 5.09 -77.63466 5.13205 C -77.64 5.17 -77.65 5.22 -77.66259 5.25988 C -77.67 5.3 -77.68 5.35 -77.68936 5.38789 C -77.7 5.43 -77.71 5.47 -77.71495 5.51608 C -77.72 5.56 -77.73 5.6 -77.73938 5.64442 C -77.75 5.69 -77.76 5.73 -77.76265 5.77286 C -77.77 5.82 -77.78 5.86 -77.78477 5.90135 C -77.79 5.92 -77.79 5.94 -77.79546 5.96594 C -77.8 5.99 -77.8 6.01 -77.80586 6.03051 C -77.81 6.05 -77.81 6.07 -77.81598 6.09506 C -77.82 6.12 -77.82 6.14 -77.82581 6.15955 C -77.83 6.18 -77.83 6.2 -77.83536 6.22397 C -77.84 6.25 -77.84 6.27 -77.84463 6.28831 C -77.85 6.31 -77.85 6.33 -77.85363 6.35252 C -77.86 6.37 -77.86 6.4 -77.86234 6.4166 C -77.86 6.42 -77.86 6.42 -77.86369 6.42669 C -77.86 6.43 -77.86 6.43 -77.86507 6.437 C -77.87 6.44 -77.87 6.44 -77.86647 6.44746 C -77.87 6.45 -77.87 6.45 -77.86789 6.45803 C -77.87 6.46 -77.87 6.47 -77.86933 6.46864 C -77.87 6.47 -77.87 6.48 -77.87078 6.47927 C -77.87 6.48 -77.87 6.49 -77.87224 6.48988 C -77.87 6.49 -77.87 6.5 -77.87371 6.50045 C -77.87 6.5 -77.87 6.51 -77.87518 6.51096 C -77.88 6.51 -77.88 6.52 -77.87667 6.52141 C -77.88 6.52 -77.88 6.53 -77.87815 6.53176 C -77.88 6.54 -77.88 6.54 -77.87965 6.54203 C -77.88 6.55 -77.88 6.56 -77.88264 6.56225 C -77.88 6.57 -77.88 6.58 -77.88565 6.58204 C -77.89 6.6 -77.89 6.61 -77.8917 6.62019 C -77.89 6.63 -77.89 6.63 -77.89474 6.63851 C -77.9 6.64 -77.9 6.65 -77.89779 6.6563 C -77.9 6.66 -77.9 6.67 -77.90085 6.67353 C -77.9 6.68 -77.9 6.68 -77.90391 6.69017 C -77.9 6.7 -77.91 6.7 -77.90699 6.70618 C -77.91 6.71 -77.91 6.72 -77.91007 6.72153 C -77.93 6.8 -77.94 6.85 -77.9576 6.82841 C -77.97 6.81 -77.97 6.8 -77.98132 6.78175 C -77.99 6.77 -78 6.75 -78.00511 6.73516 C -78.01 6.72 -78.02 6.7 -78.02898 6.68865 C -78.04 6.67 -78.04 6.66 -78.05296 6.64221 C -78.06 6.63 -78.07 6.61 -78.07708 6.59585 C -78.09 6.58 -78.09 6.56 -78.10137 6.54956 C -78.11 6.53 -78.12 6.52 -78.12587 6.50333 C -78.13 6.49 -78.14 6.47 -78.15064 6.45714 C -78.16 6.45 -78.16 6.44 -78.16789 6.42533 C -78.17 6.41 -78.18 6.4 -78.18531 6.39353 C -78.19 6.38 -78.2 6.37 -78.20293 6.36174 C -78.21 6.35 -78.21 6.34 -78.22077 6.32994 C -78.23 6.32 -78.23 6.31 -78.23884 6.29814 C -78.24 6.29 -78.25 6.28 -78.25717 6.26635 C -78.26 6.26 -78.27 6.25 -78.27575 6.23458 C -78.28 6.22 -78.29 6.21 -78.29461 6.20284 C -78.3 6.19 -78.31 6.18 -78.31735 6.16522 C -78.32 6.15 -78.33 6.14 -78.34048 6.1277 C -78.35 6.12 -78.36 6.1 -78.36397 6.09034 C -78.37 6.08 -78.38 6.07 -78.38781 6.05316 C -78.4 6.04 -78.4 6.03 -78.41199 6.01621 C -78.42 6 -78.43 5.99 -78.43648 5.97951 C -78.44 5.97 -78.45 5.96 -78.46126 5.94311 C -78.47 5.93 -78.48 5.92 -78.4863 5.90701 C -78.5 5.89 -78.51 5.87 -78.52282 5.85557 C -78.54 5.84 -78.55 5.82 -78.55978 5.80486 C -78.56 5.81 -78.56 5.81 -78.55676 5.80832 C -78.56 5.81 -78.55 5.81 -78.55348 5.81086 M -14.01632 62.4799 A 18 10.3923 180 0 0 11.43953 62.4799 L 10.96812 62.75207 M 11.43953 37.66614 C 11.42 37.66 11.41 37.65 11.38993 37.64379 C 11.37 37.64 11.35 37.63 11.33489 37.63032 C 11.32 37.63 11.3 37.63 11.27528 37.62538 C 11.25 37.63 11.23 37.63 11.21201 37.62866 C 11.19 37.63 11.17 37.63 11.14597 37.63985 C 11.12 37.64 11.1 37.65 11.07808 37.65864 C 11.06 37.67 11.03 37.67 11.0093 37.68474 C 10.99 37.69 10.96 37.71 10.94057 37.71787 L 10.48765 36.89111 L 11.30146 36.81663 L 11.43953 37.66614 Z M 6.32089 39.51025 A 18 10.3923 180 0 0 10.94057 37.71787 M -13.51736 37.71787 C -13.54 37.71 -13.56 37.69 -13.58589 37.68498 C -13.61 37.68 -13.63 37.67 -13.65435 37.65937 C -13.68 37.65 -13.7 37.65 -13.72188 37.64118 C -13.74 37.64 -13.77 37.63 -13.78763 37.63052 C -13.81 37.63 -13.83 37.63 -13.85076 37.62756 C -13.87 37.63 -13.89 37.63 -13.91045 37.63243 C -13.93 37.64 -13.95 37.64 -13.9659 37.64531 C -13.98 37.65 -14 37.66 -14.01632 37.66637 M 6.32089 39.68716 L 6.32089 39.51025 M -13.51736 37.71787 A 18 10.3923 180 0 0 -8.89768 39.51025 L -8.28839 40.05138 M 6.32089 39.68716 C 6.16 40.19 6.01 40.7 5.85008 41.19977 L 5.38488 41.33176 M -8.89768 39.68716 L -8.89768 39.51025 M 5.85008 41.19978 C 5.8 41.28 5.76 41.36 5.71161 41.43763 M -8.42687 41.19978 C -8.58 40.7 -8.74 40.19 -8.89768 39.68716 L -8.28839 40.22828 M 1.10007 48.92132 C 1.07 48.97 1.04 49.01 1.01339 49.05346 C 0.98 49.1 0.96 49.14 0.92638 49.18548 C 0.9 49.23 0.87 49.27 0.83897 49.31736 C 0.81 49.36 0.78 49.41 0.7511 49.44909 C 0.75 49.45 0.75 49.46 0.74265 49.46169 C 0.74 49.47 0.74 49.47 0.73404 49.47453 C 0.73 49.48 0.73 49.48 0.72528 49.48756 C 0.72 49.49 0.72 49.5 0.71637 49.50075 C 0.71 49.51 0.71 49.51 0.70733 49.51407 C 0.7 49.52 0.7 49.52 0.69818 49.5275 C 0.7 49.53 0.69 49.54 0.68891 49.54103 C 0.69 49.55 0.68 49.55 0.67954 49.55462 C 0.68 49.56 0.67 49.56 0.67007 49.56827 C 0.67 49.57 0.66 49.58 0.6605 49.58196 C 0.66 49.59 0.65 49.59 0.65085 49.59569 C 0.65 49.6 0.64 49.6 0.64112 49.60943 C 0.63 49.62 0.63 49.63 0.62141 49.63697 C 0.61 49.65 0.61 49.66 0.60138 49.66451 C 0.59 49.67 0.59 49.68 0.58106 49.69204 C 0.57 49.7 0.57 49.71 0.56044 49.71953 C 0.55 49.73 0.55 49.74 0.53953 49.74697 C 0.53 49.76 0.53 49.77 0.51831 49.77435 C 0.51 49.78 0.5 49.79 0.49678 49.80168 C 0.49 49.81 0.48 49.82 0.47494 49.82893 C 0.46 49.85 0.45 49.87 0.43025 49.88324 C 0.4 49.92 0.37 49.96 0.33656 49.99097 C 0.3 50.03 0.27 50.06 0.23644 50.09723 C 0.17 50.17 0.09 50.24 0.0132 50.3031 C -0.3 50.57 -0.76 50.81 -1.28836 50.80885 C -2.78 50.69 -3.23 49.51 -3.67685 48.92132 M -8.28839 41.43763 C -8.33 41.36 -8.38 41.28 -8.42687 41.19978 M -71.25153 6.30107 L -70.44679 5.83645 L -70.11345 6.95813 M -70.44679 5.83645 Q -69.74 7.06 -69.78012 6.99115 Q -70.84 5.15 -71.90144 3.31692 M -14.02551 37.67145 L -13.90672 36.9819 M -13.79692 36.82407 L -13.57659 36.84424 L -13.06444 36.89111 A 17.33333 10.0074 180 0 0 -8.61585 38.6171 L -7.62173 39.50704 L -8.28839 40.05138 M -13.06444 36.89111 L -13.51736 37.71787 M -13.87825 36.81663 L -15.3329 37.65647 M -71.05626 23.0159 L -70.11345 23.0159 L -69.78012 24.13758 M -70.11345 23.0159 L -70.11345 6.95813 M -15.66623 38.93758 L -15.66623 38.39325 L -15.3329 37.65647 M -69.13021 27.12173 L -68.32547 26.65712 L -67.52073 27.50663 M -68.32547 26.65712 L -69.78012 24.13758 M -16.13764 56.03732 L -15.99957 55.1878 L -17.45422 56.02765 M -15.99957 55.1878 L -15.66623 54.45102 M -18.73036 56.76443 L -18.25896 55.94793 L -17.45422 56.02765 M -18.25896 55.94793 L -67.52073 27.50663 M -15.47097 -42.28048 Q -16.18 -41.06 -16.13764 -41.12578 Q -15.08 -42.96 -14.01632 -44.80001 M -15.47097 -42.28048 L -15.66623 -41.62341 L -15.66623 -41.07908 L -15.19483 -40.80692 M -15.66623 -25.56565 L -16.13764 -23.97935 L -15.99957 -23.89963 L -15.52816 -23.62747 M -17.59229 -21.45981 L -16.13764 -23.97935 M -17.59229 -21.45981 L -18.73036 -20.25842 M -75.68662 -0.10622 L -76.29079 0.60082 M -75.68662 -0.10622 A 17.33333 10.0074 180 0 0 -72.69711 2.46217 M -72.69711 -11.13564 L -71.94676 -11.21575 M -76.29079 0.77773 L -77.22805 0.42596 L -83.12747 0.42596 C -83.15 0.43 -83.18 0.43 -83.20916 0.42596 C -83.24 0.43 -83.26 0.43 -83.29084 0.42596 C -83.32 0.43 -83.35 0.43 -83.37252 0.42596 C -83.4 0.43 -83.43 0.43 -83.4542 0.42596 C -83.55 0.43 -83.64 0.42 -83.72821 0.42286 C -83.82 0.42 -83.91 0.42 -84.00187 0.41357 C -84.09 0.41 -84.18 0.4 -84.27472 0.3981 C -84.37 0.39 -84.46 0.38 -84.54635 0.37647 C -84.64 0.37 -84.73 0.36 -84.81632 0.34871 C -84.91 0.34 -85 0.33 -85.0842 0.31487 C -85.17 0.3 -85.26 0.29 -85.34959 0.27499 C -85.44 0.26 -85.53 0.25 -85.61205 0.22915 C -85.7 0.21 -85.79 0.2 -85.8712 0.1774 C -85.96 0.16 -86.04 0.14 -86.12663 0.11984 C -86.21 0.1 -86.29 0.08 -86.37794 0.05655 C -86.46 0.03 -86.54 0.01 -86.62475 -0.01237 C -86.71 -0.04 -86.79 -0.06 -86.86669 -0.08681 C -86.95 -0.11 -87.03 -0.14 -87.10338 -0.16666 C -87.18 -0.19 -87.26 -0.22 -87.33446 -0.25179 C -87.41 -0.28 -87.49 -0.31 -87.55958 -0.34208 C -87.63 -0.37 -87.71 -0.4 -87.77839 -0.43738 C -87.85 -0.47 -87.92 -0.5 -87.99057 -0.53754 C -88.06 -0.57 -88.13 -0.61 -88.19578 -0.64243 C -88.26 -0.68 -88.33 -0.71 -88.39372 -0.75186 C -88.46 -0.79 -88.52 -0.83 -88.58408 -0.86569 C -88.65 -0.9 -88.71 -0.94 -88.76658 -0.98372 C -88.83 -1.02 -88.88 -1.06 -88.94093 -1.10579 C -89 -1.15 -89.05 -1.19 -89.10686 -1.2317 C -89.16 -1.27 -89.21 -1.32 -89.26414 -1.36126 C -89.32 -1.41 -89.36 -1.45 -89.41251 -1.49427 C -89.46 -1.54 -89.51 -1.58 -89.55174 -1.63054 C -89.6 -1.68 -89.64 -1.72 -89.68163 -1.76985 C -89.77 -1.86 -89.84 -1.96 -89.9126 -2.05673 C -89.98 -2.15 -90.05 -2.25 -90.10399 -2.35318 C -90.02 -2.21 -89.94 -2.07 -89.86459 -1.93269 C -89.78 -1.79 -89.7 -1.65 -89.62019 -1.50323 M -77.22805 0.42596 L -77.22805 0.24905 L -83.4542 0.24905 A 7 4.04145 360 0 1 -90.4542 -3.7924 L -90.4542 -3.6155 M -77.22805 0.24905 L -76.29079 0.60082 M -72.69711 -11.13564 A 17.33333 10.0074 180 0 0 -75.68662 -8.56724 L -77.22805 -7.99329 M -77.22805 0.42596 C -77.28 0.7 -77.33 0.98 -77.37471 1.25613 C -77.45 1.42 -77.52 1.58 -77.58416 1.74334 C -77.65 1.91 -77.71 2.07 -77.77523 2.23615 C -77.84 2.4 -77.89 2.57 -77.94773 2.73406 C -78 2.9 -78.05 3.07 -78.10149 3.23654 C -78.15 3.4 -78.19 3.57 -78.23634 3.74307 C -78.26 3.83 -78.28 3.91 -78.29663 3.99769 C -78.32 4.08 -78.33 4.17 -78.35213 4.25313 C -78.37 4.34 -78.39 4.42 -78.40283 4.50932 C -78.42 4.59 -78.43 4.68 -78.44871 4.7662 C -78.46 4.81 -78.46 4.85 -78.46985 4.89486 C -78.48 4.94 -78.48 4.98 -78.48979 5.02367 C -78.5 5.07 -78.5 5.11 -78.50852 5.15261 C -78.51 5.2 -78.52 5.24 -78.52606 5.28166 C -78.53 5.29 -78.53 5.3 -78.53028 5.31378 C -78.53 5.32 -78.53 5.33 -78.53442 5.34524 C -78.54 5.36 -78.54 5.37 -78.53848 5.376 C -78.54 5.39 -78.54 5.4 -78.54244 5.40605 C -78.54 5.42 -78.55 5.43 -78.5463 5.43535 C -78.55 5.44 -78.55 5.45 -78.55005 5.46387 C -78.55 5.47 -78.55 5.48 -78.55367 5.49159 C -78.55 5.5 -78.56 5.51 -78.55713 5.51847 C -78.56 5.53 -78.56 5.54 -78.56042 5.54447 C -78.56 5.55 -78.56 5.56 -78.5635 5.56957 C -78.56 5.58 -78.57 5.59 -78.56634 5.59372 C -78.57 5.6 -78.57 5.61 -78.56888 5.6169 C -78.57 5.62 -78.57 5.63 -78.57109 5.63908 C -78.57 5.65 -78.57 5.65 -78.57289 5.66021 C -78.57 5.67 -78.57 5.67 -78.57424 5.68026 C -78.57 5.69 -78.57 5.69 -78.57504 5.69922 C -78.58 5.7 -78.58 5.71 -78.57523 5.70911 C -78.58 5.71 -78.58 5.72 -78.57524 5.71855 C -78.58 5.72 -78.58 5.72 -78.5751 5.72755 C -78.58 5.73 -78.57 5.73 -78.5748 5.73613 C -78.57 5.74 -78.57 5.74 -78.57436 5.74429 C -78.57 5.75 -78.57 5.75 -78.57378 5.75203 C -78.57 5.75 -78.57 5.76 -78.57305 5.75934 C -78.57 5.76 -78.57 5.76 -78.57218 5.76622 C -78.57 5.77 -78.57 5.77 -78.56998 5.77866 C -78.57 5.78 -78.57 5.79 -78.56719 5.78929 C -78.57 5.79 -78.57 5.8 -78.56379 5.79805 C -78.56 5.8 -78.56 5.8 -78.55978 5.80486 M 4.13276 -15.22336 A 7.66667 4.42635 180 0 0 -6.70955 -15.22336 M -72.22534 2.18979 L -71.43004 3.04475 L -71.29197 2.96504 L -71.29197 -10.09891 C -71.3 -10.1 -71.31 -10.11 -71.32367 -10.11407 C -71.33 -10.12 -71.35 -10.12 -71.35757 -10.12449 C -71.37 -10.13 -71.38 -10.13 -71.39343 -10.13044 C -71.41 -10.13 -71.42 -10.13 -71.431 -10.13221 C -71.44 -10.13 -71.46 -10.13 -71.47006 -10.13007 C -71.48 -10.13 -71.5 -10.13 -71.51038 -10.12431 C -71.52 -10.12 -71.54 -10.12 -71.55174 -10.1152 C -71.57 -10.11 -71.58 -10.11 -71.59391 -10.10304 C -71.61 -10.1 -71.62 -10.09 -71.63668 -10.08812 C -71.65 -10.08 -71.67 -10.08 -71.67983 -10.07072 C -71.69 -10.06 -71.71 -10.06 -71.72314 -10.05113 C -71.74 -10.04 -71.75 -10.04 -71.76642 -10.02965 C -71.78 -10.02 -71.8 -10.01 -71.80944 -10.00657 C -71.82 -10 -71.84 -9.99 -71.85201 -9.98219 C -71.87 -9.97 -71.88 -9.97 -71.89393 -9.9568 C -71.91 -9.95 -71.92 -9.94 -71.935 -9.93071 C -72.04 -10.24 -72.13 -10.55 -72.22534 -10.86326 A 16.66667 9.6225 180 0 0 -72.22534 2.18979 L -72.69711 2.46217 M -71.43004 3.04475 L -71.90144 3.31692 M 11.43953 62.4799 L 70.12939 28.59529 A 18 10.3923 180 0 0 75.40147 21.24683 M 12.89418 38.50599 Q 13.6 38.91 13.56085 38.89089 Q 12.5 38.28 11.43953 37.66614 M 12.89418 38.50599 L 13.08944 38.93758 L 13.08944 38.39325 M 13.08944 54.99535 L 13.08944 38.93758 M 70.12019 3.79747 L 68.67474 6.30107 L 67.87 5.83645 M 13.08944 54.99535 L 13.56085 56.03732 L 13.42278 55.1878 M 68.47947 6.95813 L 68.67474 6.30107 M 15.0155 56.87716 L 13.56085 56.03732 M 68.47947 6.95813 L 68.47947 23.0159 L 67.53667 23.0159 M 15.0155 56.87716 L 16.15357 56.76443 L 15.68217 55.94793 M 68.00807 24.6022 L 68.47947 23.0159 M 65.41535 28.32313 L 16.15357 56.76443 M 68.00807 24.6022 L 66.55342 27.12173 L 65.74868 26.65712 M 65.41535 28.32313 L 66.55342 27.12173 M 6.03906 38.6171 L 6.32089 39.51025 M 6.03906 38.6171 A 17.33333 10.0074 180 0 0 10.48765 36.89111 M 6.32089 39.68716 L 5.71161 40.22828 M 5.71161 40.05138 L 6.32089 39.51025 M -8.61585 38.6171 L -8.89768 39.51025 M -8.42687 41.19978 L -7.96166 41.33177 M -0.3342 49.86404 C -0.35 49.87 -0.36 49.88 -0.36897 49.8865 C -0.38 49.89 -0.39 49.9 -0.40386 49.90826 C -0.42 49.92 -0.43 49.92 -0.43884 49.92928 C -0.45 49.94 -0.46 49.94 -0.47387 49.94955 C -0.49 49.96 -0.5 49.96 -0.50892 49.96904 C -0.52 49.98 -0.53 49.98 -0.54395 49.98773 C -0.56 49.99 -0.57 50 -0.57891 50.0056 C -0.59 50.01 -0.6 50.02 -0.61375 50.02262 C -0.63 50.03 -0.64 50.03 -0.64842 50.03879 C -0.66 50.04 -0.67 50.05 -0.68287 50.05409 C -0.69 50.06 -0.71 50.06 -0.71702 50.0685 C -0.73 50.07 -0.74 50.08 -0.75083 50.08202 C -0.76 50.09 -0.77 50.09 -0.78423 50.09463 C -0.8 50.1 -0.81 50.1 -0.81714 50.10634 C -0.83 50.11 -0.84 50.11 -0.84951 50.11716 C -0.86 50.12 -0.87 50.12 -0.88127 50.12708 C -0.89 50.13 -0.9 50.13 -0.91236 50.13614 C -0.92 50.14 -0.93 50.14 -0.94273 50.14435 C -0.95 50.15 -0.96 50.15 -0.97233 50.15173 C -0.98 50.15 -0.99 50.16 -1.00112 50.15832 C -1.01 50.16 -1.02 50.16 -1.02907 50.16416 C -1.04 50.17 -1.05 50.17 -1.05617 50.16928 C -1.07 50.17 -1.07 50.17 -1.08242 50.17373 C -1.09 50.18 -1.1 50.18 -1.10783 50.17755 C -1.12 50.18 -1.12 50.18 -1.13243 50.18079 C -1.14 50.18 -1.15 50.18 -1.15627 50.18349 C -1.16 50.18 -1.17 50.19 -1.17943 50.18569 C -1.19 50.19 -1.19 50.19 -1.20199 50.18744 C -1.23 50.19 -1.26 50.19 -1.28838 50.19041 C -1.49 50.2 -1.86 50.12 -2.24259 49.86404 M -69.97538 5.56429 L -70.44679 5.83645 M -69.97538 5.56429 L -71.43004 3.04475 M -12.64937 36.61356 L -13.37271 36.54758 M -12.59267 36.61873 L -13.06444 36.89111 M -13.40684 36.54446 L -13.87825 36.81663 M -69.64205 6.68597 L -69.97538 5.56429 M -69.64205 6.68597 L -70.11345 6.95813 M -69.64205 22.74374 L -70.11345 23.0159 M -69.64205 22.74374 L -69.64205 6.68597 M -69.30872 23.86542 L -69.64205 22.74374 M -69.30872 23.86542 L -69.78012 24.13758 M -67.85406 26.38495 L -68.32547 26.65712 M -67.85406 26.38495 L -69.30872 23.86542 M -67.04933 27.23447 L -67.85406 26.38495 M -67.04933 27.23447 L -67.52073 27.50663 M -17.78755 55.67576 L -18.25896 55.94793 M -17.78755 55.67576 L -67.04933 27.23447 M -16.98281 55.75548 L -17.78755 55.67576 M -13.52185 -45.30026 C -13.54 -45.29 -13.57 -45.27 -13.58983 -45.25933 C -13.61 -45.24 -13.64 -45.23 -13.6577 -45.21059 C -13.68 -45.19 -13.7 -45.17 -13.72462 -45.15484 C -13.75 -45.14 -13.77 -45.11 -13.78975 -45.0929 C -13.81 -45.07 -13.83 -45.05 -13.85227 -45.02559 C -13.87 -45 -13.89 -44.98 -13.9114 -44.95374 C -13.93 -44.93 -13.95 -44.9 -13.96634 -44.87819 C -13.98 -44.85 -14 -44.83 -14.01632 -44.79979 M 11.43953 -44.80001 C 11.42 -44.83 11.41 -44.85 11.38993 -44.87942 C 11.37 -44.91 11.35 -44.93 11.33489 -44.95569 C 11.32 -44.98 11.3 -45 11.27528 -45.02802 C 11.25 -45.05 11.23 -45.07 11.21201 -45.0956 C 11.19 -45.12 11.17 -45.14 11.14597 -45.15763 C 11.12 -45.18 11.1 -45.2 11.07808 -45.21334 C 11.06 -45.23 11.03 -45.25 11.0093 -45.26194 C 10.99 -45.28 10.96 -45.29 10.94057 -45.30268 M -13.87825 -44.7203 L -13.06444 -45.56458 L -12.59267 -45.2922 L -13.40684 -44.44813 L -12.6021 -43.98351 C -12.59 -44 -12.58 -44.02 -12.57031 -44.03534 C -12.56 -44.05 -12.55 -44.07 -12.53613 -44.08507 C -12.52 -44.1 -12.51 -44.12 -12.49975 -44.13273 C -12.49 -44.15 -12.47 -44.16 -12.46137 -44.17834 C -12.45 -44.19 -12.43 -44.21 -12.42118 -44.22195 C -12.41 -44.24 -12.39 -44.25 -12.3794 -44.26359 C -12.37 -44.28 -12.35 -44.29 -12.33623 -44.30329 C -12.32 -44.32 -12.31 -44.33 -12.29187 -44.34109 C -12.28 -44.35 -12.26 -44.37 -12.24654 -44.37703 C -12.23 -44.39 -12.22 -44.4 -12.20044 -44.41116 C -12.18 -44.42 -12.17 -44.43 -12.15381 -44.4435 C -12.14 -44.45 -12.12 -44.46 -12.10684 -44.47412 C -12.09 -44.48 -12.08 -44.49 -12.05978 -44.50305 C -12.04 -44.51 -12.03 -44.52 -12.01284 -44.53035 C -12 -44.54 -11.98 -44.55 -11.96625 -44.55606 C -11.95 -44.56 -11.94 -44.57 -11.92025 -44.58024 C -12.14 -44.82 -12.37 -45.06 -12.59267 -45.2922 M -15.47097 -42.28048 L -15.3329 -42.20076 L -14.86149 -41.9286 L -15.19483 -40.80692 M -15.3329 -42.20076 Q -16.04 -40.98 -15.99957 -41.04606 Q -14.94 -42.88 -13.87825 -44.7203 L -13.40684 -44.44813 M -15.3329 -42.20076 L -15.66623 -41.07908 M -15.66623 -25.02131 L -15.66623 -41.07908 M -15.66623 -25.02131 L -15.99957 -23.89963 M -17.59229 -21.45981 L -17.45422 -21.3801 L -16.98281 -21.10793 L -17.78755 -20.25842 M -17.45422 -21.3801 L -15.99957 -23.89963 M -17.45422 -21.3801 L -18.25896 -20.53058 L -17.78755 -20.25842 M -67.52073 7.91071 L -68.32547 7.99043 M -67.52073 7.91071 L -18.25896 -20.53058 M -77.22805 -0.68018 L -77.22805 0.24905 M -77.22805 -0.68018 L -75.68662 -0.10622 M -77.22805 -0.68018 L -83.4542 -0.68018 A 6.33333 3.65655 360 0 1 -87.93255 -6.92231 A 6.33333 3.65655 360 0 1 -83.4542 -7.99329 L -77.22805 -7.99329 M -72.69711 -11.13564 L -72.22534 -10.86326 L -71.43004 -10.94842 L -71.29197 -10.09891 L -69.83731 -9.25906 L -69.97538 -10.10858 M -86.53012 -4.96952 A 1.55 0.89489 180 1 0 -84.33809 -4.96952 A 1.55 0.89489 180 0 0 -86.53012 -4.96952 Z M -71.90144 -11.22059 L -71.43004 -10.94842 L -69.97538 -10.10858 M -83.12747 1.25613 L -78.52606 5.28166 M -83.1721 2.98736 C -83.19 2.97 -83.22 2.96 -83.2386 2.94663 C -83.26 2.93 -83.28 2.92 -83.30643 2.90492 C -83.34 2.89 -83.36 2.87 -83.39411 2.85089 C -83.42 2.83 -83.45 2.81 -83.48396 2.79543 C -83.51 2.78 -83.54 2.76 -83.57604 2.73858 C -83.61 2.72 -83.64 2.7 -83.67035 2.68038 C -83.7 2.66 -83.73 2.64 -83.76694 2.62085 C -83.8 2.6 -83.83 2.58 -83.86582 2.56002 C -83.9 2.54 -83.93 2.52 -83.96702 2.49789 C -84 2.48 -84.04 2.46 -84.07055 2.43447 C -84.11 2.41 -84.14 2.39 -84.17644 2.36977 C -84.21 2.35 -84.25 2.33 -84.28468 2.30376 C -84.32 2.28 -84.36 2.26 -84.39529 2.23645 C -84.43 2.21 -84.47 2.19 -84.50827 2.16782 C -84.55 2.14 -84.58 2.12 -84.6236 2.09783 C -84.66 2.07 -84.7 2.05 -84.74128 2.02646 C -84.78 2 -84.82 1.98 -84.86129 1.95366 C -84.9 1.93 -84.94 1.9 -84.98359 1.8794 C -85 1.87 -85.03 1.85 -85.04801 1.84024 C -85.07 1.83 -85.09 1.81 -85.11302 1.80067 C -85.13 1.79 -85.16 1.77 -85.17862 1.76068 C -85.2 1.75 -85.22 1.73 -85.2448 1.72026 M -64.928 18.38909 A 7 4.04145 180 0 0 -66.96237 20.97466 M -6.23814 -15.49552 L -64.928 18.38909 L -64.928 17.84476 L -6.23814 -16.03985 L -6.70955 -16.85635 A 7.66667 4.42635 360 0 1 4.13276 -16.85635 L 62.82262 17.02826 A 7.66667 4.42635 360 0 1 62.82262 23.28807 L 13.08944 52.00153 M 3.66135 -15.49552 A 7 4.04145 180 0 0 -6.23814 -15.49552 L -6.23814 -16.03985 A 7 4.04145 360 0 1 3.66135 -16.03985 L 4.13276 -16.85635 M 64.38558 20.97466 A 7 4.04145 180 0 0 62.35122 18.38909 L 62.35122 17.84476 A 7 4.04145 360 0 1 64.40147 20.70249 A 7 4.04145 360 0 1 62.35122 23.56023 M 62.35122 18.38909 L 3.66135 -15.49552 L 3.66135 -16.03985 L 62.35122 17.84476 L 62.82262 17.02826 M -71.2937 2.96204 C -71.3 2.94 -71.31 2.93 -71.32542 2.91046 C -71.34 2.89 -71.35 2.88 -71.35931 2.86085 C -71.37 2.84 -71.38 2.83 -71.39512 2.81315 C -71.41 2.8 -71.42 2.78 -71.43263 2.76731 C -71.45 2.75 -71.46 2.74 -71.47161 2.72328 C -71.48 2.71 -71.5 2.69 -71.51183 2.68102 C -71.53 2.67 -71.54 2.65 -71.55307 2.64047 C -71.57 2.63 -71.58 2.61 -71.59512 2.60159 C -71.61 2.59 -71.62 2.58 -71.63775 2.56435 C -71.65 2.55 -71.67 2.54 -71.68075 2.52869 C -71.7 2.52 -71.71 2.51 -71.72391 2.49457 C -71.74 2.48 -71.75 2.47 -71.76703 2.46196 C -71.78 2.45 -71.8 2.44 -71.8099 2.43083 C -71.82 2.42 -71.84 2.41 -71.85231 2.40113 C -71.87 2.39 -71.88 2.38 -71.89408 2.37283 C -71.91 2.36 -71.92 2.35 -71.935 2.3459 M -71.93822 2.34418 C -72.04 2.29 -72.13 2.24 -72.22534 2.18979 M -72.07316 2.27196 C -72.04 2.29 -72.13 2.24 -72.22534 2.18979 M 12.89418 38.50599 L 12.75611 37.65647 L 13.08944 38.39325 M 12.75611 37.65647 Q 13.46 38.06 13.42278 38.04137 Q 12.36 37.43 11.30146 36.81663 M 70.56357 -10.87936 C 70.58 -10.87 70.59 -10.86 70.60951 -10.8528 L 70.12032 -11.13564 L 70.12032 -11.13564 L 70.12032 -11.13564 L 69.64855 -10.86326 L 68.85325 -10.94842 L 68.71518 -10.09891 C 68.73 -10.11 68.75 -10.11 68.76114 -10.11909 C 68.78 -10.12 68.79 -10.13 68.81136 -10.12985 C 68.83 -10.13 68.85 -10.13 68.86515 -10.13199 C 68.88 -10.13 68.9 -10.13 68.92185 -10.12632 C 68.94 -10.12 68.96 -10.12 68.98079 -10.11368 C 69 -10.11 69.02 -10.1 69.04133 -10.09489 C 69.06 -10.09 69.08 -10.08 69.10284 -10.0708 C 69.12 -10.06 69.14 -10.05 69.16469 -10.04225 C 69.18 -10.03 69.2 -10.03 69.21409 -10.01673 C 69.23 -10.01 69.25 -10 69.26301 -9.98934 C 69.28 -9.98 69.3 -9.97 69.31115 -9.96051 C 69.33 -9.95 69.34 -9.94 69.35821 -9.93071 C 69.46 -10.24 69.56 -10.55 69.64855 -10.86326 M 73.52461 -8.4128 A 18 10.3923 180 0 0 70.60951 -10.8528 M 70.60951 3.268 C 70.59 3.28 70.57 3.3 70.54573 3.31149 C 70.52 3.33 70.5 3.34 70.48134 3.36258 C 70.46 3.38 70.44 3.4 70.41717 3.42043 C 70.4 3.44 70.37 3.46 70.35404 3.48418 C 70.33 3.51 70.31 3.53 70.29283 3.553 C 70.27 3.58 70.25 3.6 70.23439 3.62609 C 70.22 3.65 70.2 3.68 70.17961 3.70261 C 70.16 3.73 70.15 3.76 70.12939 3.78176 M 70.60951 3.268 A 18 10.3923 180 0 0 73.714 0.60082 L 74.65126 0.24905 M 73.714 0.77773 L 73.714 0.60082 M 73.92546 1.89644 C 73.86 1.52 73.79 1.15 73.714 0.77773 L 74.65126 0.42596 L 74.65126 0.24905 M 75.38081 6.82841 C 75.38 6.83 75.38 6.83 75.37816 6.83257 C 75.38 6.83 75.38 6.83 75.37543 6.83482 C 75.37 6.84 75.37 6.84 75.37262 6.83528 C 75.37 6.84 75.37 6.83 75.36976 6.83407 C 75.37 6.83 75.37 6.83 75.36684 6.83127 C 75.37 6.83 75.36 6.83 75.36389 6.82701 C 75.36 6.83 75.36 6.82 75.36089 6.82136 C 75.36 6.82 75.36 6.82 75.35787 6.81442 C 75.36 6.81 75.36 6.81 75.35483 6.80627 C 75.35 6.8 75.35 6.8 75.35177 6.797 C 75.35 6.79 75.35 6.79 75.3487 6.78667 C 75.35 6.78 75.35 6.78 75.34562 6.77536 C 75.34 6.77 75.34 6.77 75.34253 6.76314 C 75.34 6.76 75.34 6.75 75.33945 6.75005 C 75.34 6.75 75.34 6.74 75.33636 6.73617 C 75.34 6.73 75.33 6.73 75.33327 6.72153 C 75.33 6.72 75.33 6.71 75.3302 6.70618 C 75.33 6.7 75.33 6.7 75.32712 6.69017 C 75.33 6.68 75.33 6.68 75.32406 6.67353 C 75.32 6.67 75.32 6.66 75.321 6.6563 C 75.32 6.65 75.32 6.64 75.31795 6.63851 C 75.32 6.63 75.32 6.63 75.31491 6.62019 C 75.31 6.61 75.31 6.6 75.30886 6.58204 C 75.31 6.58 75.31 6.57 75.30585 6.56225 C 75.3 6.56 75.3 6.55 75.30286 6.54203 C 75.3 6.54 75.3 6.54 75.30136 6.53177 C 75.3 6.53 75.3 6.52 75.29988 6.52141 C 75.3 6.51 75.3 6.51 75.29692 6.50045 C 75.29 6.47 75.29 6.44 75.28555 6.4166 C 75.26 6.25 75.24 6.07 75.20798 5.90135 L 75.94927 5.28166 C 75.94 5.24 75.94 5.2 75.93173 5.1526 C 75.93 5.11 75.92 5.07 75.913 5.02367 C 75.91 4.98 75.9 4.94 75.89306 4.89486 C 75.89 4.85 75.88 4.81 75.87193 4.7662 C 75.86 4.68 75.84 4.59 75.82604 4.50932 C 75.81 4.42 75.79 4.34 75.77534 4.25313 C 75.76 4.17 75.74 4.08 75.71984 3.99769 C 75.7 3.91 75.68 3.83 75.65955 3.74307 C 75.62 3.57 75.57 3.4 75.5247 3.23654 C 75.48 3.07 75.43 2.9 75.37095 2.73406 C 75.32 2.57 75.26 2.4 75.19844 2.23615 C 75.14 2.07 75.07 1.91 75.00737 1.74334 C 74.97 1.66 74.94 1.58 74.90493 1.499 C 74.87 1.42 74.83 1.34 74.79792 1.25613 C 74.75 0.98 74.7 0.7 74.65126 0.42596 M 75.20798 5.90135 C 75.2 5.86 75.19 5.82 75.18586 5.77285 C 75.18 5.73 75.17 5.69 75.16259 5.64441 C 75.15 5.6 75.15 5.56 75.13816 5.51607 C 75.13 5.47 75.12 5.43 75.11257 5.38788 C 75.1 5.35 75.09 5.3 75.0858 5.25987 C 75.08 5.22 75.07 5.17 75.05787 5.13205 C 75.05 5.09 75.04 5.05 75.02875 5.00443 C 75.02 4.96 75.01 4.92 74.99847 4.87703 C 74.98 4.79 74.96 4.71 74.93436 4.62289 C 74.91 4.54 74.89 4.45 74.86557 4.36966 C 74.84 4.29 74.82 4.2 74.7921 4.11736 C 74.77 4.03 74.74 3.95 74.71399 3.86602 C 74.69 3.78 74.66 3.7 74.63127 3.61568 C 74.6 3.53 74.57 3.45 74.54396 3.3664 C 74.48 3.2 74.42 3.04 74.3557 2.87125 C 74.29 2.71 74.22 2.54 74.14945 2.38109 C 74.11 2.3 74.08 2.22 74.03966 2.13804 C 74 2.06 73.96 1.98 73.92546 1.89644 M 70.12019 3.79747 L 69.32465 3.31692 L 67.87 5.83645 M 69.32465 3.31692 L 70.12032 2.46217 A 17.33333 10.0074 180 0 0 73.10984 -0.10622 L 74.65126 -0.68018 L 74.65126 0.24905 M 70.12032 2.46217 L 70.60951 3.268 M 13.08944 54.45102 L 13.42278 55.1878 M 68.47947 6.95813 L 67.53667 6.95813 L 67.53667 23.0159 M 67.53667 6.95813 L 67.87 5.83645 M 15.0155 56.87716 L 14.87743 56.02765 L 15.68217 55.94793 M 14.87743 56.02765 L 13.42278 55.1878 M 68.00807 24.6022 L 67.20333 24.13758 L 65.74868 26.65712 M 67.20333 24.13758 L 67.53667 23.0159 M 65.41535 28.32313 L 64.94394 27.50663 L 65.74868 26.65712 M 64.94394 27.50663 L 15.68217 55.94793 M 10.01588 36.61873 L 10.48765 36.89111 M 10.83005 36.54446 L 11.30146 36.81663 M 5.04494 39.50704 L 5.71161 40.05138 L 5.71161 43.64605 A 7 4.04145 360 0 1 -8.28839 43.64605 L -8.28839 43.82296 M 5.04494 39.50704 L 6.03906 38.6171 M -12.59267 36.61873 A 16.66667 9.6225 180 0 0 10.01588 36.61873 L 10.83005 36.54446 M -7.62173 43.10172 L -7.62173 39.50704 M 5.04494 43.10172 A 6.33333 3.65655 360 0 1 -7.62173 43.10172 L -8.28839 43.64605 L -8.28839 40.05138 M 5.04494 39.50704 L 5.04494 43.10172 L 5.71161 43.64605 L 5.71161 43.82296 C 5.71 43.86 5.71 43.9 5.70884 43.93659 C 5.71 43.97 5.7 44.01 5.70054 44.05016 C 5.7 44.09 5.69 44.13 5.6867 44.16356 C 5.68 44.2 5.67 44.24 5.66735 44.27671 C 5.66 44.31 5.65 44.35 5.64249 44.38951 C 5.63 44.43 5.62 44.46 5.61214 44.50186 C 5.6 44.54 5.59 44.58 5.57632 44.61368 C 5.56 44.65 5.55 44.69 5.53507 44.72488 C 5.51 44.79 5.48 44.85 5.45861 44.91836 C 5.43 44.98 5.41 45.05 5.38276 45.11168 C 5.36 45.18 5.33 45.24 5.30604 45.30875 C 5.28 45.37 5.26 45.44 5.23002 45.50567 C 5.22 45.54 5.2 45.58 5.1825 45.62066 C 5.17 45.66 5.15 45.7 5.12875 45.73464 C 5.11 45.77 5.09 45.81 5.06881 45.8475 C 5.05 45.88 5.03 45.92 5.00276 45.95916 C 4.98 46 4.96 46.03 4.93067 46.06951 C 4.91 46.11 4.88 46.14 4.85261 46.17846 C 4.83 46.21 4.8 46.25 4.76866 46.28591 C 4.74 46.32 4.71 46.36 4.67892 46.39177 C 4.65 46.43 4.62 46.46 4.58347 46.49594 C 4.55 46.53 4.52 46.56 4.4824 46.59833 C 4.45 46.63 4.41 46.67 4.37582 46.69886 C 4.34 46.73 4.3 46.76 4.26382 46.79743 C 4.23 46.83 4.19 46.86 4.14652 46.89396 C 4.11 46.93 4.07 46.96 4.02403 46.98835 C 3.98 47.02 3.94 47.05 3.89646 47.08053 C 3.85 47.11 3.81 47.14 3.76394 47.17041 C 3.72 47.2 3.69 47.22 3.64511 47.24642 C 3.6 47.27 3.56 47.3 3.52273 47.32059 C 3.48 47.35 3.44 47.37 3.3969 47.39287 C 3.35 47.42 3.31 47.44 3.2677 47.4632 C 3.22 47.49 3.18 47.51 3.13522 47.53154 C 3.09 47.55 3.05 47.58 2.99956 47.59784 C 2.95 47.62 2.91 47.64 2.86082 47.66205 C 2.81 47.68 2.77 47.7 2.71909 47.72412 C 2.67 47.74 2.62 47.76 2.57448 47.78402 C 2.53 47.8 2.48 47.82 2.42709 47.84169 C 2.38 47.86 2.33 47.88 2.27702 47.89711 C 2.23 47.92 2.18 47.93 2.12438 47.95022 C 2.07 47.97 2.02 47.98 1.96928 48.001 C 1.92 48.02 1.86 48.03 1.81183 48.0494 C 1.76 48.07 1.71 48.08 1.65215 48.09538 C 1.6 48.11 1.54 48.12 1.49034 48.13893 C 1.44 48.15 1.38 48.17 1.32653 48.18 C 1.27 48.19 1.22 48.21 1.16083 48.21856 C 1.11 48.23 1.05 48.24 0.99337 48.25458 C 0.94 48.27 0.88 48.28 0.82425 48.28805 C 0.77 48.3 0.71 48.31 0.65361 48.31893 C 0.6 48.33 0.54 48.34 0.48156 48.34721 C 0.42 48.36 0.37 48.36 0.30824 48.37285 C 0.25 48.38 0.19 48.39 0.13376 48.39585 C 0.08 48.4 0.02 48.41 -0.04175 48.41618 C -0.1 48.42 -0.16 48.43 -0.21817 48.43383 C -0.28 48.44 -0.34 48.44 -0.39535 48.44879 C -0.45 48.45 -0.51 48.46 -0.57318 48.46104 C -0.81 48.48 -1.05 48.48 -1.28839 48.48286 C -3.2 48.49 -5.1 48 -6.34073 47.17041 C -6.39 47.14 -6.43 47.11 -6.47325 47.08053 C -6.52 47.05 -6.56 47.02 -6.60082 46.98835 C -6.64 46.96 -6.68 46.93 -6.72331 46.89396 C -6.76 46.86 -6.8 46.83 -6.84061 46.79743 C -6.88 46.76 -6.92 46.73 -6.95261 46.69886 C -6.99 46.67 -7.02 46.63 -7.05919 46.59833 C -7.09 46.56 -7.13 46.53 -7.16026 46.49594 C -7.19 46.46 -7.22 46.43 -7.25571 46.39177 C -7.29 46.36 -7.32 46.32 -7.34545 46.28591 C -7.37 46.25 -7.4 46.21 -7.4294 46.17846 C -7.46 46.14 -7.48 46.11 -7.50745 46.06951 C -7.53 46.03 -7.56 46 -7.57955 45.95916 C -7.6 45.92 -7.62 45.88 -7.6456 45.8475 C -7.67 45.81 -7.69 45.77 -7.70553 45.73464 C -7.72 45.7 -7.74 45.66 -7.75929 45.62066 C -7.78 45.58 -7.79 45.54 -7.80681 45.50567 C -7.83 45.45 -7.84 45.4 -7.86006 45.35189 C -7.88 45.3 -7.89 45.25 -7.90213 45.19675 C -7.91 45.14 -7.92 45.09 -7.9329 45.04048 C -7.94 44.99 -7.95 44.94 -7.95228 44.88333 M -2.38441 44.8776 A 1.55 0.89489 180 0 0 -0.19238 43.61203 A 1.55 0.89489 180 0 0 -2.38441 43.61203 A 1.55 0.89489 180 0 0 -2.38441 44.8776 Z M 5.34219 45.11852 C 5.34 45.15 5.33 45.18 5.32074 45.21604 C 5.31 45.25 5.3 45.28 5.29487 45.31312 C 5.29 45.35 5.28 45.38 5.26463 45.40968 C 5.25 45.44 5.24 45.47 5.23002 45.50567 M -3.76327 48.39908 C -3.78 48.4 -3.8 48.39 -3.81479 48.38871 C -3.83 48.39 -3.85 48.38 -3.86495 48.37837 C -3.88 48.37 -3.9 48.37 -3.91372 48.36808 C -3.93 48.36 -3.95 48.36 -3.96112 48.35786 C -3.98 48.35 -3.99 48.35 -4.00712 48.34773 C -4.02 48.34 -4.04 48.34 -4.05172 48.33771 C -4.07 48.33 -4.08 48.33 -4.09493 48.32781 C -4.11 48.32 -4.12 48.32 -4.13674 48.31806 C -4.15 48.31 -4.16 48.31 -4.17716 48.30847 C -4.19 48.31 -4.2 48.3 -4.21617 48.29906 C -4.24 48.29 -4.27 48.29 -4.29003 48.28085 C -4.31 48.27 -4.34 48.27 -4.35836 48.26354 C -4.38 48.26 -4.4 48.25 -4.4212 48.24725 C -4.44 48.24 -4.46 48.24 -4.47864 48.23209 C -4.5 48.23 -4.51 48.22 -4.53077 48.21816 C -4.55 48.21 -4.56 48.21 -4.57768 48.20555 C -4.59 48.2 -4.61 48.2 -4.61949 48.19433 C -4.63 48.19 -4.64 48.19 -4.65631 48.18458 C -4.67 48.18 -4.68 48.18 -4.68829 48.17636 C -4.7 48.17 -4.71 48.17 -4.71555 48.16971 C -4.72 48.17 -4.73 48.17 -4.73824 48.16469 C -4.75 48.16 -4.75 48.16 -4.76063 48.1607 C -4.77 48.16 -4.77 48.16 -4.77625 48.15939 C -4.78 48.16 -4.78 48.16 -4.78541 48.16081 C -4.79 48.16 -4.79 48.16 -4.78839 48.16496 C -4.79 48.17 -4.79 48.17 -4.78657 48.17019 C -4.79 48.17 -4.78 48.17 -4.78119 48.17713 C -4.78 48.18 -4.78 48.18 -4.77238 48.18578 C -4.77 48.19 -4.76 48.19 -4.76029 48.19611 C -4.76 48.2 -4.75 48.21 -4.74239 48.21012 C -4.74 48.22 -4.73 48.22 -4.72046 48.22631 C -4.71 48.23 -4.7 48.24 -4.69467 48.24465 C -4.69 48.25 -4.68 48.26 -4.66518 48.26509 C -4.65 48.27 -4.64 48.28 -4.63216 48.28758 C -4.62 48.3 -4.61 48.3 -4.59573 48.31207 C -4.58 48.32 -4.57 48.33 -4.55603 48.33851 C -4.54 48.35 -4.53 48.36 -4.51319 48.36683 C -4.5 48.38 -4.48 48.39 -4.46729 48.39698 C -4.45 48.41 -4.44 48.42 -4.41845 48.4289 C -4.4 48.44 -4.38 48.45 -4.36674 48.46251 C -4.35 48.47 -4.33 48.49 -4.31223 48.49776 C -4.29 48.51 -4.27 48.52 -4.25499 48.53457 C -4.24 48.55 -4.22 48.56 -4.19504 48.57289 C -4.17 48.59 -4.15 48.6 -4.13244 48.61264 C -4.11 48.63 -4.09 48.64 -4.06718 48.65374 C -4.05 48.66 -4.03 48.68 -4.01255 48.68788 C -3.99 48.7 -3.98 48.71 -3.95621 48.7228 C -3.94 48.73 -3.92 48.75 -3.89814 48.75847 C -3.88 48.77 -3.86 48.78 -3.83831 48.79485 C -3.82 48.81 -3.8 48.82 -3.7767 48.8319 C -3.76 48.84 -3.73 48.86 -3.71327 48.86958 C -3.67 48.89 -3.63 48.92 -3.58074 48.9466 C -3.4 49.05 -3.2 49.16 -2.96381 49.26752 C -2.55 49.45 -2 49.67 -1.28956 49.67609 C 1.25 49.34 2.02 48.13 2.21161 48.16496 C 2.21 48.16 2.21 48.16 2.21038 48.16198 C 2.21 48.16 2.21 48.16 2.20665 48.16013 C 2.2 48.16 2.2 48.16 2.20035 48.15941 C 2.2 48.16 2.19 48.16 2.19138 48.1598 C 2.19 48.16 2.18 48.16 2.17968 48.16132 C 2.18 48.16 2.17 48.16 2.16516 48.16394 C 2.16 48.16 2.15 48.17 2.14775 48.16765 C 2.14 48.17 2.13 48.17 2.12737 48.17243 C 2.12 48.17 2.11 48.18 2.10394 48.17827 C 2.1 48.18 2.09 48.18 2.07739 48.18514 C 2.07 48.19 2.06 48.19 2.04763 48.19301 C 2.04 48.2 2.03 48.2 2.01461 48.20186 C 2 48.2 1.99 48.21 1.97825 48.21164 C 1.97 48.22 1.95 48.22 1.93849 48.22231 C 1.92 48.23 1.91 48.23 1.89526 48.23384 C 1.88 48.24 1.86 48.24 1.84851 48.24617 C 1.84 48.25 1.83 48.25 1.81701 48.25439 C 1.81 48.26 1.8 48.26 1.78407 48.26289 C 1.77 48.27 1.76 48.27 1.74968 48.27167 C 1.74 48.27 1.73 48.28 1.71382 48.2807 C 1.7 48.28 1.69 48.29 1.67649 48.28998 C 1.66 48.29 1.65 48.3 1.63769 48.29948 C 1.62 48.3 1.61 48.31 1.59741 48.30918 C 1.58 48.31 1.57 48.32 1.55565 48.31907 C 1.54 48.32 1.53 48.33 1.5124 48.32914 C 1.5 48.33 1.48 48.34 1.46768 48.33935 C 1.44 48.35 1.41 48.35 1.37378 48.36015 C 1.31 48.37 1.24 48.39 1.16841 48.40266 C 0.99 48.44 0.78 48.47 0.55341 48.50675 C -0.75 48.73 -2.76 48.63 -3.76327 48.39908 Z M -69.83731 5.48457 L -69.97538 5.56429 M -69.83731 5.48457 L -71.29197 2.96504 M -69.64205 6.14164 L -69.64205 6.68597 M -69.64205 6.14164 L -69.83731 5.48457 M -69.17065 23.7857 L -69.30872 23.86542 M -69.17065 23.7857 L -69.64205 22.1994 M -67.71599 26.30524 L -67.85406 26.38495 M -67.71599 26.30524 L -69.17065 23.7857 M -66.57792 27.50663 L -67.71599 26.30524 M 11.43953 -44.80001 L 12.89418 -42.28048 L 12.75611 -42.20076 L 12.28471 -41.9286 M 13.08944 -41.62341 L 12.89418 -42.28048 M 13.56085 -23.97935 L 13.08944 -25.56565 M 13.56085 -23.97935 L 15.0155 -21.45981 L 14.87743 -21.3801 L 14.40603 -21.10793 L 15.21076 -20.25842 L 64.47254 8.18288 M 16.15357 -20.25842 L 15.0155 -21.45981 M -8.61585 -47.29057 A 17.33333 10.0074 180 0 0 -13.06444 -45.56458 M 10.48765 -45.56458 L 11.28789 -44.73437 M 11.30358 -44.72152 L 11.43675 -44.79841 M -8.28839 -47.63618 L -8.89768 -47.09506 M 10.48765 -45.56458 A 17.33333 10.0074 180 0 0 6.03906 -47.29057 L 5.04494 -48.18051 L 5.71161 -47.63618 M 6.12788 -47.26648 L 5.71161 -47.63618 M -14.86149 -41.9286 Q -15.57 -40.71 -15.52816 -40.7739 Q -14.47 -42.61 -13.40684 -44.44813 M -69.64205 -9.3718 L -69.97538 -10.10858 M -15.66623 -25.02131 L -15.19483 -24.74915 L -15.52816 -23.62747 M -15.19483 -24.74915 L -15.19483 -40.80692 M -69.30872 7.42275 L -69.64205 6.68597 M -16.98281 -21.10793 L -15.52816 -23.62747 M -69.30872 7.42275 L -67.85406 8.2626 L -67.04933 8.18288 L -17.78755 -20.25842 M -67.52073 7.91071 L -67.04933 8.18288 M -71.935 -9.93071 A 16 9.2376 180 0 0 -75.97826 -3.7924 A 16 9.2376 180 0 0 -71.935 2.3459 M -90.4542 -3.7924 A 7 4.04145 360 0 1 -88.40395 -6.65014 M -83.93838 -4.57148 A 3.5 2.02073 180 0 0 -86.92982 -4.57148 M -90.10399 -2.35318 C -90.13 -2.4 -90.16 -2.46 -90.18554 -2.50657 C -90.21 -2.56 -90.23 -2.61 -90.25648 -2.66172 C -90.28 -2.71 -90.3 -2.77 -90.31669 -2.81837 C -90.33 -2.87 -90.35 -2.92 -90.36609 -2.97628 C -90.38 -3.03 -90.39 -3.08 -90.40459 -3.1352 C -90.42 -3.19 -90.42 -3.24 -90.43213 -3.29488 C -90.44 -3.35 -90.44 -3.4 -90.44867 -3.45506 C -90.45 -3.51 -90.45 -3.56 -90.45419 -3.6155 M -64.928 23.56023 A 7 4.04145 360 0 1 -66.97826 20.70249 A 7 4.04145 360 0 1 -64.928 17.84476 L -65.39941 17.02826 L -6.70955 -16.85635 M 70.11423 -11.13629 L 69.32702 -11.22034 M 73.10984 -8.56724 A 17.33333 10.0074 180 0 0 70.12032 -11.13564 M 73.10984 -0.10622 L 73.714 0.60082 M 73.92546 1.89644 L 74.79792 1.25613 M 75.9767 5.81086 C 75.98 5.81 75.98 5.81 75.97997 5.80832 C 75.98 5.81 75.98 5.81 75.98299 5.80486 C 75.98 5.8 75.99 5.8 75.987 5.79805 C 75.99 5.8 75.99 5.79 75.9904 5.7893 C 75.99 5.79 75.99 5.78 75.99319 5.77867 C 75.99 5.77 75.99 5.77 75.99539 5.76622 C 76 5.76 76 5.76 75.99626 5.75934 C 76 5.76 76 5.75 75.99699 5.75203 C 76 5.75 76 5.75 75.99757 5.74429 C 76 5.74 76 5.74 75.99801 5.73613 C 76 5.73 76 5.73 75.99831 5.72755 C 76 5.72 76 5.72 75.99845 5.71855 C 76 5.72 76 5.71 75.99844 5.70911 C 76 5.71 76 5.7 75.99825 5.69922 C 76 5.69 76 5.69 75.99745 5.68026 C 76 5.67 76 5.67 75.99611 5.66021 C 76 5.65 75.99 5.65 75.9943 5.63908 C 75.99 5.63 75.99 5.62 75.9921 5.6169 C 75.99 5.61 75.99 5.6 75.98955 5.59372 C 75.99 5.59 75.99 5.58 75.98672 5.56957 C 75.99 5.56 75.98 5.55 75.98364 5.54447 C 75.98 5.54 75.98 5.53 75.98035 5.51847 C 75.98 5.51 75.98 5.5 75.97688 5.49159 C 75.98 5.48 75.97 5.47 75.97326 5.46387 C 75.97 5.45 75.97 5.44 75.96951 5.43535 C 75.97 5.43 75.97 5.42 75.96565 5.40605 C 75.96 5.4 75.96 5.39 75.96169 5.376 C 75.96 5.37 75.96 5.36 75.95763 5.34524 C 75.96 5.33 75.95 5.32 75.95349 5.31378 C 75.95 5.3 75.95 5.29 75.94927 5.28166 M 69.64855 2.18979 L 68.85325 3.04475 L 67.39859 5.56429 L 67.06526 6.68597 L 66.73193 7.42275 M 69.64855 2.18979 L 70.12032 2.46217 M 68.85325 3.04475 L 69.32465 3.31692 M 67.39859 5.56429 L 67.87 5.83645 M 67.06526 6.68597 L 67.53667 6.95813 M 67.06526 22.74374 L 67.53667 23.0159 M 67.06526 6.68597 L 67.06526 22.74374 L 66.73193 23.86542 L 65.27727 26.38495 L 64.47254 27.23447 L 64.94394 27.50663 M 15.21076 55.67576 L 14.40603 55.75548 M 15.21076 55.67576 L 15.68217 55.94793 M 66.73193 23.86542 L 67.20333 24.13758 M 64.47254 27.23447 L 15.21076 55.67576 M 65.27727 26.38495 L 65.74868 26.65712 M 0.20733 44.01007 A 3.5 2.02073 180 0 0 -2.78412 44.01007 M 5.53507 44.72488 C 5.52 44.75 5.51 44.78 5.5007 44.80755 C 5.49 44.84 5.48 44.86 5.46332 44.88979 C 5.45 44.92 5.44 44.94 5.42296 44.97156 C 5.41 45 5.39 45.03 5.37962 45.05281 C 5.36 45.08 5.35 45.11 5.33334 45.13352 C 5.32 45.16 5.3 45.19 5.28412 45.21365 C 5.27 45.24 5.25 45.27 5.232 45.29316 C 5.21 45.32 5.2 45.35 5.177 45.37202 C 5.14 45.42 5.1 45.48 5.05843 45.52763 C 5.02 45.58 4.97 45.63 4.92865 45.68022 C 4.88 45.73 4.84 45.78 4.78787 45.82952 C 4.74 45.88 4.69 45.93 4.63636 45.97526 C 4.58 46.02 4.53 46.07 4.47438 46.11718 C 4.42 46.16 4.36 46.21 4.30221 46.25504 C 4.24 46.3 4.18 46.34 4.12016 46.38859 C 4.06 46.43 3.99 46.48 3.92856 46.5176 C 3.86 46.56 3.8 46.6 3.72775 46.64184 C 3.66 46.68 3.59 46.72 3.51807 46.76109 C 3.45 46.8 3.37 46.84 3.2999 46.87514 C 3.23 46.91 3.15 46.95 3.07363 46.9838 C 3 47.02 2.92 47.05 2.83965 47.08687 C 2.76 47.12 2.68 47.15 2.59837 47.18416 C 2.52 47.22 2.43 47.25 2.35022 47.27552 C 2.27 47.3 2.18 47.33 2.09565 47.36077 C 2.01 47.39 1.92 47.41 1.83509 47.43977 C 1.75 47.47 1.66 47.49 1.569 47.51237 C 1.48 47.54 1.39 47.56 1.29787 47.57846 C 1.21 47.6 1.11 47.62 1.02216 47.6379 C 0.28 47.79 -0.5 47.86 -1.28839 47.8644 C -4.46 47.9 -7.46 46.52 -8.11186 44.72488 C -8.09 44.79 -8.06 44.85 -8.0354 44.91836 C -8.01 44.98 -7.98 45.05 -7.95955 45.11168 C -7.93 45.18 -7.91 45.24 -7.88282 45.30875 C -7.86 45.37 -7.83 45.44 -7.80681 45.50567 M -8.11186 44.72488 C -8.13 44.69 -8.14 44.65 -8.15311 44.61368 C -8.17 44.58 -8.18 44.54 -8.18892 44.50186 C -8.2 44.46 -8.21 44.43 -8.21927 44.38951 C -8.23 44.35 -8.24 44.31 -8.24414 44.27671 C -8.25 44.24 -8.26 44.2 -8.26349 44.16356 C -8.27 44.13 -8.27 44.09 -8.27732 44.05016 C -8.28 44.01 -8.28 43.97 -8.28563 43.93659 C -8.29 43.9 -8.29 43.86 -8.28839 43.82296 M 11.30146 -44.7203 L 12.75611 -42.20076 M 13.08944 -41.62341 L 13.08944 -41.07908 L 12.61804 -40.80692 L 12.61804 -24.74915 M 13.08944 -41.07908 L 12.75611 -42.20076 M 13.08944 -41.07908 L 13.08944 -25.02131 L 12.61804 -24.74915 M 13.56085 -23.97935 L 13.42278 -23.89963 L 12.95137 -23.62747 L 14.40603 -21.10793 M 13.42278 -23.89963 L 13.08944 -25.02131 M 65.74868 7.99043 L 64.94394 7.91071 L 64.47254 8.18288 M 13.42278 -23.89963 L 14.87743 -21.3801 M 15.68217 -20.53058 L 64.94394 7.91071 M 15.68217 -20.53058 L 14.87743 -21.3801 M -7.62173 -48.18051 L -8.28839 -47.63618 L -8.28839 -51.23085 A 7 4.04145 360 0 1 -6.23814 -54.08859 M -7.62173 -48.18051 L -8.61585 -47.29057 M -7.62173 -48.18051 L -7.62173 -51.77519 L -8.28839 -51.23085 M 10.01588 -45.2922 A 16.66667 9.6225 180 0 0 -12.59267 -45.2922 M -7.62173 -51.77519 A 6.33333 3.65655 360 0 1 -5.76674 -54.36076 L -6.23814 -54.08859 M -5.76674 -54.36076 A 6.33333 3.65655 360 0 1 3.18995 -54.36076 L 3.66135 -54.08859 A 7 4.04145 360 0 1 5.71161 -51.23085 L 5.71161 -47.63618 M 3.18995 -54.36076 A 6.33333 3.65655 360 0 1 5.04494 -51.77519 L 5.71161 -51.23085 M 10.48765 -45.56458 L 10.01588 -45.2922 L 10.83005 -44.44813 L 10.02531 -43.98351 L 11.47997 -41.46398 L 12.28471 -41.9286 M 5.04494 -51.77519 L 5.04494 -48.18051 M -0.19238 -53.55107 A 1.55 0.89489 180 0 0 -2.38441 -53.55107 A 1.55 0.89489 180 1 0 -0.19238 -53.55107 Z M 11.30146 -44.7203 L 10.83005 -44.44813 L 12.28471 -41.9286 M -2.51343 -52.37001 C -2.47 -52.38 -2.43 -52.4 -2.3811 -52.41212 C -2.34 -52.43 -2.29 -52.44 -2.24654 -52.44941 C -2.21 -52.46 -2.17 -52.47 -2.12972 -52.47745 C -2.09 -52.49 -2.05 -52.49 -2.01163 -52.50185 C -1.97 -52.51 -1.93 -52.52 -1.89244 -52.52256 C -1.85 -52.53 -1.81 -52.53 -1.77233 -52.53954 C -1.73 -52.54 -1.69 -52.55 -1.65147 -52.55276 C -1.61 -52.56 -1.57 -52.56 -1.53006 -52.56221 C -1.49 -52.56 -1.45 -52.57 -1.40827 -52.56785 C -1.37 -52.57 -1.33 -52.57 -1.2863 -52.56969 C -1.25 -52.57 -1.21 -52.57 -1.16536 -52.56775 C -1.13 -52.57 -1.08 -52.56 -1.0446 -52.56207 C -1 -52.56 -0.96 -52.56 -0.92421 -52.55266 C -0.88 -52.55 -0.84 -52.54 -0.80437 -52.53953 C -0.76 -52.53 -0.72 -52.53 -0.68526 -52.5227 C -0.65 -52.52 -0.61 -52.51 -0.56706 -52.50221 C -0.53 -52.49 -0.49 -52.49 -0.44993 -52.47809 C -0.41 -52.47 -0.37 -52.46 -0.33406 -52.45039 C -0.29 -52.44 -0.24 -52.43 -0.19757 -52.41268 C -0.15 -52.4 -0.11 -52.39 -0.06336 -52.37001 M -14.05676 -41.46398 L -14.86149 -41.9286 M -14.05676 -41.46398 Q -14.76 -40.24 -14.72342 -40.30928 Q -13.66 -42.15 -12.6021 -43.98351 M -14.05676 -41.46398 L -14.25202 -40.80692 L -15.19483 -40.80692 M -69.64205 -8.82747 L -69.64205 -9.3718 M -69.64205 -8.82747 L -69.83731 -9.25906 M -14.25202 -24.74915 L -15.19483 -24.74915 M -14.25202 -24.74915 L -14.25202 -40.80692 M -69.64205 -8.82747 L -69.64205 6.14164 M -14.25202 -24.74915 L -14.72342 -23.16285 L -15.52816 -23.62747 M -69.17065 8.27227 L -69.30872 7.42275 M -69.17065 8.27227 L -69.64205 7.2303 M -16.17808 -20.64332 L -16.98281 -21.10793 M -16.17808 -20.64332 L -14.72342 -23.16285 M -69.17065 8.27227 L -67.71599 9.11211 L -66.57792 8.99938 L -17.31615 -19.44192 L -17.78755 -20.25842 M -67.71599 9.11211 L -67.85406 8.2626 M -16.17808 -20.64332 L -17.31615 -19.44192 M -66.57792 8.99938 L -67.04933 8.18288 M -15.66623 52.00153 L -65.39941 23.28807 A 7.66667 4.42635 360 0 1 -65.39941 17.02826 M -12.6021 -20.80275 L -69.64205 12.12928 M 69.32465 -11.22059 L 68.85325 -10.94842 M 74.65126 -7.99329 L 73.10984 -8.56724 M 74.65126 -7.99329 L 80.87741 -7.99329 A 6.33333 3.65655 360 0 1 85.35576 -6.92231 L 85.82716 -6.65014 A 7 4.04145 360 0 1 87.87741 -3.7924 L 87.87741 -3.6155 M 69.64855 2.18979 A 16.66667 9.6225 180 0 0 69.64855 -10.86326 M 85.35576 -6.92231 A 6.33333 3.65655 360 0 1 80.87741 -0.68018 L 80.87741 0.24905 L 74.65126 0.24905 M 80.87741 -0.68018 L 74.65126 -0.68018 M 83.95333 -3.70395 A 1.55 0.89489 180 0 0 83.95333 -4.96952 A 1.55 0.89489 180 0 0 81.7613 -4.96952 A 1.55 0.89489 180 0 0 83.95333 -3.70395 Z M 80.87741 0.42596 C 80.85 0.43 80.82 0.43 80.79573 0.42596 C 80.77 0.43 80.74 0.43 80.71405 0.42596 C 80.69 0.43 80.66 0.43 80.63237 0.42596 C 80.61 0.43 80.58 0.43 80.55068 0.42596 L 80.55068 1.25613 L 74.79792 1.25613 M 80.55068 0.42596 L 74.65126 0.42596 M 87.0434 -1.50323 C 87.02 -1.47 87 -1.43 86.98206 -1.40027 C 86.96 -1.37 86.94 -1.33 86.91575 -1.29824 C 86.89 -1.26 86.87 -1.23 86.84452 -1.19724 C 86.82 -1.16 86.79 -1.13 86.76841 -1.09734 C 86.74 -1.06 86.72 -1.03 86.6875 -0.99861 C 86.66 -0.97 86.63 -0.93 86.60184 -0.90114 C 86.57 -0.87 86.54 -0.84 86.5115 -0.80499 C 86.48 -0.77 86.45 -0.74 86.41655 -0.71025 C 86.38 -0.68 86.35 -0.65 86.31706 -0.61698 C 86.28 -0.59 86.25 -0.56 86.21311 -0.52526 C 86.18 -0.49 86.14 -0.46 86.10477 -0.43515 C 86.07 -0.41 86.03 -0.38 85.99213 -0.34672 C 85.95 -0.32 85.91 -0.29 85.87528 -0.26006 C 85.84 -0.23 85.8 -0.2 85.75431 -0.17521 C 85.71 -0.15 85.67 -0.12 85.62929 -0.09224 C 85.59 -0.06 85.54 -0.04 85.50034 -0.01122 C 85.46 0.01 85.43 0.03 85.38719 0.05636 C 85.35 0.08 85.31 0.1 85.2713 0.12245 C 85.23 0.14 85.19 0.17 85.15273 0.18699 C 85.11 0.21 85.07 0.23 85.03155 0.24995 C 84.99 0.27 84.95 0.29 84.90782 0.3113 C 84.87 0.33 84.82 0.35 84.78162 0.37101 C 84.74 0.39 84.7 0.41 84.653 0.42903 C 84.61 0.45 84.57 0.47 84.52205 0.48534 C 84.48 0.5 84.43 0.52 84.38882 0.5399 C 84.34 0.56 84.3 0.58 84.2534 0.59268 C 84.21 0.61 84.16 0.63 84.11585 0.64365 C 84.07 0.66 84.02 0.68 83.97625 0.69278 C 83.88 0.72 83.79 0.76 83.6912 0.7854 C 83.59 0.82 83.5 0.84 83.39887 0.87033 C 83.3 0.9 83.2 0.92 83.09987 0.94735 C 83 0.97 82.9 0.99 82.79487 1.01626 C 82.69 1.04 82.59 1.06 82.4845 1.07688 C 82.38 1.1 82.28 1.11 82.16946 1.12902 C 82.06 1.14 81.96 1.16 81.85042 1.17254 C 81.74 1.19 81.64 1.2 81.5281 1.20729 C 81.47 1.21 81.42 1.22 81.36592 1.22133 C 81.31 1.23 81.26 1.23 81.2032 1.23312 C 81.15 1.24 81.09 1.24 81.04001 1.24266 C 80.99 1.25 80.93 1.25 80.87646 1.24992 C 80.87 1.25 80.87 1.25 80.86666 1.25028 C 80.86 1.25 80.86 1.25 80.85673 1.25064 C 80.85 1.25 80.85 1.25 80.84672 1.25099 C 80.84 1.25 80.84 1.25 80.83663 1.25133 C 80.83 1.25 80.83 1.25 80.82649 1.25166 C 80.82 1.25 80.82 1.25 80.81631 1.25199 C 80.81 1.25 80.81 1.25 80.80611 1.2523 C 80.8 1.25 80.8 1.25 80.79589 1.2526 C 80.79 1.25 80.79 1.25 80.78566 1.25289 C 80.78 1.25 80.78 1.25 80.77543 1.25316 C 80.77 1.25 80.76 1.25 80.75497 1.25368 C 80.75 1.25 80.74 1.25 80.73451 1.25414 C 80.73 1.25 80.72 1.25 80.71407 1.25456 C 80.71 1.25 80.7 1.25 80.69365 1.25492 C 80.69 1.26 80.68 1.26 80.67322 1.25524 C 80.67 1.26 80.66 1.26 80.65279 1.25551 C 80.65 1.26 80.64 1.26 80.63236 1.25573 C 80.63 1.26 80.62 1.26 80.61194 1.25591 C 80.61 1.26 80.6 1.26 80.59152 1.25603 C 80.58 1.26 80.58 1.26 80.5711 1.2561 C 80.56 1.26 80.56 1.26 80.55068 1.25613 L 75.94927 5.28166 M 82.66801 1.72026 C 82.63 1.75 82.58 1.77 82.54024 1.79823 C 82.5 1.82 82.46 1.85 82.41466 1.87463 C 82.37 1.9 82.33 1.92 82.2917 1.94929 C 82.25 1.97 82.21 2 82.17105 2.02248 C 82.13 2.05 82.09 2.07 82.05276 2.09422 C 82.01 2.12 81.98 2.14 81.93682 2.16457 C 81.9 2.19 81.86 2.21 81.82327 2.23356 C 81.79 2.26 81.75 2.28 81.71209 2.30121 C 81.68 2.32 81.64 2.35 81.60331 2.36753 C 81.57 2.39 81.53 2.41 81.4969 2.43255 C 81.46 2.45 81.43 2.48 81.39286 2.49627 C 81.36 2.52 81.32 2.54 81.29118 2.55869 C 81.26 2.58 81.22 2.6 81.19184 2.61981 C 81.16 2.64 81.13 2.66 81.09481 2.67961 C 81.06 2.7 81.03 2.72 81.00007 2.73807 C 80.97 2.76 80.94 2.78 80.9076 2.79517 C 80.88 2.81 80.85 2.83 80.81736 2.85087 C 80.79 2.87 80.76 2.89 80.72932 2.90513 C 80.71 2.92 80.68 2.93 80.66164 2.94673 C 80.64 2.96 80.62 2.97 80.59532 2.98736 M 68.71518 2.96504 C 68.73 2.95 68.74 2.93 68.74689 2.91316 C 68.76 2.9 68.77 2.88 68.78078 2.86327 C 68.79 2.85 68.8 2.83 68.81664 2.81531 C 68.83 2.8 68.84 2.78 68.85421 2.76923 C 68.87 2.75 68.88 2.74 68.89327 2.72497 C 68.91 2.71 68.92 2.7 68.93359 2.68249 C 68.95 2.67 68.96 2.66 68.97495 2.64174 C 68.99 2.63 69 2.62 69.01712 2.60268 C 69.03 2.59 69.05 2.58 69.05989 2.56525 C 69.07 2.55 69.09 2.54 69.10304 2.52943 C 69.12 2.52 69.13 2.51 69.14635 2.49517 C 69.16 2.48 69.18 2.47 69.18963 2.46242 C 69.2 2.45 69.22 2.44 69.23265 2.43115 C 69.25 2.42 69.26 2.41 69.27522 2.40133 C 69.29 2.39 69.3 2.38 69.31714 2.37293 C 69.33 2.36 69.34 2.35 69.35821 2.3459 A 16 9.2376 180 0 0 73.40147 -3.7924 A 16 9.2376 180 0 0 69.35821 -9.93071 M 68.71518 2.96504 L 67.26052 5.48457 L 67.06526 6.14164 L 67.06526 -8.82747 L 67.06526 -9.3718 M 67.26052 5.48457 L 67.39859 5.56429 M 67.06526 6.14164 L 67.06526 6.68597 M 67.06526 22.1994 L 66.59386 23.7857 L 65.1392 26.30524 L 64.00113 27.50663 M 66.59386 23.7857 L 66.73193 23.86542 M 65.1392 26.30524 L 65.27727 26.38495 M 67.39859 -10.10858 Q 66.69 -9.7 66.73193 -9.72368 Q 67.79 -10.34 68.85325 -10.94842 M 67.39859 -10.10858 L 67.06526 -9.3718 M 12.61804 -40.80692 L 12.28471 -41.9286 M 65.27727 8.2626 L 66.73193 7.42275 M 12.95137 -23.62747 L 12.61804 -24.74915 M 65.27727 8.2626 L 64.47254 8.18288 M 15.68217 -20.53058 L 15.21076 -20.25842 M 9.34346 -44.58024 A 16 9.2376 180 0 0 -11.92025 -44.58024 M 0.20733 -53.15302 A 3.5 2.02073 180 0 0 -2.78412 -53.15302 M 10.02531 -43.98351 C 10.01 -44 10 -44.02 9.98885 -44.04246 C 9.98 -44.06 9.96 -44.08 9.94932 -44.09868 C 9.94 -44.12 9.92 -44.13 9.90699 -44.15222 C 9.89 -44.17 9.88 -44.19 9.86218 -44.20313 C 9.85 -44.22 9.83 -44.24 9.81517 -44.25144 C 9.8 -44.27 9.78 -44.28 9.76626 -44.29722 C 9.75 -44.31 9.73 -44.33 9.71577 -44.34053 C 9.7 -44.35 9.68 -44.37 9.66401 -44.38141 M 10.02531 -20.80275 A 16 9.2376 180 0 0 -12.6021 -20.80275 L -12.1307 -19.98625 L -69.64205 13.21794 M 9.55391 -19.98625 A 15.33333 8.8527 180 0 0 -12.1307 -19.98625 M 67.06526 13.21794 L 9.55391 -19.98625 M 87.87741 -3.7924 A 7 4.04145 360 0 1 80.87741 0.24905 L 80.87741 0.42596 L 80.87646 1.24992 M 84.35304 -4.57148 A 3.5 2.02073 180 0 0 81.36159 -4.57148 M 87.8774 -3.6155 C 87.88 -3.56 87.88 -3.51 87.87188 -3.45506 C 87.87 -3.4 87.86 -3.35 87.85534 -3.29488 C 87.85 -3.24 87.84 -3.19 87.8278 -3.1352 C 87.82 -3.08 87.8 -3.03 87.7893 -2.97628 C 87.77 -2.92 87.76 -2.87 87.7399 -2.81837 C 87.72 -2.77 87.7 -2.71 87.67969 -2.66172 C 87.66 -2.61 87.63 -2.56 87.60875 -2.50657 C 87.58 -2.46 87.56 -2.4 87.5272 -2.35318 C 87.45 -2.21 87.37 -2.07 87.2878 -1.93269 C 87.21 -1.79 87.12 -1.65 87.0434 -1.50323 M 87.5272 -2.35318 C 87.5 -2.3 87.47 -2.25 87.43653 -2.20387 C 87.4 -2.15 87.37 -2.11 87.33581 -2.05673 C 87.3 -2.01 87.26 -1.96 87.22519 -1.91199 C 87.19 -1.86 87.15 -1.82 87.10484 -1.76985 C 87.06 -1.72 87.02 -1.68 86.97495 -1.63054 C 86.93 -1.58 86.88 -1.54 86.83572 -1.49427 C 86.79 -1.45 86.74 -1.41 86.68735 -1.36126 C 86.64 -1.32 86.58 -1.27 86.53007 -1.2317 C 86.48 -1.19 86.42 -1.15 86.36414 -1.10579 C 86.31 -1.06 86.25 -1.02 86.18979 -0.98372 C 86.13 -0.94 86.07 -0.9 86.00729 -0.86569 C 85.95 -0.83 85.88 -0.79 85.81693 -0.75186 C 85.75 -0.71 85.69 -0.68 85.61899 -0.64243 C 85.55 -0.61 85.48 -0.57 85.41378 -0.53754 C 85.34 -0.5 85.27 -0.47 85.2016 -0.43738 C 85.13 -0.4 85.06 -0.37 84.98279 -0.34208 C 84.91 -0.31 84.83 -0.28 84.75767 -0.25179 C 84.68 -0.22 84.6 -0.19 84.52659 -0.16666 C 84.45 -0.14 84.37 -0.11 84.2899 -0.08681 C 84.21 -0.06 84.13 -0.04 84.04796 -0.01237 C 83.97 0.01 83.88 0.03 83.80115 0.05655 C 83.72 0.08 83.63 0.1 83.54984 0.11984 C 83.47 0.14 83.38 0.16 83.29441 0.1774 C 83.21 0.2 83.12 0.21 83.03526 0.22915 C 82.95 0.25 82.86 0.26 82.7728 0.27499 C 82.68 0.29 82.6 0.3 82.50741 0.31487 C 82.42 0.33 82.33 0.34 82.23953 0.34871 C 82.15 0.36 82.06 0.37 81.96956 0.37647 C 81.79 0.39 81.61 0.41 81.42508 0.41357 C 81.24 0.42 81.06 0.43 80.87741 0.42596 M 67.26052 -9.25906 L 67.39859 -10.10858 M 67.26052 -9.25906 Q 66.56 -8.85 66.59386 -8.87416 Q 67.65 -9.49 68.71518 -10.09891 M 67.26052 -9.25906 L 67.06526 -8.82747 M 11.67523 -40.80692 L 12.61804 -40.80692 M 11.67523 -40.80692 L 11.47997 -41.46398 M 67.06526 7.2303 L 66.59386 8.27227 L 66.73193 7.42275 M 11.67523 -40.80692 L 11.67523 -24.74915 L 12.61804 -24.74915 M 65.1392 9.11211 L 65.27727 8.2626 M 65.1392 9.11211 L 66.59386 8.27227 M 12.14663 -23.16285 L 12.95137 -23.62747 M 12.14663 -23.16285 L 11.67523 -24.74915 M 65.1392 9.11211 L 64.00113 8.99938 L 64.47254 8.18288 M 12.14663 -23.16285 L 13.60129 -20.64332 L 14.73936 -19.44192 L 15.21076 -20.25842 M 13.60129 -20.64332 L 14.40603 -21.10793 M 14.73936 -19.44192 L 64.00113 8.99938 M 67.06526 12.12928 L 10.02531 -20.80275 L 9.55391 -19.98625 M -14.01632 62.4799 L -14.01632 37.68116 M 11.43953 62.4799 L 11.43953 37.66614 M -73.16265 -10.86648 L -72.69711 -11.13564 L -72.69711 -11.13564 M -77.78477 5.90135 L -78.52606 5.28166 M 70.12939 28.59529 L 70.12939 3.79655 M -83.4542 0.24905 L -83.4542 0.42596 L -83.45325 1.24992 M -83.12747 0.42596 L -83.12747 1.25613 M 10.56415 -45.52034 L 10.48765 -45.56458 M -83.4542 -0.68018 L -83.4542 0.24905 M -12.6021 -20.80275 L -12.6021 -43.98351 M 69.3739 2.33753 C 69.46 2.29 69.56 2.24 69.64855 2.18979 C 69.46 2.29 69.56 2.24 69.64855 2.18979 M 9.34346 -44.58024 C 9.57 -44.82 9.79 -45.06 10.01588 -45.2922 M 10.02531 -20.80275 L 10.02531 -43.98351 M 68.71518 2.96504 L 68.71518 -10.09891 M -77.97826 6.78776 L -77.97826 21.24683 M -72.80122 3.63057 C -72.8 3.63 -72.81 3.62 -72.81171 3.61829 C -72.82 3.61 -72.82 3.61 -72.82203 3.606 C -72.83 3.6 -72.83 3.6 -72.83223 3.59375 C -72.84 3.59 -72.84 3.59 -72.84238 3.58157 C -72.85 3.58 -72.85 3.57 -72.8525 3.5695 C -72.86 3.57 -72.86 3.56 -72.86266 3.55757 C -72.87 3.55 -72.87 3.55 -72.87287 3.5458 C -72.88 3.54 -72.88 3.54 -72.88318 3.53422 C -72.89 3.53 -72.89 3.53 -72.8936 3.52282 C -72.9 3.52 -72.9 3.52 -72.90416 3.51163 C -72.91 3.51 -72.91 3.5 -72.91485 3.50064 C -72.92 3.5 -72.92 3.49 -72.92568 3.48986 C -72.93 3.49 -72.93 3.48 -72.93664 3.47928 C -72.94 3.48 -72.94 3.47 -72.9477 3.46888 C -72.95 3.47 -72.96 3.46 -72.95884 3.45864 C -72.96 3.46 -72.97 3.45 -72.97001 3.44854 M -13.9192 36.97741 C -13.92 36.97 -13.91 36.97 -13.9115 36.96872 C -13.91 36.97 -13.91 36.96 -13.90355 36.96026 C -13.9 36.96 -13.9 36.95 -13.89537 36.95203 C -13.89 36.95 -13.89 36.95 -13.88695 36.94406 C -13.88 36.94 -13.88 36.94 -13.87831 36.93634 C -13.88 36.93 -13.87 36.93 -13.86944 36.9289 C -13.87 36.93 -13.86 36.92 -13.86036 36.92174 C -13.86 36.92 -13.85 36.92 -13.85106 36.91487 C -13.85 36.91 -13.84 36.91 -13.84157 36.90828 C -13.84 36.91 -13.84 36.9 -13.83187 36.90198 C -13.83 36.9 -13.82 36.89 -13.81193 36.89025 C -13.81 36.89 -13.8 36.88 -13.7913 36.87967 C -13.78 36.88 -13.78 36.87 -13.77003 36.87021 C -13.76 36.87 -13.76 36.86 -13.74821 36.86184 C -13.74 36.86 -13.73 36.86 -13.72589 36.8545 C -13.72 36.85 -13.71 36.85 -13.70314 36.84814 C -13.7 36.85 -13.69 36.84 -13.68004 36.8427 C -13.67 36.84 -13.66 36.84 -13.65663 36.83812 C -13.65 36.84 -13.64 36.84 -13.63301 36.83434 C -13.63 36.83 -13.62 36.83 -13.60922 36.83128 C -13.6 36.83 -13.59 36.83 -13.58533 36.82889 M -73.16378 -10.86814 C -73.16 -10.87 -73.16 -10.87 -73.15738 -10.87198 C -73.16 -10.87 -73.15 -10.87 -73.15094 -10.87582 C -73.15 -10.88 -73.15 -10.88 -73.14449 -10.87963 C -73.14 -10.88 -73.14 -10.88 -73.13805 -10.88341 C -73.14 -10.88 -73.13 -10.89 -73.13167 -10.88712 C -73.13 -10.89 -73.13 -10.89 -73.12537 -10.89074 C -73.12 -10.89 -73.12 -10.89 -73.11921 -10.89425 C -73.12 -10.9 -73.12 -10.9 -73.11325 -10.89763 C -73.11 -10.9 -73.11 -10.9 -73.10751 -10.90084 C -73.11 -10.9 -73.1 -10.9 -73.10205 -10.90389 C -73.1 -10.9 -73.1 -10.91 -73.09688 -10.90675 C -73.1 -10.91 -73.09 -10.91 -73.09201 -10.90943 C -73.09 -10.91 -73.09 -10.91 -73.08744 -10.91195 C -73.09 -10.91 -73.08 -10.91 -73.08316 -10.9143 C -73.08 -10.91 -73.08 -10.92 -73.08113 -10.91542 C -73.08 -10.92 -73.08 -10.92 -73.07917 -10.9165 C -73.08 -10.92 -73.08 -10.92 -73.07728 -10.91754 C -73.08 -10.92 -73.08 -10.92 -73.07546 -10.91854 C -73.07 -10.92 -73.07 -10.92 -73.07263 -10.9201 C -73.07 -10.92 -73.07 -10.92 -73.06986 -10.92163 C -73.07 -10.92 -73.07 -10.92 -73.06714 -10.92314 C -73.07 -10.92 -73.07 -10.92 -73.06446 -10.92463 C -73.06 -10.93 -73.06 -10.93 -73.0618 -10.92612 C -73.06 -10.93 -73.06 -10.93 -73.05916 -10.92759 C -73.06 -10.93 -73.06 -10.93 -73.0539 -10.93055 C -73.05 -10.93 -73.05 -10.93 -73.04862 -10.93353 C -73.05 -10.93 -73.05 -10.94 -73.04331 -10.93655 C -73.04 -10.94 -73.04 -10.94 -73.03792 -10.93963 C -73.04 -10.94 -73.03 -10.94 -73.03244 -10.94277 C -73.01 -10.96 -72.94 -11 -72.87322 -11.03616 M -72.69705 -11.1356 C -72.69 -11.14 -72.69 -11.14 -72.69035 -11.1381 C -72.69 -11.14 -72.69 -11.14 -72.68351 -11.14059 C -72.68 -11.14 -72.68 -11.14 -72.67653 -11.14305 C -72.67 -11.14 -72.67 -11.14 -72.66943 -11.14548 C -72.66 -11.15 -72.66 -11.15 -72.65491 -11.15026 C -72.65 -11.15 -72.65 -11.15 -72.64003 -11.15487 C -72.64 -11.16 -72.63 -11.16 -72.62485 -11.1593 C -72.62 -11.16 -72.61 -11.16 -72.60941 -11.16355 C -72.6 -11.16 -72.6 -11.17 -72.59376 -11.16761 C -72.59 -11.17 -72.58 -11.17 -72.57792 -11.17148 C -72.57 -11.17 -72.57 -11.17 -72.56191 -11.17516 C -72.56 -11.18 -72.55 -11.18 -72.54576 -11.17866 C -72.54 -11.18 -72.53 -11.18 -72.52946 -11.182 C -72.52 -11.18 -72.52 -11.18 -72.51302 -11.18516 C -72.5 -11.19 -72.49 -11.19 -72.47975 -11.19099 C -72.47 -11.19 -72.47 -11.19 -72.46293 -11.19367 C -72.46 -11.19 -72.45 -11.2 -72.44597 -11.19619 C -72.44 -11.2 -72.44 -11.2 -72.43149 -11.1982 C -72.43 -11.2 -72.42 -11.2 -72.41693 -11.2001 C -72.41 -11.2 -72.41 -11.2 -72.4023 -11.20188 C -72.4 -11.2 -72.39 -11.2 -72.3876 -11.20353 C -72.38 -11.2 -72.38 -11.2 -72.37283 -11.20506 C -72.37 -11.21 -72.36 -11.21 -72.358 -11.20646 C -72.35 -11.21 -72.35 -11.21 -72.3431 -11.20773 C -72.34 -11.21 -72.33 -11.21 -72.32812 -11.20885 C -72.32 -11.21 -72.32 -11.21 -72.31307 -11.20983 C -72.31 -11.21 -72.3 -11.21 -72.29794 -11.21066 C -72.29 -11.21 -72.28 -11.21 -72.26741 -11.2118 C -72.25 -11.21 -72.23 -11.21 -72.205 -11.21181 C -72.13 -11.21 -72.03 -11.19 -71.94349 -11.19394 M -14.02114 -44.78125 C -14.02 -44.78 -14.02 -44.79 -14.01541 -44.79055 C -14.01 -44.79 -14.01 -44.8 -14.00971 -44.79966 C -14.01 -44.8 -14.01 -44.81 -14.00405 -44.80859 C -14 -44.81 -14 -44.81 -13.99844 -44.81734 C -14 -44.82 -13.99 -44.82 -13.99286 -44.82593 C -13.99 -44.83 -13.99 -44.83 -13.98732 -44.83439 C -13.99 -44.84 -13.98 -44.84 -13.98181 -44.84273 C -13.98 -44.85 -13.98 -44.85 -13.97633 -44.85096 C -13.97 -44.86 -13.97 -44.86 -13.96541 -44.86722 C -13.96 -44.87 -13.96 -44.87 -13.95995 -44.87529 C -13.96 -44.88 -13.96 -44.88 -13.95448 -44.88334 C -13.95 -44.89 -13.95 -44.89 -13.94899 -44.89138 C -13.95 -44.89 -13.95 -44.9 -13.94347 -44.89944 C -13.94 -44.9 -13.94 -44.9 -13.9379 -44.90752 C -13.94 -44.91 -13.93 -44.91 -13.93227 -44.91563 C -13.93 -44.92 -13.93 -44.93 -13.92147 -44.93105 C -13.92 -44.94 -13.91 -44.94 -13.9105 -44.94651 C -13.91 -44.95 -13.9 -44.96 -13.89936 -44.96195 C -13.9 -44.97 -13.89 -44.97 -13.88805 -44.97733 C -13.88 -44.98 -13.88 -44.99 -13.87659 -44.99261 C -13.87 -45 -13.87 -45 -13.865 -45.00774 C -13.86 -45.01 -13.86 -45.02 -13.85329 -45.02271 C -13.85 -45.03 -13.85 -45.03 -13.84148 -45.03749 C -13.84 -45.04 -13.83 -45.05 -13.82958 -45.05207 C -13.83 -45.06 -13.82 -45.06 -13.8176 -45.06642 C -13.81 -45.07 -13.81 -45.08 -13.80552 -45.08055 C -13.8 -45.09 -13.8 -45.09 -13.79335 -45.09444 C -13.79 -45.1 -13.78 -45.11 -13.76862 -45.1215 C -13.76 -45.13 -13.75 -45.14 -13.74315 -45.14757 C -13.69 -45.21 -13.47 -45.34 -13.43874 -45.35405 M -78.55689 5.80878 L -83.1721 2.98736 M -88.07713 -0.01123 L -85.2448 1.72026 M -71.29825 2.96449 C -71.3 2.96 -71.3 2.96 -71.29982 2.96269 C -71.3 2.96 -71.3 2.96 -71.30157 2.96053 C -71.3 2.96 -71.3 2.96 -71.30345 2.95803 C -71.3 2.96 -71.3 2.96 -71.30542 2.95523 C -71.31 2.95 -71.31 2.95 -71.30746 2.95217 C -71.31 2.95 -71.31 2.95 -71.30954 2.94889 C -71.31 2.95 -71.31 2.95 -71.31164 2.94542 C -71.31 2.94 -71.31 2.94 -71.31376 2.94181 C -71.31 2.94 -71.32 2.94 -71.31587 2.93807 C -71.32 2.94 -71.32 2.94 -71.31797 2.93426 C -71.32 2.93 -71.32 2.93 -71.32006 2.93038 C -71.32 2.93 -71.32 2.93 -71.32213 2.92647 C -71.32 2.93 -71.32 2.92 -71.32417 2.92255 C -71.32 2.92 -71.33 2.92 -71.32619 2.91864 C -71.33 2.92 -71.33 2.92 -71.32819 2.91476 C -71.33 2.91 -71.33 2.91 -71.33016 2.91092 C -71.33 2.91 -71.33 2.91 -71.33211 2.90713 C -71.33 2.91 -71.33 2.9 -71.33404 2.9034 C -71.33 2.9 -71.34 2.9 -71.33595 2.89973 C -71.34 2.9 -71.34 2.9 -71.33784 2.89613 C -71.34 2.89 -71.34 2.89 -71.33972 2.89258 C -71.34 2.89 -71.34 2.89 -71.3416 2.88909 C -71.34 2.89 -71.34 2.89 -71.34346 2.88565 C -71.34 2.88 -71.34 2.88 -71.34533 2.88225 C -71.35 2.88 -71.35 2.88 -71.3472 2.87886 C -71.35 2.88 -71.35 2.88 -71.34908 2.87549 C -71.35 2.87 -71.35 2.87 -71.35294 2.86869 C -71.36 2.86 -71.36 2.86 -71.36149 2.85432 C -71.41 2.78 -71.48 2.71 -71.54627 2.64398 C -71.7 2.5 -71.8 2.44 -71.94626 2.34242 M 75.40147 6.78776 L 75.40147 21.24683 M -0.3342 49.86404 L 3.76393 47.1704 M -2.24259 49.86404 L -6.34072 47.1704 M -12.64764 36.62771 C -12.64 36.63 -12.64 36.63 -12.63687 36.62915 C -12.63 36.63 -12.63 36.63 -12.6261 36.63091 C -12.62 36.63 -12.62 36.63 -12.61537 36.63297 C -12.61 36.63 -12.61 36.63 -12.60469 36.63534 C -12.6 36.64 -12.6 36.64 -12.59408 36.638 C -12.59 36.64 -12.59 36.64 -12.58353 36.64094 C -12.58 36.64 -12.58 36.64 -12.57307 36.64415 C -12.57 36.65 -12.57 36.65 -12.56271 36.64762 M -13.37078 36.54647 C -13.36 36.55 -13.36 36.55 -13.34722 36.54588 C -13.34 36.55 -13.33 36.55 -13.32369 36.5452 C -13.32 36.54 -13.31 36.54 -13.30018 36.54446 C -13.29 36.54 -13.28 36.54 -13.27673 36.54371 C -13.27 36.54 -13.26 36.54 -13.25335 36.54298 C -13.25 36.54 -13.24 36.54 -13.23005 36.54231 C -13.22 36.54 -13.21 36.54 -13.20685 36.54172 C -13.2 36.54 -13.19 36.54 -13.18376 36.54124 C -13.18 36.54 -13.17 36.54 -13.16079 36.54089 C -13.15 36.54 -13.15 36.54 -13.13795 36.5407 C -13.13 36.54 -13.12 36.54 -13.11526 36.54068 C -13.11 36.54 -13.1 36.54 -13.09272 36.54086 C -13.09 36.54 -13.08 36.54 -13.07035 36.54124 C -13.06 36.54 -13.06 36.54 -13.04813 36.54183 C -13.04 36.54 -13.03 36.54 -13.02609 36.54265 C -13.02 36.54 -13.01 36.54 -13.00422 36.5437 C -12.99 36.54 -12.98 36.55 -12.96352 36.54635 C -12.95 36.55 -12.94 36.55 -12.92347 36.5499 C -12.91 36.55 -12.9 36.55 -12.88407 36.55435 C -12.87 36.56 -12.86 36.56 -12.8453 36.55975 C -12.83 36.56 -12.82 36.56 -12.80714 36.5661 C -12.79 36.57 -12.78 36.57 -12.76952 36.57347 C -12.76 36.58 -12.74 36.58 -12.73239 36.58189 C -12.72 36.58 -12.71 36.59 -12.69566 36.59143 C -12.69 36.59 -12.69 36.59 -12.68344 36.59489 C -12.68 36.6 -12.68 36.6 -12.6714 36.59845 C -12.67 36.6 -12.66 36.6 -12.65948 36.60213 C -12.66 36.6 -12.65 36.6 -12.64763 36.60594 C -12.64 36.61 -12.63 36.61 -12.6239 36.61404 C -12.62 36.62 -12.61 36.62 -12.59992 36.62292 M 10.90639 -45.32459 C 10.91 -45.32 10.91 -45.32 10.9101 -45.32258 C 10.91 -45.32 10.91 -45.32 10.91374 -45.32058 C 10.91 -45.32 10.92 -45.32 10.91733 -45.3186 C 10.92 -45.32 10.92 -45.32 10.92088 -45.31663 C 10.92 -45.32 10.92 -45.32 10.9244 -45.31466 C 10.93 -45.31 10.93 -45.31 10.9279 -45.3127 C 10.93 -45.31 10.93 -45.31 10.93483 -45.30875 C 10.94 -45.31 10.94 -45.31 10.94171 -45.30479 C 10.94 -45.3 10.95 -45.3 10.94856 -45.3008 C 10.95 -45.3 10.95 -45.3 10.95537 -45.29676 C 10.96 -45.3 10.96 -45.29 10.96216 -45.2927 C 10.97 -45.29 10.97 -45.29 10.97565 -45.28445 C 10.98 -45.28 10.98 -45.28 10.98902 -45.27605 C 10.99 -45.27 11 -45.27 11.00228 -45.2675 C 11.01 -45.26 11.01 -45.26 11.01543 -45.2588 C 11.02 -45.26 11.02 -45.25 11.02847 -45.24994 C 11.03 -45.25 11.04 -45.24 11.04141 -45.24091 C 11.05 -45.24 11.05 -45.23 11.05425 -45.23172 C 11.06 -45.23 11.06 -45.23 11.06696 -45.22236 C 11.07 -45.22 11.08 -45.22 11.07956 -45.21285 C 11.08 -45.21 11.09 -45.21 11.09205 -45.20317 C 11.09 -45.2 11.1 -45.2 11.09826 -45.19826 C 11.1 -45.2 11.1 -45.19 11.10444 -45.19331 C 11.11 -45.19 11.11 -45.19 11.11059 -45.18832 C 11.11 -45.19 11.11 -45.18 11.1167 -45.18329 C 11.13 -45.18 11.14 -45.17 11.145 -45.15914 C 11.15 -45.15 11.16 -45.14 11.17266 -45.13405 C 11.19 -45.12 11.21 -45.1 11.22599 -45.08104 C 11.26 -45.04 11.29 -45.01 11.32523 -44.96323 C 11.36 -44.91 11.4 -44.86 11.43569 -44.79905 M 10.89597 -45.33018 C 10.9 -45.33 10.9 -45.33 10.89591 -45.33022 C 10.9 -45.33 10.9 -45.33 10.89563 -45.33037 C 10.9 -45.33 10.9 -45.33 10.89512 -45.33064 C 10.89 -45.33 10.89 -45.33 10.8944 -45.33103 C 10.89 -45.33 10.89 -45.33 10.89348 -45.33153 C 10.89 -45.33 10.89 -45.33 10.89237 -45.33213 C 10.89 -45.33 10.89 -45.33 10.89111 -45.33282 C 10.89 -45.33 10.89 -45.33 10.88972 -45.33359 C 10.89 -45.33 10.89 -45.33 10.88823 -45.3344 C 10.89 -45.33 10.89 -45.33 10.88667 -45.33526 C 10.89 -45.34 10.89 -45.34 10.88507 -45.33615 C 10.88 -45.34 10.88 -45.34 10.88345 -45.33705 C 10.88 -45.34 10.88 -45.34 10.88182 -45.33795 C 10.88 -45.34 10.88 -45.34 10.88019 -45.33886 C 10.88 -45.34 10.88 -45.34 10.87856 -45.33977 C 10.88 -45.34 10.88 -45.34 10.87691 -45.3407 C 10.88 -45.34 10.88 -45.34 10.87437 -45.34213 C 10.87 -45.34 10.87 -45.34 10.87182 -45.34357 C 10.87 -45.34 10.87 -45.34 10.86918 -45.34507 C 10.87 -45.35 10.87 -45.35 10.8664 -45.34666 C 10.87 -45.35 10.86 -45.35 10.86343 -45.34836 C 10.86 -45.35 10.86 -45.35 10.8602 -45.35022 C 10.86 -45.35 10.86 -45.35 10.85666 -45.35226 C 10.86 -45.35 10.85 -45.35 10.85279 -45.3545 C 10.85 -45.36 10.85 -45.36 10.84855 -45.35696 C 10.85 -45.36 10.85 -45.36 10.84392 -45.35965 C 10.84 -45.36 10.84 -45.36 10.83891 -45.36256 C 10.84 -45.36 10.84 -45.36 10.83353 -45.3657 C 10.83 -45.37 10.82 -45.37 10.80923 -45.37979 C 10.78 -45.39 10.75 -45.41 10.75347 -45.41185 M 10.76968 -45.402 C 10.77 -45.4 10.77 -45.4 10.76959 -45.40207 C 10.77 -45.4 10.77 -45.4 10.76928 -45.40226 C 10.77 -45.4 10.77 -45.4 10.76877 -45.40258 C 10.77 -45.4 10.77 -45.4 10.76805 -45.40304 C 10.77 -45.4 10.77 -45.4 10.76712 -45.40364 C 10.77 -45.4 10.77 -45.4 10.76598 -45.40436 C 10.77 -45.4 10.77 -45.4 10.76464 -45.40522 C 10.76 -45.41 10.76 -45.41 10.76311 -45.4062 C 10.76 -45.41 10.76 -45.41 10.75949 -45.40852 C 10.76 -45.41 10.76 -45.41 10.75518 -45.41128 C 10.75 -45.41 10.75 -45.42 10.74481 -45.41792 C 10.74 -45.42 10.74 -45.42 10.73889 -45.4217 C 10.74 -45.42 10.73 -45.42 10.73259 -45.42571 C 10.73 -45.43 10.73 -45.43 10.72597 -45.42991 C 10.72 -45.43 10.72 -45.43 10.71908 -45.43427 C 10.72 -45.44 10.71 -45.44 10.71199 -45.43874 C 10.71 -45.44 10.71 -45.44 10.70474 -45.44329 C 10.7 -45.44 10.7 -45.45 10.69738 -45.4479 C 10.69 -45.45 10.69 -45.45 10.68993 -45.45254 C 10.69 -45.45 10.68 -45.46 10.68243 -45.45719 C 10.68 -45.46 10.68 -45.46 10.6749 -45.46185 C 10.67 -45.46 10.67 -45.46 10.66736 -45.4665 C 10.66 -45.47 10.66 -45.47 10.65983 -45.47113 C 10.66 -45.47 10.65 -45.47 10.6523 -45.47574 C 10.65 -45.48 10.65 -45.48 10.64478 -45.48033 C 10.64 -45.48 10.64 -45.48 10.63729 -45.48489 C 10.63 -45.49 10.63 -45.49 10.6298 -45.48943 C 10.62 -45.49 10.62 -45.5 10.61482 -45.49849 C 10.61 -45.5 10.6 -45.5 10.59974 -45.50756 C 10.59 -45.51 10.58 -45.52 10.56853 -45.52624 M -87.93255 -6.92231 L -88.40395 -6.65014 M 70.58033 -10.87473 C 70.58 -10.88 70.58 -10.88 70.57734 -10.87652 C 70.58 -10.88 70.58 -10.88 70.57442 -10.87829 C 70.57 -10.88 70.57 -10.88 70.57155 -10.88005 C 70.57 -10.88 70.57 -10.88 70.56872 -10.88181 C 70.57 -10.88 70.56 -10.88 70.56312 -10.88531 C 70.56 -10.89 70.56 -10.89 70.55755 -10.88882 C 70.56 -10.89 70.55 -10.89 70.55192 -10.89237 C 70.55 -10.89 70.55 -10.89 70.54619 -10.89595 C 70.54 -10.9 70.54 -10.9 70.5403 -10.89957 C 70.54 -10.9 70.54 -10.9 70.53729 -10.9014 C 70.54 -10.9 70.54 -10.9 70.53422 -10.90323 C 70.53 -10.9 70.53 -10.9 70.53111 -10.90506 C 70.53 -10.91 70.53 -10.91 70.52794 -10.90689 C 70.53 -10.91 70.53 -10.91 70.52473 -10.90872 C 70.52 -10.91 70.52 -10.91 70.52147 -10.91053 C 70.52 -10.91 70.52 -10.91 70.51816 -10.91233 C 70.52 -10.91 70.52 -10.91 70.51482 -10.91411 C 70.51 -10.91 70.51 -10.92 70.51144 -10.91586 C 70.51 -10.92 70.51 -10.92 70.50805 -10.91759 C 70.51 -10.92 70.51 -10.92 70.50464 -10.91927 C 70.5 -10.92 70.5 -10.92 70.50124 -10.92092 C 70.5 -10.92 70.5 -10.92 70.49448 -10.92408 C 70.49 -10.93 70.49 -10.93 70.48789 -10.92704 C 70.49 -10.93 70.49 -10.93 70.4847 -10.92845 C 70.48 -10.93 70.48 -10.93 70.48159 -10.9298 C 70.48 -10.93 70.47 -10.93 70.4727 -10.93364 C 70.47 -10.93 70.47 -10.94 70.46777 -10.93583 C 70.47 -10.94 70.46 -10.94 70.46199 -10.93859 C 70.46 -10.94 70.46 -10.94 70.45538 -10.94224 C 70.43 -10.96 70.32 -11.02 70.28913 -11.03804 M 70.26024 -11.05474 C 70.26 -11.06 70.26 -11.06 70.25794 -11.05616 C 70.26 -11.06 70.26 -11.06 70.25561 -11.0576 C 70.25 -11.06 70.25 -11.06 70.25326 -11.05906 C 70.25 -11.06 70.25 -11.06 70.25088 -11.06053 C 70.25 -11.06 70.25 -11.06 70.2485 -11.06201 C 70.25 -11.06 70.25 -11.06 70.24611 -11.06349 C 70.25 -11.06 70.24 -11.06 70.24371 -11.06497 C 70.24 -11.07 70.24 -11.07 70.2413 -11.06647 C 70.24 -11.07 70.24 -11.07 70.23644 -11.06947 C 70.23 -11.07 70.23 -11.07 70.23151 -11.07251 C 70.23 -11.07 70.23 -11.07 70.22647 -11.07561 C 70.23 -11.08 70.22 -11.08 70.2239 -11.07719 C 70.22 -11.08 70.22 -11.08 70.2213 -11.07878 C 70.22 -11.08 70.22 -11.08 70.21663 -11.08165 C 70.22 -11.08 70.21 -11.08 70.21191 -11.08451 C 70.21 -11.09 70.21 -11.09 70.20714 -11.08739 C 70.21 -11.09 70.2 -11.09 70.20232 -11.09028 C 70.2 -11.09 70.2 -11.09 70.19743 -11.09318 C 70.2 -11.09 70.19 -11.1 70.19247 -11.0961 C 70.19 -11.1 70.19 -11.1 70.18744 -11.09904 C 70.19 -11.1 70.18 -11.1 70.18234 -11.10198 C 70.18 -11.1 70.18 -11.1 70.17715 -11.10492 C 70.18 -11.11 70.17 -11.11 70.17189 -11.10787 C 70.17 -11.11 70.17 -11.11 70.16654 -11.1108 C 70.16 -11.11 70.16 -11.11 70.16112 -11.11372 C 70.16 -11.11 70.16 -11.12 70.15563 -11.1166 C 70.15 -11.12 70.15 -11.12 70.15007 -11.11944 C 70.15 -11.12 70.15 -11.12 70.14445 -11.12223 C 70.14 -11.12 70.14 -11.12 70.13878 -11.12496 M 70.1334 -11.12748 C 70.13 -11.13 70.13 -11.13 70.12789 -11.12995 C 70.13 -11.13 70.12 -11.13 70.1224 -11.13234 C 70.12 -11.13 70.12 -11.13 70.11692 -11.13463 C 70.12 -11.14 70.11 -11.14 70.11149 -11.13681 C 70.11 -11.14 70.11 -11.14 70.10613 -11.13887 C 70.1 -11.14 70.1 -11.14 70.10087 -11.1408 C 70.1 -11.14 70.1 -11.14 70.09574 -11.1426 C 70.09 -11.14 70.09 -11.14 70.09078 -11.14426 C 70.09 -11.15 70.09 -11.15 70.08251 -11.14687 C 70.08 -11.15 70.08 -11.15 70.07445 -11.14923 C 70.07 -11.15 70.07 -11.15 70.0666 -11.15135 C 70.06 -11.15 70.06 -11.15 70.05894 -11.15326 C 70.06 -11.15 70.05 -11.15 70.05146 -11.15499 C 70.05 -11.16 70.05 -11.16 70.04416 -11.15656 C 70.04 -11.16 70.04 -11.16 70.03702 -11.15799 C 70.03 -11.16 70.03 -11.16 70.03003 -11.15929 C 70.03 -11.16 70.03 -11.16 70.02319 -11.16048 C 70.02 -11.16 70.02 -11.16 70.01651 -11.16158 C 70.01 -11.16 70.01 -11.16 70.00997 -11.1626 C 70.01 -11.16 70.01 -11.16 70.00358 -11.16355 C 70 -11.16 70 -11.16 69.99735 -11.16444 C 70 -11.16 69.99 -11.17 69.99127 -11.16527 C 69.99 -11.17 69.99 -11.17 69.98535 -11.16606 C 69.98 -11.17 69.98 -11.17 69.9796 -11.16681 C 69.98 -11.17 69.97 -11.17 69.96746 -11.16837 C 69.96 -11.17 69.96 -11.17 69.95618 -11.16981 C 69.95 -11.17 69.94 -11.17 69.93531 -11.17259 C 69.92 -11.17 69.91 -11.18 69.89189 -11.1789 C 69.86 -11.18 69.82 -11.19 69.78511 -11.19253 C 69.69 -11.19 69.68 -11.21 69.4034 -11.21218 M 75.38081 6.82841 C 75.39 6.81 75.4 6.8 75.40453 6.78175 C 75.41 6.77 75.42 6.75 75.42832 6.73516 C 75.44 6.72 75.44 6.7 75.45219 6.68864 C 75.46 6.67 75.47 6.66 75.47617 6.64221 C 75.48 6.63 75.49 6.61 75.50029 6.59585 C 75.51 6.58 75.52 6.56 75.52458 6.54956 C 75.53 6.53 75.54 6.52 75.54908 6.50333 C 75.56 6.49 75.57 6.47 75.57385 6.45714 C 75.58 6.45 75.59 6.44 75.5911 6.42533 C 75.6 6.41 75.6 6.4 75.60852 6.39353 C 75.61 6.38 75.62 6.37 75.62614 6.36174 C 75.63 6.35 75.64 6.34 75.64398 6.32994 C 75.65 6.32 75.66 6.31 75.66205 6.29814 C 75.67 6.29 75.67 6.28 75.68038 6.26635 C 75.69 6.26 75.69 6.25 75.69896 6.23458 C 75.71 6.22 75.71 6.21 75.71782 6.20284 C 75.73 6.19 75.73 6.18 75.74017 6.16586 C 75.75 6.15 75.76 6.14 75.76288 6.12899 C 75.77 6.12 75.78 6.1 75.78596 6.09226 C 75.79 6.08 75.8 6.07 75.80937 6.05571 C 75.82 6.04 75.83 6.03 75.83311 6.01937 C 75.84 6.01 75.85 6 75.85715 5.98328 C 75.87 5.97 75.87 5.96 75.88147 5.94747 C 75.89 5.94 75.9 5.92 75.90605 5.91195 C 75.91 5.9 75.92 5.89 75.9251 5.88488 C 75.93 5.88 75.94 5.87 75.94428 5.85801 C 75.95 5.85 75.96 5.84 75.96358 5.83133 C 75.97 5.82 75.98 5.81 75.98299 5.80486 M 9.4884 36.88814 C 9.49 36.89 9.49 36.88 9.49793 36.88122 C 9.5 36.88 9.5 36.88 9.50274 36.87779 C 9.5 36.88 9.51 36.88 9.5076 36.87438 C 9.51 36.87 9.51 36.87 9.5125 36.87099 C 9.51 36.87 9.52 36.87 9.51745 36.86762 C 9.52 36.87 9.52 36.87 9.52246 36.86426 C 9.52 36.86 9.53 36.86 9.52753 36.86091 C 9.53 36.86 9.54 36.86 9.53914 36.8534 C 9.54 36.85 9.55 36.85 9.55091 36.84603 C 9.55 36.84 9.56 36.84 9.56282 36.83878 C 9.57 36.84 9.57 36.83 9.57485 36.83162 C 9.58 36.83 9.58 36.83 9.58699 36.82452 C 9.59 36.82 9.6 36.82 9.5992 36.81747 C 9.6 36.82 9.61 36.81 9.61149 36.81047 C 9.62 36.81 9.62 36.81 9.62383 36.80349 C 9.63 36.8 9.63 36.8 9.63621 36.79654 C 9.64 36.79 9.64 36.79 9.64862 36.78961 C 9.65 36.79 9.66 36.79 9.66105 36.78272 C 9.67 36.78 9.67 36.78 9.67351 36.77586 C 9.68 36.77 9.68 36.77 9.686 36.76906 C 9.69 36.77 9.69 36.76 9.69851 36.76231 C 9.7 36.76 9.71 36.76 9.71107 36.75565 C 9.72 36.75 9.72 36.75 9.72368 36.74909 C 9.73 36.75 9.73 36.75 9.72869 36.74652 C 9.73 36.75 9.73 36.74 9.73364 36.74401 C 9.74 36.74 9.74 36.74 9.74345 36.73908 C 9.75 36.74 9.76 36.73 9.76301 36.72956 C 9.78 36.72 9.79 36.72 9.80292 36.71137 C 9.83 36.7 9.86 36.69 9.87118 36.68359 C 9.88 36.68 9.88 36.68 9.90593 36.66947 M 9.98378 36.63261 C 9.98 36.63 9.98 36.63 9.98386 36.63256 C 9.98 36.63 9.98 36.63 9.9841 36.63243 C 9.98 36.63 9.98 36.63 9.98452 36.63219 C 9.98 36.63 9.98 36.63 9.98513 36.63183 C 9.99 36.63 9.99 36.63 9.98595 36.63135 C 9.99 36.63 9.99 36.63 9.98698 36.63075 C 9.99 36.63 9.99 36.63 9.98822 36.63004 C 9.99 36.63 9.99 36.63 9.98964 36.62921 C 9.99 36.63 9.99 36.63 9.99125 36.62828 C 9.99 36.63 9.99 36.63 9.99302 36.62727 C 9.99 36.63 10 36.63 9.99696 36.62503 C 10 36.62 10 36.62 9.9991 36.62384 C 10 36.62 10 36.62 10.00132 36.62261 C 10 36.62 10 36.62 10.00361 36.62136 C 10 36.62 10.01 36.62 10.00595 36.62011 C 10.01 36.62 10.01 36.62 10.00832 36.61885 C 10.01 36.62 10.01 36.62 10.01071 36.61761 C 10.01 36.62 10.01 36.62 10.01312 36.61638 C 10.01 36.62 10.01 36.62 10.01552 36.61518 C 10.02 36.61 10.02 36.61 10.01792 36.614 C 10.02 36.61 10.02 36.61 10.02031 36.61285 C 10.02 36.61 10.02 36.61 10.02269 36.61173 C 10.02 36.61 10.02 36.61 10.02507 36.61064 C 10.03 36.61 10.03 36.61 10.0298 36.60854 C 10.03 36.61 10.03 36.61 10.03216 36.60753 C 10.03 36.61 10.03 36.61 10.03453 36.60654 C 10.04 36.61 10.04 36.61 10.0393 36.60463 C 10.04 36.6 10.04 36.6 10.04409 36.60282 C 10.07 36.59 10.09 36.59 10.09569 36.58897 C 10.12 36.58 10.2 36.57 10.22111 36.56576 M 10.81073 36.54537 C 10.81 36.55 10.81 36.55 10.80319 36.54595 C 10.8 36.55 10.8 36.55 10.79534 36.54624 C 10.79 36.55 10.79 36.55 10.78723 36.54629 C 10.78 36.55 10.78 36.55 10.7789 36.54613 C 10.78 36.55 10.77 36.55 10.77039 36.54582 C 10.77 36.55 10.76 36.55 10.76173 36.54539 C 10.76 36.55 10.76 36.55 10.75295 36.54486 C 10.75 36.54 10.75 36.54 10.74409 36.54428 C 10.74 36.54 10.74 36.54 10.73515 36.54367 C 10.73 36.54 10.73 36.54 10.72617 36.54305 C 10.72 36.54 10.72 36.54 10.71716 36.54244 C 10.71 36.54 10.71 36.54 10.70812 36.54187 C 10.71 36.54 10.7 36.54 10.69906 36.54135 C 10.7 36.54 10.69 36.54 10.69 36.54088 C 10.69 36.54 10.68 36.54 10.68092 36.54049 C 10.68 36.54 10.67 36.54 10.67182 36.54018 C 10.67 36.54 10.66 36.54 10.65226 36.53974 C 10.65 36.54 10.64 36.54 10.63278 36.53967 C 10.63 36.54 10.62 36.54 10.6134 36.53989 C 10.61 36.54 10.6 36.54 10.59415 36.54032 C 10.59 36.54 10.58 36.54 10.57505 36.5409 C 10.57 36.54 10.56 36.54 10.5561 36.54156 C 10.55 36.54 10.54 36.54 10.53731 36.54224 C 10.53 36.54 10.52 36.54 10.51868 36.54286 C 10.52 36.54 10.51 36.54 10.50824 36.54319 C 10.5 36.54 10.5 36.54 10.49784 36.54351 C 10.49 36.54 10.48 36.54 10.47719 36.54411 C 10.46 36.54 10.45 36.54 10.43636 36.5453 C 10.41 36.55 10.38 36.55 10.35334 36.55029 C 10.27 36.56 10.26 36.56 10.22111 36.56576 M 9.95391 36.65159 C 9.95 36.65 9.96 36.65 9.95624 36.65014 C 9.96 36.65 9.96 36.65 9.95832 36.64885 C 9.96 36.65 9.96 36.65 9.96024 36.64767 C 9.96 36.65 9.96 36.65 9.96206 36.64656 C 9.96 36.65 9.96 36.65 9.9638 36.6455 C 9.96 36.65 9.96 36.64 9.96552 36.64446 C 9.97 36.64 9.97 36.64 9.96723 36.64344 C 9.97 36.64 9.97 36.64 9.96896 36.64242 C 9.97 36.64 9.97 36.64 9.97071 36.64139 C 9.97 36.64 9.97 36.64 9.9725 36.64035 C 9.97 36.64 9.97 36.64 9.97433 36.63929 C 9.97 36.64 9.98 36.64 9.9762 36.63823 C 9.98 36.64 9.98 36.64 9.97811 36.63715 C 9.98 36.64 9.98 36.64 9.98005 36.63606 C 9.98 36.64 9.98 36.63 9.98404 36.63387 C 9.99 36.63 9.99 36.63 9.98811 36.63168 C 9.99 36.63 9.99 36.63 9.99017 36.6306 C 9.99 36.63 9.99 36.63 9.99222 36.62953 C 9.99 36.63 9.99 36.63 9.99427 36.62848 C 9.99 36.63 10 36.63 9.9963 36.62746 C 10 36.63 10 36.63 9.9983 36.62646 C 10 36.63 10 36.63 10.00025 36.6255 C 10 36.63 10 36.62 10.00213 36.62458 C 10 36.62 10 36.62 10.00391 36.62372 C 10 36.62 10.01 36.62 10.00558 36.62293 C 10.01 36.62 10.01 36.62 10.00707 36.62223 C 10.01 36.62 10.01 36.62 10.00836 36.62162 C 10.01 36.62 10.01 36.62 10.00938 36.62115 C 10.01 36.62 10.01 36.62 10.01006 36.62084 C 10.01 36.62 10.01 36.62 10.01033 36.62072 C 10.01 36.62 10.01 36.62 10.01025 36.62076 C 10.01 36.62 10.01 36.62 10.01 36.62087 C 10.01 36.62 10.01 36.62 10.00905 36.6213 C 10.01 36.62 10.01 36.62 10.00757 36.62196 C 10.01 36.62 10.01 36.62 10.00565 36.62282 C 10 36.62 10 36.62 10.00334 36.62385 C 10 36.62 10 36.62 10.0007 36.62504 C 10 36.63 10 36.63 9.99777 36.62637 C 10 36.63 10 36.63 9.99458 36.62782 C 9.99 36.63 9.99 36.63 9.99118 36.62938 C 9.99 36.63 9.99 36.63 9.98758 36.63105 C 9.99 36.63 9.98 36.63 9.97992 36.63463 C 9.98 36.64 9.97 36.64 9.97183 36.63851 C 9.97 36.64 9.97 36.64 9.96768 36.64052 C 9.97 36.64 9.96 36.64 9.9635 36.64257 C 9.96 36.64 9.96 36.64 9.95932 36.64464 C 9.96 36.65 9.96 36.65 9.95517 36.64672 C 9.95 36.65 9.95 36.65 9.94706 36.65084 C 9.94 36.65 9.94 36.65 9.93942 36.65479 C 9.94 36.66 9.93 36.66 9.93252 36.65841 C 9.93 36.66 9.93 36.66 9.92942 36.66005 C 9.93 36.66 9.93 36.66 9.9266 36.66154 C 9.93 36.66 9.92 36.66 9.92411 36.66287 C 9.92 36.66 9.92 36.66 9.92196 36.66401 C 9.92 36.66 9.92 36.66 9.92022 36.66494 C 9.92 36.67 9.92 36.67 9.91891 36.66563 C 9.92 36.67 9.92 36.67 9.91809 36.66607 C 9.92 36.67 9.92 36.67 9.91781 36.66621 M 75.9801 5.80878 L 80.59532 2.98736 M 85.50034 -0.01123 L 82.66801 1.72026 M 68.78443 2.92689 C 68.79 2.92 68.79 2.92 68.79228 2.91184 C 68.79 2.91 68.8 2.9 68.80028 2.89692 C 68.81 2.89 68.81 2.88 68.81674 2.86746 C 68.82 2.86 68.83 2.85 68.83383 2.83849 C 68.84 2.83 68.85 2.82 68.85159 2.80999 C 68.86 2.8 68.86 2.79 68.87003 2.78194 C 68.88 2.77 68.88 2.76 68.88921 2.75434 C 68.9 2.75 68.9 2.74 68.90914 2.72719 C 68.92 2.72 68.92 2.71 68.92986 2.7005 C 68.94 2.69 68.94 2.68 68.95139 2.6743 C 68.96 2.67 68.97 2.66 68.97374 2.64861 C 68.98 2.64 68.99 2.63 68.99695 2.62347 C 69 2.62 69.01 2.61 69.02102 2.59892 C 69.03 2.59 69.03 2.59 69.03339 2.58688 C 69.04 2.58 69.04 2.58 69.04598 2.57498 C 69.05 2.57 69.05 2.57 69.0588 2.56324 C 69.06 2.56 69.07 2.56 69.07185 2.55164 C 69.08 2.55 69.08 2.54 69.08514 2.54019 C 69.09 2.54 69.09 2.53 69.09867 2.52887 C 69.1 2.53 69.11 2.52 69.11245 2.51768 C 69.12 2.51 69.12 2.51 69.12648 2.5066 C 69.13 2.5 69.13 2.5 69.13391 2.50084 C 69.14 2.5 69.14 2.5 69.14139 2.49512 C 69.14 2.49 69.15 2.49 69.14893 2.48943 C 69.15 2.49 69.15 2.49 69.15653 2.48376 C 69.16 2.48 69.16 2.48 69.16418 2.4781 C 69.17 2.48 69.17 2.47 69.1719 2.47246 C 69.18 2.47 69.18 2.46 69.1875 2.46119 C 69.21 2.45 69.23 2.43 69.25127 2.41656 C 69.29 2.39 69.34 2.36 69.37567 2.33297" />
  </svg>