<svg 
     version="1.1" 
     xmlns="http://www.w3.org/2000/svg" 
     viewBox="-91.00458589640417 -61.94298761718515 182.00889776540518 123.05977593421011" 
     fill="none" 
     stroke="black" 
     stroke-width="0.2%" 
     vector-effect="non-scaling-stroke">
  <path d="M -48.35325 -10.94848 L -52.59589 -13.39797 A 11.38182 6.5713 360 0 1 -52.14802 -22.93611 M -32.25693 -20.24169 A 11.38182 6.5713 360 0 1 -48.35325 -10.94848 L -45.94531 -14.76573 L -50.18795 -17.21522 A 7.97648 4.60522 360 0 1 -52.48704 -20.91566 M -32.70733 -20.50173 L -32.25693 -20.24169 L -32.69537 -20.43048 M -61.04966 -27.57197 A 86.33726 49.84684 360 0 1 -50.50045 -32.75523 M -39.83087 -36.5502 A 86.33726 49.84684 360 0 1 85.94905 2.95337 M -85.94905 2.95337 A 86.33726 49.84684 360 0 1 -61.04966 -27.57197 M -3.53553 5.63383 A 5 2.88675 180 0 0 -5 7.67507 A 5 2.88675 180 0 0 5 7.67507 A 5 2.88675 180 0 0 -3.53553 5.63383 Z M 52.14802 26.05369 A 11.38182 6.5713 0 0 1 55.90917 30.55217 M 32.90674 38.38838 A 11.38182 6.5713 0 0 1 32.25693 28.7481 L 32.70733 28.48806 M -32.36578 -18.46617 A 7.97648 4.60522 360 0 1 -45.94531 -14.76573 L -44.26488 -29.96542 A 5.6 3.23316 180 0 0 -34.73118 -32.56337 A 5.6 3.23316 180 0 0 -36.34529 -34.53781 L -40.58793 -36.9873 A 5.6 3.23316 180 0 0 -50.12163 -35.01286 A 5.6 3.23316 180 0 0 -48.50753 -32.41491 L -44.26488 -29.96542 M -87.18259 -0.54038 C -87.1 -0.88 -87.02 -1.22 -86.92324 -1.56065 C -86.83 -1.9 -86.73 -2.24 -86.62806 -2.57774 C -86.52 -2.92 -86.41 -3.25 -86.29716 -3.59121 C -86.18 -3.93 -86.06 -4.26 -85.93066 -4.60065 C -85.8 -4.94 -85.67 -5.27 -85.52873 -5.60564 C -85.39 -5.94 -85.24 -6.27 -85.09152 -6.60575 C -84.94 -6.94 -84.78 -7.27 -84.61921 -7.60058 C -84.46 -7.93 -84.29 -8.26 -84.112 -8.5897 C -83.94 -8.92 -83.76 -9.25 -83.57008 -9.5727 C -83.38 -9.9 -83.19 -10.22 -82.99368 -10.54918 C -82.8 -10.87 -82.59 -11.2 -82.38304 -11.51873 C -82.17 -11.84 -81.96 -12.16 -81.73841 -12.48094 C -81.52 -12.8 -81.29 -13.12 -81.06005 -13.43542 C -80.83 -13.75 -80.59 -14.07 -80.34825 -14.38176 C -80.11 -14.7 -79.86 -15.01 -79.6033 -15.31956 C -79.35 -15.63 -79.09 -15.94 -78.82551 -16.24845 C -78.56 -16.56 -78.29 -16.86 -78.0152 -17.16804 C -77.74 -17.47 -77.46 -17.78 -77.17271 -18.07794 C -76.89 -18.38 -76.6 -18.68 -76.29838 -18.97777 C -76 -19.28 -75.7 -19.57 -75.39259 -19.86716 C -75.09 -20.16 -74.77 -20.45 -74.4557 -20.74574 C -74.14 -21.04 -73.82 -21.33 -73.48811 -21.61314 C -73.16 -21.9 -72.83 -22.19 -72.49022 -22.46902 C -72.15 -22.75 -71.81 -23.03 -71.46245 -23.313 C -71.11 -23.59 -70.76 -23.87 -70.40522 -24.14475 C -70.05 -24.42 -69.69 -24.69 -69.31897 -24.96392 C -68.95 -25.23 -68.58 -25.5 -68.20415 -25.77016 C -67.83 -26.04 -67.45 -26.3 -67.06124 -26.56315 C -66.29 -27.09 -65.5 -27.6 -64.69303 -28.10807 C -63.89 -28.61 -63.06 -29.11 -62.21829 -29.5961 C -61.75 -29.87 -61.27 -30.14 -60.79269 -30.40073 C -60.31 -30.67 -59.83 -30.93 -59.33582 -31.18653 C -58.85 -31.45 -58.35 -31.7 -57.84843 -31.95311 C -57.35 -32.21 -56.84 -32.45 -56.33129 -32.70005 C -55.82 -32.95 -55.31 -33.19 -54.78519 -33.42698 C -54.27 -33.67 -53.74 -33.9 -53.21091 -34.1335 C -52.68 -34.37 -52.15 -34.59 -51.60928 -34.81927 C -51.07 -35.04 -50.53 -35.27 -49.98111 -35.48392 M -3.53553 6.94022 A 5 2.88675 180 0 0 -4.87032 8.32827 M 4.87032 8.32827 A 5 2.88675 180 0 0 -3.53553 6.94022 M 50.18795 31.77458 L 45.94531 34.22407 A 7.97648 4.60522 0 0 1 32.36578 30.52363 M 52.48704 28.07414 A 7.97648 4.60522 0 0 1 50.18795 31.77458 L 48.50753 16.57488 A 5.6 3.23316 180 0 0 50.12163 13.97694 L 52.48704 28.07414 Z M -62.50824 -30.57179 C -62.51 -30.56 -62.51 -30.55 -62.50795 -30.54422 C -62.51 -30.53 -62.51 -30.53 -62.5071 -30.51622 C -62.51 -30.51 -62.51 -30.5 -62.50566 -30.4878 C -62.51 -30.48 -62.5 -30.47 -62.50363 -30.45897 C -62.5 -30.45 -62.5 -30.44 -62.50102 -30.42978 C -62.5 -30.42 -62.5 -30.41 -62.4978 -30.40022 C -62.5 -30.39 -62.5 -30.38 -62.49399 -30.37034 C -62.49 -30.36 -62.49 -30.35 -62.48959 -30.34015 C -62.49 -30.33 -62.49 -30.32 -62.48458 -30.30969 C -62.48 -30.3 -62.48 -30.29 -62.47897 -30.27896 C -62.48 -30.26 -62.47 -30.24 -62.46596 -30.21687 C -62.46 -30.2 -62.46 -30.18 -62.45058 -30.15408 C -62.45 -30.13 -62.44 -30.11 -62.43288 -30.09084 C -62.43 -30.07 -62.42 -30.05 -62.41293 -30.02737 C -62.41 -30.01 -62.4 -29.99 -62.39079 -29.96392 C -62.38 -29.94 -62.37 -29.92 -62.36656 -29.90071 C -62.36 -29.88 -62.35 -29.86 -62.34035 -29.83797 C -62.33 -29.82 -62.32 -29.8 -62.31228 -29.77594 C -62.3 -29.76 -62.29 -29.74 -62.28249 -29.71481 C -62.27 -29.69 -62.26 -29.67 -62.25111 -29.6548 C -62.24 -29.64 -62.23 -29.62 -62.21829 -29.5961 M -87.50377 -1.73231 C -87.42 -2.07 -87.33 -2.41 -87.23392 -2.74537 C -87.14 -3.08 -87.04 -3.42 -86.92886 -3.75516 C -86.82 -4.09 -86.71 -4.43 -86.58873 -4.76125 C -86.47 -5.1 -86.34 -5.43 -86.21364 -5.76325 C -86.08 -6.1 -85.95 -6.43 -85.80376 -6.76074 C -85.66 -7.09 -85.51 -7.42 -85.35924 -7.75331 C -85.21 -8.08 -85.05 -8.41 -84.88027 -8.74057 C -84.71 -9.07 -84.54 -9.4 -84.36703 -9.7221 C -84.19 -10.05 -84.01 -10.37 -83.81974 -10.69752 C -83.63 -11.02 -83.44 -11.34 -83.23862 -11.66641 C -83.04 -11.99 -82.83 -12.31 -82.6239 -12.62839 C -82.41 -12.95 -82.2 -13.27 -81.97582 -13.58307 C -81.75 -13.9 -81.53 -14.22 -81.29466 -14.53005 C -81.06 -14.84 -80.82 -15.16 -80.58069 -15.46895 C -80.34 -15.78 -80.09 -16.09 -79.8342 -16.39939 C -79.58 -16.71 -79.32 -17.02 -79.05548 -17.32099 C -78.79 -17.63 -78.52 -17.93 -78.24485 -18.23338 C -77.97 -18.54 -77.69 -18.84 -77.40264 -19.13618 C -77.12 -19.44 -76.83 -19.73 -76.52919 -20.02903 C -76.23 -20.32 -75.93 -20.62 -75.62484 -20.91157 C -75.32 -21.2 -75.01 -21.49 -74.68997 -21.78344 C -74.37 -22.07 -74.05 -22.36 -73.72494 -22.64428 C -73.4 -22.93 -73.07 -23.21 -72.73015 -23.49374 C -72.39 -23.77 -72.05 -24.05 -71.70599 -24.33149 C -71.36 -24.61 -71.01 -24.88 -70.65288 -25.15717 C -70.3 -25.43 -69.94 -25.7 -69.57125 -25.97046 C -69.21 -26.24 -68.84 -26.51 -68.46154 -26.77103 C -68.09 -27.04 -67.71 -27.3 -67.3242 -27.55854 C -66.56 -28.08 -65.77 -28.59 -64.96853 -29.09315 C -64.17 -29.6 -63.35 -30.09 -62.50824 -30.57179 C -62.15 -30.78 -61.79 -30.99 -61.41903 -31.18989 C -61.05 -31.39 -60.68 -31.6 -60.31145 -31.79707 C -59.94 -32 -59.56 -32.2 -59.18583 -32.39313 C -58.81 -32.59 -58.43 -32.78 -58.04251 -32.9779 C -57.66 -33.17 -57.27 -33.36 -56.88183 -33.55118 C -56.49 -33.74 -56.1 -33.93 -55.70415 -34.11281 C -55.31 -34.3 -54.91 -34.48 -54.50981 -34.66261 C -54.11 -34.84 -53.71 -35.02 -53.29917 -35.2004 C -52.89 -35.38 -52.48 -35.55 -52.07261 -35.72604 C -51.66 -35.9 -51.25 -36.07 -50.83048 -36.23936 C -50.41 -36.41 -49.99 -36.58 -49.57316 -36.74021 C -49.15 -36.91 -48.73 -37.07 -48.30102 -37.22844 C -47.87 -37.39 -47.45 -37.55 -47.01446 -37.7039 C -46.58 -37.86 -46.15 -38.01 -45.71385 -38.16645 C -45.28 -38.32 -44.84 -38.47 -44.39958 -38.61596 C -43.96 -38.76 -43.52 -38.91 -43.07205 -39.05229 C -42.63 -39.2 -42.18 -39.34 -41.73167 -39.47531 C -41.28 -39.61 -40.83 -39.75 -40.37882 -39.8849 C -39.93 -40.02 -39.47 -40.15 -39.01392 -40.28093 C -38.56 -40.41 -38.1 -40.54 -37.63738 -40.66329 C -37.18 -40.79 -36.71 -40.91 -36.24961 -41.03186 C -35.79 -41.15 -35.32 -41.27 -34.85103 -41.38653 C -34.38 -41.5 -33.91 -41.62 -33.44206 -41.72719 C -32.97 -41.84 -32.5 -41.95 -32.02313 -42.05375 C -31.55 -42.16 -31.07 -42.26 -30.59465 -42.36611 C -30.12 -42.47 -29.64 -42.57 -29.15706 -42.66417 C -28.2 -42.86 -27.23 -43.04 -26.2563 -43.21704 C -24.31 -43.57 -22.35 -43.88 -20.36471 -44.14759 C -4.51 -46.33 12.37 -45.9 27.79748 -42.93129 C 58.89 -37.19 83.1 -20.69 87.5037 -1.73204 M -61.51829 44.49906 A 87 50.22947 180 0 0 61.51829 44.49906 L 63.01829 43.63304 C 62.77 43.78 62.51 43.92 62.2562 44.06777 C 62 44.21 61.74 44.35 61.485 44.49725 C 61.23 44.64 60.97 44.78 60.70477 44.92141 C 60.44 45.06 60.18 45.2 59.91557 45.34023 C 59.65 45.48 59.38 45.62 59.11747 45.75366 C 58.85 45.89 58.58 46.03 58.31053 46.16166 C 58.04 46.3 57.77 46.43 57.49484 46.56417 C 57.22 46.7 56.95 46.83 56.67046 46.96115 C 56.39 47.09 56.12 47.22 55.83747 47.35254 C 55.56 47.48 55.28 47.61 54.99597 47.7383 C 54.71 47.87 54.43 47.99 54.14603 48.11837 C 53.86 48.24 53.58 48.37 53.28774 48.49269 C 53 48.62 52.71 48.74 52.4212 48.86122 C 52.13 48.98 51.84 49.1 51.5465 49.22388 C 51.25 49.34 50.96 49.46 50.66374 49.58063 C 50.37 49.7 50.07 49.82 49.77302 49.9314 C 49.47 50.05 49.18 50.16 48.87445 50.27615 C 48.57 50.39 48.27 50.5 47.96814 50.6148 C 47.66 50.73 47.36 50.84 47.05419 50.9473 C 46.75 51.06 46.44 51.17 46.13273 51.27359 C 45.82 51.38 45.51 51.49 45.20386 51.59361 C 44.89 51.7 44.58 51.8 44.26771 51.90731 C 43.95 52.01 43.64 52.11 43.32441 52.21462 C 43.01 52.32 42.69 52.42 42.37407 52.51548 C 42.06 52.61 41.74 52.71 41.41684 52.80985 C 41.1 52.91 40.78 53 40.45283 53.09765 C 39.81 53.29 39.16 53.47 38.50506 53.65334 C 37.2 54.01 35.87 54.36 34.53441 54.68353 C 23.82 57.29 12.1 58.68 0.33873 58.70327 C -23.25 58.81 -46.61 53.2 -63.01825 43.63306 M 44.26488 19.02437 L 48.50753 16.57488 M 50.12163 13.97694 A 5.6 3.23316 180 0 0 40.58793 12.0025 L 36.34529 14.45199 A 5.6 3.23316 180 0 0 34.73118 16.42643 L 32.36578 30.52363 M 34.73118 16.42643 A 5.6 3.23316 180 0 0 44.26488 19.02437 M -41.7193 -31.43512 A 2 1.1547 180 0 0 -38.30509 -32.25161 A 2 1.1547 180 0 0 -38.89087 -33.06811 L -43.13351 -35.5176 A 2 1.1547 180 0 0 -46.54773 -34.7011 A 2 1.1547 180 0 0 -45.96194 -33.88461 L -41.7193 -31.43512 Z M -62.50824 -45.07061 A 88.4 51.03776 360 0 1 88.4 -8.98146 A 88.4 51.03776 360 0 1 -88.4 -8.98146 A 88.4 51.03776 360 0 1 -62.50824 -45.07061 Z M 45.96194 15.10519 A 2 1.1547 180 0 0 46.54773 14.28869 A 2 1.1547 180 0 0 43.13351 13.47219 L 38.89087 15.92168 A 2 1.1547 180 0 0 38.30509 16.73818 A 2 1.1547 180 0 0 41.7193 17.55468 L 45.96194 15.10519 Z M -38.89087 -31.76172 A 2 1.1547 360 0 1 -38.65584 -31.59842 M -43.13351 -34.21121 L -38.89087 -31.76172 L -38.89087 -33.06811 M -46.19697 -34.04791 A 2 1.1547 360 0 1 -43.13351 -34.21121 L -43.13351 -35.5176 M -63.63961 -45.72381 A 90 51.96152 360 0 1 90 -8.98146 L 90 5.51736 M 90 -8.98146 A 90 51.96152 360 0 1 -90 -8.98146 L -90 5.51736 M -90 -8.98146 A 90 51.96152 360 0 1 -63.63961 -45.72381 M 63.63961 42.25971 C 63.26 42.48 62.87 42.7 62.4792 42.91767 C 62.09 43.13 61.7 43.35 61.29822 43.5635 C 60.9 43.78 60.5 43.99 60.09688 44.19706 C 59.69 44.41 59.29 44.61 58.87543 44.81823 C 58.46 45.02 58.05 45.23 57.63412 45.42682 C 57.22 45.63 56.8 45.83 56.37321 46.0227 C 55.95 46.22 55.52 46.41 55.09298 46.60566 C 54.66 46.8 54.23 46.99 53.79374 47.17555 C 53.36 47.36 52.92 47.55 52.4758 47.73217 C 52.03 47.92 51.59 48.1 51.13948 48.27533 C 50.69 48.45 50.24 48.63 49.78513 48.80483 C 49.33 48.98 48.87 49.15 48.41312 49.32049 C 47.95 49.49 47.49 49.66 47.02382 49.82211 C 46.56 49.99 46.09 50.15 45.61763 50.30948 C 45.15 50.47 44.67 50.63 44.19495 50.78242 C 43.72 50.94 43.24 51.09 42.75621 51.24071 C 42.27 51.39 41.79 51.54 41.30185 51.68418 C 40.81 51.83 40.32 51.97 39.83231 52.11262 C 39.34 52.25 38.85 52.39 38.34807 52.52584 C 37.85 52.66 37.35 52.79 36.84961 52.92366 C 36.35 53.05 35.84 53.18 35.33741 53.3059 C 34.83 53.43 34.32 53.55 33.81198 53.67237 C 33.3 53.79 32.79 53.91 32.27384 54.02291 C 31.76 54.14 31.24 54.25 30.72351 54.35735 C 30.2 54.47 29.68 54.57 29.16154 54.67552 C 28.64 54.78 28.11 54.88 27.58847 54.97726 C 26.54 55.17 25.48 55.36 24.41127 55.5309 C 22.28 55.88 20.12 56.18 17.94883 56.43501 C 0.54 58.51 -18.04 57.47 -34.45681 53.51985 C -67.69 45.81 -90.4 26.03 -90 5.51738 C -90 5.69 -90 5.86 -89.99629 6.03242 C -89.99 6.2 -89.99 6.38 -89.984 6.54886 C -89.98 6.72 -89.97 6.89 -89.96314 7.06678 C -89.95 7.24 -89.94 7.41 -89.93365 7.5863 C -89.92 7.76 -89.91 7.93 -89.89551 8.10751 C -89.88 8.28 -89.87 8.46 -89.84862 8.63052 C -89.83 8.81 -89.81 8.98 -89.79292 9.15544 C -89.77 9.33 -89.75 9.51 -89.7283 9.68237 C -89.71 9.86 -89.68 10.03 -89.65464 10.21143 C -89.63 10.39 -89.6 10.57 -89.57179 10.74274 C -89.54 10.92 -89.51 11.1 -89.47961 11.27642 C -89.45 11.45 -89.41 11.63 -89.37791 11.81259 C -89.34 11.99 -89.31 12.17 -89.26651 12.35136 C -89.23 12.53 -89.19 12.71 -89.14519 12.89287 C -89.1 13.07 -89.06 13.26 -89.01373 13.43725 C -88.97 13.62 -88.92 13.8 -88.87188 13.98462 C -88.82 14.17 -88.77 14.35 -88.71938 14.53512 C -88.67 14.72 -88.61 14.9 -88.55594 15.0889 C -88.5 15.27 -88.44 15.46 -88.38127 15.64608 C -88.32 15.83 -88.26 16.02 -88.19505 16.20681 C -88.13 16.39 -88.06 16.58 -87.99694 16.77123 C -87.93 16.96 -87.86 17.15 -87.7866 17.33949 C -87.71 17.53 -87.64 17.72 -87.56364 17.91175 C -87.49 18.1 -87.41 18.3 -87.32768 18.48815 C -87.25 18.68 -87.16 18.87 -87.07832 19.06884 C -86.99 19.26 -86.91 19.46 -86.81513 19.65399 C -86.73 19.85 -86.63 20.05 -86.53766 20.24376 C -86.44 20.44 -86.35 20.64 -86.24546 20.83831 C -85.85 21.63 -85.41 22.44 -84.91952 23.26762 C -77.48 35.28 -63.56 43.78 -63.01825 43.63306 M 43.13351 14.77859 A 2 1.1547 360 0 1 46.19697 14.94189 M 38.89087 17.22808 L 43.13351 14.77859 L 43.13351 13.47219 M 38.65584 17.39138 A 2 1.1547 360 0 1 38.89087 17.22808 L 38.89087 15.92168 M -52.59589 -13.39797 L -50.18795 -17.21522 L -48.50753 -32.41491 M -43.40053 -37.8657 C -42.88 -38.04 -42.36 -38.2 -41.83552 -38.36596 C -41.31 -38.53 -40.78 -38.69 -40.25322 -38.84775 C -39.72 -39.01 -39.19 -39.16 -38.6543 -39.31087 C -38.12 -39.46 -37.58 -39.61 -37.0394 -39.75513 C -36.5 -39.9 -35.96 -40.04 -35.40921 -40.18033 C -34.86 -40.32 -34.32 -40.45 -33.76442 -40.58631 C -33.21 -40.72 -32.66 -40.85 -32.10569 -40.97289 C -31.55 -41.1 -30.99 -41.22 -30.43373 -41.33992 C -29.87 -41.46 -29.31 -41.57 -28.74924 -41.68724 C -28.19 -41.8 -27.62 -41.91 -27.05291 -42.01471 C -26.49 -42.12 -25.92 -42.22 -25.34546 -42.32219 C -24.77 -42.42 -24.2 -42.52 -23.6276 -42.60957 C -23.05 -42.7 -22.48 -42.79 -21.90005 -42.87672 C -21.32 -42.96 -20.74 -43.04 -20.16352 -43.12353 C -19.58 -43.2 -19 -43.28 -18.41875 -43.3499 C -17.84 -43.42 -17.25 -43.49 -16.66646 -43.55574 C -16.08 -43.62 -15.49 -43.68 -14.90738 -43.74098 C -14.32 -43.8 -13.73 -43.85 -13.14226 -43.90552 C -12.55 -43.96 -11.96 -44 -11.37181 -44.04932 C -10.78 -44.09 -10.19 -44.13 -9.59679 -44.17231 C -9 -44.21 -8.41 -44.24 -7.81792 -44.27445 C -7.22 -44.31 -6.63 -44.33 -6.03596 -44.3557 C -5.44 -44.38 -4.85 -44.4 -4.25164 -44.41603 C -3.66 -44.43 -3.06 -44.45 -2.4657 -44.45542 C -1.87 -44.47 -1.27 -44.47 -0.67888 -44.47386 C -0.08 -44.48 0.51 -44.48 1.10807 -44.47134 C 2.3 -44.46 3.49 -44.44 4.67942 -44.40348 C 7.06 -44.33 9.43 -44.2 11.79132 -44.01716 C 30.69 -42.56 48.63 -37.45 62.12054 -29.65243 C 75.62 -21.92 84.63 -11.54 87.18259 -0.54037 M 50.82139 32.77875 L 50.18795 31.77458 M 46.1503 34.54903 L 45.94531 34.22407 L 44.26488 19.02437 M 32.25693 28.7481 L 32.69537 28.55932 M -41.55935 -31.3522 L -41.6464 -33.35262 M 41.55935 17.63759 L 41.6464 15.63717 M 90.00001 5.51736 L 90.00001 5.51741 C 90 5.69 90 5.86 89.99635 6.02766 C 89.99 6.2 89.99 6.37 89.98429 6.53927 C 89.98 6.71 89.97 6.88 89.9638 7.05235 C 89.96 7.22 89.95 7.4 89.93487 7.56697 C 89.92 7.74 89.91 7.91 89.89745 8.08326 C 89.88 8.26 89.87 8.43 89.85145 8.6013 C 89.83 8.77 89.82 8.95 89.79681 9.12121 C 89.78 9.29 89.76 9.47 89.73342 9.64309 C 89.71 9.82 89.69 9.99 89.66117 10.16706 C 89.64 10.34 89.61 10.52 89.57991 10.69322 C 89.55 10.87 89.52 11.05 89.4895 11.22169 C 89.46 11.4 89.42 11.58 89.38978 11.75258 C 89.35 11.93 89.32 12.11 89.28054 12.28603 C 89.24 12.46 89.2 12.64 89.1616 12.82215 C 89.12 13 89.08 13.18 89.03273 13.36106 C 88.99 13.54 88.94 13.72 88.8937 13.9029 C 88.85 14.08 88.8 14.27 88.74424 14.44779 C 88.69 14.63 88.64 14.81 88.5841 14.99586 C 88.53 15.18 88.47 15.36 88.41298 15.54725 C 88.35 15.73 88.29 15.92 88.23059 16.10211 C 88.17 16.29 88.1 16.47 88.03659 16.66056 C 87.97 16.85 87.9 17.03 87.83064 17.22275 C 87.76 17.41 87.69 17.6 87.6124 17.78882 C 87.54 17.98 87.46 18.17 87.3815 18.35892 C 87.3 18.55 87.22 18.74 87.13753 18.93321 C 87.05 19.13 86.97 19.32 86.88009 19.51183 C 86.79 19.71 86.7 19.9 86.60877 20.09494 C 86.52 20.29 86.42 20.49 86.32311 20.68269 C 85.93 21.47 85.5 22.27 85.02777 23.08336 C 77.75 35 64.01 43.53 63.01829 43.63304 M 90.00001 5.51741 C 90 5.73 90 5.95 89.99306 6.16298 C 89.99 6.38 89.98 6.59 89.97223 6.80838 C 89.96 7.02 89.95 7.24 89.93751 7.45349 C 89.92 7.67 89.91 7.88 89.88893 8.0982 C 89.87 8.31 89.85 8.53 89.82649 8.7424 C 89.8 8.96 89.78 9.17 89.75022 9.386 C 89.72 9.6 89.69 9.81 89.66014 10.02886 C 89.63 10.24 89.59 10.46 89.55626 10.6709 C 89.52 10.88 89.48 11.1 89.43862 11.31199 C 89.4 11.53 89.35 11.74 89.30725 11.95204 C 89.26 12.17 89.21 12.38 89.16217 12.59093 C 89.11 12.8 89.06 13.02 89.00343 13.22855 C 88.95 13.44 88.89 13.65 88.83107 13.8648 C 88.77 14.08 88.71 14.29 88.64512 14.49957 C 88.58 14.71 88.51 14.92 88.44563 15.13275 C 88.38 15.34 88.31 15.55 88.23264 15.76425 C 88.16 15.97 88.08 16.18 88.00622 16.39394 C 87.93 16.6 87.85 16.81 87.76641 17.02174 C 87.68 17.23 87.6 17.44 87.51326 17.64752 C 87.43 17.86 87.34 18.06 87.24684 18.2712 C 87.16 18.48 87.06 18.69 86.9672 18.89267 C 86.87 19.1 86.77 19.31 86.67442 19.51183 C 86.57 19.72 86.47 19.92 86.36856 20.12857 C 86.26 20.33 86.16 20.54 86.04968 20.7428 C 85.94 20.95 85.83 21.15 85.71786 21.35441 C 85.61 21.56 85.49 21.76 85.37318 21.96332 C 85.26 22.17 85.14 22.37 85.01571 22.56941 C 84.89 22.77 84.77 22.97 84.64552 23.1726 C 84.14 23.97 83.61 24.77 83.03933 25.55446 C 78.49 31.84 71.85 37.53 63.63961 42.25971 Q 63.64 43.27 63.01829 43.63304 M -34.73118 -32.56337 L -32.36578 -18.46617 M -50.12163 -35.01286 L -52.48704 -20.91566 M -61.51829 44.49906 L -63.01828 43.63304" />
  </svg>