<svg 
     version="1.1" 
     xmlns="http://www.w3.org/2000/svg" 
     viewBox="-77.59734307203277 -81.18107109537482 153.18844156001416 162.4785063995148" 
     fill="none" 
     stroke="black" 
     stroke-width="0.2%" 
     vector-effect="non-scaling-stroke">
  <path d="M -59.48536 47.46907 L -3.09359 80.02687 A 1.6 0.92376 180 0 0 -0.83085 80.02687 L 74.12247 36.75255 A 1.6 0.92376 180 0 0 74.5911 36.09936 M -61.32582 29.8316 L -3.09359 63.45199 A 1.6 0.92376 180 0 0 -0.83085 63.45199 L 30.98895 45.08082 L 30.87582 45.0155 L 30.87582 44.49294 L 30.87582 45.0155 M -3.8502 65.62795 A 0.93 0.53694 240 1 1 -4.50781 64.48894 A 0.93 0.53694 240 0 1 -3.8502 65.62795 Z M -60.53423 28.98223 L 10.7657 -12.18281 M 74.12247 18.87128 L 13.02844 -16.40138 L 11.89707 -15.74818 L 10.7657 -15.09498 M 74.12247 20.17767 A 1.6 0.92376 180 0 0 74.5911 19.52447 A 1.6 0.92376 180 0 0 74.12247 18.87128 M 42.30266 38.54884 L 74.12247 20.17767 M 42.30266 40.80238 L 42.30266 38.54884 M 42.08986 41.90897 L 42.30266 40.80238 M 42.08986 41.90897 A 8.9 5.13842 120 0 1 32.19581 49.11421 A 8.9 5.13842 120 0 1 31.20176 48.19522 M 30.98895 47.33435 L 31.20176 48.19522 M 30.98895 45.08082 L 30.98895 47.33435 M -61.53729 28.40311 L -1.96222 62.79879 L 72.9911 19.52447 L 11.89707 -15.74818 M 30.87582 44.49294 L 41.28443 38.48353 L 42.18953 38.48353 L 42.30266 38.54884 M -60.52292 28.98876 L 10.7657 -12.16975 L 10.7657 -15.09498 M -3.86309 65.47091 A 0.6 0.34641 240 1 1 -4.37824 64.57863 M 13.77345 -1.72132 A 1 0.57735 60 0 0 13.93 -2.1433 A 1 0.57735 60 0 0 12.73486 -3.42416 A 7.86364 4.54007 60 0 0 12.87475 -3.15883 A 0.7 0.40415 240 0 1 13.2229 -3.1231 A 0.7 0.40415 240 0 1 13.60252 -1.96561 A 7.86364 4.54007 60 0 0 13.77345 -1.72132 A 7.86364 4.54007 60 0 0 18.65958 1.98464 M 42.18953 40.73706 L 42.18953 38.48353 M 42.18953 40.73706 L 42.30266 40.80238 M 41.97672 41.84365 L 42.18953 40.73706 M 41.97672 41.84365 L 42.08986 41.90897 M 32.1396 49.08093 A 8.9 5.13842 300 0 0 41.97672 41.84365 M 10.7657 -6.76672 L 10.7657 -12.16975 M 10.7657 -6.76672 L 11.68494 -6.23599 L -54.92452 32.221 M 11.68494 -6.23599 A 7.86364 4.54007 60 0 0 12.73486 -3.42416 M 22.29154 -0.11227 L 24.13002 0.94918 L -42.47944 39.40617 M 24.13002 0.94918 A 7.86364 4.54007 60 0 0 31.10466 9.16981 M 34.73662 7.0729 L 36.5751 8.13435 L -30.03436 46.59134 M 36.5751 8.13435 A 7.86364 4.54007 60 0 0 43.54974 16.35498 M 47.1817 14.25807 L 49.02018 15.31952 L -17.58928 53.77651 M 49.02018 15.31952 A 7.86364 4.54007 60 0 0 55.99482 23.54015 M 59.62678 21.44324 L 61.46526 22.50469 L -5.1442 60.96168 M 61.46526 22.50469 A 7.86364 4.54007 60 0 0 62.61819 25.51327 M 41.28443 40.73706 L 41.28443 38.48353 M 41.13269 41.54625 L 41.28443 40.73706 L 42.18953 40.73706 M 31.02756 47.38045 A 8.26 4.76891 300 0 0 41.13269 41.54625 L 41.97672 41.84365 M 30.98895 47.21917 L 31.02756 47.38045 L 31.08862 48.1299 M 10.7657 -6.76672 L -55.84376 31.69027 M 59.62678 21.44324 L -6.98268 59.90023 M 47.1817 14.25807 L -19.42776 52.71506 M 34.73662 7.0729 L -31.87284 45.52989 M 22.29154 -0.11227 L -44.31792 38.34472 M 12.87475 -3.15883 A 7.86364 4.54007 60 0 0 13.60252 -1.96561 M -59.48536 42.2639 L -59.48536 47.71402 L -60.05104 48.04062 M -70.28368 -30.67877 L -59.48536 42.2639 L -59.49667 42.27044 L -70.295 -30.67224 C -70.3 -30.69 -70.3 -30.71 -70.30441 -30.72959 C -70.31 -30.75 -70.31 -30.77 -70.31577 -30.78755 C -70.32 -30.81 -70.32 -30.83 -70.32904 -30.84599 C -70.33 -30.87 -70.34 -30.89 -70.3442 -30.90482 C -70.35 -30.92 -70.36 -30.94 -70.36123 -30.96391 C -70.37 -30.98 -70.37 -31 -70.38008 -31.02317 C -70.39 -31.04 -70.39 -31.06 -70.40074 -31.08247 C -70.41 -31.1 -70.42 -31.12 -70.42315 -31.14171 C -70.43 -31.16 -70.44 -31.18 -70.44727 -31.20078 C -70.46 -31.22 -70.46 -31.24 -70.47307 -31.25956 C -70.48 -31.28 -70.49 -31.3 -70.50049 -31.31795 C -70.51 -31.34 -70.52 -31.36 -70.52947 -31.37583 C -70.54 -31.4 -70.55 -31.41 -70.55998 -31.43311 C -70.57 -31.45 -70.58 -31.47 -70.59194 -31.48966 C -70.6 -31.51 -70.61 -31.53 -70.6253 -31.54538 C -70.64 -31.56 -70.65 -31.58 -70.66 -31.60018 C -70.67 -31.62 -70.68 -31.64 -70.69596 -31.65394 C -70.71 -31.67 -70.72 -31.69 -70.73313 -31.70657 C -70.75 -31.72 -70.76 -31.74 -70.77144 -31.75796 C -70.78 -31.77 -70.8 -31.79 -70.81081 -31.80802 C -70.82 -31.82 -70.84 -31.84 -70.85116 -31.85666 C -70.86 -31.87 -70.88 -31.89 -70.89243 -31.90379 C -70.91 -31.92 -70.92 -31.93 -70.93453 -31.94931 C -70.95 -31.96 -70.96 -31.98 -70.97739 -31.99315 C -70.99 -32.01 -71.01 -32.02 -71.02092 -32.03521 C -71.04 -32.05 -71.05 -32.06 -71.06505 -32.07543 C -71.08 -32.09 -71.09 -32.1 -71.10969 -32.11371 C -71.12 -32.13 -71.14 -32.14 -71.15476 -32.15001 C -71.18 -32.17 -71.22 -32.2 -71.24584 -32.21633 C -71.28 -32.24 -71.31 -32.26 -71.3376 -32.27391 L -75.47728 -34.66395 L -75.25384 -34.79296 A 1.6 0.92376 120 0 1 -74.12247 -36.75255 L 0.83085 -80.02687 A 1.6 0.92376 120 0 1 1.63085 -80.10612 L 3.04506 -79.28962 A 1.6 0.92376 120 0 1 3.37643 -78.55718 M -71.32629 -32.28044 A 1.5 0.86603 240 0 1 -70.28368 -30.67877 L -70.295 -30.67224 M -74.05176 -33.85399 L -71.32629 -32.28044 L -71.3376 -32.27391 M 7.35664 -75.50444 L 16.39381 -14.45838 M 6.31404 -77.1061 A 1.5 0.86603 240 0 1 7.35664 -75.50444 L 7.36795 -75.51097 C 7.37 -75.53 7.36 -75.55 7.35854 -75.56832 C 7.36 -75.59 7.35 -75.61 7.34718 -75.62627 C 7.34 -75.65 7.34 -75.67 7.33391 -75.68472 C 7.33 -75.7 7.32 -75.72 7.31875 -75.74354 C 7.31 -75.76 7.31 -75.78 7.30172 -75.80264 C 7.3 -75.82 7.29 -75.84 7.28287 -75.86189 C 7.28 -75.88 7.27 -75.9 7.26221 -75.9212 C 7.26 -75.94 7.25 -75.96 7.2398 -75.98044 C 7.23 -76 7.22 -76.02 7.21568 -76.0395 C 7.21 -76.06 7.2 -76.08 7.18988 -76.09829 C 7.18 -76.12 7.17 -76.14 7.16247 -76.15668 C 7.15 -76.18 7.14 -76.2 7.13348 -76.21456 C 7.12 -76.23 7.11 -76.25 7.10297 -76.27183 C 7.09 -76.29 7.08 -76.31 7.07101 -76.32838 C 7.06 -76.35 7.05 -76.37 7.03765 -76.38411 C 7.03 -76.4 7.01 -76.42 7.00296 -76.4389 C 6.99 -76.46 6.98 -76.47 6.96699 -76.49267 C 6.95 -76.51 6.94 -76.53 6.92982 -76.54529 C 6.92 -76.56 6.9 -76.58 6.89151 -76.59669 C 6.88 -76.61 6.87 -76.63 6.85215 -76.64675 C 6.84 -76.66 6.83 -76.68 6.81179 -76.69539 C 6.8 -76.71 6.78 -76.73 6.77052 -76.74252 C 6.76 -76.76 6.74 -76.77 6.72842 -76.78804 C 6.71 -76.8 6.7 -76.82 6.68556 -76.83187 C 6.67 -76.85 6.66 -76.86 6.64203 -76.87394 C 6.63 -76.89 6.61 -76.9 6.5979 -76.91415 C 6.58 -76.93 6.57 -76.94 6.55326 -76.95244 C 6.54 -76.96 6.52 -76.98 6.50819 -76.98873 C 6.48 -77.01 6.45 -77.03 6.41712 -77.05506 C 6.39 -77.08 6.36 -77.09 6.32535 -77.11263 L 3.34805 -78.83158 M 3.58857 -78.67965 L 6.31404 -77.1061 L 6.32535 -77.11263 M 3.58857 -8.03909 L 3.58857 -78.67965 L 3.37643 -78.55718 M 6.06344 -76.37713 A 0.93 0.53694 240 0 1 6.06344 -74.85845 M 5.40583 -75.99746 A 0.93 0.53694 240 0 1 6.06344 -76.37713 M -60.56173 47.74577 L -60.05104 48.04062 M -60.56173 47.74577 L -60.52638 47.13438 L -60.48275 46.54048 L -60.43119 45.96887 L -60.37211 45.42412 L -60.30598 44.91064 L -60.23335 44.43254 L -60.15479 43.99367 L -60.07093 43.59758 L -59.98246 43.24743 L -59.89007 42.94605 L -59.79453 42.69586 L -59.69658 42.49888 L -59.59703 42.35669 L -59.49667 42.27044 M -73.83963 -33.97646 L -75.25384 -34.79296 M -74.05176 -33.85399 L -73.83963 -33.97646 A 1.6 0.92376 120 0 1 -72.70825 -35.93606 L -74.12247 -36.75255 M 2.24506 -79.21037 A 1.6 0.92376 120 0 1 3.04506 -79.28962 M -72.70825 -35.93606 L 2.24506 -79.21037 L 0.83085 -80.02687 M 5.8301 -75.97297 A 0.6 0.34641 240 0 1 5.8301 -74.99317 L 6.06344 -74.85845 M 5.8301 -74.99317 A 0.6 0.34641 240 0 1 5.40583 -75.72802 L 5.40583 -75.99746 M 5.40583 -75.72802 A 0.6 0.34641 240 0 1 5.8301 -75.97297 M -76.59734 38.48761 L -60.97969 47.50446 L -72.50698 -30.36239 L -76.59734 -32.72396 A 1.584 0.91452 120 0 1 -75.47728 -34.66395 M -60.97969 47.50446 L -60.95374 47.51944 L -60.92714 47.5348 L -60.89989 47.55054 L -60.87201 47.56663 L -60.84351 47.58309 L -60.81441 47.59989 L -60.78472 47.61703 L -60.75446 47.6345 L -60.72364 47.65229 L -60.69228 47.6704 L -60.66039 47.68881 L -60.62799 47.70752 L -60.5951 47.72651 L -60.56173 47.74577 M 2.97767 -79.58113 A 1.584 0.91452 300 0 0 2.46667 -79.62355 M -76.59734 38.48761 L -76.59734 -32.72396 M -3.09359 80.02687 L -3.09359 63.45199 M 74.12247 36.75255 L 74.12247 20.17767 M -0.83085 80.02687 L -0.83085 63.45199 M 16.40724 -14.45063 L 7.36795 -75.51097 M -72.50698 -30.36239 C -72.49 -30.36 -72.47 -30.35 -72.45189 -30.34555 C -72.43 -30.34 -72.41 -30.34 -72.39424 -30.33031 C -72.37 -30.33 -72.35 -30.32 -72.33416 -30.31671 C -72.31 -30.31 -72.29 -30.31 -72.2718 -30.30479 C -72.25 -30.3 -72.23 -30.3 -72.20732 -30.29459 C -72.19 -30.29 -72.16 -30.29 -72.14085 -30.28614 C -72.12 -30.28 -72.1 -30.28 -72.07258 -30.27946 C -72.05 -30.28 -72.03 -30.28 -72.00266 -30.27458 C -71.98 -30.27 -71.96 -30.27 -71.93126 -30.2715 C -71.91 -30.27 -71.88 -30.27 -71.85856 -30.27024 C -71.83 -30.27 -71.81 -30.27 -71.78472 -30.2708 C -71.76 -30.27 -71.74 -30.27 -71.70994 -30.2732 C -71.68 -30.27 -71.66 -30.28 -71.63438 -30.27742 C -71.61 -30.28 -71.58 -30.28 -71.55824 -30.28347 C -71.53 -30.29 -71.51 -30.29 -71.4817 -30.29132 C -71.46 -30.29 -71.43 -30.3 -71.40494 -30.30097 C -71.38 -30.3 -71.35 -30.31 -71.32815 -30.3124 C -71.3 -30.32 -71.28 -30.32 -71.2515 -30.32558 C -71.23 -30.33 -71.2 -30.34 -71.1752 -30.3405 C -71.15 -30.35 -71.12 -30.35 -71.09942 -30.3571 C -71.07 -30.36 -71.05 -30.37 -71.02435 -30.37537 C -71 -30.38 -70.97 -30.39 -70.95016 -30.39527 C -70.93 -30.4 -70.9 -30.41 -70.87704 -30.41674 C -70.85 -30.42 -70.83 -30.43 -70.80517 -30.43975 C -70.78 -30.45 -70.76 -30.46 -70.73471 -30.46424 C -70.71 -30.47 -70.69 -30.48 -70.66584 -30.49016 C -70.64 -30.5 -70.62 -30.51 -70.59873 -30.51745 C -70.58 -30.53 -70.55 -30.54 -70.53353 -30.54606 C -70.49 -30.57 -70.45 -30.59 -70.40952 -30.60694 C -70.37 -30.63 -70.33 -30.65 -70.295 -30.67224 M -72.50698 -30.36239 C -72.51 -30.38 -72.51 -30.4 -72.50409 -30.42574 C -72.5 -30.45 -72.5 -30.47 -72.49851 -30.49049 C -72.5 -30.51 -72.49 -30.53 -72.49024 -30.55649 C -72.49 -30.58 -72.48 -30.6 -72.4793 -30.62357 C -72.48 -30.65 -72.47 -30.67 -72.46571 -30.69157 C -72.46 -30.71 -72.46 -30.74 -72.44951 -30.76033 C -72.44 -30.78 -72.44 -30.81 -72.43072 -30.82967 C -72.42 -30.85 -72.42 -30.88 -72.40939 -30.89943 C -72.4 -30.92 -72.39 -30.95 -72.38557 -30.96944 C -72.38 -30.99 -72.37 -31.02 -72.35931 -31.03952 C -72.35 -31.06 -72.34 -31.09 -72.33068 -31.10951 C -72.32 -31.13 -72.31 -31.16 -72.29972 -31.17923 C -72.29 -31.2 -72.28 -31.23 -72.26653 -31.24851 C -72.26 -31.27 -72.24 -31.29 -72.23116 -31.3172 C -72.22 -31.34 -72.21 -31.36 -72.19371 -31.38511 C -72.18 -31.41 -72.17 -31.43 -72.15426 -31.45208 C -72.14 -31.47 -72.13 -31.5 -72.11291 -31.51795 C -72.1 -31.54 -72.08 -31.56 -72.06974 -31.58255 C -72.06 -31.6 -72.04 -31.62 -72.02486 -31.64574 C -72.01 -31.67 -71.99 -31.69 -71.97837 -31.70735 C -71.96 -31.73 -71.95 -31.75 -71.93038 -31.76724 C -71.91 -31.79 -71.9 -31.81 -71.88101 -31.82526 C -71.86 -31.84 -71.85 -31.86 -71.83036 -31.88126 C -71.81 -31.9 -71.8 -31.92 -71.77856 -31.93511 C -71.76 -31.95 -71.74 -31.97 -71.72573 -31.98668 C -71.71 -32 -71.69 -32.02 -71.67199 -32.03584 C -71.65 -32.05 -71.64 -32.07 -71.61746 -32.08247 C -71.6 -32.1 -71.58 -32.11 -71.56228 -32.12646 C -71.53 -32.15 -71.49 -32.18 -71.45047 -32.20607 C -71.41 -32.23 -71.38 -32.25 -71.3376 -32.27391 M 7.83882 -76.10736 Q 7.84 -76.11 7.83896 -76.10641 C 7.84 -76.09 7.84 -76.08 7.84202 -76.06927 C 7.84 -76.06 7.84 -76.04 7.84053 -76.03158 C 7.84 -76.02 7.84 -76.01 7.83452 -75.99345 C 7.83 -75.98 7.83 -75.97 7.82398 -75.955 C 7.82 -75.94 7.81 -75.93 7.80895 -75.91634 C 7.8 -75.9 7.8 -75.89 7.78947 -75.8776 C 7.78 -75.86 7.77 -75.85 7.7656 -75.83888 C 7.76 -75.83 7.75 -75.81 7.73739 -75.80031 C 7.73 -75.79 7.72 -75.77 7.70493 -75.76201 C 7.69 -75.75 7.68 -75.74 7.66832 -75.72409 C 7.66 -75.71 7.64 -75.7 7.62764 -75.68667 C 7.61 -75.67 7.6 -75.66 7.58303 -75.64986 C 7.57 -75.64 7.55 -75.63 7.53461 -75.61377 C 7.52 -75.6 7.5 -75.59 7.48251 -75.57853 C 7.46 -75.57 7.45 -75.56 7.42691 -75.54422 C 7.41 -75.53 7.39 -75.52 7.36795 -75.51097 M 7.09269 -77.20533 Q 7.09 -77.21 7.09107 -77.20626 C 7.08 -77.21 7.07 -77.22 7.05282 -77.22596 C 7.04 -77.23 7.03 -77.24 7.01277 -77.24232 C 7 -77.25 6.99 -77.25 6.97103 -77.2553 C 6.96 -77.26 6.94 -77.26 6.92769 -77.26487 C 6.91 -77.27 6.9 -77.27 6.88286 -77.271 C 6.87 -77.27 6.85 -77.27 6.83666 -77.27368 C 6.82 -77.27 6.81 -77.27 6.78919 -77.27289 C 6.77 -77.27 6.76 -77.27 6.74058 -77.26864 C 6.72 -77.27 6.71 -77.26 6.69094 -77.26094 C 6.67 -77.26 6.66 -77.25 6.64041 -77.24979 C 6.62 -77.25 6.61 -77.24 6.58909 -77.23523 C 6.57 -77.23 6.55 -77.22 6.53713 -77.21729 C 6.52 -77.21 6.5 -77.2 6.48464 -77.196 C 6.47 -77.19 6.45 -77.18 6.43176 -77.17143 C 6.41 -77.16 6.4 -77.15 6.37862 -77.14362 C 6.36 -77.13 6.34 -77.12 6.32535 -77.11263 M 74.5911 19.52447 L 74.5911 36.09936 M 17.0187 -14.0976 L 7.83886 -76.10736 M 7.839 -76.10641 C 7.84 -76.11 7.84 -76.12 7.83629 -76.12394 C 7.84 -76.13 7.83 -76.14 7.83324 -76.14155 C 7.83 -76.15 7.83 -76.15 7.82987 -76.15918 C 7.83 -76.17 7.83 -76.17 7.82622 -76.17679 C 7.82 -76.18 7.82 -76.19 7.82231 -76.19435 C 7.82 -76.2 7.82 -76.21 7.81818 -76.21182 C 7.82 -76.22 7.82 -76.22 7.81384 -76.2292 C 7.81 -76.23 7.81 -76.24 7.80931 -76.24649 C 7.81 -76.26 7.8 -76.26 7.80186 -76.27337 C 7.8 -76.28 7.8 -76.29 7.79403 -76.30004 C 7.79 -76.31 7.79 -76.32 7.78583 -76.3265 C 7.78 -76.34 7.78 -76.34 7.77729 -76.35275 C 7.77 -76.36 7.77 -76.37 7.76883 -76.37762 C 7.77 -76.39 7.76 -76.39 7.76008 -76.40231 C 7.76 -76.41 7.75 -76.42 7.75104 -76.42679 C 7.75 -76.43 7.74 -76.44 7.74172 -76.45104 C 7.74 -76.46 7.74 -76.47 7.73211 -76.47505 C 7.73 -76.48 7.73 -76.49 7.72222 -76.4988 C 7.72 -76.51 7.72 -76.51 7.71203 -76.52227 C 7.71 -76.53 7.71 -76.54 7.70154 -76.54546 C 7.7 -76.55 7.69 -76.56 7.69074 -76.56835 C 7.69 -76.58 7.68 -76.58 7.67962 -76.59094 C 7.68 -76.6 7.67 -76.61 7.66816 -76.61322 C 7.66 -76.62 7.66 -76.63 7.65635 -76.63519 C 7.65 -76.64 7.65 -76.65 7.64416 -76.65687 C 7.64 -76.66 7.64 -76.67 7.63159 -76.67827 C 7.63 -76.69 7.62 -76.69 7.6186 -76.69939 C 7.61 -76.71 7.61 -76.71 7.60519 -76.72028 C 7.52 -76.84 7.43 -76.94 7.33963 -77.02178 C 7.25 -77.1 7.17 -77.16 7.09107 -77.20626 M 7.09195 -77.20575 L 2.97767 -79.58113" />
  </svg>