<svg 
     version="1.1" 
     xmlns="http://www.w3.org/2000/svg" 
     viewBox="-61.95260553828041 -48.35680269380812 123.90521107656082 96.41420640308857" 
     fill="none" 
     stroke="black" 
     stroke-width="0.2%" 
     vector-effect="non-scaling-stroke">
  <path d="M 45.11341 -47.3568 L -60.9526 13.88044 L -45.11341 23.0252 L -45.11341 24.20096 A 0.96 0.55426 240 0 1 -45.31224 24.64042 A 0.96 0.55426 240 0 1 -45.79224 24.59288 L -57.55849 17.79963 A 2.4 1.38564 60 0 0 -58.75849 17.68076 A 2.4 1.38564 60 0 0 -59.25555 18.77942 L -59.25555 35.27265 A 2.4 1.38564 60 0 0 -57.55849 38.21204 L -45.79224 45.00529 A 0.96 0.55426 240 0 1 -45.11341 46.18105 L -45.11341 46.57296 A 0.96 0.55426 240 0 1 -45.31224 47.01243 L 60.75378 -14.22481 M 60.9526 -38.21204 L -45.11341 23.0252 M 45.11341 -47.3568 L 60.9526 -38.21204 L 60.9526 -37.03628 A 0.96 0.55426 240 0 1 60.75378 -36.59682 M 46.81047 -28.54664 L 46.81047 -25.96459 L -59.25555 35.27265 M 46.81047 -25.96459 A 2.4 1.38564 60 0 0 48.50753 -23.0252 L -57.55849 38.21204 M 48.50753 -23.0252 L 60.27378 -16.23195 L -45.79224 45.00529 M 60.27378 -16.23195 A 0.96 0.55426 240 0 1 60.9526 -15.0562 L -45.11341 46.18105 M 60.9526 -15.0562 L 60.9526 -14.66428 L -45.11341 46.57296 M 60.9526 -14.66428 A 0.96 0.55426 240 0 1 60.75378 -14.22481 M -45.31224 47.01243 A 0.96 0.55426 240 0 1 -45.79224 46.96488 L -60.27378 38.60396 A 0.96 0.55426 240 0 1 -60.9526 37.4282 L -60.9526 13.88044 M 60.9526 -37.03628 L -45.11341 24.20096 M -57.55849 17.79963 L -59.25555 18.77942 M -45.31224 24.64042 L 60.75378 -36.59682" />
  </svg>