<svg 
     version="1.1" 
     xmlns="http://www.w3.org/2000/svg" 
     viewBox="-35.74873834152916 -16.850468050525336 71.49747668305832 44.44463455607861" 
     fill="none" 
     stroke="black" 
     stroke-width="0.2%" 
     vector-effect="non-scaling-stroke">
  <path d="M -31.81981 20.82066 L -24.74874 24.90315 A 10 5.7735 180 0 0 -10.6066 24.90315 L 31.81981 0.40825 A 10 5.7735 180 0 0 34.10288 -5.71548 M -31.1127 18.77942 L -24.04163 22.8619 A 9 5.19615 180 0 0 -11.31371 22.8619 L 31.1127 -1.63299 A 9 5.19615 180 0 0 33.16747 -7.14435 A 9 5.19615 180 0 0 31.1127 -8.98146 L 24.04163 -13.06395 A 9 5.19615 180 0 0 16.76412 -14.55902 M -34.10288 14.69694 A 10 5.7735 180 0 0 -31.81981 20.82066 L -31.1127 18.77942 M -31.1127 11.43095 A 9 5.19615 180 0 0 -33.16747 13.26807 A 9 5.19615 180 0 0 -31.1127 18.77942 M 11.31371 -13.06395 L -13.31409 1.15492 M -16.89569 3.22276 L -31.1127 11.43095 M 12.09569 -13.46572 A 9 5.19615 180 0 0 11.31371 -13.06395 M -11.38442 15.06436 A 4.4 2.54034 180 0 0 -10.09569 13.26807 L -10.09569 12.04332 A 4.4 2.54034 180 0 0 -11.38442 10.24703 M -18.89569 13.26807 A 4.4 2.54034 180 0 0 -11.38442 15.06436 M 17.60696 -1.67382 A 4.4 2.54034 180 0 0 18.89569 -3.47011 L 18.89569 -4.69486 A 4.4 2.54034 180 0 0 17.60696 -6.49115 M 10.09569 -3.47011 A 4.4 2.54034 180 0 0 17.60696 -1.67382 M -11.38442 13.83962 A 4.4 2.54034 180 0 0 -10.09569 12.04332 M -17.60696 10.24703 A 4.4 2.54034 180 0 0 -18.89569 12.04332 A 4.4 2.54034 180 0 0 -11.38442 13.83962 M 17.60696 -2.89856 A 4.4 2.54034 180 0 0 18.89569 -4.69486 M 11.38442 -6.49115 A 4.4 2.54034 180 0 0 10.09569 -4.69486 A 4.4 2.54034 180 0 0 17.60696 -2.89856 M -11.73797 13.22724 A 3.9 2.25167 180 0 0 -11.73797 10.04291 L -11.38442 10.24703 M -11.73797 10.04291 A 3.9 2.25167 180 0 0 -12.09569 9.86025 M -16.89569 9.86025 A 3.9 2.25167 180 0 0 -17.25341 10.04291 L -17.60696 10.24703 M -17.25341 10.04291 A 3.9 2.25167 180 0 0 -11.73797 13.22724 M 17.25341 -3.51094 A 3.9 2.25167 180 0 0 17.25341 -6.69527 L 17.60696 -6.49115 M 17.25341 -6.69527 A 3.9 2.25167 180 0 0 16.89569 -6.87793 M 12.09569 -6.87793 A 3.9 2.25167 180 0 0 11.73797 -6.69527 L 11.38442 -6.49115 M 11.73797 -6.69527 A 3.9 2.25167 180 0 0 17.25341 -3.51094 M -12.79863 12.61487 A 2.4 1.38564 180 0 0 -12.09569 11.63508 L -12.09569 2.81691 C -12.1 2.79 -12.1 2.77 -12.09721 2.747 C -12.1 2.72 -12.1 2.7 -12.10179 2.6772 C -12.1 2.65 -12.11 2.63 -12.10942 2.60766 C -12.11 2.58 -12.12 2.56 -12.12007 2.5385 C -12.12 2.52 -12.13 2.49 -12.13371 2.46985 C -12.14 2.45 -12.14 2.42 -12.15031 2.40184 C -12.16 2.38 -12.16 2.36 -12.16981 2.33459 C -12.18 2.31 -12.18 2.29 -12.19218 2.26821 C -12.2 2.25 -12.21 2.22 -12.21736 2.20281 C -12.23 2.18 -12.24 2.16 -12.24529 2.13848 C -12.26 2.12 -12.27 2.1 -12.2759 2.07533 C -12.29 2.05 -12.3 2.03 -12.30912 2.01346 C -12.32 1.99 -12.33 1.97 -12.34487 1.95294 C -12.36 1.93 -12.37 1.91 -12.38306 1.89386 C -12.4 1.87 -12.41 1.86 -12.4236 1.8363 C -12.44 1.82 -12.45 1.8 -12.4664 1.78032 C -12.48 1.76 -12.5 1.73 -12.52356 1.71197 C -12.54 1.69 -12.56 1.67 -12.58402 1.64631 C -12.6 1.62 -12.63 1.6 -12.64761 1.58341 C -12.67 1.56 -12.69 1.54 -12.71414 1.52334 C -12.73 1.51 -12.75 1.5 -12.76454 1.48123 C -12.78 1.47 -12.8 1.45 -12.81635 1.44067 C -12.83 1.43 -12.85 1.41 -12.86951 1.40166 C -12.89 1.39 -12.91 1.38 -12.92397 1.36421 C -12.94 1.35 -12.96 1.34 -12.97967 1.3283 C -13 1.32 -13.02 1.31 -13.03655 1.29395 C -13.06 1.28 -13.08 1.27 -13.09456 1.26114 C -13.11 1.25 -13.13 1.24 -13.15365 1.22989 C -13.31 1.15 -13.48 1.08 -13.65916 1.03501 C -16.44 0.97 -16.54 1.41 -16.89569 2.81691 A 2.4 1.38564 180 0 0 -12.79863 3.79671 A 2.4 1.38564 180 0 0 -12.09569 2.81691 M -16.89569 11.63508 A 2.4 1.38564 180 0 0 -12.79863 12.61487 M 16.19275 -4.12331 A 2.4 1.38564 180 0 0 16.89569 -5.1031 L 16.89569 -13.92127 C 16.9 -13.94 16.9 -13.97 16.89417 -13.99118 C 16.89 -14.01 16.89 -14.04 16.88959 -14.06098 C 16.89 -14.08 16.89 -14.11 16.88196 -14.13052 C 16.88 -14.15 16.88 -14.18 16.87131 -14.19968 C 16.87 -14.22 16.86 -14.25 16.85767 -14.26833 C 16.85 -14.29 16.85 -14.31 16.84107 -14.33634 C 16.84 -14.36 16.83 -14.38 16.82156 -14.40359 C 16.81 -14.43 16.81 -14.45 16.79919 -14.46997 C 16.79 -14.49 16.78 -14.51 16.77401 -14.53537 C 16.77 -14.56 16.76 -14.58 16.74609 -14.5997 C 16.74 -14.62 16.73 -14.64 16.71548 -14.66285 C 16.7 -14.68 16.69 -14.7 16.68226 -14.72472 C 16.67 -14.75 16.66 -14.77 16.64651 -14.78524 C 16.63 -14.81 16.62 -14.82 16.60832 -14.84432 C 16.6 -14.86 16.58 -14.88 16.56778 -14.90188 C 16.55 -14.92 16.54 -14.94 16.52498 -14.95786 C 16.51 -14.98 16.49 -15 16.46782 -15.02621 C 16.45 -15.05 16.43 -15.07 16.40735 -15.09187 C 16.39 -15.11 16.37 -15.13 16.34377 -15.15477 C 16.32 -15.18 16.3 -15.2 16.27724 -15.21484 C 16.26 -15.23 16.24 -15.24 16.22684 -15.25695 C 16.21 -15.27 16.19 -15.28 16.17503 -15.29751 C 16.16 -15.31 16.14 -15.32 16.12187 -15.33652 C 16.1 -15.35 16.09 -15.36 16.06741 -15.37397 C 16.05 -15.39 16.03 -15.4 16.01171 -15.40988 C 15.99 -15.42 15.97 -15.43 15.95483 -15.44423 C 15.94 -15.46 15.92 -15.47 15.89681 -15.47703 C 15.88 -15.49 15.86 -15.5 15.83773 -15.50829 C 15.68 -15.59 15.51 -15.65 15.33222 -15.70317 C 12.55 -15.77 12.46 -15.33 12.09569 -13.92127 A 2.4 1.38564 180 0 0 16.19275 -12.94147 A 2.4 1.38564 180 0 0 16.89569 -13.92127 M 12.09569 -5.1031 A 2.4 1.38564 180 0 0 16.19275 -4.12331 M -24.74874 24.90315 L -24.04163 22.8619 M -10.6066 24.90315 L -11.31371 22.8619 M 31.81981 0.40825 L 31.1127 -1.63299 M -13.64716 2.32702 A 1.2 0.69282 180 0 0 -13.44259 1.50496 A 1.2 0.69282 180 1 0 -13.64716 2.32702 Z M 15.34422 -14.41116 A 1.2 0.69282 180 0 0 15.54879 -15.23322 A 1.2 0.69282 180 1 0 15.34422 -14.41116 Z M -33.16747 13.26807 L -34.10288 14.69694 M 33.16747 -7.14435 L 34.10288 -5.71548 M -18.89569 13.26807 L -18.89569 12.04332 M 10.09569 -3.47011 L 10.09569 -4.69486 M -16.89569 11.63508 L -16.89569 2.81691 M 12.09569 -5.1031 L 12.09569 -13.92127" />
  </svg>