<svg 
     version="1.1" 
     xmlns="http://www.w3.org/2000/svg" 
     viewBox="-19.682517215959695 -13.114657079675661 40.145438482630055 25.778747670596843" 
     fill="none" 
     stroke="black" 
     stroke-width="0.2%" 
     vector-effect="non-scaling-stroke">
  <path d="M -7.91764 -3.47631 L -7.91764 -3.78376 A 13.7 7.9097 360 0 1 -7.93708 -4.20496 A 13.7 7.9097 360 0 1 19.46292 -4.20496 A 13.7 7.9097 360 0 1 5.03338 3.69352 A 5 2.88675 180 0 0 1.23159 4.53493 L -6.61145 9.06311 A 5 2.88675 360 0 1 -13.68252 9.06311 L -17.21805 7.02187 A 5 2.88675 360 0 1 -18.68252 4.98063 A 5 2.88675 360 0 1 -17.21805 2.93939 L -9.37501 -1.58879 M 5.03338 5.44899 L 5.03338 3.69352 M 5.03338 5.44899 A 13.7 7.9097 180 0 0 19.46292 -2.44949 M 5.03338 5.44899 A 5 2.88675 180 0 0 1.23159 6.2904 L -6.61145 10.81858 A 5 2.88675 360 0 1 -13.68252 10.81858 L -17.21805 8.77734 A 5 2.88675 360 0 1 -18.68252 6.7361 L -18.68252 4.98063 M -12.48564 6.70734 L -10.09431 4.57363 A 1.5 0.86603 360 0 1 -7.7743 4.43173 L -7.7743 2.67626 L -6.1557 3.61076 A 1.5 0.86603 360 0 1 -5.71636 4.22313 A 1.5 0.86603 360 0 1 -6.40149 4.95022 L -10.98751 6.66346 M -7.7743 4.43173 L -6.68974 5.0579 M -7.91764 -3.78376 A 5 2.88675 360 0 1 -7.91055 -3.63003 A 5 2.88675 360 0 1 -9.37501 -1.58879 M -13.06174 5.46591 L -10.09431 2.81817 A 1.5 0.86603 360 0 1 -7.7743 2.67626 M -13.06174 5.46591 A 1.5 0.86603 180 0 0 -13.30238 5.93637 A 1.5 0.86603 180 0 0 -10.98751 6.66346 M -17.21805 8.77734 L -17.21805 7.02187 M 1.23159 6.2904 L 1.23159 4.53493 M -13.68252 10.81858 L -13.68252 9.06311 M -6.61145 10.81858 L -6.61145 9.06311 M -13.06174 6.40684 L -13.06174 5.46591 M -10.09431 4.57363 L -10.09431 2.81817 M -6.1557 4.8355 L -6.1557 3.61076 M -7.93708 -4.20496 L -7.93708 -3.33304 M 19.46292 -4.20496 L 19.46292 -2.44949" />
  </svg>