<svg 
     version="1.1" 
     xmlns="http://www.w3.org/2000/svg" 
     viewBox="-60.49754010547485 -51.47096685404796 120.99508021094965 100.26503115102102" 
     fill="none" 
     stroke="black" 
     stroke-width="0.2%" 
     vector-effect="non-scaling-stroke">
  <path d="M -55.53301 21.01028 L -13.1066 45.50518 A 8.53553 4.92799 180 0 0 -1.03553 45.50518 L 55.53301 12.84531 C 55.59 12.81 55.65 12.78 55.70183 12.74554 C 55.76 12.71 55.81 12.68 55.86829 12.6425 C 55.92 12.61 55.98 12.57 56.03231 12.53619 C 56.09 12.5 56.14 12.46 56.19381 12.4266 C 56.25 12.39 56.3 12.35 56.35272 12.3137 C 56.41 12.28 56.46 12.24 56.50895 12.1975 C 56.56 12.16 56.61 12.12 56.66242 12.07798 C 56.71 12.04 56.76 12 56.81303 11.95516 C 56.86 11.91 56.91 11.87 56.96069 11.82903 C 57.01 11.79 57.06 11.74 57.10531 11.6996 C 57.15 11.66 57.2 11.61 57.24678 11.56688 C 57.29 11.52 57.34 11.48 57.38501 11.4309 C 57.43 11.39 57.48 11.34 57.51988 11.29165 C 57.56 11.24 57.61 11.2 57.6513 11.14918 C 57.69 11.1 57.74 11.05 57.77914 11.00351 C 57.82 10.95 57.86 10.9 57.90329 10.85466 C 57.94 10.81 57.98 10.76 58.01527 10.71355 C 58.05 10.67 58.09 10.62 58.12387 10.56979 C 58.16 10.52 58.19 10.47 58.22901 10.42343 C 58.26 10.37 58.3 10.32 58.33059 10.27451 C 58.36 10.22 58.4 10.17 58.42851 10.12311 C 58.46 10.07 58.49 10.02 58.52268 9.96927 C 58.55 9.92 58.58 9.87 58.61302 9.81307 C 58.64 9.76 58.67 9.71 58.69942 9.65458 C 58.73 9.59 58.76 9.53 58.79324 9.47076 C 58.82 9.41 58.85 9.35 58.88169 9.28418 C 58.91 9.22 58.94 9.16 58.96464 9.09497 C 58.99 9.03 59.02 8.97 59.04197 8.90329 C 59.14 8.65 59.23 8.38 59.29285 8.11513 C 59.43 7.58 59.5 7.03 59.49747 6.47395 L 59.49747 -19.97695 C 59.5 -20.02 59.5 -20.06 59.49541 -20.10061 C 59.49 -20.14 59.49 -20.18 59.48919 -20.2242 C 59.49 -20.27 59.48 -20.31 59.47883 -20.34764 C 59.47 -20.39 59.47 -20.43 59.46435 -20.47085 C 59.46 -20.51 59.45 -20.55 59.44575 -20.59376 C 59.44 -20.63 59.43 -20.68 59.42306 -20.7163 C 59.41 -20.76 59.41 -20.8 59.39629 -20.83839 C 59.39 -20.88 59.38 -20.92 59.36548 -20.95998 C 59.35 -21 59.34 -21.04 59.33065 -21.08099 C 59.32 -21.12 59.31 -21.16 59.29182 -21.20137 C 59.28 -21.24 59.26 -21.28 59.24904 -21.32105 C 59.23 -21.36 59.22 -21.4 59.20233 -21.43998 C 59.19 -21.48 59.17 -21.52 59.15172 -21.5581 C 59.13 -21.6 59.12 -21.64 59.09727 -21.67535 C 59.08 -21.71 59.06 -21.75 59.03901 -21.7917 C 59.02 -21.83 59 -21.87 58.97699 -21.90708 C 58.94 -21.97 58.91 -22.03 58.87258 -22.08544 C 58.84 -22.14 58.8 -22.2 58.75921 -22.26119 C 58.72 -22.32 58.68 -22.38 58.63705 -22.43419 C 58.59 -22.49 58.55 -22.55 58.50625 -22.60431 C 58.46 -22.66 58.41 -22.72 58.36699 -22.77141 C 58.32 -22.83 58.27 -22.88 58.21943 -22.93537 C 58.17 -22.99 58.12 -23.04 58.06373 -23.09608 C 58.01 -23.15 57.96 -23.2 57.90007 -23.25344 C 57.85 -23.3 57.8 -23.35 57.74171 -23.39592 C 57.69 -23.44 57.63 -23.49 57.57682 -23.53536 C 57.52 -23.58 57.46 -23.63 57.40554 -23.67167 C 57.35 -23.72 57.29 -23.76 57.22799 -23.80477 C 57.11 -23.89 56.98 -23.98 56.85468 -24.06105 C 56.73 -24.14 56.59 -24.23 56.45809 -24.30358 A 0.53333 0.30792 300 0 0 56.19142 -24.27717 L 55.8143 -24.05943 A 0.53333 0.30792 300 0 0 55.43717 -23.40624 L 13.01076 -47.90113 A 8.4 4.84974 180 0 0 1.13137 -47.90113 L -55.43717 -15.24127 A 8.4 4.84974 180 0 0 -57.89747 -11.81198 C -57.9 -11.79 -57.9 -11.77 -57.89657 -11.74565 C -57.9 -11.72 -57.9 -11.7 -57.89387 -11.67931 C -57.89 -11.66 -57.89 -11.64 -57.88937 -11.61296 C -57.89 -11.59 -57.89 -11.57 -57.88306 -11.5466 C -57.88 -11.52 -57.88 -11.5 -57.87494 -11.48021 C -57.87 -11.46 -57.87 -11.44 -57.86501 -11.4138 C -57.86 -11.39 -57.86 -11.37 -57.85324 -11.34736 C -57.85 -11.33 -57.84 -11.3 -57.83965 -11.28089 C -57.83 -11.26 -57.83 -11.24 -57.82422 -11.2144 C -57.82 -11.19 -57.81 -11.17 -57.80694 -11.14787 C -57.8 -11.13 -57.79 -11.1 -57.7878 -11.08132 C -57.78 -11.06 -57.77 -11.04 -57.76679 -11.01476 C -57.76 -10.99 -57.75 -10.97 -57.74391 -10.94817 C -57.74 -10.93 -57.73 -10.9 -57.71914 -10.88159 C -57.71 -10.86 -57.7 -10.84 -57.69247 -10.815 C -57.68 -10.79 -57.67 -10.77 -57.66389 -10.74843 C -57.65 -10.72 -57.64 -10.7 -57.63131 -10.67748 C -57.62 -10.65 -57.61 -10.63 -57.59654 -10.60656 C -57.58 -10.58 -57.57 -10.56 -57.55957 -10.5357 C -57.55 -10.51 -57.53 -10.49 -57.52039 -10.46491 C -57.51 -10.44 -57.49 -10.42 -57.47901 -10.39424 C -57.46 -10.37 -57.45 -10.35 -57.43541 -10.32369 C -57.42 -10.3 -57.41 -10.28 -57.38959 -10.2533 C -57.37 -10.23 -57.36 -10.21 -57.34155 -10.1831 C -57.33 -10.16 -57.31 -10.14 -57.2913 -10.11311 C -57.27 -10.09 -57.26 -10.07 -57.23883 -10.04335 C -57.22 -10.02 -57.2 -10 -57.18415 -9.97387 C -57.17 -9.95 -57.15 -9.93 -57.12727 -9.90467 C -57.05 -9.81 -56.97 -9.72 -56.87786 -9.63142 C -56.52 -9.27 -56.07 -8.93 -55.54763 -8.62685 L -13.12122 15.86805 C -13.06 15.91 -12.99 15.94 -12.91961 15.98062 C -12.85 16.02 -12.78 16.05 -12.71104 16.08952 C -12.64 16.13 -12.57 16.16 -12.49576 16.19458 C -12.42 16.23 -12.35 16.26 -12.27403 16.29566 C -12.2 16.33 -12.12 16.36 -12.04612 16.39259 C -11.97 16.42 -11.89 16.46 -11.81233 16.48524 C -11.73 16.52 -11.65 16.54 -11.57292 16.57347 C -11.49 16.6 -11.41 16.63 -11.3282 16.65716 C -11.23 16.69 -11.13 16.72 -11.03339 16.74979 C -10.93 16.78 -10.83 16.81 -10.7321 16.83578 C -10.63 16.86 -10.53 16.89 -10.42484 16.91496 C -10.32 16.94 -10.22 16.96 -10.11211 16.98719 C -10.05 17 -9.99 17.01 -9.92583 17.02637 C -9.86 17.04 -9.8 17.05 -9.73794 17.06308 C -9.68 17.07 -9.61 17.09 -9.54855 17.09729 C -9.49 17.11 -9.42 17.12 -9.35777 17.12897 C -9.29 17.14 -9.23 17.15 -9.1657 17.15811 C -9.1 17.17 -9.04 17.18 -8.97246 17.1847 C -8.91 17.19 -8.84 17.2 -8.77816 17.20871 C -8.71 17.22 -8.65 17.22 -8.58289 17.23014 C -8.52 17.24 -8.45 17.24 -8.38678 17.24896 C -8.32 17.25 -8.26 17.26 -8.18994 17.26516 C -8.12 17.27 -8.06 17.27 -7.99246 17.27875 C -7.93 17.28 -7.86 17.29 -7.79447 17.2897 C -7.73 17.29 -7.66 17.3 -7.59608 17.29801 C -7.53 17.3 -7.46 17.3 -7.39739 17.30368 C -7.33 17.31 -7.26 17.31 -7.19852 17.3067 C -7.13 17.31 -7.07 17.31 -6.99958 17.30707 C -5.54 17.3 -4.08 17.07 -2.82598 16.66111 C -2.16 16.44 -1.55 16.17 -1.02091 15.86805 L 55.54763 -16.79181 C 55.58 -16.81 55.61 -16.83 55.64615 -16.84966 C 55.68 -16.87 55.71 -16.89 55.74283 -16.90837 C 55.77 -16.93 55.81 -16.95 55.83764 -16.96791 C 55.87 -16.99 55.9 -17.01 55.93055 -17.02827 C 55.96 -17.05 55.99 -17.07 56.02153 -17.08941 C 56.05 -17.11 56.08 -17.13 56.11054 -17.15131 C 56.14 -17.17 56.17 -17.19 56.19756 -17.21394 C 56.23 -17.23 56.25 -17.26 56.28257 -17.27728 C 56.31 -17.3 56.34 -17.32 56.36553 -17.34129 C 56.39 -17.36 56.42 -17.38 56.44643 -17.40595 C 56.47 -17.43 56.5 -17.45 56.52524 -17.47124 C 56.55 -17.49 56.58 -17.52 56.60194 -17.53711 C 56.63 -17.56 56.65 -17.58 56.67651 -17.60354 C 56.7 -17.63 56.73 -17.65 56.74893 -17.67051 C 56.77 -17.69 56.8 -17.72 56.81918 -17.73798 C 56.84 -17.76 56.86 -17.78 56.88725 -17.80592 C 56.91 -17.83 56.93 -17.85 56.95313 -17.87431 C 56.97 -17.9 57 -17.92 57.0168 -17.94311 C 57.04 -17.97 57.06 -17.99 57.07825 -18.01229 C 57.1 -18.04 57.12 -18.06 57.13747 -18.08182 C 57.16 -18.11 57.18 -18.13 57.19445 -18.15168 C 57.21 -18.18 57.23 -18.2 57.24919 -18.22184 C 57.27 -18.25 57.28 -18.27 57.30167 -18.29226 C 57.32 -18.32 57.34 -18.34 57.3519 -18.36291 C 57.37 -18.39 57.38 -18.41 57.39988 -18.43378 C 57.42 -18.46 57.43 -18.48 57.4456 -18.50482 C 57.46 -18.53 57.47 -18.55 57.48907 -18.57603 C 57.5 -18.6 57.52 -18.62 57.53028 -18.64735 C 57.58 -18.74 57.63 -18.84 57.6727 -18.93344 C 57.82 -19.28 57.9 -19.63 57.89747 -19.97695 A 8.4 4.84974 180 0 0 55.43717 -23.40624 M -53.03301 22.45366 L -55.53301 21.01028 C -55.59 20.98 -55.65 20.94 -55.70183 20.9105 C -55.76 20.88 -55.81 20.84 -55.86829 20.80747 C -55.92 20.77 -55.98 20.74 -56.03231 20.70116 C -56.09 20.67 -56.14 20.63 -56.19381 20.59156 C -56.25 20.55 -56.3 20.52 -56.35272 20.47867 C -56.41 20.44 -56.46 20.4 -56.50895 20.36246 C -56.56 20.32 -56.61 20.28 -56.66242 20.24295 C -56.71 20.2 -56.76 20.16 -56.81303 20.12012 C -56.86 20.08 -56.91 20.04 -56.96069 19.99399 C -57.01 19.95 -57.06 19.91 -57.10531 19.86457 C -57.15 19.82 -57.2 19.78 -57.24678 19.73185 C -57.29 19.69 -57.34 19.64 -57.38501 19.59586 C -57.43 19.55 -57.48 19.5 -57.51988 19.45662 C -57.56 19.41 -57.61 19.36 -57.6513 19.31415 C -57.69 19.27 -57.74 19.22 -57.77914 19.16848 C -57.82 19.12 -57.86 19.07 -57.90329 19.01963 C -57.94 18.97 -57.98 18.93 -58.01527 18.87852 C -58.05 18.83 -58.09 18.78 -58.12387 18.73476 C -58.16 18.69 -58.19 18.64 -58.22901 18.58839 C -58.26 18.54 -58.3 18.49 -58.33059 18.43948 C -58.36 18.39 -58.4 18.34 -58.42851 18.28807 C -58.46 18.24 -58.49 18.19 -58.52268 18.13423 C -58.55 18.08 -58.58 18.03 -58.61302 17.97803 C -58.64 17.93 -58.67 17.87 -58.69942 17.81955 C -58.73 17.76 -58.76 17.7 -58.79324 17.63573 C -58.82 17.57 -58.85 17.51 -58.88169 17.44914 C -58.91 17.39 -58.94 17.32 -58.96464 17.25993 C -58.99 17.2 -59.02 17.13 -59.04197 17.06825 C -59.14 16.81 -59.23 16.55 -59.29285 16.2801 C -59.43 15.74 -59.5 15.19 -59.49747 14.63891 A 10 5.7735 180 0 0 -56.56854 18.72139 L -56.56854 -7.7295 A 0.53333 0.30792 120 0 1 -56.19142 -8.3827 L -55.8143 -8.60043 A 0.53333 0.30792 120 0 1 -55.54763 -8.62685 M -10.6066 46.94855 L -13.1066 45.50518 M -10.6066 46.94855 A 5 2.88675 180 0 0 -3.53553 46.94855 L -1.03553 45.50518 A 5 2.88675 60 0 0 0 43.21629 L 0 16.7654 L 56.56854 -15.89447 A 10 5.7735 180 0 0 59.49747 -19.97695 M 53.03301 14.28869 L 55.53301 12.84531 M 32.04072 -3.22009 L 10.6066 -15.59508 A 5 2.88675 180 0 0 3.53553 -15.59508 L -32.04072 4.94487 M -56.56854 -7.7295 L -14.14214 16.7654 A 10 5.7735 180 0 0 0 16.7654 A 0.53333 0.30792 60 0 0 -0.37712 16.1122 L 56.19142 -16.54766 A 9.46667 5.46558 180 0 0 56.19142 -24.27717 L 13.76501 -48.77206 A 9.46667 5.46558 180 0 0 0.37712 -48.77206 L -56.19142 -16.1122 A 9.46667 5.46558 180 0 0 -56.19142 -8.3827 L -13.76501 16.1122 A 9.46667 5.46558 180 0 0 -0.37712 16.1122 L -0.75425 15.89447 L 55.8143 -16.7654 A 8.93333 5.15766 180 0 0 55.8143 -24.05943 L 13.38789 -48.55433 A 8.93333 5.15766 180 0 0 0.75425 -48.55433 L -55.8143 -15.89447 A 8.93333 5.15766 180 0 0 -55.8143 -8.60043 L -13.38789 15.89447 A 8.93333 5.15766 180 0 0 -0.75425 15.89447 A 0.53333 0.30792 60 0 0 -1.02091 15.86805 M -56.56854 18.72139 L -14.14214 43.21629 A 10 5.7735 180 0 0 0 43.21629 L 56.56854 10.55643 A 10 5.7735 180 0 0 59.49747 6.47395 M -14.14214 43.21629 L -14.14214 16.7654 A 0.53333 0.30792 120 0 1 -13.76501 16.1122 L -13.38789 15.89447 A 0.53333 0.30792 120 0 1 -13.12122 15.86805 M -59.49747 -11.81198 A 10 5.7735 180 0 0 -56.56854 -7.7295 M -56.56854 18.72139 A 5 2.88675 300 0 0 -55.53301 21.01028 M -14.14214 43.21629 A 5 2.88675 300 0 0 -13.1066 45.50518 M -56.45809 -16.13861 A 0.53333 0.30792 240 0 1 -56.19142 -16.1122 L -55.8143 -15.89447 A 0.53333 0.30792 240 0 1 -55.43717 -15.24127 L -55.43717 -8.56307 M 56.56854 10.55643 L 56.56854 -15.89447 A 0.53333 0.30792 60 0 0 56.19142 -16.54766 L 55.8143 -16.7654 A 0.53333 0.30792 60 0 0 55.54763 -16.79181 M 0.11046 -48.79848 A 0.53333 0.30792 240 0 1 0.37712 -48.77206 L 0.75425 -48.55433 A 0.53333 0.30792 240 0 1 1.13137 -47.90113 M 56.56854 10.55643 A 5 2.88675 240 0 1 55.53301 12.84531 M 14.03168 -48.79848 A 0.53333 0.30792 300 0 0 13.76501 -48.77206 L 13.38789 -48.55433 A 0.53333 0.30792 300 0 0 13.01076 -47.90113 L 13.01076 -21.39523 A 3.4 1.96299 120 0 1 12.47523 -19.33933 L 10.6066 -15.59508 M 1.13137 -21.39523 L 1.13137 -47.90113 M 1.13137 -21.39523 L -38.26588 1.35078 M 13.01076 -21.39523 A 8.4 4.84974 180 0 0 1.13137 -21.39523 M 1.66691 -19.33933 A 3.4 1.96299 240 0 1 1.13137 -21.39523 M 1.66691 -19.33933 L -36.21764 2.53333 M 55.43717 -16.72804 L 55.43717 -23.40624 M 38.26588 -6.81419 L 13.01076 -21.39523 M 12.47523 -19.33933 A 7.64263 4.41248 180 0 0 1.66691 -19.33933 M 3.53553 -15.59508 L 1.66691 -19.33933 M 36.21764 -5.63164 L 12.47523 -19.33933 M -59.49747 14.63891 L -59.49747 -11.81198 M -56.45809 -16.13861 C -56.53 -16.1 -56.6 -16.06 -56.66635 -16.01473 C -56.73 -15.97 -56.8 -15.93 -56.86851 -15.8871 C -56.93 -15.84 -57 -15.8 -57.06441 -15.75579 C -57.13 -15.71 -57.19 -15.67 -57.25388 -15.62088 C -57.32 -15.58 -57.38 -15.53 -57.43677 -15.48246 C -57.5 -15.44 -57.56 -15.39 -57.61292 -15.3406 C -57.67 -15.29 -57.73 -15.24 -57.78216 -15.19541 C -57.84 -15.15 -57.89 -15.1 -57.94436 -15.04696 C -58 -15 -58.05 -14.95 -58.09935 -14.89536 C -58.15 -14.84 -58.2 -14.79 -58.24699 -14.74069 C -58.29 -14.69 -58.34 -14.64 -58.38713 -14.58307 C -58.43 -14.53 -58.48 -14.48 -58.51962 -14.42258 C -58.56 -14.37 -58.6 -14.31 -58.64432 -14.25934 C -58.68 -14.2 -58.72 -14.15 -58.76108 -14.09346 C -58.8 -14.04 -58.83 -13.98 -58.86978 -13.92505 C -58.9 -13.87 -58.94 -13.81 -58.97025 -13.75421 C -58.99 -13.72 -59.01 -13.68 -59.03306 -13.63817 C -59.05 -13.6 -59.07 -13.56 -59.09207 -13.52115 C -59.11 -13.48 -59.13 -13.44 -59.14722 -13.4032 C -59.16 -13.36 -59.18 -13.32 -59.19847 -13.28438 C -59.21 -13.24 -59.23 -13.2 -59.24579 -13.16473 C -59.26 -13.12 -59.28 -13.08 -59.28913 -13.04431 C -59.3 -13 -59.32 -12.96 -59.32846 -12.92318 C -59.34 -12.88 -59.35 -12.84 -59.36375 -12.80141 C -59.37 -12.76 -59.39 -12.72 -59.39496 -12.67905 C -59.4 -12.64 -59.41 -12.6 -59.42208 -12.55617 C -59.43 -12.52 -59.44 -12.47 -59.44507 -12.43283 C -59.45 -12.39 -59.46 -12.35 -59.46391 -12.30912 C -59.48 -12.23 -59.48 -12.14 -59.48908 -12.06086 C -59.49 -11.98 -59.5 -11.89 -59.49747 -11.81198 M 0.11046 -48.79848 L -56.45809 -16.13861 M 14.03168 -48.79848 C 13.94 -48.85 13.84 -48.9 13.74867 -48.9556 C 13.65 -49.01 13.56 -49.06 13.45581 -49.10587 C 13.36 -49.15 13.26 -49.2 13.15354 -49.24913 C 13.05 -49.3 12.95 -49.34 12.84228 -49.38518 C 12.74 -49.43 12.63 -49.47 12.52249 -49.51388 C 12.41 -49.56 12.31 -49.6 12.19462 -49.63505 C 12.08 -49.67 11.97 -49.71 11.85914 -49.74854 C 11.75 -49.79 11.63 -49.82 11.51656 -49.8542 C 11.41 -49.88 11.31 -49.91 11.2038 -49.94215 C 11.1 -49.97 10.99 -50 10.88609 -50.0236 C 10.78 -50.05 10.67 -50.07 10.56382 -50.09847 C 10.46 -50.12 10.35 -50.15 10.23735 -50.16667 C 10.11 -50.19 9.98 -50.22 9.85242 -50.23758 C 9.72 -50.26 9.59 -50.28 9.46295 -50.29925 C 9.33 -50.32 9.2 -50.34 9.06959 -50.35157 C 8.94 -50.37 8.81 -50.38 8.67296 -50.39447 C 8.54 -50.41 8.41 -50.42 8.27372 -50.42789 C 8.14 -50.44 8.01 -50.45 7.87251 -50.45176 C 7.74 -50.46 7.6 -50.46 7.46999 -50.46606 C 7.34 -50.47 7.2 -50.47 7.06682 -50.47076 C 6.93 -50.47 6.8 -50.47 6.66647 -50.46593 C 6.53 -50.46 6.4 -50.46 6.26677 -50.45163 C 6.13 -50.45 6 -50.44 5.86837 -50.42788 C 5.74 -50.42 5.6 -50.41 5.47191 -50.39474 C 5.34 -50.38 5.21 -50.37 5.07802 -50.35223 C 4.95 -50.34 4.82 -50.32 4.68734 -50.30044 C 4.56 -50.28 4.43 -50.26 4.3005 -50.23942 C 4.17 -50.22 4.04 -50.19 3.9181 -50.16929 C 3.48 -50.08 3.05 -49.98 2.63931 -49.85823 C 1.71 -49.59 0.86 -49.23 0.11046 -48.79848 M 56.45809 -24.30358 L 14.03168 -48.79848" />
  </svg>