<svg 
     version="1.1" 
     xmlns="http://www.w3.org/2000/svg" 
     viewBox="-9.000001 -9.771330391167972 18.000002 20.697361320715196" 
     fill="none" 
     stroke="black" 
     stroke-width="0.2%" 
     vector-effect="non-scaling-stroke">
  <path d="M 6 1.43568 A 8 4.6188 360 0 1 8 4.49073 A 8 4.6188 360 0 1 -8 4.49073 A 8 4.6188 360 0 1 -6 1.43568 M -8 5.30723 A 8 4.6188 180 0 0 8 5.30723 M 6 4.49073 A 6 3.4641 360 0 1 -6 4.49073 M -4.24264 -7.75672 A 6 3.4641 360 0 1 6 -5.30723 A 6 3.4641 360 0 1 -6 -5.30723 L -6 4.49073 M -6 -5.30723 A 6 3.4641 360 0 1 -4.24264 -7.75672 M -3.18198 -7.14435 A 4.5 2.59808 180 0 0 -4.5 -5.30723 A 4.5 2.59808 180 0 0 4.5 -5.30723 A 4.5 2.59808 180 0 0 -3.18198 -7.14435 Z M -8 4.49073 L -8 5.30723 M 8 4.49073 L 8 5.30723 M 6 -5.30723 L 6 4.49073" />
  </svg>