<svg 
     version="1.1" 
     xmlns="http://www.w3.org/2000/svg" 
     viewBox="-62.41767928882863 -38.794281468707 109.30621588111546 75.18619620169073" 
     fill="none" 
     stroke="black" 
     stroke-width="0.2%" 
     vector-effect="non-scaling-stroke">
  <path d="M 21.46435 -25.06904 A 0.1 0.05774 180 0 0 21.56094 -25.05409 L 30.4301 -26.42616 L 32.79165 -21.33774 L 26.26908 -17.57194 A 0.1 0.05774 180 0 0 26.23979 -17.53111 A 0.1 0.05774 180 0 0 26.26908 -17.49029 L 32.79165 -13.72449 L 32.79165 -21.33774 M 8.3784 -32.62422 L 21.46435 -25.06904 M 32.79165 -5.55952 L 30.9755 -1.64626 M 34.52041 8.56536 L 33.95558 8.89147 M 45.88854 19.93348 L 39.43668 23.65846 L 30.5267 22.28008 A 0.1 0.05774 180 0 0 30.40422 22.32091 L 28.0168 27.46509 L 10.14106 30.23048 A 0.1 0.05774 180 0 0 10.07035 30.2713 L 7.69386 35.39191 L -1.11953 34.02848 L -3.50696 28.88429 A 0.1 0.05774 180 0 0 -3.62943 28.84347 L -12.53942 30.22185 L -25.62537 22.66667 A 0.1 0.05774 180 0 0 -25.72196 22.65173 L -34.59112 24.02379 L -36.96761 18.90318 A 0.1 0.05774 180 0 0 -37.03832 18.86235 L -45.90748 17.49029 L -45.90748 9.32532 L -43.531 4.20471 A 0.1 0.05774 180 0 0 -43.52759 4.18977 A 0.1 0.05774 180 0 0 -43.55688 4.14894 L -50.04956 0.40039 L -43.55688 -3.34815 A 0.1 0.05774 180 0 0 -43.52759 -3.38898 A 0.1 0.05774 180 0 0 -43.531 -3.40392 L -45.93336 -8.5803 A 0.1 0.05774 180 0 0 -46.05584 -8.62113 L -54.96583 -7.24275 L -61.41768 -10.96773 L -54.96583 -14.69271 L -46.05584 -13.31433 A 0.1 0.05774 180 0 0 -45.93336 -13.35515 L -43.54594 -18.49933 M -54.96583 0.92222 L -61.41768 -2.80276 L -61.41768 -10.96773 M -49.48472 0.07429 L -54.96583 0.92222 L -54.96583 -7.24275 M -45.90748 10.95679 L -50.04956 8.56536 L -50.04956 0.40039 M 28.00185 -3.40392 L 32.79165 -13.72449 M 28.00185 -3.40392 A 0.1 0.05774 180 0 0 27.99845 -3.38898 A 0.1 0.05774 180 0 0 28.02774 -3.34815 L 34.52041 0.40039 L 28.02774 4.14894 A 0.1 0.05774 180 0 0 27.99845 4.18977 A 0.1 0.05774 180 0 0 28.00185 4.20471 L 30.40422 9.38109 A 0.1 0.05774 180 0 0 30.5267 9.42192 L 39.43668 8.04354 L 45.88854 11.76852 L 39.43668 15.49349 L 30.5267 14.11511 A 0.1 0.05774 180 0 0 30.40422 14.15594 L 28.0168 19.30012 M 10.14106 22.06551 L 28.0168 19.30012 M 10.14106 22.06551 A 0.1 0.05774 180 0 0 10.07035 22.10633 L 7.69386 27.22695 L -1.11953 25.86351 L -3.50696 20.71933 A 0.1 0.05774 180 0 0 -3.62943 20.6785 L -12.53942 22.05688 M -25.62537 14.50171 L -12.53942 22.05688 M -25.62537 14.50171 A 0.1 0.05774 180 0 0 -25.72196 14.48676 L -34.59112 15.85883 L -36.96761 10.73821 A 0.1 0.05774 180 0 0 -37.03832 10.69739 L -45.90748 9.32532 M -25.6702 -21.26472 L -43.54594 -18.49933 M -25.6702 -21.26472 A 0.1 0.05774 180 0 0 -25.59949 -21.30555 L -23.223 -26.42616 L -14.35384 -25.05409 A 0.1 0.05774 180 0 0 -14.25725 -25.06904 L -7.69386 -28.85841 A 0.1 0.05774 180 0 0 -7.66457 -28.89924 A 0.1 0.05774 180 0 0 -7.69386 -28.94006 L -14.21642 -32.70586 L -11.85488 -37.79428 L -3.04149 -36.43084 L -0.65406 -31.28666 A 0.1 0.05774 180 0 0 -0.53159 -31.24584 L 8.3784 -32.62422 M -7.76457 7.08626 L -1.30725 10.81439 A 0.15 0.0866 180 0 0 -1.16236 10.83681 L 7.65851 9.47222 L 9.99963 14.51665 L 3.49748 18.27067 A 0.15 0.0866 180 0 0 3.46048 18.30588 A 0.15 0.0866 180 0 0 3.49748 18.39314 L 9.99963 22.14716 L 7.65851 27.19159 L -1.07871 25.83994 L -3.45866 20.71186 A 0.15 0.0866 180 0 0 -3.46048 20.70824 A 0.15 0.0866 180 0 0 -3.64237 20.65062 L -12.52448 22.02469 L -25.52878 14.51665 L -23.18765 9.47222 L -14.36678 10.83681 A 0.15 0.0866 180 0 0 -14.22189 10.81439 L -7.76457 7.08626 Z M 7.94828 9.42739 L 16.76915 8.06279 A 0.15 0.0866 180 0 0 16.87521 8.00156 L 19.23876 2.90883 L 27.97597 4.26048 L 30.35593 9.38856 A 0.15 0.0866 180 0 0 30.53964 9.4498 L 39.42174 8.07573 L 45.81782 11.76852 L 39.42174 15.4613 L 30.53964 14.08723 A 0.15 0.0866 180 0 0 30.35775 14.14486 A 0.15 0.0866 180 0 0 30.35593 14.14847 L 27.97597 19.27655 L 10.21177 22.02469 L 3.81568 18.3319 L 10.273 14.60377 A 0.15 0.0866 180 0 0 10.31183 14.52012 L 7.94828 9.42739 Z M -45.84625 9.30491 L -43.4827 4.21218 A 0.15 0.0866 180 0 0 -43.48452 4.16374 A 0.15 0.0866 180 0 0 -43.52152 4.12853 L -49.97885 0.40039 L -43.58276 -3.29239 L -34.70066 -1.91832 A 0.15 0.0866 180 0 0 -34.51695 -1.97956 L -32.13699 -7.10764 L -23.39978 -8.45929 L -21.05865 -3.41486 L -27.5608 0.33916 A 0.15 0.0866 180 0 0 -27.5978 0.37437 A 0.15 0.0866 180 0 0 -27.5608 0.46163 L -21.05865 4.21565 L -25.81856 14.47182 L -34.55577 15.82347 L -36.91931 10.73074 A 0.15 0.0866 180 0 0 -36.92114 10.72713 A 0.15 0.0866 180 0 0 -37.02538 10.6695 L -45.84625 9.30491 Z M -27.2426 0.40039 L -20.78528 -3.32774 A 0.15 0.0866 180 0 0 -20.74646 -3.41139 L -23.11 -8.50412 L -14.37279 -9.85577 L -7.87064 -6.10176 A 0.15 0.0866 180 0 0 -7.65851 -6.10176 L -1.15635 -9.85577 L 7.58086 -8.50412 L 5.23973 -3.45969 L -3.64237 -2.08562 A 0.15 0.0866 180 0 0 -3.74662 -2.028 A 0.15 0.0866 180 0 0 -3.74844 -1.97956 L -1.36849 3.14853 L -14.37279 10.65656 L -23.11 9.30491 L -20.74646 4.21218 A 0.15 0.0866 180 0 0 -20.74828 4.16374 A 0.15 0.0866 180 0 0 -20.78528 4.12853 L -27.2426 0.40039 Z M -23.47743 -8.6266 L -32.29829 -7.262 A 0.15 0.0866 180 0 0 -32.40254 -7.20438 L -33.21324 -5.71887 A 1 0.57735 180 0 0 -33.22539 -5.69479 L -32.40436 -7.20077 L -34.7679 -2.10804 L -43.50512 -3.45969 L -45.88507 -8.58777 A 0.15 0.0866 180 0 0 -45.88689 -8.59139 L -45.07618 -7.10587 A 1 0.57735 180 0 0 -45.08993 -7.1293 M -25.84097 -13.71933 L -23.47743 -8.6266 M -25.80215 -13.80298 A 0.15 0.0866 180 0 0 -25.83915 -13.76777 A 0.15 0.0866 180 0 0 -25.84097 -13.71933 M -19.34482 -17.53111 L -25.80215 -13.80298 M -25.74091 -21.2239 L -19.34482 -17.53111 M -43.50512 -18.47576 L -25.74091 -21.2239 M -45.88507 -13.34768 L -43.50512 -18.47576 M -46.06878 -13.28644 A 0.15 0.0866 180 0 0 -45.88507 -13.34768 M -54.95088 -14.66051 L -46.06878 -13.28644 M -61.34697 -10.96773 L -54.95088 -14.66051 M -54.95088 -7.27495 L -61.34697 -10.96773 M -46.06878 -8.64901 L -54.95088 -7.27495 M -45.88689 -8.59139 A 0.15 0.0866 180 0 0 -46.06878 -8.64901 M -32.40254 -7.20438 A 0.15 0.0866 180 0 0 -32.40436 -7.20077 M -3.41984 -1.94074 L 5.40103 -3.30533 A 0.15 0.0866 180 0 0 5.50709 -3.36656 L 7.87064 -8.45929 L 16.60785 -7.10764 L 18.9878 -1.97956 A 0.15 0.0866 180 0 0 19.17152 -1.91832 L 28.05362 -3.29239 L 34.4497 0.40039 L 28.05362 4.09318 L 19.17152 2.71911 A 0.15 0.0866 180 0 0 18.98963 2.77674 L 18.17892 4.26225 A 1 0.57735 180 0 0 18.16677 4.28633 L 18.9878 2.78035 L 16.60785 7.90843 L -1.15635 10.65656 L -7.55244 6.96378 L -1.09512 3.23565 A 0.15 0.0866 180 0 0 -1.05629 3.15199 L -3.41984 -1.94074 Z M 18.98963 2.77674 A 0.15 0.0866 180 0 0 18.9878 2.78035 M 7.94828 -8.6266 L 10.31183 -13.71933 A 0.15 0.0866 180 0 0 10.31 -13.76777 L 11.12071 -12.28225 M 16.76915 -7.262 L 7.94828 -8.6266 M 16.87521 -7.20077 A 0.15 0.0866 180 0 0 16.87339 -7.20438 L 17.6841 -5.71887 A 1 0.57735 180 0 0 17.67035 -5.7423 M 16.87339 -7.20438 A 0.15 0.0866 180 0 0 16.76915 -7.262 M 19.23876 -2.10804 L 16.87521 -7.20077 M 27.97597 -3.45969 L 19.23876 -2.10804 M 32.73588 -13.71586 L 27.97597 -3.45969 M 26.23373 -17.46988 L 32.73588 -13.71586 M 26.23373 -17.59235 A 0.15 0.0866 180 0 0 26.19673 -17.55714 L 25.38602 -16.07163 A 1 0.57735 180 0 0 25.63269 -15.48987 L 26.23373 -17.46988 M 26.19673 -17.55714 A 0.15 0.0866 180 0 0 26.23373 -17.46988 M 32.73588 -21.34637 L 26.23373 -17.59235 M 30.39475 -26.3908 L 32.73588 -21.34637 M 21.65753 -25.03915 L 30.39475 -26.3908 M 19.27758 -19.91107 L 21.65753 -25.03915 M 19.09387 -19.84983 A 0.15 0.0866 180 0 0 19.27758 -19.91107 M 10.21177 -21.2239 L 19.09387 -19.84983 M 3.81568 -17.53111 L 10.21177 -21.2239 M 10.273 -13.80298 L 3.81568 -17.53111 M 10.31 -13.76777 A 0.15 0.0866 180 0 0 10.273 -13.80298 M -7.76457 -6.28547 L -14.22189 -10.0136 A 0.15 0.0866 180 0 0 -14.36678 -10.03602 L -23.18765 -8.67143 L -25.52878 -13.71586 L -19.02663 -17.46988 A 0.15 0.0866 180 0 0 -18.98963 -17.55714 L -18.17892 -16.07163 M -1.30725 -10.0136 L -7.76457 -6.28547 M -1.16236 -10.03602 A 0.15 0.0866 180 0 0 -1.30725 -10.0136 M 7.65851 -8.67143 L -1.16236 -10.03602 M 9.99963 -13.71586 L 7.65851 -8.67143 M -3.00467 -21.2239 L 9.99963 -13.71586 M -11.88677 -19.84983 L -3.00467 -21.2239 M -12.07048 -19.91107 A 0.15 0.0866 180 0 0 -11.88677 -19.84983 M -14.45043 -25.03915 L -12.07048 -19.91107 M -23.18765 -26.3908 L -14.45043 -25.03915 M -25.52878 -21.34637 L -23.18765 -26.3908 M -19.02663 -17.59235 L -25.52878 -21.34637 M -18.98963 -17.55714 A 0.15 0.0866 180 0 0 -19.02663 -17.59235 M 3.60355 -17.65359 L -2.85377 -21.38173 A 0.15 0.0866 180 0 0 -2.99866 -21.40414 L -11.81953 -20.03955 L -14.16066 -25.08398 L -7.65851 -28.838 A 0.15 0.0866 180 0 0 -7.62151 -28.92526 L -6.8108 -27.43975 M 10.06087 -21.38173 L 3.60355 -17.65359 M 10.20576 -21.40414 A 0.15 0.0866 180 0 0 10.06087 -21.38173 M 19.02663 -20.03955 L 10.20576 -21.40414 M 21.36776 -25.08398 L 19.02663 -20.03955 M 8.36345 -32.59202 L 21.36776 -25.08398 M -0.51865 -31.21795 L 8.36345 -32.59202 M -0.70236 -31.27919 A 0.15 0.0866 180 0 0 -0.51865 -31.21795 M -3.08231 -36.40727 L -0.70236 -31.27919 M -11.81953 -37.75893 L -3.08231 -36.40727 M -14.16066 -32.71449 L -11.81953 -37.75893 M -7.65851 -28.96047 L -14.16066 -32.71449 M -7.62151 -28.92526 A 0.15 0.0866 180 0 0 -7.65851 -28.96047 M 32.79165 -5.55952 L 32.79165 -13.72449 M -14.21642 -25.09261 L -14.21642 -32.70586 M 28.00185 -3.37404 L 28.00185 -3.40392 M 34.52041 8.56536 L 34.52041 0.40039 M 45.88854 19.93348 L 45.88854 11.76852 M 39.43668 23.65846 L 39.43668 15.49349 M 28.0168 27.46509 L 28.0168 19.30012 M 10.14106 30.23048 L 10.14106 22.06551 M 7.69386 35.39191 L 7.69386 27.22695 M -1.11953 34.02848 L -1.11953 25.86351 M -12.53942 30.22185 L -12.53942 22.05688 M -25.62537 22.66667 L -25.62537 14.50171 M -34.59112 24.02379 L -34.59112 15.85883 M -7.76457 9.41327 L -1.90829 12.7944 L -1.30725 10.81439 M -7.76457 9.41327 L -7.76457 7.08626 M -13.62085 12.7944 L -7.76457 9.41327 M -14.58678 12.94383 A 1 0.57735 180 0 0 -13.62085 12.7944 L -14.22189 10.81439 M -22.58661 11.70625 L -14.58678 12.94383 L -14.36678 10.83681 M -22.58661 11.70625 L -23.18765 9.47222 M -24.23704 15.26243 L -22.58661 11.70625 M -2.63762 22.21783 A 1 0.57735 180 0 0 -2.64977 22.19376 A 1 0.57735 180 0 0 -2.66352 22.17033 M -0.94715 25.86029 L -2.63762 22.21783 L -3.45866 20.71186 M 9.05158 23.92682 L 7.54458 27.17397 M 9.05158 23.92682 L 9.99963 22.14716 M 2.89644 20.37315 L 9.05158 23.92682 M 2.64977 19.79139 A 1 0.57735 180 0 0 2.89644 20.37315 L 3.49748 18.39314 M 7.05746 11.70625 L 8.7079 15.26243 M 7.05746 11.70625 L 7.65851 9.47222 M -0.94236 12.94383 L 7.05746 11.70625 M -1.90829 12.7944 A 1 0.57735 180 0 0 -0.94236 12.94383 L -1.16236 10.83681 M 8.98932 11.40739 L 16.98915 10.16981 L 16.76915 8.06279 M 8.98932 11.40739 L 7.94828 9.42739 M 11.13286 16.02609 L 8.98932 11.40739 M 10.87404 16.58377 A 1 0.57735 180 0 0 11.13286 16.02609 L 10.31183 14.52012 M 5.83094 19.49541 L 10.87404 16.58377 L 10.273 14.60377 M 29.53489 15.65445 L 27.84442 19.2969 M 29.56079 15.60694 A 1 0.57735 180 0 0 29.54704 15.63037 A 1 0.57735 180 0 0 29.53489 15.65445 L 30.35593 14.14847 M 39.16771 10.25609 L 43.80257 12.93202 M 39.16771 10.25609 L 39.42174 8.07573 M 30.75963 11.55682 L 39.16771 10.25609 M 29.53489 11.14857 A 1 0.57735 180 0 0 30.75963 11.55682 L 30.53964 9.4498 M 27.28195 6.29417 L 29.53489 11.14857 L 30.35593 9.38856 M 27.28195 6.29417 L 27.97597 4.26048 M 19.8398 5.14286 L 27.28195 6.29417 M 19.8398 5.14286 L 19.23876 2.90883 M 17.69625 9.76156 L 19.8398 5.14286 M 16.98915 10.16981 A 1 0.57735 180 0 0 17.69625 9.76156 L 16.87521 8.00156 M -44.3181 9.54132 L -42.66166 5.97219 L -43.4827 4.21218 M -36.09828 12.23672 A 1 0.57735 180 0 0 -36.11043 12.21264 A 1 0.57735 180 0 0 -36.12418 12.18921 M -34.44184 15.80585 L -36.09828 12.23672 L -36.91931 10.73074 M -25.95011 14.49217 L -22.0067 5.99531 L -21.05865 4.21565 M -28.16184 2.44164 L -22.0067 5.99531 M -28.40851 1.85988 A 1 0.57735 180 0 0 -28.16184 2.44164 L -27.5608 0.46163 M -24.00082 -6.22526 L -22.35039 -2.66908 M -24.00082 -6.22526 L -23.39978 -8.45929 M -31.44297 -5.07396 L -24.00082 -6.22526 M -31.44297 -5.07396 L -32.13699 -7.10764 M -33.69591 -0.21955 L -31.44297 -5.07396 M -34.92065 0.1887 A 1 0.57735 180 0 0 -33.69591 -0.21955 L -34.51695 -1.97956 M -43.32873 -1.11204 L -34.92065 0.1887 L -34.70066 -1.91832 M -43.32873 -1.11204 L -43.58276 -3.29239 M -47.96359 1.5639 L -43.32873 -1.11204 M -42.66166 5.97219 A 1 0.57735 180 0 0 -42.67381 5.64926 M -25.22735 1.5639 L -20.18424 -1.34774 L -20.78528 -3.32774 M -19.92542 5.97219 A 1 0.57735 180 0 0 -19.93757 5.64926 M -21.58186 9.54132 L -19.92542 5.97219 L -20.74646 4.21218 M -4.56948 -0.21955 L -2.66023 3.89431 M -4.55733 -0.54248 A 1 0.57735 180 0 0 -4.56948 -0.21955 L -3.74844 -1.97956 M 6.53983 -6.52412 L 5.10817 -3.43934 M 6.53983 -6.52412 L 7.58086 -8.50412 M -0.90232 -7.67542 L 6.53983 -6.52412 M -0.90232 -7.67542 L -1.15635 -9.85577 M -7.05746 -4.12175 L -0.90232 -7.67542 M -8.47168 -4.12175 A 1 0.57735 180 0 0 -7.05746 -4.12175 L -7.65851 -6.10176 M -14.62682 -7.67542 L -8.47168 -4.12175 L -7.87064 -6.10176 M -14.62682 -7.67542 L -14.37279 -9.85577 M -22.06897 -6.52412 L -14.62682 -7.67542 M -22.06897 -6.52412 L -23.11 -8.50412 M -19.92542 -1.90542 L -22.06897 -6.52412 M -20.18424 -1.34774 A 1 0.57735 180 0 0 -19.92542 -1.90542 L -20.74646 -3.41139 M -26.66201 -11.95932 L -25.00557 -8.39019 M -26.64986 -12.28225 A 1 0.57735 180 0 0 -26.66201 -11.95932 L -25.84097 -13.71933 M -25.99494 -19.04355 L -21.36008 -16.36761 M -25.99494 -19.04355 L -25.74091 -21.2239 M -25.99494 -19.04355 L -42.81109 -16.44208 L -43.50512 -18.47576 M -45.06403 -11.58767 L -42.81109 -16.44208 M -46.28878 -11.17942 A 1 0.57735 180 0 0 -45.06403 -11.58767 L -45.88507 -13.34768 M -54.69685 -12.48016 L -46.28878 -11.17942 L -46.06878 -13.28644 M -54.69685 -12.48016 L -54.95088 -14.66051 M -59.33171 -9.80422 L -54.69685 -12.48016 M -45.06403 -7.0818 A 1 0.57735 180 0 0 -45.07618 -7.10587 M -43.37356 -3.43934 L -45.06403 -7.0818 L -45.88507 -8.58777 M -33.22539 -5.69479 L -34.88183 -2.12566 M -33.19949 -5.7423 A 1 0.57735 180 0 0 -33.21324 -5.71887 M -2.37881 0.03927 L 5.62102 -1.19831 L 5.40103 -3.30533 M -2.37881 0.03927 L -3.41984 -1.94074 M -0.23526 4.65797 L -2.37881 0.03927 M -0.49408 5.21565 A 1 0.57735 180 0 0 -0.23526 4.65797 L -1.05629 3.15199 M -5.53718 8.12729 L -0.49408 5.21565 L -1.09512 3.23565 M 18.16677 4.28633 L 16.4763 7.92878 M 18.19267 4.23882 A 1 0.57735 180 0 0 18.17892 4.26225 M 27.79959 -1.11204 L 32.43445 1.5639 M 27.79959 -1.11204 L 28.05362 -3.29239 M 19.39151 0.1887 L 27.79959 -1.11204 M 18.16677 -0.21955 A 1 0.57735 180 0 0 19.39151 0.1887 L 19.17152 -1.91832 M 15.91383 -5.07396 L 18.16677 -0.21955 L 18.9878 -1.97956 M 15.91383 -5.07396 L 16.60785 -7.10764 M 8.47168 -6.22526 L 15.91383 -5.07396 M 8.47168 -6.22526 L 7.87064 -8.45929 M 6.32813 -1.60656 L 8.47168 -6.22526 M 5.62102 -1.19831 A 1 0.57735 180 0 0 6.32813 -1.60656 L 5.50709 -3.36656 M 9.47643 -8.39019 L 11.13286 -11.95932 L 10.31183 -13.71933 M 17.69625 -5.69479 A 1 0.57735 180 0 0 17.6841 -5.71887 M 19.35269 -2.12566 L 17.69625 -5.69479 L 16.87521 -7.20077 M 27.84442 -3.43934 L 31.78783 -11.9362 L 32.73588 -13.71586 M 25.63269 -15.48987 L 31.78783 -11.9362 M 29.79371 -24.15677 L 31.44414 -20.60058 M 29.79371 -24.15677 L 30.39475 -26.3908 M 22.35156 -23.00546 L 29.79371 -24.15677 M 22.35156 -23.00546 L 21.65753 -25.03915 M 20.09862 -18.15106 L 22.35156 -23.00546 M 18.87387 -17.74281 A 1 0.57735 180 0 0 20.09862 -18.15106 L 19.27758 -19.91107 M 10.4658 -19.04355 L 18.87387 -17.74281 L 19.09387 -19.84983 M 10.4658 -19.04355 L 10.21177 -21.2239 M 5.83094 -16.36761 L 10.4658 -19.04355 M 11.13286 -11.95932 A 1 0.57735 180 0 0 11.12071 -12.28225 M 9.05158 -11.9362 L 7.54458 -8.68905 M 9.05158 -11.9362 L 9.99963 -13.71586 M 9.05158 -11.9362 L -3.2587 -19.04355 L -3.00467 -21.2239 M -11.66677 -17.74281 L -3.2587 -19.04355 M -12.89152 -18.15106 A 1 0.57735 180 0 0 -11.66677 -17.74281 L -11.88677 -19.84983 M -15.14446 -23.00546 L -12.89152 -18.15106 L -12.07048 -19.91107 M -15.14446 -23.00546 L -14.45043 -25.03915 M -22.58661 -24.15677 L -15.14446 -23.00546 M -22.58661 -24.15677 L -23.18765 -26.3908 M -24.23704 -20.60058 L -22.58661 -24.15677 M -18.42559 -15.48987 A 1 0.57735 180 0 0 -18.17892 -16.07163 M -24.58073 -11.9362 L -18.42559 -15.48987 L -19.02663 -17.46988 M -24.58073 -11.9362 L -25.52878 -13.71586 M -23.07372 -8.68905 L -24.58073 -11.9362 M 20.4197 -23.30432 L 18.9127 -20.05717 M 20.4197 -23.30432 L 21.36776 -25.08398 M 20.4197 -23.30432 L 8.10943 -30.41167 L 8.36345 -32.59202 M -0.29865 -29.11093 L 8.10943 -30.41167 M -1.5234 -29.51918 A 1 0.57735 180 0 0 -0.29865 -29.11093 L -0.51865 -31.21795 M -3.77633 -34.37359 L -1.5234 -29.51918 L -0.70236 -31.27919 M -3.77633 -34.37359 L -3.08231 -36.40727 M -11.21849 -35.52489 L -3.77633 -34.37359 M -11.21849 -35.52489 L -11.81953 -37.75893 M -12.86892 -31.96871 L -11.21849 -35.52489 M -7.05746 -26.85799 A 1 0.57735 180 0 0 -6.8108 -27.43975 M -13.2126 -23.30432 L -7.05746 -26.85799 L -7.65851 -28.838 M -13.2126 -23.30432 L -14.16066 -25.08398 M -11.7056 -20.05717 L -13.2126 -23.30432 M 26.26908 -17.49029 L 26.26908 -17.57194 M -7.69386 -28.85841 L -7.69386 -28.94006 M 28.02774 4.26048 L 28.02774 4.14894 M 30.5267 22.28008 L 30.5267 14.11511 M 30.40422 22.32091 L 30.40422 14.15594 M -46.05584 -1.90538 L -46.05584 -8.62113 M 10.07035 30.2713 L 10.07035 22.10633 M -45.93336 -1.97609 L -45.93336 -8.5803 M -43.531 -3.37404 L -43.531 -3.40392 M -3.50696 28.88429 L -3.50696 20.71933 M -3.62943 28.84347 L -3.62943 20.6785 M -43.55688 4.26048 L -43.55688 4.14894 M -25.72196 22.65173 L -25.72196 14.48676 M -37.03832 18.86235 L -37.03832 10.69739 M -36.96761 18.90318 L -36.96761 10.73821 M -3.46048 20.70824 L -2.64977 22.19376 M 3.46048 18.30588 L 2.64977 19.79139 M 30.35775 14.14486 L 29.54704 15.63037 M -36.92114 10.72713 L -36.11043 12.21264 M -27.5978 0.37437 L -28.40851 1.85988 M -43.48452 4.16374 L -42.67381 5.64926 M -20.74828 4.16374 L -19.93757 5.64926 M -3.74662 -2.028 L -4.55733 -0.54248 M -25.83915 -13.76777 L -26.64986 -12.28225" />
  </svg>