<svg 
     version="1.1" 
     xmlns="http://www.w3.org/2000/svg" 
     viewBox="-25.0000528213921 -11.94022193788567 50.000105138477416 36.425486390843645" 
     fill="none" 
     stroke="black" 
     stroke-width="0.2%" 
     vector-effect="non-scaling-stroke">
  <path d="M -8.27003 14.95147 L -8.86931 16.23016 L -9.58844 16.78479 L -9.72355 16.76863 L -9.85962 16.75219 L -9.99667 16.73549 L -10.13471 16.71852 L -10.27373 16.70128 L -10.41376 16.68377 L -10.5548 16.66599 L -10.69685 16.64794 L -10.83992 16.62961 L -10.98402 16.61101 L -11.12916 16.59213 L -11.27534 16.57298 L -11.42258 16.55355 L -11.57088 16.53384 M -10.787 16.89268 L -9.58844 16.78479 M -10.787 16.89268 L -12.33057 17.03163 M -10.28072 18.13521 L -6.83177 15.4752 M -4.79422 11.12766 L -6.83177 15.4752 M -4.79422 11.12766 L -4.79422 7.53508 L -8.27003 14.95147 M 3.90284 16.21538 A 13.8 7.96743 180 0 0 5.71857 15.82437 L 7.73548 17.95693 M 3.14597 17.73922 L 3.20238 17.62811 L 3.25843 17.51736 L 3.31412 17.40694 L 3.36945 17.29688 L 3.42442 17.18717 L 3.47902 17.0778 L 3.53326 16.96878 L 3.58715 16.86011 L 3.64066 16.75178 L 3.69382 16.64381 L 3.74662 16.53618 L 3.79905 16.42889 L 3.85113 16.32196 L 3.90284 16.21538 M 7.09289 16.88929 L 6.99261 16.81192 L 6.89266 16.73476 L 6.79303 16.65779 L 6.69373 16.58103 L 6.59475 16.50447 L 6.49609 16.4281 L 6.39777 16.35194 L 6.29976 16.27597 L 6.20209 16.2002 L 6.10473 16.12464 L 6.00771 16.04927 L 5.911 15.97411 L 5.81462 15.89914 L 5.71857 15.82437 M 2.9334 16.35857 L 3.14597 17.73922 M 6.61364 15.56606 L 7.09289 16.88929 L 7.66798 17.49736 L 7.67338 17.52932 L 7.67869 17.56141 L 7.68391 17.59362 L 7.68904 17.62596 L 7.69408 17.65844 L 7.69903 17.69105 L 7.70389 17.72379 L 7.70867 17.75667 L 7.71335 17.78969 L 7.71795 17.82285 L 7.72247 17.85615 L 7.72689 17.8896 L 7.73123 17.92319 L 7.73548 17.95693 M 1.70052 8.35078 L 2.9334 16.35857 M 3.83399 7.89136 L 6.61364 15.56606 M 1.70052 8.35078 A 8 4.6188 360 0 1 -0.57071 8.44457 L -0.98448 16.52035 L -1.05582 17.91272 L -1.12419 17.80677 L -1.19218 17.70113 L -1.25981 17.59582 L -1.32707 17.49081 L -1.39396 17.38613 L -1.46048 17.28176 L -1.52663 17.17772 L -1.59241 17.07399 L -1.65782 16.97057 L -1.72287 16.86748 L -1.78754 16.7647 L -1.85184 16.66224 L -1.91578 16.56009 L -1.97934 16.45827 L -2.27957 18.88184 M 5.65685 7.10352 A 8 4.6188 360 0 1 3.83399 7.89136 M 2.82843 2.20454 A 4 2.3094 180 0 0 4 0.57155 L 4 -6.94022 A 3.9999999999999987 3.9999999999999987 0 0 0 -4 -6.94022 A 4 2.3094 180 0 0 2.82843 -5.30723 A 4 2.3094 180 0 0 4 -6.94022 M -4 0.57155 A 4 2.3094 180 0 0 2.82843 2.20454 M -3.87298 16.22044 A 13.8 7.96743 180 0 0 -1.97934 16.45827 M 9.75807 14.20704 L 5.65685 7.10352 M -5.17207 17.39574 L -5.07702 17.31031 L -4.98232 17.22511 L -4.88797 17.14014 L -4.79396 17.05539 L -4.7003 16.97087 L -4.60699 16.88658 L -4.51403 16.80251 L -4.42141 16.71868 L -4.32913 16.63507 L -4.23721 16.55169 L -4.14563 16.46853 L -4.0544 16.38561 L -3.96352 16.30291 L -3.87298 16.22044 M 9.75807 14.20704 L 10.46518 15.43179 L 10.46505 15.31114 L 10.46466 15.19094 L 10.464 15.0712 L 10.46309 14.95192 L 10.46191 14.83308 L 10.46047 14.7147 L 10.45877 14.59677 L 10.4568 14.4793 L 10.45458 14.36228 L 10.45209 14.24571 L 10.44934 14.1296 L 10.44633 14.01394 L 10.44306 13.89873 L 10.43953 13.78398 A 13.8 7.96743 180 0 0 11.60088 12.88829 L 15.29457 14.05275 M -4.82261 16.0383 L -5.17207 17.39574 M -2.79571 8.16512 L -4.82261 16.0383 M -2.79571 8.16512 A 8 4.6188 360 0 1 -4.79422 7.53508 M 12.11197 12.3916 L 12.81908 13.27233 M 7.02143 6.05109 L 12.11197 12.3916 M -8.86931 16.23016 L -8.88406 16.11012 L -8.89851 15.99051 L -8.91267 15.87132 L -8.92653 15.75257 L -8.94009 15.63425 L -8.95336 15.51636 L -8.96633 15.39889 L -8.97901 15.28186 L -8.99138 15.16526 L -9.00347 15.04909 L -9.01525 14.93335 L -9.02674 14.81804 L -9.03793 14.70316 L -9.04883 14.58871 L -11.57088 16.53384 M 7.81717 4.81933 A 8 4.6188 360 0 1 7.02143 6.05109 M -10.41915 13.79756 A 13.8 7.96743 180 0 0 -9.04883 14.58871 M 7.81717 4.81933 L 13.48463 10.26681 L 14.46177 11.20604 L 14.40514 11.09501 L 14.34843 10.9845 L 14.29164 10.8745 L 14.23477 10.765 L 14.17782 10.65602 L 14.12079 10.54756 L 14.06369 10.4396 L 14.0065 10.33215 L 13.94924 10.22522 L 13.8919 10.11879 L 13.83448 10.01288 L 13.77698 9.90748 L 13.7194 9.80259 L 13.66174 9.69821 A 13.8 7.96743 180 0 0 13.79999 8.5822 L 17.99775 8.40886 M -11.04747 13.34792 L -11.75458 14.37473 M -6.40433 6.60548 L -11.04747 13.34792 M -6.40433 6.60548 A 8 4.6188 360 0 1 -7.4956 5.45164 L -12.92991 11.35755 L -13.86686 12.37581 L -13.82331 12.26065 L -13.77963 12.14599 L -13.73582 12.03183 L -13.69188 11.91818 L -13.64781 11.80503 L -13.60361 11.69238 L -13.55929 11.58023 L -13.51483 11.46859 L -13.47025 11.35745 L -13.42553 11.24681 L -13.38069 11.13667 L -13.33571 11.02704 L -13.29061 10.91791 L -13.24538 10.80928 L -17.18851 11.6584 M 13.76484 8.00482 L 14.47195 8.55445 M 7.97962 3.50803 L 13.76484 8.00482 M 7.4956 2.22343 A 8 4.6188 360 0 1 7.97962 3.50803 M -13.65731 9.71599 A 13.8 7.96743 180 0 0 -13.24538 10.80928 M 7.4956 2.22343 L 12.92991 5.78888 L 13.86686 6.40361 L 13.7717 6.31832 L 13.67667 6.23353 L 13.58178 6.14925 L 13.48701 6.06546 L 13.39237 5.98218 L 13.29786 5.8994 L 13.20348 5.81712 L 13.10923 5.73535 L 13.01511 5.65408 L 12.92112 5.57331 L 12.82726 5.49304 L 12.73353 5.41327 L 12.63992 5.33401 L 12.54645 5.25525 A 13.8 7.96743 180 0 0 11.6177 4.27325 L 14.98677 2.81715 M -13.76484 9.1416 L -14.47195 9.74963 M -7.97962 4.16704 L -13.76484 9.1416 M -7.97962 4.16704 A 8 4.6188 360 0 1 -8 3.83753 A 8 4.6188 360 0 1 -7.81717 2.85574 L -13.48463 6.87961 L -14.46177 7.57339 L -14.37375 7.48053 L -14.28581 7.38818 L -14.19794 7.29635 L -14.11015 7.20503 L -14.02244 7.11422 L -13.93482 7.02392 L -13.84726 6.93413 L -13.75979 6.84485 L -13.6724 6.75608 L -13.58508 6.66782 L -13.49785 6.58008 L -13.41069 6.49285 L -13.32361 6.40612 L -13.23661 6.31991 L -17.34891 5.80343 M 11.04747 3.79851 L 11.75458 4.2141 M 6.40433 1.06959 L 11.04747 3.79851 M 5.65685 0.57155 A 8 4.6188 360 0 1 6.40433 1.06959 M -12.55938 5.2716 A 13.8 7.96743 180 0 0 -13.23661 6.31991 M -12.11197 4.75483 L -12.81908 5.18972 M -7.02143 1.62398 L -12.11197 4.75483 M -7.02143 1.62398 A 8 4.6188 360 0 1 -5.65685 0.57155 L -9.75807 2.93939 L -10.46518 3.34764 L -11.31371 2.85774 L -11.36143 2.71976 L -11.40935 2.58073 L -11.45747 2.44065 L -11.50581 2.2995 L -11.55435 2.15728 L -11.60311 2.01398 L -11.65208 1.8696 L -11.70127 1.72412 L -11.75069 1.57754 L -11.80032 1.42985 L -11.85019 1.28105 L -11.90028 1.13111 L -11.9506 0.98005 L -12.00116 0.82785 M 13.41537 15.50209 A 18 10.3923 180 0 0 15.29457 14.05275 M 11.31371 15.92168 L 11.45706 15.89402 L 11.60142 15.866 L 11.7468 15.83764 L 11.89321 15.80892 L 12.04065 15.77986 L 12.18912 15.75043 L 12.33865 15.72065 L 12.48923 15.69052 L 12.64088 15.66002 L 12.7936 15.62916 L 12.9474 15.59794 L 13.10229 15.56636 L 13.25828 15.5344 L 13.41537 15.50209 L 10.43953 13.78398 M 12.72792 15.92168 L 11.31371 15.92168 L 10.46518 15.43179 M 15.79822 13.55372 L 14.38401 13.76569 M 14.54923 15.92168 L 12.72792 15.92168 M 15.79822 13.55372 L 18.05887 13.21487 C 18.07 13.21 18.08 13.21 18.09721 13.20872 C 18.11 13.21 18.12 13.2 18.13639 13.20163 C 18.15 13.2 18.16 13.2 18.17639 13.19361 C 18.19 13.19 18.2 13.19 18.21716 13.18465 C 18.23 13.18 18.24 13.18 18.25869 13.17475 C 18.27 13.17 18.29 13.17 18.30094 13.16392 C 18.32 13.16 18.33 13.16 18.34386 13.15215 C 18.36 13.15 18.37 13.14 18.38742 13.13944 C 18.4 13.14 18.42 13.13 18.43158 13.12579 C 18.45 13.12 18.46 13.12 18.47629 13.11118 C 18.49 13.11 18.51 13.1 18.52151 13.09561 C 18.54 13.09 18.55 13.08 18.56719 13.07908 C 18.58 13.07 18.6 13.07 18.61327 13.06158 C 18.63 13.06 18.64 13.05 18.6597 13.04311 C 18.68 13.04 18.69 13.03 18.70641 13.02365 C 18.72 13.02 18.74 13.01 18.75335 13.00319 C 18.76 13 18.78 12.99 18.78595 12.98844 C 18.8 12.98 18.81 12.98 18.81858 12.97321 C 18.83 12.97 18.84 12.96 18.85121 12.95751 C 18.86 12.95 18.87 12.95 18.8838 12.94133 C 18.89 12.94 18.91 12.93 18.91631 12.92468 C 18.93 12.92 18.94 12.91 18.94871 12.90756 C 18.96 12.9 18.97 12.9 18.98094 12.88998 C 18.99 12.88 19 12.88 19.01296 12.87195 C 19.02 12.87 19.03 12.86 19.03738 12.85779 C 19.05 12.85 19.05 12.85 19.06162 12.84337 C 19.07 12.84 19.08 12.83 19.08565 12.82871 C 19.09 12.82 19.1 12.82 19.10943 12.8138 C 19.14 12.79 19.17 12.77 19.20145 12.75195 C 19.3 12.68 19.38 12.61 19.43803 12.54175 M 14.54923 15.92168 C 14.56 15.92 14.57 15.92 14.57909 15.92206 C 14.59 15.92 14.6 15.92 14.6076 15.92321 C 14.62 15.92 14.63 15.92 14.63472 15.92511 C 14.64 15.93 14.65 15.93 14.66043 15.92778 C 14.67 15.93 14.68 15.93 14.68467 15.93122 C 14.69 15.93 14.7 15.93 14.70741 15.93543 C 14.71 15.94 14.72 15.94 14.7286 15.94042 C 14.74 15.94 14.74 15.94 14.7482 15.94619 C 14.75 15.95 14.76 15.95 14.76614 15.95276 C 14.77 15.96 14.78 15.96 14.78236 15.96012 C 14.79 15.96 14.79 15.97 14.7968 15.96829 C 14.8 15.97 14.81 15.97 14.8094 15.97728 C 14.81 15.98 14.82 15.98 14.82007 15.98709 C 14.82 15.99 14.83 15.99 14.82875 15.99773 C 14.83 16 14.83 16.01 14.83534 16.00921 C 14.84 16.01 14.84 16.02 14.83976 16.02155 C 14.84 16.02 14.84 16.03 14.84152 16.03078 C 14.84 16.03 14.84 16.04 14.84212 16.04043 C 14.84 16.05 14.84 16.05 14.84082 16.05533 C 14.84 16.06 14.84 16.07 14.83683 16.07114 C 14.84 16.08 14.83 16.08 14.83004 16.08787 C 14.83 16.09 14.82 16.1 14.82032 16.10552 C 14.82 16.11 14.81 16.12 14.80712 16.12466 C 14.8 16.13 14.8 16.13 14.79927 16.13458 C 14.8 16.14 14.79 16.14 14.79057 16.14472 C 14.79 16.15 14.78 16.15 14.781 16.15509 C 14.78 16.16 14.77 16.16 14.77056 16.16566 C 14.77 16.17 14.76 16.17 14.75923 16.17645 C 14.76 16.18 14.75 16.18 14.74701 16.18744 C 14.74 16.19 14.73 16.2 14.72564 16.20537 C 14.72 16.21 14.71 16.22 14.70196 16.22373 C 14.7 16.23 14.69 16.23 14.68927 16.23306 C 14.68 16.24 14.68 16.24 14.676 16.24247 C 14.67 16.25 14.67 16.25 14.66218 16.25197 C 14.66 16.26 14.65 16.26 14.6478 16.26153 C 14.64 16.26 14.64 16.27 14.63287 16.27115 C 14.63 16.27 14.62 16.28 14.6174 16.28082 C 14.61 16.28 14.61 16.29 14.60141 16.29054 C 14.6 16.29 14.59 16.3 14.5849 16.30028 C 14.58 16.3 14.57 16.31 14.5679 16.31005 C 14.56 16.31 14.56 16.32 14.55041 16.31982 C 14.54 16.32 14.54 16.33 14.53246 16.32959 C 14.53 16.33 14.52 16.34 14.51407 16.33935 A 21.6 12.47077 360 0 1 11.25986 17.74582 C 11.25 17.75 11.23 17.76 11.2163 17.76082 C 11.2 17.77 11.19 17.77 11.17162 17.77549 C 11.16 17.78 11.14 17.79 11.12604 17.78977 C 11.11 17.79 11.1 17.8 11.07976 17.8036 C 11.06 17.81 11.05 17.81 11.03299 17.81695 C 11.02 17.82 11 17.83 10.98592 17.82975 C 10.97 17.83 10.95 17.84 10.93875 17.842 C 10.92 17.85 10.91 17.85 10.89165 17.85365 C 10.88 17.86 10.87 17.86 10.8623 17.86063 C 10.85 17.86 10.84 17.87 10.83306 17.86737 C 10.82 17.87 10.81 17.87 10.80398 17.87387 C 10.79 17.88 10.78 17.88 10.77509 17.88012 C 10.77 17.88 10.76 17.88 10.7464 17.88614 C 10.74 17.89 10.73 17.89 10.71795 17.8919 C 10.71 17.89 10.7 17.9 10.68976 17.89743 C 10.68 17.9 10.67 17.9 10.66184 17.90272 C 10.65 17.9 10.64 17.91 10.62597 17.90924 C 10.61 17.91 10.6 17.91 10.59064 17.91536 C 10.58 17.92 10.57 17.92 10.55587 17.92108 C 10.54 17.92 10.53 17.92 10.52169 17.92642 C 10.51 17.93 10.5 17.93 10.48813 17.93138 C 10.48 17.93 10.47 17.93 10.4552 17.93597 C 10.44 17.94 10.43 17.94 10.42292 17.94019 C 10.41 17.94 10.4 17.94 10.39131 17.94405 C 10.38 17.95 10.36 17.95 10.34689 17.94901 C 10.33 17.95 10.32 17.95 10.30393 17.95325 C 10.29 17.95 10.28 17.96 10.26242 17.95681 C 10.25 17.96 10.24 17.96 10.22238 17.9597 C 10.17 17.96 10.12 17.96 10.0772 17.96494 C 9.99 17.97 9.92 17.96 9.86089 17.94798 M 20.85861 10.34279 A 21.6 12.47077 360 0 1 19.43803 12.54175 M 20.10549 10.04683 C 20.12 10.04 20.13 10.04 20.14748 10.03503 C 20.16 10.03 20.18 10.03 20.18901 10.0243 C 20.2 10.02 20.22 10.02 20.23006 10.01465 C 20.24 10.01 20.26 10.01 20.27058 10.00609 C 20.28 10 20.3 10 20.31053 9.99864 C 20.32 10 20.34 9.99 20.34985 9.99233 C 20.36 9.99 20.38 9.99 20.3885 9.98718 C 20.4 9.99 20.41 9.98 20.42642 9.9832 C 20.44 9.98 20.45 9.98 20.46354 9.98044 C 20.48 9.98 20.49 9.98 20.49981 9.9789 C 20.51 9.98 20.52 9.98 20.53515 9.97863 C 20.55 9.98 20.56 9.98 20.56948 9.97966 C 20.58 9.98 20.59 9.98 20.60273 9.98202 C 20.61 9.98 20.62 9.98 20.63481 9.98576 C 20.65 9.99 20.66 9.99 20.66564 9.9909 C 20.68 9.99 20.69 10 20.6951 9.99749 C 20.7 10 20.71 10 20.71466 10.00292 C 20.72 10 20.73 10.01 20.73346 10.00909 C 20.74 10.01 20.75 10.01 20.75148 10.01601 C 20.76 10.02 20.76 10.02 20.76867 10.02368 C 20.77 10.03 20.78 10.03 20.78497 10.03212 C 20.79 10.04 20.8 10.04 20.80035 10.04135 C 20.81 10.04 20.81 10.05 20.81474 10.05137 C 20.82 10.05 20.82 10.06 20.82811 10.06221 C 20.83 10.07 20.84 10.07 20.84652 10.08046 C 20.85 10.09 20.86 10.09 20.86216 10.10068 C 20.86 10.1 20.87 10.11 20.86888 10.11153 C 20.87 10.12 20.87 10.12 20.87482 10.12287 C 20.88 10.13 20.88 10.14 20.88429 10.14703 C 20.89 10.17 20.89 10.19 20.89293 10.2062 C 20.89 10.21 20.89 10.22 20.8924 10.22181 C 20.89 10.23 20.89 10.23 20.89082 10.23789 C 20.89 10.24 20.89 10.25 20.88816 10.25441 C 20.89 10.26 20.89 10.27 20.88443 10.27136 C 20.88 10.28 20.88 10.28 20.8796 10.2887 C 20.88 10.29 20.88 10.3 20.87368 10.30641 C 20.87 10.31 20.87 10.32 20.86668 10.32445 C 20.86 10.33 20.86 10.34 20.85861 10.34279 M 8.62648 17.69432 L 9.86089 17.94798 M 17.58864 10.78226 L 20.10549 10.04683 M 8.62648 17.69432 L 7.66798 17.49736 M 17.58864 10.78226 L 15.63435 11.3533 L 14.46177 11.20604 M 15.63435 11.3533 L 15.78074 11.27652 L 15.9281 11.19905 L 16.07642 11.1209 L 16.22571 11.04206 L 16.37599 10.96252 L 16.52726 10.88228 L 16.67952 10.80134 L 16.8328 10.71969 L 16.98709 10.63733 L 17.1424 10.55425 L 17.29874 10.47045 L 17.45613 10.38593 L 17.61456 10.30068 L 17.77404 10.21469 L 13.66174 9.69821 M 4.79741 18.58961 A 18 10.3923 180 0 0 7.73548 17.95693 M 17.77404 10.21469 A 18 10.3923 180 0 0 17.99775 8.40886 M 3.40104 18.41621 L 3.49584 18.42891 L 3.59138 18.44157 L 3.68766 18.45417 L 3.78469 18.46673 L 3.88248 18.47923 L 3.98103 18.49168 L 4.08034 18.50409 L 4.18043 18.51644 L 4.28129 18.52875 L 4.38293 18.54102 L 4.48535 18.55323 L 4.58857 18.56541 L 4.69259 18.57753 L 4.79741 18.58961 L 3.90284 16.21538 M 3.82618 18.72802 L 3.40104 18.41621 L 3.14597 17.73922 M 17.95414 7.83184 L 16.53992 8.46906 M 3.82618 18.72802 L 4.37368 19.1296 C 4.38 19.13 4.38 19.14 4.38363 19.13809 C 4.39 19.14 4.39 19.14 4.39078 19.14692 C 4.39 19.15 4.39 19.15 4.39509 19.15607 C 4.4 19.16 4.4 19.16 4.39654 19.16554 C 4.4 19.17 4.4 19.17 4.39471 19.17647 C 4.39 19.18 4.39 19.18 4.38917 19.18776 C 4.39 19.19 4.38 19.2 4.37985 19.19938 C 4.38 19.2 4.37 19.21 4.36666 19.21132 C 4.36 19.22 4.36 19.22 4.34948 19.22354 C 4.34 19.23 4.34 19.23 4.32821 19.23602 C 4.32 19.24 4.31 19.24 4.30273 19.24873 C 4.29 19.25 4.28 19.26 4.2729 19.26163 C 4.26 19.27 4.25 19.27 4.23851 19.27471 C 4.23 19.28 4.23 19.28 4.21958 19.28128 C 4.21 19.28 4.21 19.29 4.19949 19.28787 C 4.19 19.29 4.19 19.29 4.17822 19.29447 C 4.17 19.3 4.16 19.3 4.15575 19.30107 C 4.15 19.3 4.14 19.31 4.13207 19.30765 C 4.12 19.31 4.12 19.31 4.10719 19.31421 C 4.1 19.32 4.09 19.32 4.08723 19.31923 C 4.08 19.32 4.07 19.32 4.06656 19.32422 C 4.06 19.33 4.05 19.33 4.04517 19.32919 C 4.04 19.33 4.03 19.33 4.02307 19.33411 C 4.02 19.34 4.01 19.34 4.00026 19.33898 C 3.99 19.34 3.98 19.34 3.97675 19.34381 C 3.97 19.35 3.96 19.35 3.95254 19.34857 C 3.94 19.35 3.94 19.35 3.92766 19.35327 C 3.91 19.36 3.9 19.36 3.88656 19.36061 C 3.87 19.36 3.86 19.37 3.84385 19.36772 C 3.83 19.37 3.81 19.37 3.79964 19.37456 C 3.78 19.38 3.77 19.38 3.75406 19.38111 C 3.74 19.38 3.72 19.39 3.70727 19.38732 C 3.69 19.39 3.68 19.39 3.65943 19.39316 C 3.63 19.4 3.59 19.4 3.56142 19.40361 A 21.6 12.47077 360 0 1 -0.49324 19.57103 C -0.51 19.57 -0.53 19.57 -0.54347 19.57013 C -0.56 19.57 -0.58 19.57 -0.59341 19.56876 C -0.61 19.57 -0.63 19.57 -0.64285 19.56694 C -0.66 19.57 -0.68 19.57 -0.69157 19.56467 C -0.71 19.56 -0.72 19.56 -0.7394 19.56197 C -0.76 19.56 -0.77 19.56 -0.78616 19.55887 C -0.8 19.56 -0.82 19.56 -0.8317 19.5554 C -0.85 19.55 -0.86 19.55 -0.87589 19.55157 C -0.88 19.55 -0.89 19.55 -0.9028 19.54902 C -0.91 19.55 -0.92 19.55 -0.92913 19.54634 C -0.94 19.55 -0.95 19.54 -0.95486 19.54354 C -0.96 19.54 -0.97 19.54 -0.97996 19.54065 C -0.99 19.54 -1 19.54 -1.00444 19.53764 C -1.01 19.54 -1.02 19.54 -1.02827 19.53455 C -1.04 19.53 -1.04 19.53 -1.05146 19.53137 C -1.06 19.53 -1.07 19.53 -1.07399 19.5281 C -1.08 19.53 -1.09 19.53 -1.10233 19.52374 C -1.11 19.52 -1.12 19.52 -1.12954 19.51925 C -1.14 19.52 -1.15 19.52 -1.15564 19.51466 C -1.16 19.51 -1.17 19.51 -1.18062 19.50997 C -1.19 19.51 -1.2 19.51 -1.2045 19.50519 C -1.21 19.5 -1.22 19.5 -1.22727 19.50034 C -1.23 19.5 -1.24 19.5 -1.24894 19.49541 C -1.26 19.49 -1.26 19.49 -1.26953 19.49043 C -1.28 19.49 -1.29 19.49 -1.29457 19.48389 C -1.3 19.48 -1.31 19.48 -1.31784 19.47729 C -1.33 19.48 -1.33 19.47 -1.33935 19.47062 C -1.35 19.47 -1.35 19.47 -1.35914 19.4639 C -1.38 19.45 -1.41 19.45 -1.42159 19.43675 C -1.45 19.42 -1.47 19.4 -1.4704 19.38287 C -1.47 19.38 -1.47 19.38 -1.46977 19.37682 C -1.47 19.37 -1.47 19.37 -1.46785 19.37081 M 17.95414 7.83184 L 20.52329 6.67422 M 21.44476 5.61108 C 21.45 5.62 21.45 5.62 21.44791 5.62851 C 21.45 5.63 21.45 5.64 21.45016 5.64632 C 21.45 5.65 21.45 5.66 21.4515 5.66448 C 21.45 5.67 21.45 5.68 21.45195 5.68297 C 21.45 5.69 21.45 5.7 21.45134 5.70506 C 21.45 5.71 21.45 5.72 21.44951 5.72749 C 21.45 5.74 21.45 5.74 21.44648 5.75023 C 21.45 5.76 21.44 5.77 21.44229 5.77323 C 21.44 5.78 21.44 5.79 21.43696 5.79642 C 21.43 5.8 21.43 5.81 21.43051 5.81978 C 21.43 5.83 21.43 5.84 21.423 5.84324 C 21.42 5.85 21.42 5.86 21.41445 5.86677 C 21.41 5.87 21.41 5.88 21.40599 5.88779 C 21.4 5.89 21.4 5.9 21.39677 5.9088 C 21.39 5.92 21.39 5.92 21.38681 5.92978 C 21.38 5.94 21.38 5.94 21.37614 5.95072 C 21.37 5.96 21.37 5.96 21.36481 5.97158 C 21.36 5.98 21.36 5.99 21.35282 5.99235 C 21.35 6 21.34 6.01 21.34022 6.01301 C 21.34 6.02 21.33 6.03 21.32703 6.03355 C 21.32 6.04 21.32 6.05 21.30902 6.06006 C 21.3 6.07 21.3 6.08 21.29012 6.0863 C 21.28 6.1 21.28 6.1 21.27038 6.11226 C 21.26 6.12 21.26 6.13 21.24984 6.1379 C 21.24 6.15 21.24 6.15 21.22856 6.16321 C 21.22 6.17 21.21 6.18 21.20658 6.18817 C 21.2 6.2 21.19 6.2 21.18395 6.21276 C 21.18 6.22 21.17 6.23 21.16072 6.23697 C 21.15 6.25 21.14 6.26 21.1262 6.27122 C 21.11 6.28 21.1 6.29 21.09061 6.30461 C 21.08 6.32 21.07 6.33 21.05405 6.33713 C 21.04 6.35 21.03 6.36 21.01659 6.36877 C 20.97 6.41 20.91 6.45 20.85948 6.48618 C 20.75 6.56 20.64 6.62 20.52329 6.67422 M 20.58068 3.31778 A 21.6 12.47077 360 0 1 21.44476 5.61108 M 19.27841 3.37026 C 19.29 3.36 19.31 3.35 19.31918 3.34443 C 19.33 3.34 19.35 3.33 19.36056 3.31964 C 19.37 3.31 19.39 3.3 19.4025 3.29592 C 19.42 3.29 19.43 3.28 19.44497 3.2733 C 19.46 3.27 19.47 3.26 19.48794 3.2518 C 19.5 3.24 19.52 3.24 19.53136 3.23146 C 19.55 3.22 19.56 3.22 19.57519 3.21232 C 19.59 3.21 19.6 3.2 19.6194 3.19442 C 19.63 3.19 19.65 3.18 19.66392 3.17781 C 19.68 3.17 19.69 3.17 19.70872 3.16254 C 19.72 3.16 19.74 3.15 19.75373 3.14865 C 19.77 3.14 19.78 3.14 19.7989 3.1362 C 19.81 3.13 19.83 3.13 19.84417 3.12525 C 19.86 3.12 19.87 3.12 19.88947 3.11586 C 19.9 3.11 19.92 3.11 19.93474 3.1081 C 19.95 3.11 19.96 3.1 19.97989 3.10204 C 19.99 3.1 20 3.1 20.01105 3.09889 C 20.02 3.1 20.03 3.1 20.04208 3.09661 C 20.05 3.1 20.06 3.1 20.07293 3.09523 C 20.08 3.09 20.09 3.09 20.10357 3.0948 C 20.11 3.09 20.12 3.09 20.13396 3.09532 C 20.14 3.1 20.15 3.1 20.16405 3.09684 C 20.17 3.1 20.18 3.1 20.19379 3.09939 C 20.2 3.1 20.21 3.1 20.22312 3.10298 C 20.23 3.1 20.24 3.11 20.24536 3.10648 C 20.25 3.11 20.26 3.11 20.2673 3.11063 C 20.27 3.11 20.28 3.11 20.28892 3.11544 C 20.3 3.12 20.3 3.12 20.31017 3.12093 C 20.34 3.13 20.37 3.14 20.39095 3.14983 C 20.47 3.19 20.54 3.24 20.58068 3.31778 M -1.28411 18.93904 L -1.46785 19.37081 M 16.8651 4.94148 L 19.27841 3.37026 M -1.28411 18.93904 L -1.14143 18.60378 L -1.21852 18.62358 L -1.29624 18.64339 L -1.37459 18.66321 L -1.45359 18.68303 L -1.53322 18.70286 L -1.6135 18.7227 L -1.69444 18.74255 L -1.77603 18.7624 L -1.85828 18.78227 L -1.94119 18.80216 L -2.02477 18.82206 L -2.10903 18.84197 L -2.19396 18.8619 L -2.27957 18.88184 M 16.8651 4.94148 L 14.9912 6.1615 L 13.86686 6.40361 M 14.9912 6.1615 L 15.09415 6.04244 L 15.19771 5.92244 L 15.30188 5.80148 L 15.40667 5.67957 L 15.51207 5.55668 L 15.6181 5.43283 L 15.72477 5.30799 L 15.83207 5.18217 L 15.94001 5.05535 L 16.04861 4.92753 L 16.15785 4.79871 L 16.26776 4.66888 L 16.37834 4.53802 L 16.48958 4.40614 L 12.54645 5.25525 M -5.34369 18.49701 A 18 10.3923 180 0 0 -2.27957 18.88184 M 16.48958 4.40614 A 18 10.3923 180 0 0 14.98677 2.81715 M -5.59143 18.04488 L -5.57528 18.0764 L -5.5589 18.10802 L -5.54228 18.13977 L -5.52543 18.17163 L -5.50834 18.2036 L -5.49101 18.2357 L -5.47345 18.26792 L -5.45564 18.30026 L -5.43759 18.33273 L -5.4193 18.36533 L -5.40076 18.39805 L -5.38198 18.4309 L -5.36296 18.46389 L -5.34369 18.49701 L -3.87298 16.22044 M -6.29036 18.31028 L -5.59143 18.04488 L -5.17207 17.39574 M 14.40974 2.34534 L 12.99553 3.67776 M -6.29036 18.31028 L -7.19047 18.65208 C -7.2 18.65 -7.2 18.66 -7.20643 18.65762 C -7.21 18.66 -7.22 18.66 -7.22412 18.66278 C -7.23 18.66 -7.24 18.67 -7.24353 18.66754 C -7.25 18.67 -7.26 18.67 -7.26465 18.67191 C -7.27 18.67 -7.28 18.67 -7.28747 18.67588 C -7.3 18.68 -7.3 18.68 -7.312 18.67943 C -7.33 18.68 -7.35 18.68 -7.36615 18.68523 C -7.39 18.69 -7.41 18.69 -7.42709 18.68923 C -7.45 18.69 -7.47 18.69 -7.49481 18.69129 C -7.51 18.69 -7.52 18.69 -7.53121 18.69155 C -7.54 18.69 -7.56 18.69 -7.5693 18.69128 C -7.58 18.69 -7.6 18.69 -7.60909 18.69044 C -7.62 18.69 -7.64 18.69 -7.65057 18.68903 C -7.66 18.69 -7.67 18.69 -7.68029 18.68769 C -7.69 18.69 -7.7 18.69 -7.7108 18.68606 C -7.72 18.69 -7.73 18.68 -7.7421 18.68413 C -7.75 18.68 -7.76 18.68 -7.77418 18.68187 C -7.78 18.68 -7.8 18.68 -7.80702 18.6793 C -7.82 18.68 -7.83 18.68 -7.84061 18.67639 C -7.85 18.68 -7.86 18.67 -7.87493 18.67314 C -7.89 18.67 -7.9 18.67 -7.90995 18.66955 C -7.92 18.67 -7.93 18.67 -7.93734 18.66654 C -7.95 18.67 -7.96 18.66 -7.9651 18.66332 C -7.97 18.66 -7.98 18.66 -7.99324 18.65989 C -8 18.66 -8.01 18.66 -8.02172 18.65623 C -8.03 18.65 -8.04 18.65 -8.05054 18.65236 C -8.06 18.65 -8.07 18.65 -8.07965 18.64826 C -8.09 18.65 -8.1 18.65 -8.10905 18.64394 C -8.12 18.64 -8.13 18.64 -8.13869 18.63939 C -8.27 18.62 -8.4 18.59 -8.52196 18.56267 A 21.6 12.47077 360 0 1 -12.08973 17.4379 C -12.1 17.44 -12.1 17.43 -12.1104 17.42975 C -12.12 17.43 -12.12 17.42 -12.13069 17.42154 C -12.14 17.42 -12.14 17.42 -12.15057 17.4133 C -12.16 17.41 -12.16 17.41 -12.17004 17.40504 C -12.18 17.4 -12.18 17.4 -12.18907 17.39675 C -12.2 17.39 -12.2 17.39 -12.20764 17.38845 C -12.21 17.39 -12.22 17.38 -12.22573 17.38016 C -12.23 17.38 -12.24 17.37 -12.24334 17.37187 C -12.25 17.37 -12.25 17.37 -12.26044 17.3636 C -12.27 17.36 -12.27 17.36 -12.27703 17.35536 C -12.28 17.35 -12.29 17.35 -12.2931 17.34714 C -12.3 17.34 -12.3 17.34 -12.30864 17.33897 C -12.32 17.33 -12.33 17.33 -12.33809 17.32279 C -12.35 17.32 -12.36 17.31 -12.36534 17.30685 C -12.37 17.3 -12.38 17.3 -12.38127 17.29703 C -12.39 17.29 -12.39 17.29 -12.39633 17.28733 C -12.4 17.28 -12.41 17.28 -12.41053 17.27777 C -12.42 17.27 -12.42 17.27 -12.42388 17.26835 C -12.43 17.27 -12.43 17.26 -12.43638 17.25909 C -12.44 17.26 -12.44 17.25 -12.44803 17.24998 C -12.46 17.24 -12.46 17.24 -12.46885 17.23225 C -12.47 17.23 -12.48 17.22 -12.48065 17.22108 C -12.48 17.22 -12.49 17.21 -12.4911 17.21021 C -12.5 17.2 -12.5 17.2 -12.5081 17.18939 C -12.51 17.18 -12.52 17.18 -12.52009 17.16981 C -12.52 17.16 -12.53 17.16 -12.52731 17.15151 C -12.53 17.15 -12.53 17.15 -12.52935 17.14185 C -12.53 17.14 -12.53 17.14 -12.53002 17.13258 C -12.53 17.13 -12.53 17.13 -12.52913 17.12228 C -12.53 17.12 -12.53 17.12 -12.52647 17.11252 C -12.53 17.11 -12.52 17.11 -12.52212 17.1033 C -12.52 17.1 -12.52 17.1 -12.51612 17.09461 C -12.51 17.09 -12.51 17.09 -12.50851 17.08646 C -12.51 17.08 -12.5 17.08 -12.49936 17.07884 C -12.5 17.08 -12.49 17.07 -12.48869 17.07176 C -12.48 17.07 -12.48 17.07 -12.47655 17.0652 C -12.47 17.06 -12.47 17.06 -12.46298 17.05917 C -12.46 17.06 -12.45 17.06 -12.44802 17.05366 C -12.44 17.05 -12.44 17.05 -12.43169 17.04868 C -12.43 17.05 -12.42 17.05 -12.41403 17.04423 C -12.41 17.04 -12.4 17.04 -12.39507 17.04029 C -12.39 17.04 -12.38 17.04 -12.37482 17.03688 C -12.37 17.04 -12.36 17.03 -12.35331 17.03399 C -12.35 17.03 -12.34 17.03 -12.33057 17.03163 M 14.40974 2.34534 L 16.47171 0.40263 M 16.64294 -0.84575 C 16.65 -0.84 16.65 -0.84 16.65872 -0.83432 C 16.66 -0.83 16.67 -0.83 16.67401 -0.82243 C 16.68 -0.82 16.68 -0.81 16.68877 -0.81008 C 16.69 -0.81 16.7 -0.8 16.70299 -0.7973 C 16.71 -0.79 16.71 -0.79 16.71667 -0.7841 C 16.72 -0.78 16.73 -0.78 16.72979 -0.7705 C 16.73 -0.77 16.74 -0.76 16.74233 -0.75652 C 16.75 -0.75 16.75 -0.75 16.7543 -0.74217 C 16.76 -0.74 16.76 -0.73 16.76568 -0.72747 C 16.77 -0.72 16.77 -0.72 16.77648 -0.71244 C 16.78 -0.71 16.78 -0.7 16.78668 -0.6971 C 16.79 -0.69 16.79 -0.69 16.79629 -0.68147 C 16.8 -0.67 16.81 -0.66 16.81373 -0.64942 C 16.82 -0.64 16.82 -0.63 16.8288 -0.61643 C 16.83 -0.61 16.83 -0.6 16.83704 -0.59537 C 16.84 -0.59 16.84 -0.58 16.84437 -0.57404 C 16.85 -0.57 16.85 -0.56 16.85082 -0.55246 C 16.85 -0.55 16.85 -0.54 16.85639 -0.53067 C 16.86 -0.52 16.86 -0.52 16.86111 -0.50868 C 16.86 -0.5 16.86 -0.49 16.86498 -0.48654 C 16.87 -0.48 16.87 -0.47 16.86802 -0.46425 C 16.87 -0.46 16.87 -0.45 16.87025 -0.44186 C 16.87 -0.43 16.87 -0.42 16.87189 -0.41493 C 16.87 -0.41 16.87 -0.4 16.87243 -0.38792 C 16.87 -0.37 16.87 -0.36 16.87096 -0.34257 C 16.87 -0.33 16.87 -0.31 16.86665 -0.2972 C 16.86 -0.28 16.86 -0.27 16.85964 -0.25191 C 16.86 -0.24 16.85 -0.22 16.85007 -0.20682 C 16.85 -0.19 16.84 -0.18 16.83891 -0.16483 C 16.83 -0.15 16.83 -0.14 16.82572 -0.12317 C 16.82 -0.11 16.82 -0.1 16.81061 -0.08188 C 16.81 -0.07 16.8 -0.05 16.79365 -0.04102 C 16.79 -0.03 16.78 -0.01 16.77493 -0.00062 C 16.77 0.01 16.76 0.03 16.75453 0.03927 C 16.75 0.05 16.74 0.07 16.73253 0.07861 C 16.72 0.09 16.72 0.1 16.70898 0.11737 C 16.7 0.13 16.69 0.14 16.68395 0.15552 C 16.68 0.17 16.67 0.18 16.6575 0.19301 C 16.65 0.21 16.64 0.22 16.62968 0.22982 C 16.62 0.24 16.61 0.25 16.60055 0.26591 C 16.59 0.28 16.58 0.29 16.57015 0.30127 C 16.56 0.31 16.55 0.32 16.53851 0.33586 C 16.53 0.35 16.52 0.36 16.50569 0.36965 C 16.49 0.38 16.48 0.39 16.47171 0.40263 M 13.76854 -2.50528 A 21.6 12.47077 360 0 1 16.64294 -0.84575 M 12.33057 -1.98826 C 12.34 -2 12.35 -2.01 12.35718 -2.02552 C 12.37 -2.04 12.38 -2.05 12.38526 -2.06208 C 12.39 -2.07 12.4 -2.09 12.41478 -2.09791 C 12.42 -2.11 12.44 -2.12 12.44572 -2.13298 C 12.46 -2.14 12.47 -2.16 12.47806 -2.16725 C 12.49 -2.18 12.5 -2.19 12.5118 -2.20067 C 12.52 -2.21 12.53 -2.22 12.5469 -2.23319 C 12.56 -2.24 12.57 -2.25 12.58335 -2.26476 C 12.6 -2.28 12.61 -2.29 12.62114 -2.29532 C 12.63 -2.31 12.65 -2.32 12.66025 -2.32482 C 12.67 -2.33 12.69 -2.34 12.70064 -2.35319 C 12.71 -2.36 12.73 -2.37 12.74231 -2.38036 C 12.76 -2.39 12.77 -2.4 12.78522 -2.40626 C 12.8 -2.41 12.81 -2.42 12.82936 -2.43081 C 12.84 -2.44 12.86 -2.45 12.8747 -2.45393 C 12.89 -2.46 12.91 -2.47 12.92121 -2.47552 C 12.93 -2.48 12.94 -2.49 12.95408 -2.48954 C 12.97 -2.49 12.98 -2.5 12.98748 -2.50274 C 13 -2.51 13.01 -2.51 13.02137 -2.51509 C 13.03 -2.52 13.04 -2.52 13.05574 -2.52655 C 13.07 -2.53 13.08 -2.53 13.09056 -2.53708 C 13.1 -2.54 13.11 -2.54 13.12581 -2.54663 C 13.14 -2.55 13.15 -2.55 13.16144 -2.55517 C 13.17 -2.56 13.19 -2.56 13.19744 -2.56265 C 13.21 -2.56 13.22 -2.57 13.22531 -2.56765 C 13.23 -2.57 13.24 -2.57 13.25336 -2.57197 C 13.26 -2.57 13.27 -2.57 13.28154 -2.5756 C 13.29 -2.58 13.3 -2.58 13.30984 -2.57852 C 13.35 -2.58 13.39 -2.58 13.42363 -2.5826 C 13.54 -2.58 13.67 -2.55 13.76854 -2.50528 M 10.787 0.25375 L 12.33057 -1.98826 M 10.787 0.25375 L 9.58844 1.99463 L 8.89206 2.53171 M 9.58844 1.99463 L 9.61527 1.85357 L 9.64216 1.71145 L 9.66911 1.56827 L 9.69611 1.42401 L 9.72318 1.27867 L 9.75031 1.13224 L 9.77751 0.98471 L 9.80477 0.83607 L 9.8321 0.68632 L 9.85949 0.53545 L 9.88696 0.38346 L 9.9145 0.23032 L 9.94211 0.07604 L 9.9698 -0.0794 L 7.58233 1.76194 M -13.78821 15.25366 A 18 10.3923 180 0 0 -11.57088 16.53384 M 9.9698 -0.0794 A 18 10.3923 180 0 0 7.21759 -0.94705 M 5.71558 0.60581 L 5.81812 0.49953 L 5.92137 0.39256 L 6.02534 0.28489 L 6.13003 0.17652 L 6.23545 0.06743 L 6.34159 -0.04237 L 6.44847 -0.15288 L 6.55609 -0.26412 L 6.66445 -0.37609 L 6.77356 -0.4888 L 6.88342 -0.60224 L 6.99405 -0.71643 L 7.10543 -0.83136 L 7.21759 -0.94705 M -14.40974 14.80109 L -12.99553 14.91107 M 6.29036 -1.16385 L 5.65239 0.56897 M -14.40974 14.80109 L -16.47171 14.64074 C -16.48 14.64 -16.49 14.64 -16.50682 14.63762 C -16.52 14.64 -16.53 14.64 -16.54302 14.63364 C -16.56 14.63 -16.57 14.63 -16.58025 14.62881 C -16.59 14.63 -16.61 14.63 -16.61851 14.62311 C -16.63 14.62 -16.64 14.62 -16.65776 14.61655 C -16.67 14.61 -16.68 14.61 -16.69796 14.60913 C -16.71 14.61 -16.73 14.6 -16.7391 14.60083 C -16.75 14.6 -16.77 14.59 -16.78113 14.59165 C -16.8 14.59 -16.81 14.59 -16.82402 14.58159 C -16.84 14.58 -16.85 14.57 -16.86774 14.57064 C -16.88 14.57 -16.9 14.56 -16.91225 14.55877 C -16.93 14.55 -16.94 14.55 -16.9575 14.546 C -16.97 14.54 -16.99 14.54 -17.00346 14.5323 C -17.02 14.53 -17.03 14.52 -17.05006 14.51767 C -17.07 14.51 -17.08 14.51 -17.09728 14.50209 C -17.11 14.5 -17.13 14.49 -17.14504 14.48554 C -17.16 14.48 -17.17 14.48 -17.17841 14.47351 C -17.19 14.47 -17.2 14.47 -17.21198 14.46102 C -17.22 14.46 -17.23 14.45 -17.24572 14.44806 C -17.26 14.44 -17.27 14.44 -17.2796 14.43462 C -17.29 14.43 -17.3 14.43 -17.31358 14.42072 C -17.32 14.42 -17.34 14.41 -17.34763 14.40634 C -17.36 14.4 -17.37 14.4 -17.3817 14.3915 C -17.39 14.39 -17.4 14.38 -17.41574 14.3762 C -17.42 14.37 -17.43 14.37 -17.44186 14.36412 C -17.45 14.36 -17.46 14.36 -17.4679 14.35178 C -17.48 14.35 -17.49 14.34 -17.49385 14.33918 C -17.5 14.33 -17.51 14.33 -17.51968 14.32632 C -17.55 14.31 -17.59 14.29 -17.62107 14.27246 C -17.73 14.21 -17.82 14.15 -17.89967 14.08353 A 21.6 12.47077 360 0 1 -19.84783 12.02368 C -19.85 12.02 -19.85 12.01 -19.85746 12.01039 C -19.86 12.01 -19.86 12 -19.8665 11.99721 C -19.87 11.99 -19.87 11.99 -19.87494 11.98417 C -19.88 11.98 -19.88 11.98 -19.88277 11.97127 C -19.89 11.97 -19.89 11.96 -19.88999 11.95854 C -19.89 11.95 -19.89 11.95 -19.89659 11.94597 C -19.9 11.94 -19.9 11.94 -19.90257 11.9336 C -19.9 11.93 -19.91 11.93 -19.90793 11.92142 C -19.91 11.92 -19.91 11.91 -19.91267 11.90944 C -19.91 11.91 -19.92 11.9 -19.91679 11.89769 C -19.92 11.89 -19.92 11.89 -19.92031 11.88616 C -19.92 11.88 -19.92 11.88 -19.92321 11.87486 C -19.92 11.87 -19.93 11.86 -19.92722 11.853 C -19.93 11.85 -19.93 11.84 -19.92889 11.83216 C -19.93 11.83 -19.93 11.83 -19.92895 11.82753 C -19.93 11.82 -19.93 11.82 -19.92855 11.81574 C -19.93 11.81 -19.93 11.81 -19.92737 11.80433 C -19.93 11.8 -19.92 11.79 -19.92273 11.78268 C -19.92 11.78 -19.92 11.77 -19.9152 11.76259 C -19.91 11.76 -19.91 11.75 -19.90493 11.74407 C -19.9 11.74 -19.9 11.74 -19.89645 11.73234 C -19.89 11.73 -19.89 11.72 -19.88682 11.72133 C -19.88 11.72 -19.88 11.71 -19.87611 11.71103 C -19.87 11.71 -19.87 11.7 -19.86434 11.70144 C -19.86 11.7 -19.86 11.7 -19.85158 11.69254 C -19.85 11.69 -19.84 11.69 -19.83787 11.68432 C -19.83 11.68 -19.83 11.68 -19.82324 11.67678 C -19.82 11.67 -19.81 11.67 -19.80775 11.6699 C -19.8 11.67 -19.79 11.66 -19.78394 11.66112 C -19.78 11.66 -19.77 11.66 -19.75852 11.65367 C -19.75 11.65 -19.74 11.65 -19.73159 11.64752 C -19.72 11.65 -19.71 11.64 -19.70324 11.64262 C -19.69 11.64 -19.68 11.64 -19.67355 11.63896 C -19.66 11.64 -19.65 11.64 -19.64261 11.6365 C -19.63 11.64 -19.62 11.64 -19.61048 11.63521 C -19.6 11.63 -19.59 11.63 -19.57724 11.63508 C -19.57 11.64 -19.55 11.64 -19.54296 11.63608 C -19.53 11.64 -19.52 11.64 -19.5077 11.63818 C -19.5 11.64 -19.48 11.64 -19.47152 11.64137 C -19.46 11.64 -19.45 11.64 -19.43446 11.64564 C -19.42 11.65 -19.41 11.65 -19.39657 11.65096 C -19.38 11.65 -19.37 11.66 -19.35791 11.65731 C -19.34 11.66 -19.33 11.66 -19.31851 11.6647 C -19.31 11.67 -19.29 11.67 -19.27841 11.67311 M 6.29036 -1.16385 L 7.19047 -3.60871 M 6.55709 -4.77874 C 6.57 -4.78 6.57 -4.78 6.58096 -4.77404 C 6.59 -4.77 6.6 -4.77 6.60461 -4.76874 C 6.61 -4.77 6.62 -4.76 6.62801 -4.76287 C 6.64 -4.76 6.64 -4.76 6.65114 -4.75642 C 6.66 -4.75 6.67 -4.75 6.67398 -4.74941 C 6.68 -4.75 6.69 -4.74 6.6965 -4.74185 C 6.7 -4.74 6.71 -4.74 6.71867 -4.73375 C 6.73 -4.73 6.73 -4.73 6.74049 -4.72513 C 6.75 -4.72 6.75 -4.72 6.76193 -4.71599 C 6.77 -4.71 6.78 -4.71 6.78297 -4.70636 C 6.79 -4.7 6.8 -4.7 6.8036 -4.69625 C 6.81 -4.69 6.82 -4.69 6.82381 -4.68568 C 6.84 -4.68 6.85 -4.67 6.86289 -4.6632 C 6.88 -4.66 6.89 -4.65 6.90012 -4.63908 C 6.91 -4.63 6.92 -4.63 6.92244 -4.62321 C 6.93 -4.62 6.94 -4.61 6.94401 -4.60678 C 6.95 -4.6 6.96 -4.6 6.96482 -4.58982 C 6.97 -4.58 6.98 -4.58 6.98486 -4.57236 C 6.99 -4.57 7 -4.56 7.00412 -4.55444 C 7.01 -4.55 7.02 -4.54 7.02262 -4.53609 C 7.03 -4.53 7.03 -4.52 7.04034 -4.51733 C 7.05 -4.51 7.05 -4.5 7.05729 -4.49818 C 7.06 -4.49 7.07 -4.48 7.0782 -4.47275 C 7.08 -4.46 7.09 -4.46 7.09783 -4.44678 C 7.1 -4.44 7.11 -4.43 7.1162 -4.42031 C 7.12 -4.41 7.13 -4.4 7.13331 -4.3934 C 7.14 -4.38 7.14 -4.38 7.14919 -4.36609 C 7.15 -4.36 7.16 -4.35 7.16386 -4.33842 C 7.17 -4.32 7.18 -4.3 7.18965 -4.28216 C 7.23 -4.18 7.25 -4.06 7.25353 -3.95318 C 7.25 -3.94 7.25 -3.92 7.2525 -3.90952 C 7.25 -3.89 7.25 -3.88 7.24944 -3.86593 C 7.25 -3.85 7.25 -3.84 7.2444 -3.82248 C 7.24 -3.81 7.24 -3.79 7.23741 -3.7792 C 7.23 -3.76 7.23 -3.75 7.22849 -3.73614 C 7.23 -3.72 7.22 -3.71 7.21768 -3.69335 C 7.21 -3.68 7.21 -3.66 7.20501 -3.65086 C 7.2 -3.64 7.2 -3.62 7.19047 -3.60871 M 4 -5.15155 A 21.6 12.47077 360 0 1 6.55709 -4.77874 M -16.8651 12.20495 L -19.27841 11.67311 M -16.8651 12.20495 L -14.9912 12.61792 L -15.14142 12.55339 L -15.29264 12.48825 L -15.44487 12.42251 L -15.59813 12.35615 L -15.75241 12.28919 L -15.90772 12.22161 L -16.06408 12.15342 L -16.22149 12.0846 L -16.37996 12.01515 L -16.5395 11.94507 L -16.70012 11.87436 L -16.86182 11.80302 L -17.02461 11.73103 L -17.18851 11.6584 M -17.85507 9.88933 A 18 10.3923 180 0 0 -17.18851 11.6584 M -17.95414 9.31459 L -16.53992 9.83502 M -17.95414 9.31459 L -20.52329 8.36915 C -20.54 8.36 -20.55 8.36 -20.56642 8.35277 C -20.58 8.35 -20.6 8.34 -20.60962 8.33533 C -20.62 8.33 -20.64 8.32 -20.65287 8.31685 C -20.67 8.31 -20.68 8.3 -20.69611 8.29734 C -20.71 8.29 -20.72 8.28 -20.73932 8.2768 C -20.75 8.27 -20.77 8.26 -20.78244 8.25525 C -20.8 8.25 -20.81 8.24 -20.82542 8.23269 C -20.84 8.23 -20.85 8.22 -20.86822 8.20914 C -20.88 8.2 -20.9 8.19 -20.91077 8.18459 C -20.92 8.18 -20.94 8.17 -20.95301 8.15906 C -20.97 8.15 -20.98 8.14 -20.99488 8.13256 C -21.01 8.12 -21.02 8.11 -21.03631 8.10509 C -21.05 8.1 -21.06 8.09 -21.07723 8.07666 C -21.09 8.07 -21.1 8.06 -21.11755 8.04729 C -21.13 8.04 -21.14 8.03 -21.1572 8.01698 C -21.17 8.01 -21.18 8 -21.19609 7.98575 C -21.2 7.98 -21.21 7.97 -21.22252 7.96358 C -21.23 7.96 -21.24 7.95 -21.24848 7.941 C -21.26 7.93 -21.27 7.93 -21.27395 7.918 C -21.28 7.91 -21.29 7.9 -21.29887 7.89459 C -21.31 7.89 -21.32 7.88 -21.32321 7.8708 C -21.33 7.86 -21.34 7.85 -21.3469 7.84664 C -21.35 7.84 -21.36 7.83 -21.3699 7.82213 C -21.38 7.81 -21.38 7.81 -21.39215 7.79728 C -21.4 7.79 -21.4 7.78 -21.40871 7.77797 C -21.41 7.77 -21.42 7.77 -21.42477 7.75849 C -21.43 7.75 -21.44 7.75 -21.44029 7.73886 C -21.45 7.73 -21.45 7.73 -21.45526 7.71908 C -21.47 7.69 -21.49 7.67 -21.50888 7.63894 C -21.56 7.55 -21.59 7.47 -21.59437 7.38829 A 21.6 12.47077 360 0 1 -21.6 7.10352 L -21.6 8.93557 M -4 -2.37678 L -4.37368 -4.08623 M -5.61058 -4.9392 C -5.6 -4.94 -5.59 -4.94 -5.58621 -4.94267 C -5.58 -4.94 -5.57 -4.94 -5.5617 -4.94554 C -5.55 -4.95 -5.55 -4.95 -5.53709 -4.94781 C -5.53 -4.95 -5.52 -4.95 -5.5124 -4.94947 C -5.5 -4.95 -5.5 -4.95 -5.48765 -4.95053 C -5.48 -4.95 -5.47 -4.95 -5.46288 -4.95098 C -5.45 -4.95 -5.45 -4.95 -5.43811 -4.95084 C -5.43 -4.95 -5.42 -4.95 -5.41337 -4.95011 C -5.41 -4.95 -5.4 -4.95 -5.38869 -4.94879 C -5.38 -4.95 -5.37 -4.95 -5.36408 -4.9469 C -5.35 -4.95 -5.33 -4.94 -5.31518 -4.94143 C -5.3 -4.94 -5.28 -4.94 -5.26687 -4.93377 C -5.25 -4.93 -5.24 -4.93 -5.2193 -4.92402 C -5.21 -4.92 -5.2 -4.92 -5.18998 -4.9169 C -5.18 -4.91 -5.17 -4.91 -5.16102 -4.90904 C -5.15 -4.91 -5.14 -4.9 -5.13246 -4.90045 C -5.12 -4.9 -5.11 -4.89 -5.10432 -4.89116 C -5.1 -4.89 -5.09 -4.88 -5.07662 -4.88121 C -5.07 -4.88 -5.06 -4.87 -5.04937 -4.8706 C -5.04 -4.87 -5.03 -4.86 -5.0226 -4.85938 C -5.01 -4.86 -5 -4.85 -4.99631 -4.84757 C -4.99 -4.84 -4.97 -4.84 -4.96285 -4.83136 C -4.95 -4.83 -4.94 -4.82 -4.93026 -4.81424 C -4.92 -4.81 -4.91 -4.8 -4.89854 -4.79626 C -4.89 -4.79 -4.88 -4.78 -4.86771 -4.77747 C -4.86 -4.77 -4.85 -4.76 -4.83778 -4.75793 C -4.83 -4.75 -4.82 -4.74 -4.80875 -4.73767 C -4.8 -4.73 -4.79 -4.72 -4.78064 -4.71673 C -4.77 -4.71 -4.76 -4.7 -4.75343 -4.69516 C -4.55 -4.53 -4.42 -4.31 -4.37368 -4.08623 M -21.6 7.10352 A 21.6 12.47077 360 0 1 -21.30437 5.04734 C -21.3 5.04 -21.3 5.04 -21.29991 5.03317 C -21.3 5.03 -21.3 5.02 -21.29484 5.01932 C -21.29 5.01 -21.29 5.01 -21.28915 5.00581 C -21.29 5 -21.29 5 -21.28286 4.99266 C -21.28 4.99 -21.28 4.98 -21.27597 4.97986 C -21.27 4.98 -21.27 4.97 -21.26851 4.96745 C -21.27 4.96 -21.26 4.96 -21.26048 4.95542 C -21.26 4.95 -21.25 4.95 -21.25189 4.94378 C -21.25 4.94 -21.25 4.94 -21.24277 4.93255 C -21.24 4.93 -21.24 4.93 -21.23312 4.92173 C -21.23 4.91 -21.22 4.91 -21.21231 4.90135 C -21.21 4.89 -21.2 4.89 -21.1896 4.88266 C -21.18 4.88 -21.17 4.87 -21.16515 4.86568 C -21.16 4.86 -21.15 4.86 -21.14903 4.85593 C -21.14 4.85 -21.14 4.85 -21.13231 4.84685 C -21.13 4.84 -21.12 4.84 -21.11503 4.83843 C -21.11 4.84 -21.1 4.83 -21.09722 4.83067 C -21.09 4.83 -21.09 4.83 -21.07891 4.82356 C -21.07 4.82 -21.07 4.82 -21.06015 4.81709 C -21.05 4.82 -21.05 4.81 -21.04094 4.81125 C -21.03 4.81 -21.03 4.81 -21.02134 4.80603 C -21.01 4.8 -21 4.8 -20.99527 4.80016 C -20.99 4.8 -20.98 4.8 -20.96862 4.7953 C -20.96 4.79 -20.95 4.79 -20.94145 4.79142 C -20.93 4.79 -20.92 4.79 -20.9138 4.78851 C -20.9 4.79 -20.9 4.79 -20.88572 4.78653 C -20.88 4.79 -20.87 4.79 -20.85727 4.78546 C -20.85 4.79 -20.84 4.79 -20.82847 4.78528 C -20.82 4.79 -20.81 4.79 -20.79937 4.78597 C -20.57 4.8 -20.33 4.87 -20.10549 4.99654 M -9.41929 -4.11903 A 21.6 12.47077 360 0 1 -5.61058 -4.9392 M -9.86089 -2.90461 C -9.87 -2.91 -9.87 -2.92 -9.87517 -2.9328 C -9.88 -2.94 -9.88 -2.95 -9.88862 -2.96123 C -9.9 -2.98 -9.91 -3 -9.91298 -3.01876 C -9.92 -3.04 -9.93 -3.06 -9.9339 -3.07711 C -9.94 -3.1 -9.95 -3.12 -9.95128 -3.13617 C -9.96 -3.16 -9.96 -3.18 -9.96503 -3.19583 C -9.97 -3.22 -9.97 -3.24 -9.97503 -3.25596 C -9.98 -3.28 -9.98 -3.3 -9.98114 -3.31644 C -9.98 -3.33 -9.98 -3.34 -9.98269 -3.34676 C -9.98 -3.36 -9.98 -3.37 -9.98321 -3.3771 C -9.98 -3.39 -9.98 -3.41 -9.9818 -3.42662 C -9.98 -3.44 -9.98 -3.46 -9.97749 -3.47607 C -9.98 -3.49 -9.97 -3.51 -9.97019 -3.52534 C -9.97 -3.54 -9.96 -3.56 -9.95977 -3.57434 C -9.96 -3.58 -9.95 -3.59 -9.95202 -3.60343 C -9.95 -3.61 -9.95 -3.62 -9.94308 -3.63234 C -9.94 -3.64 -9.94 -3.65 -9.93294 -3.66102 C -9.93 -3.67 -9.93 -3.68 -9.92156 -3.68945 C -9.92 -3.7 -9.91 -3.71 -9.90894 -3.71759 C -9.9 -3.73 -9.9 -3.74 -9.89503 -3.74538 C -9.89 -3.75 -9.89 -3.76 -9.87982 -3.77278 C -9.87 -3.78 -9.87 -3.79 -9.86329 -3.79975 C -9.86 -3.81 -9.85 -3.81 -9.84966 -3.82015 C -9.84 -3.83 -9.84 -3.83 -9.83524 -3.84024 C -9.83 -3.85 -9.83 -3.85 -9.82 -3.85998 C -9.81 -3.87 -9.81 -3.87 -9.80395 -3.87935 C -9.8 -3.89 -9.79 -3.89 -9.78707 -3.89832 C -9.78 -3.9 -9.78 -3.91 -9.76938 -3.91686 C -9.76 -3.92 -9.76 -3.93 -9.75087 -3.93494 C -9.74 -3.94 -9.74 -3.95 -9.73154 -3.95252 C -9.72 -3.96 -9.71 -3.97 -9.69898 -3.97949 C -9.69 -3.99 -9.68 -4 -9.66438 -4.00497 C -9.66 -4.01 -9.65 -4.01 -9.64634 -4.01711 C -9.64 -4.02 -9.63 -4.02 -9.62782 -4.02882 C -9.62 -4.03 -9.62 -4.04 -9.60882 -4.04009 C -9.6 -4.04 -9.6 -4.05 -9.58937 -4.0509 C -9.58 -4.05 -9.58 -4.06 -9.56947 -4.06123 C -9.56 -4.06 -9.56 -4.07 -9.54914 -4.07107 C -9.54 -4.08 -9.52 -4.08 -9.50728 -4.08922 C -9.48 -4.1 -9.45 -4.11 -9.41929 -4.11903 M -17.58864 6.36417 L -20.10549 4.99654 M -8.62648 -0.54789 L -9.86089 -2.90461 M -17.58864 6.36417 L -15.63435 7.42612 L -15.75199 7.31617 L -15.87036 7.20533 L -15.98944 7.09359 L -16.10925 6.98095 L -16.2298 6.8674 L -16.35109 6.75293 L -16.47313 6.63753 L -16.59593 6.52121 L -16.71948 6.40396 L -16.84381 6.28576 L -16.9689 6.16661 L -17.09478 6.04651 L -17.22145 5.92545 L -17.34891 5.80343 M -8.62648 -0.54789 L -7.66798 1.28206 L -7.39233 1.57352 M -7.66798 1.28206 L -7.79209 1.17709 L -7.9171 1.07138 L -8.04303 0.96493 L -8.16989 0.85772 L -8.29768 0.74975 L -8.4264 0.64101 L -8.55608 0.53151 L -8.6867 0.42122 L -8.81829 0.31016 L -8.95084 0.19831 L -9.08436 0.08566 L -9.21886 -0.02779 L -9.35435 -0.14204 L -9.49084 -0.25711 L -7.6298 1.71063 M -16.25307 4.10713 A 18 10.3923 180 0 0 -17.34891 5.80343 M -9.49084 -0.25711 A 18 10.3923 180 0 0 -12.00116 0.82785 M -15.79822 3.59271 L -14.38401 4.69637 M -12.72792 1.22474 L -11.31371 2.85774 M -15.79822 3.59271 L -18.05887 1.8285 C -18.07 1.82 -18.08 1.81 -18.09631 1.79845 C -18.11 1.79 -18.12 1.78 -18.13281 1.76751 C -18.14 1.76 -18.16 1.75 -18.16834 1.73567 C -18.18 1.72 -18.19 1.71 -18.20285 1.70298 C -18.21 1.69 -18.23 1.68 -18.2363 1.66945 C -18.25 1.66 -18.26 1.65 -18.26864 1.6351 C -18.28 1.62 -18.29 1.61 -18.29982 1.59997 C -18.31 1.59 -18.32 1.58 -18.32979 1.56408 C -18.34 1.55 -18.35 1.54 -18.35849 1.52746 C -18.37 1.52 -18.38 1.5 -18.38584 1.49013 C -18.39 1.48 -18.4 1.46 -18.41178 1.45213 C -18.42 1.44 -18.43 1.43 -18.43624 1.41349 C -18.44 1.4 -18.45 1.39 -18.45913 1.37425 C -18.47 1.36 -18.47 1.35 -18.48036 1.33444 C -18.49 1.32 -18.49 1.31 -18.49986 1.29411 C -18.51 1.28 -18.51 1.27 -18.51752 1.25329 C -18.52 1.24 -18.53 1.23 -18.52862 1.22476 C -18.53 1.22 -18.54 1.21 -18.53874 1.19605 C -18.54 1.19 -18.54 1.18 -18.54785 1.16719 C -18.55 1.16 -18.55 1.15 -18.5559 1.1382 C -18.56 1.13 -18.56 1.12 -18.56286 1.1091 C -18.56 1.1 -18.57 1.09 -18.56868 1.07994 C -18.57 1.07 -18.57 1.06 -18.57331 1.05074 C -18.57 1.04 -18.58 1.03 -18.5767 1.02155 C -18.58 1.01 -18.58 1 -18.57888 0.99116 C -18.58 0.98 -18.58 0.97 -18.57962 0.96088 C -18.58 0.95 -18.58 0.94 -18.57891 0.93151 C -18.58 0.92 -18.58 0.91 -18.57672 0.90236 C -18.58 0.89 -18.57 0.88 -18.57303 0.87347 C -18.57 0.86 -18.57 0.85 -18.56778 0.84493 C -18.57 0.83 -18.56 0.82 -18.55931 0.81101 C -18.56 0.8 -18.55 0.79 -18.54848 0.77782 C -18.54 0.77 -18.54 0.76 -18.53523 0.74553 C -18.53 0.74 -18.53 0.73 -18.52769 0.72976 C -18.53 0.72 -18.52 0.72 -18.51955 0.71427 C -18.52 0.71 -18.51 0.7 -18.5108 0.69908 C -18.51 0.69 -18.5 0.69 -18.50145 0.68421 C -18.5 0.68 -18.49 0.67 -18.49149 0.66967 C -18.49 0.66 -18.48 0.66 -18.48095 0.65549 C -18.48 0.65 -18.47 0.65 -18.46981 0.64168 C -18.47 0.64 -18.46 0.63 -18.4581 0.62825 C -18.45 0.62 -18.45 0.62 -18.44583 0.61523 C -18.44 0.61 -18.44 0.61 -18.433 0.60264 A 21.6 12.47077 360 0 1 -15.99693 -1.27618 C -15.99 -1.28 -15.99 -1.28 -15.9798 -1.28669 C -15.97 -1.29 -15.97 -1.29 -15.96222 -1.29669 C -15.96 -1.3 -15.95 -1.3 -15.94421 -1.30618 C -15.94 -1.31 -15.93 -1.31 -15.92579 -1.31515 C -15.92 -1.32 -15.91 -1.32 -15.90699 -1.32359 C -15.9 -1.33 -15.89 -1.33 -15.88783 -1.33149 C -15.88 -1.33 -15.87 -1.34 -15.86834 -1.33886 C -15.86 -1.34 -15.86 -1.34 -15.84853 -1.34568 C -15.84 -1.35 -15.82 -1.35 -15.80807 -1.35769 C -15.79 -1.36 -15.78 -1.36 -15.76664 -1.36752 C -15.75 -1.37 -15.74 -1.37 -15.72444 -1.37521 C -15.71 -1.38 -15.7 -1.38 -15.68163 -1.38078 C -15.67 -1.38 -15.66 -1.38 -15.65462 -1.38322 C -15.65 -1.38 -15.64 -1.38 -15.62747 -1.38486 C -15.62 -1.39 -15.61 -1.39 -15.60023 -1.38573 C -15.59 -1.39 -15.58 -1.39 -15.57292 -1.38585 C -15.56 -1.39 -15.55 -1.39 -15.54557 -1.38522 C -15.54 -1.38 -15.53 -1.38 -15.51822 -1.38387 C -15.51 -1.38 -15.5 -1.38 -15.4909 -1.38183 C -15.48 -1.38 -15.47 -1.38 -15.46362 -1.37909 C -15.45 -1.38 -15.44 -1.38 -15.42824 -1.37455 C -15.42 -1.37 -15.4 -1.37 -15.39303 -1.36892 C -15.38 -1.37 -15.37 -1.36 -15.35802 -1.36226 C -15.35 -1.36 -15.33 -1.36 -15.32327 -1.35459 C -15.31 -1.35 -15.3 -1.35 -15.28879 -1.34597 C -15.28 -1.34 -15.27 -1.34 -15.25463 -1.33642 C -15.24 -1.33 -15.23 -1.33 -15.2208 -1.32598 C -15.21 -1.32 -15.2 -1.32 -15.18734 -1.31469 C -15.06 -1.27 -14.94 -1.21 -14.83307 -1.13254 C -14.73 -1.06 -14.63 -0.97 -14.54923 -0.87832 M -12.72792 1.22474 L -14.54923 -0.87832 M 21.78288 5.94372 A 23 13.27906 180 0 0 21.37312 5.30078 M 19.55886 3.21929 A 23 13.27906 180 0 0 16.87243 1.18178 M -9.98321 -1.75673 A 23 13.27906 180 0 0 -14.05336 -0.30574 M -18.57962 2.37896 A 23 13.27906 180 0 0 -21.0102 4.80338 M -21.37312 5.30078 A 23 13.27906 180 0 0 -21.78288 5.94372 M -16.26346 19.59592 A 23 13.27906 180 0 0 16.26346 19.59592 L 16.97056 19.18767 A 24 13.85641 180 0 0 24 9.38971 L 24 7.48455 C 24 7.4 24 7.31 23.99585 7.21954 C 23.99 7.13 23.99 7.04 23.98337 6.95463 C 23.98 6.87 23.97 6.78 23.96259 6.68997 C 23.95 6.6 23.94 6.51 23.93351 6.42567 C 23.92 6.34 23.91 6.25 23.89616 6.16185 C 23.88 6.07 23.87 5.99 23.85056 5.89863 C 23.83 5.81 23.82 5.72 23.79675 5.63613 C 23.78 5.55 23.76 5.46 23.73476 5.37444 C 23.71 5.29 23.69 5.2 23.66462 5.11369 C 23.64 5.03 23.61 4.94 23.58638 4.85398 C 23.56 4.77 23.53 4.68 23.50008 4.59541 C 23.47 4.51 23.44 4.42 23.40577 4.33807 C 23.37 4.25 23.34 4.17 23.30351 4.08208 C 23.27 4 23.23 3.91 23.19335 3.82752 C 23.16 3.74 23.12 3.66 23.07536 3.57449 C 23.03 3.49 22.99 3.41 22.94961 3.32308 C 22.89 3.21 22.83 3.09 22.76352 2.97911 C 22.7 2.87 22.63 2.75 22.56292 2.63858 C 22.49 2.53 22.42 2.41 22.348 2.3017 C 22.27 2.19 22.2 2.08 22.11893 1.96866 C 22.04 1.86 21.96 1.75 21.8759 1.63965 C 21.79 1.53 21.71 1.42 21.61909 1.31485 C 21.53 1.21 21.44 1.1 21.3487 0.99444 C 21.26 0.89 21.16 0.78 21.06493 0.67859 C 20.95 0.55 20.83 0.43 20.70151 0.30029 C 20.58 0.18 20.45 0.05 20.31891 -0.0707 C 20.19 -0.19 20.05 -0.31 19.91749 -0.4341 C 19.78 -0.55 19.64 -0.67 19.49766 -0.78963 C 18.93 -1.26 18.31 -1.71 17.64237 -2.1276 C 14.07 -4.41 9.2 -5.95 4 -6.45749 M -18.07183 14.09781 L -10.68123 12.50631 M -21.52777 9.18717 A 21.6 12.47077 360 0 1 -21.30437 8.15002 L -21.30437 5.04734 M -21.30437 8.15002 A 1 0.57735 360 0 1 -20.10549 7.68106 L -13.09086 8.56206 M -18.05887 4.51302 A 1 0.57735 360 0 1 -18.57962 4.00629 L -18.57962 0.96088 M -18.05887 3.36425 A 21.6 12.47077 360 0 1 -15.99693 1.82651 A 1 0.57735 360 0 1 -14.54923 1.80621 L -10.81921 3.95974 M -8.93991 -1.1463 A 21.6 12.47077 360 0 1 -5.61058 -1.83651 A 1 0.57735 360 0 1 -4.37368 -1.40171 L -4.37368 -4.08623 M 4 -2.04886 A 21.6 12.47077 360 0 1 6.48386 -1.68944 M 9.49288 2.88483 L 12.33057 0.69626 L 12.33057 -1.98826 M 12.33057 0.69626 A 1 0.57735 360 0 1 13.76854 0.5974 A 21.6 12.47077 360 0 1 15.36771 1.44277 M 12.99643 7.40755 L 19.27841 6.05478 L 19.27841 3.37026 M 20.58068 6.42047 A 21.6 12.47077 360 0 1 20.67617 6.59807 M 21.45195 8.78286 A 1 0.57735 360 0 1 20.52329 9.35874 L 20.52329 6.67422 M 11.51892 11.65292 L 19.5358 12.6598 M 8.06102 14.86024 L 12.42634 17.38056 M 2.42324 16.63759 L 3.48543 19.45666 M -1.15317 19.51511 L -0.81327 16.77123 M 8.06102 14.86024 L 5.65685 10.69611 L 5.65685 7.10352 M 5.65685 10.69611 A 8 4.6188 360 0 1 4.97669 11.0464 M 1.70052 11.94337 L 2.42324 16.63759 M 1.70052 11.94337 A 8 4.6188 360 0 1 -0.57071 12.03715 L -0.57071 8.44457 M -0.57071 12.03715 L -0.81327 16.77123 M -3.66356 11.53614 A 8 4.6188 360 0 1 -4.79422 11.12766 M -9.83332 11.58482 L -10.68123 12.50631 M 1.70052 11.94337 L 1.70052 8.35078 M -1.05582 17.91272 L -1.14143 18.60378 M 7.81717 7.04223 L 7.81717 4.81933 M -13.78821 15.25366 L -10.41915 13.79756 M -7.4956 8.19014 L -7.4956 5.45164 M -13.86686 12.37581 L -14.9912 12.61792 M -17.85507 9.88933 L -13.65731 9.71599 M -14.46177 7.57339 L -15.63435 7.42612 M -16.25307 4.10713 L -12.55938 5.2716 M 6.07019 0.82906 L 7.21759 -0.94705 M -9.05097 2.53114 L -12.00116 0.82785 M 19.55122 1.35334 A 24 13.85641 180 0 0 16.86765 -0.46731 M 12.71452 -2.36247 A 24 13.85641 180 0 0 7.25353 -3.8187 M -4 -4.27289 A 24 13.85641 180 0 0 -4.41638 -4.23007 M -9.98321 -3.21102 A 24 13.85641 180 0 0 -15.21786 -1.32503 M -18.0665 0.26828 A 24 13.85641 180 0 0 -19.55122 1.35334 M -24 9.38971 A 24 13.85641 180 0 0 -16.97056 19.18767 A 24 13.85641 180 0 0 16.97056 19.18767 M -12.33057 17.32701 L -12.33057 17.03163 M 15.45681 15.92168 A 21.85924 12.62044 180 0 0 4 -5.40965 M -4 -5.40965 A 21.85924 12.62044 180 1 0 15.45681 15.92168 M -12.08973 17.51219 L -12.08973 17.4379 M 4.37368 19.20537 L 4.37368 19.1296 M -1.46785 19.39508 L -1.46785 19.37081 M 14.54923 16.32048 L 14.54923 15.92168 M 20.10549 11.95064 L 20.10549 10.04683 M -19.27841 12.94661 L -19.27841 11.67311 M -18.05887 4.51302 L -18.05887 1.8285 M -9.86089 -0.22009 L -9.86089 -2.90461 M 14.51407 16.43464 L 14.51407 16.33935 M 15.66763 15.98593 A 22.15738 12.79257 180 0 0 4 -5.64217 M -4 -5.64217 A 22.15738 12.79257 180 1 0 15.66763 15.98593 M 20.85861 10.77238 L 20.85861 10.34279 M 3.56142 19.44949 L 3.56142 19.40361 M 21.44476 5.76043 L 21.44476 5.61108 M -0.49324 19.61491 L -0.49324 19.57103 M 16.64294 0.21258 L 16.64294 -0.84575 M 6.55709 -1.88836 L 6.55709 -4.77874 M -19.84783 12.28572 L -19.84783 12.02368 M -21.59437 8.95639 L -21.59437 7.38829 M -9.41929 -2.06151 L -9.41929 -4.11903 M -18.433 1.41878 L -18.433 0.60264 M 16.49916 16.46601 A 23.33333 13.47151 180 0 0 4 -6.33186 M -4 -6.33186 A 23.33333 13.47151 180 1 0 16.49916 16.46601 M 16.97056 17.28251 A 24 13.85641 180 0 0 24 7.48455 M -24 7.48455 A 24 13.85641 180 0 0 16.97056 17.28251 M 4 -0.38504 L 5.65685 0.57155 M -4 -0.38504 L -5.65685 0.57155 M -12.53002 17.33894 L -12.53002 17.13258 M -4 0.57155 L -4 -6.94022 M -8 3.83753 L -8 4.18456 M 14.84212 16.26299 L 14.84212 16.04043 M 20.89293 10.70856 L 20.89293 10.2062 M 4.39654 19.36022 L 4.39654 19.16554 M 21.45195 8.78286 L 21.45195 5.68297 M -1.4704 19.58954 L -1.4704 19.38287 M 16.87243 2.62496 L 16.87243 -0.38792 M 7.25353 -1.12595 L 7.25353 -3.95318 M -19.92895 12.18303 L -19.92895 11.82753 M -9.98321 -0.49678 L -9.98321 -3.3771 M -16.26346 19.59592 L -16.97056 19.18767 M -24 9.38971 L -24 7.48455 M -4 -6.45753 C -4.16 -6.44 -4.32 -6.42 -4.48013 -6.40715 C -4.64 -6.39 -4.8 -6.37 -4.9584 -6.35109 C -5.12 -6.33 -5.28 -6.31 -5.43463 -6.28935 C -5.59 -6.27 -5.75 -6.25 -5.9086 -6.22197 C -6.07 -6.2 -6.22 -6.17 -6.38013 -6.14897 C -6.54 -6.12 -6.69 -6.1 -6.84901 -6.07038 C -7 -6.04 -7.16 -6.02 -7.31505 -5.98624 C -7.47 -5.96 -7.62 -5.93 -7.77806 -5.89658 C -7.93 -5.87 -8.09 -5.83 -8.23786 -5.80142 C -8.39 -5.77 -8.54 -5.74 -8.69424 -5.70082 C -8.85 -5.67 -9 -5.63 -9.14703 -5.59481 C -9.3 -5.56 -9.45 -5.52 -9.59603 -5.48343 C -9.75 -5.45 -9.89 -5.41 -10.04108 -5.36672 C -10.19 -5.33 -10.34 -5.29 -10.48198 -5.24474 C -10.63 -5.2 -10.77 -5.16 -10.91856 -5.11751 C -11.06 -5.07 -11.21 -5.03 -11.35065 -4.9851 C -11.49 -4.94 -11.64 -4.89 -11.77806 -4.84755 C -11.92 -4.8 -12.06 -4.75 -12.20062 -4.70491 C -12.34 -4.66 -12.48 -4.61 -12.61817 -4.55725 C -12.76 -4.51 -12.89 -4.46 -13.03053 -4.40461 C -13.17 -4.35 -13.3 -4.3 -13.43754 -4.24705 C -13.57 -4.19 -13.71 -4.14 -13.83903 -4.08464 C -13.97 -4.03 -14.1 -3.97 -14.23484 -3.91742 C -14.37 -3.86 -14.5 -3.8 -14.62481 -3.74548 C -14.75 -3.69 -14.88 -3.63 -15.00877 -3.56887 C -15.14 -3.51 -15.26 -3.45 -15.38657 -3.38765 C -15.51 -3.33 -15.64 -3.26 -15.75806 -3.20191 C -15.88 -3.14 -16 -3.08 -16.12308 -3.0117 C -16.61 -2.76 -17.07 -2.49 -17.51545 -2.20775 C -21.6 0.33 -24.02 3.85 -24 7.48455" />
  </svg>