<svg 
     version="1.1" 
     xmlns="http://www.w3.org/2000/svg" 
     viewBox="-38.43610124378487 -33.636447395683305 76.87220248756974 67.27289479136661" 
     fill="none" 
     stroke="black" 
     stroke-width="0.2%" 
     vector-effect="non-scaling-stroke">
  <path d="M -32.88047 -1.83712 L -35.42605 -3.30681 A 1.4 0.80829 360 0 1 -35.8361 -3.87836 A 1.4 0.80829 360 0 1 -35.42605 -4.44991 M -32.88047 -1.83712 L -34.01184 -1.18392 M -32.88047 -5.9196 L -35.42605 -4.44991 M -36.55742 -2.65361 L -34.01184 -1.18392 M -32.88047 -5.9196 L -34.01184 -6.5728 L -36.55742 -5.1031 M -36.55742 -2.65361 A 3 1.73205 360 0 1 -37.4361 -3.87836 A 3 1.73205 360 0 1 -36.55742 -5.1031 M -30.05204 20.20829 C -30.05 19.48 -30.02 18.55 -29.98133 17.49653 L -29.98133 7.13569 C -30.26 3.68 -30.98 0.66 -32.63211 -0.5334 A 0.4 0.23094 240 0 1 -32.88047 -1.00095 L -32.88047 -1.83712 M -34.01184 -0.34775 L -34.01184 -1.18392 M -29.98133 12.819 L -17.67767 5.71548 L -17.60696 5.7563 M -17.67767 5.71548 C -17.68 -0.7 -26.94 -7.81 -24.39565 -3.99162 C -17.68 -0.7 -26.94 -7.81 -32.61427 -4.92101 A 0.4 0.23094 120 0 1 -32.79762 -4.91024 A 0.4 0.23094 120 0 1 -32.88047 -5.09335 L -32.88047 -5.9196 M -36.55742 19.39179 L -31.18341 22.49448 L -31.18341 20.86149 C -31.18 20.13 -31.15 19.2 -31.1127 18.14973 L -31.1127 7.78888 C -31.39 4.33 -32.11 1.31 -33.76348 0.1198 A 0.4 0.23094 240 0 1 -34.01184 -0.34775 M -36.55742 19.39179 A 3 1.73205 360 0 1 -37.4361 18.16705 M -25.52703 -4.64482 C -18.81 -1.35 -28.07 -8.46 -32.89241 -5.9265 M -6.29325 -0.77567 L -17.60696 5.7563 M -6.36396 -0.8165 L -6.29325 -0.77567 M -6.36396 -0.8165 L 11.38442 -11.06353 A 1.4 0.80829 360 0 1 13.36432 -11.06353 L 18.73833 -7.96084 L 19.8697 -8.61404 C 19.87 -9.35 19.9 -10.27 19.94041 -11.3258 L 19.94041 -21.68664 C 19.66 -25.14 18.95 -28.17 17.28963 -29.35573 A 0.4 0.23094 240 0 1 17.04127 -29.82328 L 17.04127 -30.65945 L 14.49569 -32.12914 M 18.73833 -7.96084 L 18.66762 -7.92002 L 24.48787 -4.55969 M 17.67767 13.06395 L 17.60696 13.02312 L 7.37066 18.93305 M -19.89435 25.99119 L -29.98133 20.16747 M -30.05204 20.20829 L -29.98133 20.16747 M -30.05204 20.20829 L -31.18341 20.86149 M -29.98133 17.49653 L -31.1127 18.14973 M -29.98133 7.13569 L -31.1127 7.78888 M 36.55742 5.1031 A 3 1.73205 180 0 0 37.4361 3.87836 L 37.4361 -18.16705 A 3 1.73205 180 0 0 36.55742 -19.39179 M 18.80904 15.35014 L 36.55742 5.1031 L 36.55742 -16.9423 A 3 1.73205 180 0 0 37.4361 -18.16705 M 16.89985 14.24787 L 18.80904 15.35014 L 18.80904 13.71714 M 16.89985 14.24787 L 7.47238 19.69082 M -10.25305 32.12914 L 7.49533 21.88211 L 7.49533 20.24912 C 7.5 13.83 -1.77 6.72 0.77735 10.54202 C 7.5 13.83 -1.77 6.72 -7.44127 9.61263 A 0.4 0.23094 120 0 1 -7.62462 9.6234 A 0.4 0.23094 120 0 1 -7.70746 9.44029 L -7.70746 8.61404 M -14.49569 32.12914 A 3 1.73205 180 0 0 -10.25305 32.12914 L -10.25305 10.08373 L -7.70746 8.61404 M -19.8697 29.02645 L -14.49569 32.12914 L -14.49569 10.08373 A 3 1.73205 180 0 0 -10.25305 10.08373 M -19.87496 26.81888 L -29.27422 21.39221 L -31.18341 22.49448 M -29.27422 20.57571 L -29.27422 21.39221 M -7.49533 -0.08165 L -7.49533 -1.46969 M -6.36396 -0.8165 L -7.49533 -1.46969 M 11.38442 -31.47594 L 8.83883 -30.00625 L 7.70746 -30.65945 L 7.70746 -29.8332 A 0.4 0.23094 120 0 1 7.44127 -29.35347 C 1.77 -25.69 -7.5 -7.88 -7.49533 -1.46969 M 8.83883 -30.00625 L 8.83883 -29.18 L 7.70746 -29.8332 M 8.83883 -29.18 A 0.4 0.23094 120 0 1 8.57264 -28.70028 L 7.44127 -29.35347 M 8.57264 -28.70028 C 2.9 -25.04 -6.36 -7.23 -6.36396 -0.8165 M 11.38442 -31.47594 A 1.4 0.80829 360 0 1 13.36432 -31.47594 M 18.73833 -7.96084 C 18.74 -8.69 18.77 -9.62 18.80904 -10.6726 L 19.94041 -11.3258 M 15.9099 -30.00625 L 13.36432 -31.47594 M 18.80904 -10.6726 L 18.80904 -21.03345 L 19.94041 -21.68664 M 15.9099 -29.17008 L 15.9099 -30.00625 L 17.04127 -30.65945 M 18.80904 -21.03345 C 18.53 -24.49 17.81 -27.51 16.15826 -28.70253 L 17.28963 -29.35573 M 16.15826 -28.70253 A 0.4 0.23094 240 0 1 15.9099 -29.17008 L 17.04127 -29.82328 M 19.8697 -7.22599 L 19.8697 -8.61404 M 35.42605 -18.7386 L 32.88047 -20.20829 L 34.01184 -20.86149 L 36.55742 -19.39179 M 32.88047 -20.20829 L 32.88047 -19.37212 A 0.4 0.23094 240 0 1 32.79762 -19.18901 A 0.4 0.23094 240 0 1 32.63211 -19.19135 L 32.87836 -19.33352 M 32.63211 -19.19135 C 30.98 -19.91 30.26 -17.72 31.50152 -19.18584 L 32.63289 -19.83904 M 31.50152 -19.18584 C 30.98 -19.91 30.26 -17.72 29.98133 -14.58312 L 29.98133 -12.43741 M 35.42605 -18.7386 A 1.4 0.80829 360 0 1 35.8361 -18.16705 A 1.4 0.80829 360 0 1 35.42605 -17.5955 L 35.42605 -18.7386 Z M 35.42605 -17.5955 L 32.88047 -16.12581 L 34.01184 -15.47261 L 36.55742 -16.9423 M 32.88047 -16.12581 L 32.88047 -15.29956 L 34.01184 -14.64636 A 0.4 0.23094 120 0 1 33.74564 -14.16664 C 28.07 -10.51 18.81 7.3 18.80904 13.71714 M 32.88047 -15.29956 A 0.4 0.23094 120 0 1 32.61427 -14.81983 L 33.74564 -14.16664 M 32.61427 -14.81983 C 26.94 -11.16 17.68 6.65 17.67767 13.06395 L 18.80904 13.71714 M 16.89985 13.43137 L 16.89985 14.24787 M 16.89985 13.43137 L 7.37066 18.93305 M -0.35402 9.88882 C 6.36 13.18 -2.9 6.07 -7.71941 8.60714 M -8.83883 7.96084 L -11.38442 9.43054 A 1.4 0.80829 360 0 1 -13.36432 9.43054 L -15.9099 7.96084 L -17.04127 8.61404 L -17.04127 9.45021 A 0.4 0.23094 240 0 1 -17.12412 9.63332 A 0.4 0.23094 240 0 1 -17.28963 9.63098 C -18.95 8.91 -19.66 11.1 -18.42022 9.63649 C -18.95 8.91 -19.66 11.1 -19.94041 14.23921 L -19.94041 24.60005 C -19.9 25.7 -19.87 26.66 -19.8697 27.39346 M -17.04127 8.87855 C -17.81 8.26 -18.53 10.45 -17.28885 8.98329 L -18.42022 9.63649 M -19.8697 29.02645 L -19.8697 27.39346 M -19.89435 25.99119 L -29.27422 20.57571 M 10.25305 -32.12914 L 7.70746 -30.65945 M 10.25305 -32.12914 A 3 1.73205 360 0 1 14.49569 -32.12914 M 32.88047 -19.94378 C 32.11 -20.57 31.39 -18.37 32.63289 -19.83904 M 34.01184 -15.47261 L 34.01184 -14.64636 M -14.49569 10.08373 L -17.04127 8.61404 M -8.83883 7.96084 L -7.70746 8.61404 M -35.42605 -3.30681 L -35.42605 -4.44991 M -32.88047 -1.00095 L -34.01184 -0.34775 M -36.55742 -2.65361 L -36.55742 19.39179 M -32.63211 -0.5334 L -33.76348 0.1198 M -32.61427 -4.92101 L -32.87998 -5.07441 M 11.38442 -11.06353 L 11.38442 -31.47594 M 13.36432 -11.06353 L 13.36432 -31.47594 M -7.70697 9.45923 L -7.44127 9.61263 M -17.04338 9.48881 L -17.28963 9.63098 M -37.4361 -3.87836 L -37.4361 18.16705 M -24.39565 -3.99162 L -25.52703 -4.64482 M -0.35402 9.88882 L 0.77735 10.54202" />
  </svg>