<svg 
     version="1.1" 
     xmlns="http://www.w3.org/2000/svg" 
     viewBox="-17.485282374238572 -12.171291311094437 34.970564748477145 25.61685631643718" 
     fill="none" 
     stroke="black" 
     stroke-width="0.2%" 
     vector-effect="non-scaling-stroke">
  <path d="M 4.24264 11.43095 L 2.82843 10.61446 A 8 4.6188 180 0 0 12.09106 11.47151 C 12.09 11.47 12.08 11.48 12.07761 11.4787 C 12.07 11.48 12.07 11.48 12.06598 11.48533 C 12.06 11.49 12.06 11.49 12.05631 11.49135 C 12.05 11.49 12.05 11.5 12.04871 11.49669 C 12.05 11.5 12.04 11.5 12.04327 11.5013 C 12.04 11.5 12.04 11.5 12.0401 11.50511 C 12.04 11.51 12.04 11.51 12.03939 11.50671 C 12.04 11.51 12.04 11.51 12.03927 11.50808 C 12.04 11.51 12.04 11.51 12.03974 11.50923 C 12.04 11.51 12.04 11.51 12.04083 11.51015 M 12.28738 11.65249 L 12.27816 11.64717 L 12.26766 11.64111 L 12.25586 11.6343 L 12.24277 11.62674 L 12.22839 11.61844 L 12.21272 11.60939 L 12.19575 11.59959 L 12.17749 11.58905 L 12.15795 11.57776 L 12.1371 11.56573 L 12.11497 11.55295 L 12.09155 11.53943 L 12.06683 11.52516 L 12.04083 11.51015 M 12.20397 11.7 L 12.20988 11.69664 L 12.21579 11.69327 L 12.22171 11.6899 L 12.22764 11.68652 L 12.23358 11.68314 L 12.23952 11.67975 L 12.24547 11.67636 L 12.25144 11.67297 L 12.2574 11.66957 L 12.26338 11.66616 L 12.26937 11.66275 L 12.27536 11.65934 L 12.28137 11.65592 L 12.28738 11.65249 M 4.24264 11.43095 A 6 3.4641 180 0 0 12.20397 11.7 M -14.14214 0.8165 L 2.82843 10.61446 L 2.82843 9.79796 A 8 4.6188 180 0 0 16.48528 6.53197 A 8 4.6188 180 0 0 14.14214 3.26599 L 12.27817 2.18983 M 12.27696 11.25224 C 12.27 11.25 12.26 11.26 12.25872 11.25869 C 12.25 11.26 12.25 11.26 12.24066 11.26665 C 12.23 11.27 12.23 11.27 12.22296 11.27602 C 12.22 11.28 12.21 11.28 12.20579 11.28671 C 12.2 11.29 12.19 11.29 12.1893 11.29862 C 12.18 11.3 12.18 11.31 12.17365 11.31162 C 12.17 11.32 12.16 11.32 12.159 11.3256 C 12.15 11.33 12.15 11.34 12.14548 11.34042 C 12.14 11.35 12.14 11.35 12.13322 11.35595 C 12.13 11.36 12.13 11.37 12.12235 11.37204 C 12.12 11.38 12.12 11.38 12.11297 11.38854 C 12.11 11.39 12.11 11.4 12.10517 11.40529 C 12.1 11.41 12.1 11.42 12.09903 11.42212 C 12.1 11.42 12.1 11.43 12.0966 11.43052 C 12.1 11.43 12.1 11.44 12.09461 11.43888 C 12.09 11.44 12.09 11.44 12.09306 11.44718 C 12.09 11.45 12.09 11.45 12.09195 11.4554 C 12.09 11.46 12.09 11.46 12.09128 11.46352 C 12.09 11.47 12.09 11.47 12.09106 11.47151 M 12.27696 11.25224 A 8 4.6188 180 0 0 15.52965 9.3743 M 15.62659 9.43027 C 15.63 9.43 15.63 9.43 15.62648 9.42243 C 15.63 9.42 15.63 9.42 15.62614 9.41487 C 15.63 9.41 15.63 9.41 15.62558 9.40758 C 15.63 9.41 15.63 9.4 15.62479 9.40061 C 15.62 9.4 15.62 9.4 15.62377 9.39396 C 15.62 9.39 15.62 9.39 15.62253 9.38765 C 15.62 9.38 15.62 9.38 15.61939 9.37612 C 15.62 9.37 15.62 9.37 15.61539 9.36615 C 15.61 9.36 15.61 9.36 15.61057 9.35784 C 15.61 9.36 15.61 9.35 15.60497 9.35126 C 15.6 9.35 15.6 9.35 15.59862 9.34648 C 15.6 9.35 15.59 9.34 15.59166 9.34356 C 15.59 9.34 15.59 9.34 15.58408 9.34248 C 15.58 9.34 15.58 9.34 15.57595 9.34326 C 15.57 9.34 15.57 9.34 15.56735 9.34589 C 15.56 9.35 15.56 9.35 15.55833 9.35035 C 15.56 9.35 15.55 9.35 15.54899 9.3566 C 15.55 9.36 15.54 9.36 15.5394 9.36461 C 15.54 9.37 15.53 9.37 15.52965 9.3743 M 15.62659 9.43027 A 8 4.6188 180 0 0 16.48528 7.34847 L 16.48528 6.53197 M -14.14214 0 L 2.82843 9.79796 M -16.48528 -2.44949 A 8 4.6188 180 0 0 -14.14214 0.8165 L -14.14214 0 M 15.49352 9.51673 C 15.5 9.51 15.51 9.51 15.51101 9.50367 C 15.52 9.5 15.52 9.5 15.52857 9.49105 C 15.53 9.49 15.54 9.48 15.54603 9.47898 C 15.55 9.48 15.56 9.47 15.56323 9.46758 C 15.57 9.46 15.57 9.46 15.58002 9.45694 C 15.59 9.45 15.59 9.45 15.59626 9.44712 C 15.6 9.44 15.61 9.44 15.61183 9.43821 C 15.62 9.44 15.62 9.43 15.62659 9.43027 M 13.27733 11.08094 L 13.27131 11.08437 L 13.26531 11.08779 L 13.25932 11.0912 L 13.25333 11.09461 L 13.24735 11.09802 L 13.24138 11.10142 L 13.23542 11.10482 L 13.22947 11.10821 L 13.22353 11.11159 L 13.21759 11.11497 L 13.21166 11.11835 L 13.20574 11.12172 L 13.19983 11.12509 L 13.19392 11.12845 M 15.49352 9.51673 L 15.32682 9.64301 L 15.16142 9.76704 L 14.9973 9.88884 L 14.83448 10.0084 L 14.67295 10.12572 L 14.51272 10.24081 L 14.35377 10.35366 L 14.19612 10.46427 L 14.03976 10.57264 L 13.88469 10.67878 L 13.73091 10.78267 L 13.57842 10.88434 L 13.42723 10.98376 L 13.27733 11.08094 M 5.38286 -1.79118 L -2.82843 -6.53197 A 8 4.6188 180 0 0 -3.27817 -6.77246 M -12.27817 -7.33268 A 8 4.6188 180 0 0 -16.48528 -3.26599 A 8 4.6188 180 0 0 -14.14214 0 M -11.96016 -1.89839 A 4.5 2.59808 360 0 1 -12.27817 -2.85774 M -3.27817 -2.85774 A 4.5 2.59808 360 0 1 -10.17886 -0.66026 L -10.17886 -6.37574 A 1 0.57735 0 0 1 -11.96016 -6.7361 L -11.96016 -1.02062 M -10.17886 -0.66026 A 1 0.57735 0 0 1 -11.96016 -1.02062 M 12.27817 6.12372 A 4.5 2.59808 360 0 1 11.96016 7.08307 M 11.96016 7.96084 A 1 0.57735 360 0 1 10.17886 8.3212 L 10.17886 2.60573 A 4.5 2.59808 360 0 1 5.37749 2.60573 A 1 0.57735 0 0 1 3.59619 2.24537 L 3.59619 7.96084 M 10.17886 8.3212 A 4.5 2.59808 360 0 1 5.37749 8.3212 L 5.37749 2.60573 M 5.37749 8.3212 A 1 0.57735 0 0 1 3.59619 7.96084 M 3.59619 7.08307 A 4.5 2.59808 360 0 1 3.27817 6.12372 M 13.07917 10.96654 L 13.27733 11.08094 M 12.98115 11.00561 L 13.19392 11.12845 M -11.58432 -7.18718 A 4.5 2.59808 360 0 1 -12.27817 -8.57321 L -12.27817 -2.85774 M -12.27817 -8.57321 A 4.5 2.59808 360 0 1 -11.58432 -9.95925 A 1 0.57735 360 0 1 -11.96016 -10.41033 L -11.96016 -9.53256 M -11.96016 -6.7361 A 1 0.57735 0 0 1 -11.58432 -7.18718 M -11.96016 -10.41033 A 1 0.57735 360 0 1 -10.17886 -10.77069 A 4.5 2.59808 360 0 1 -5.37749 -10.77069 A 1 0.57735 0 0 1 -3.59619 -10.41033 L -3.59619 -9.53256 M -3.97203 -9.95925 A 4.5 2.59808 360 0 1 -3.27817 -8.57321 L -3.27817 -2.85774 M -3.27817 -8.57321 A 4.5 2.59808 360 0 1 -10.17886 -6.37574 M -3.59619 -10.41033 A 1 0.57735 0 0 1 -3.97203 -9.95925 M 11.58432 -0.97779 A 4.5 2.59808 360 0 1 12.27817 0.40825 L 12.27817 6.12372 M 12.27817 0.40825 A 4.5 2.59808 360 0 1 11.58432 1.79428 A 1 0.57735 360 0 1 11.96016 2.24537 L 11.96016 7.96084 M 10.17886 -1.78923 A 1 0.57735 0 0 1 11.96016 -1.42887 L 11.96016 -0.5511 M 11.96016 -1.42887 A 1 0.57735 0 0 1 11.58432 -0.97779 M 3.97203 1.79428 A 4.5 2.59808 360 0 1 3.27817 0.40825 L 3.27817 6.12372 M 3.27817 0.40825 A 4.5 2.59808 360 0 1 10.17886 -1.78923 M 3.59619 2.24537 A 1 0.57735 0 0 1 3.97203 1.79428 M 11.96016 2.24537 A 1 0.57735 360 0 1 10.17886 2.60573 M 15.42869 9.4793 L 15.49352 9.51673 M -16.48528 -2.44949 L -16.48528 -3.26599" />
  </svg>