<svg 
     version="1.1" 
     xmlns="http://www.w3.org/2000/svg" 
     viewBox="-51.000001 -38.74991920397284 102.000002 80.76582473165661" 
     fill="none" 
     stroke="black" 
     stroke-width="0.2%" 
     vector-effect="non-scaling-stroke">
  <path d="M -33.23402 33.06811 A 47 27.13546 180 0 0 33.23402 33.06811 L 35.35534 31.84337 A 50 28.86751 180 0 0 50 11.43095 M -50 11.43095 A 50 28.86751 180 0 0 -35.35534 31.84337 A 50 28.86751 180 0 0 35.35534 31.84337 M 35.35534 -28.57738 A 50 28.86751 360 0 1 50 -8.16497 A 50 28.86751 360 0 1 -50 -8.16497 A 50 28.86751 360 0 1 -35.35534 -28.57738 L -33.23402 -29.80213 A 47 27.13546 360 0 1 33.23402 -29.80213 L 35.35534 -28.57738 Z M 33.23402 -29.80213 A 47 27.13546 360 1 1 -33.23402 -29.80213 M -3.88909 -16.12581 A 5.5 3.17543 360 0 1 5.5 -13.88044 A 5.5 3.17543 360 0 1 -5.5 -13.88044 A 5.5 3.17543 360 0 1 -3.88909 -16.12581 Z M 7.84889 -15.14601 A 11.1 6.40859 360 1 1 -7.84889 -15.14601 L -5.02046 -16.779 A 7.1 4.09919 360 0 1 5.02046 -16.779 L 7.84889 -15.14601 Z M 5.02046 -16.779 A 7.1 4.09919 360 1 1 -5.02046 -16.779 M -33.23402 33.06811 L -35.35534 31.84337 M -50 -8.16497 L -50 11.43095 M 50 -8.16497 L 50 11.43095" />
  </svg>