<?xml version="1.0" encoding="UTF-8"?>
<svg width="1200pt" height="1200pt" version="1.1" viewBox="0 0 1200 1200" xmlns="http://www.w3.org/2000/svg">
 <g>
  <path d="m477.58 602.98c0.60156-3.6875-0.53125-7.6289-3.3789-10.457l-81.703-81.703c-50.125-50.125-131.69-50.145-181.84-0.015625-50.145 50.125-50.145 131.71 0 181.85 50.145 50.145 131.69 50.125 181.84-0.015625l81.566-81.566c2.2305-2.25 3.3945-5.1484 3.5156-8.0938zm-28.336-1.2695-73.836 73.836c-40.715 40.715-106.97 40.715-147.69 0.015625-40.715-40.715-40.715-106.97 0-147.69 40.695-40.695 106.97-40.695 147.69 0.015625z"/>
  <path d="m541.64 609.34c1.3711-1.3711 2.332-2.9844 2.8984-4.6797 1.5781-4.2852 0.66797-9.293-2.793-12.754l-115.99-115.99c-68.727-68.727-180.63-68.656-249.46 0.17188s-68.898 180.72-0.17188 249.46c68.727 68.742 180.63 68.656 249.46-0.17188 0.015625 0 116.05-116.04 116.05-116.04zm-348.43 99.137c-59.312-59.312-59.23-155.9 0.1875-215.31 59.418-59.418 156-59.484 215.31-0.1875l107.57 107.57-107.74 107.74c-59.414 59.414-156.03 59.5-215.33 0.1875z"/>
  <path d="m692.61 210.69c-50.125-50.125-131.71-50.145-181.85 0-50.145 50.145-50.125 131.69 0.015625 181.84l81.703 81.703c2.8477 2.8477 6.7695 3.9766 10.457 3.3789 2.9492-0.10156 5.8477-1.2852 8.0898-3.5156l81.566-81.566c50.145-50.129 50.145-131.71 0.019531-181.84zm-164.76 164.76c-40.715-40.715-40.715-106.97-0.015625-147.69 40.715-40.715 106.97-40.715 147.69 0 40.695 40.695 40.695 106.97-0.015625 147.69l-73.836 73.836c0.011719 0-73.82-73.836-73.82-73.836z"/>
  <path d="m604.63 544.58c1.6953-0.56641 3.3242-1.543 4.6797-2.8984l116.04-116.04c68.828-68.828 68.898-180.72 0.17188-249.46-68.727-68.742-180.62-68.676-249.46 0.17187-68.848 68.848-68.898 180.72-0.17188 249.46l115.99 115.99c3.4453 3.4453 8.4492 4.3711 12.754 2.7773zm-111.65-135.86c-59.312-59.312-59.23-155.9 0.1875-215.31 59.418-59.418 156-59.484 215.31-0.1875 59.312 59.312 59.23 155.9-0.1875 215.31l-107.74 107.74z"/>
  <path d="m807.48 507.39-81.566 81.566c-2.2461 2.2461-3.4102 5.1445-3.5156 8.0898-0.60156 3.6875 0.53125 7.6289 3.3789 10.457l81.703 81.703c50.125 50.125 131.69 50.145 181.84 0.015624 50.145-50.145 50.145-131.71 0-181.85-50.145-50.141-131.71-50.105-181.84 0.019531zm164.76 164.76c-40.695 40.695-106.97 40.695-147.69-0.015625l-73.836-73.836 73.836-73.836c40.715-40.715 106.97-40.715 147.69-0.015625 40.699 40.734 40.715 106.99 0 147.7z"/>
  <path d="m774.36 474.65-116.04 116.04c-1.3711 1.3711-2.332 2.9844-2.8984 4.6797-1.5781 4.2852-0.66797 9.293 2.793 12.754l115.99 115.99c68.727 68.727 180.63 68.656 249.46-0.17188 68.828-68.828 68.898-180.72 0.17188-249.46-68.723-68.742-180.63-68.676-249.48 0.17188zm232.22 232.2c-59.398 59.398-156 59.484-215.31 0.1875l-107.57-107.57 107.74-107.74c59.398-59.398 156-59.484 215.31-0.1875 59.312 59.312 59.227 155.91-0.17188 215.31z"/>
  <path d="m801.43 398.57c40.887-83.727 26.793-187.73-42.668-257.21-87.48-87.48-229.84-87.48-317.3 0-69.582 69.582-83.621 173.81-42.496 257.61-83.793-41.125-188.02-27.086-257.61 42.496-87.48 87.48-87.48 229.84 0 317.3 69.48 69.48 173.48 83.57 257.21 42.668-40.887 83.727-26.793 187.73 42.668 257.21 87.48 87.48 229.84 87.48 317.3 0 69.582-69.582 83.621-173.81 42.496-257.61 83.793 41.125 188.02 27.086 257.61-42.496 87.48-87.48 87.48-229.84 0-317.3-69.48-69.461-173.49-83.535-257.21-42.668zm-342.91-240.14c78.07-78.07 205.1-78.07 283.16 0 76.922 76.922 77.898 201.29 3.2227 279.6-1.1641 1.1133-2.418 2.0742-3.5469 3.207l-141.45 141.45-141.24-141.24c-0.44531-0.44531-0.92578-0.80469-1.3711-1.2344-76.785-78.156-76.406-204.16 1.2148-281.78zm-300.1 583.27c-78.07-78.07-78.07-205.1 0-283.16 77.621-77.621 203.62-77.984 281.79-1.2344 0.44531 0.44531 0.80469 0.92578 1.2344 1.3711l141.24 141.24-141.45 141.45c-1.1484 1.1484-2.1094 2.3984-3.207 3.5469-78.34 74.676-202.7 73.715-279.61-3.2031zm583.04 299.9c-78.07 78.07-205.1 78.07-283.16 0-76.922-76.922-77.898-201.29-3.2227-279.6 1.1641-1.1133 2.418-2.0742 3.5469-3.207l141.45-141.45 141.24 141.24c0.44531 0.44531 0.92578 0.80469 1.3711 1.2344 76.77 78.141 76.41 204.14-1.2148 281.78zm300.11-300.12c-77.621 77.621-203.62 77.984-281.79 1.2344-0.44531-0.44531-0.80469-0.92578-1.2344-1.3711l-141.22-141.22 141.45-141.45c1.1484-1.1484 2.1094-2.3984 3.207-3.5469 78.309-74.676 202.68-73.695 279.6 3.2227 78.062 78.047 78.062 205.06-0.003906 283.13z"/>
  <path d="m507.38 989.33c50.125 50.125 131.71 50.145 181.85 0s50.125-131.69-0.015625-181.84l-81.703-81.703c-2.8477-2.8477-6.7695-3.9766-10.457-3.3789-2.9492 0.10156-5.8477 1.2852-8.0898 3.5156l-81.566 81.566c-50.164 50.145-50.164 131.71-0.019532 181.84zm164.74-164.74c40.715 40.715 40.715 106.97 0.015625 147.69-40.715 40.715-106.97 40.715-147.69 0-40.695-40.695-40.695-106.97 0.015625-147.69l73.836-73.836z"/>
  <path d="m595.36 655.44c-1.6953 0.56641-3.3242 1.543-4.6797 2.8984l-116.04 116.04c-68.828 68.828-68.898 180.72-0.17188 249.46 68.727 68.742 180.63 68.656 249.46-0.17188s68.898-180.72 0.17188-249.46l-115.99-115.99c-3.4648-3.4297-8.4688-4.3555-12.754-2.7773zm111.65 135.86c59.312 59.312 59.23 155.9-0.1875 215.31-59.418 59.418-156 59.504-215.31 0.1875-59.312-59.312-59.23-155.9 0.1875-215.31l107.74-107.74z"/>
 </g>
</svg>
