<?xml version="1.0" encoding="UTF-8" standalone="no"?>
<svg
   xmlns:dc="http://purl.org/dc/elements/1.1/"
   xmlns:cc="http://creativecommons.org/ns#"
   xmlns:rdf="http://www.w3.org/1999/02/22-rdf-syntax-ns#"
   xmlns:svg="http://www.w3.org/2000/svg"
   xmlns="http://www.w3.org/2000/svg"
   xmlns:sodipodi="http://sodipodi.sourceforge.net/DTD/sodipodi-0.dtd"
   xmlns:inkscape="http://www.inkscape.org/namespaces/inkscape"
   width="1200pt"
   height="1200pt"
   version="1.1"
   viewBox="0 0 1200 1200"
   id="svg30"
   sodipodi:docname="noun-abstract-1166831.svg"
   inkscape:version="1.0.2 (e86c8708, 2021-01-15)">
  <metadata
     id="metadata36">
    <rdf:RDF>
      <cc:Work
         rdf:about="">
        <dc:format>image/svg+xml</dc:format>
        <dc:type
           rdf:resource="http://purl.org/dc/dcmitype/StillImage" />
      </cc:Work>
    </rdf:RDF>
  </metadata>
  <defs
     id="defs34" />
  <sodipodi:namedview
     pagecolor="#ffffff"
     bordercolor="#666666"
     borderopacity="1"
     objecttolerance="10"
     gridtolerance="10"
     guidetolerance="10"
     inkscape:pageopacity="0"
     inkscape:pageshadow="2"
     inkscape:window-width="1403"
     inkscape:window-height="847"
     id="namedview32"
     showgrid="false"
     inkscape:zoom="0.416875"
     inkscape:cx="800"
     inkscape:cy="800"
     inkscape:window-x="37"
     inkscape:window-y="25"
     inkscape:window-maximized="1"
     inkscape:current-layer="g28" />
  <g
     stroke="#000"
     stroke-miterlimit="10"
     stroke-width="1.1669"
     id="g28">
    <path
       transform="scale(1.2)"
       d="m696.7 239.6-188.2-202.1v404.2z"
       id="path10"
       style="fill:#5fd3bc" />
    <path
       transform="scale(1.2)"
       d="m822.2 454.8 9.8991-276-285.9 285.8z"
       id="path12" />
    <path
       transform="scale(1.2)"
       d="m758.9 695.7 202.1-188.2h-404.2z"
       id="path14"
       style="fill:#ff7f2a" />
    <path
       transform="scale(1.2)"
       d="m543.7 821.2 276 9.8991-285.8-285.9z"
       id="path16" />
    <path
       transform="scale(1.2)"
       d="m302.8 757.9 188.2 202.1v-404.2z"
       id="path18"
       style="fill:#5fd3bc" />
    <path
       transform="scale(1.2)"
       d="m177.3 542.7-9.9023 276 285.9-285.8z"
       id="path20" />
    <path
       transform="scale(1.2)"
       d="m240.6 301.8-202.1 188.2h404.2z"
       id="path22"
       style="fill:#ff7f2a" />
    <path
       transform="scale(1.2)"
       d="m455.8 176.3-276-9.8991 285.8 285.9z"
       id="path24" />
    <path
       transform="scale(1.2)"
       d="m534.1 497c0 17.344-14.059 31.4-31.403 31.4-17.34 0-31.4-14.056-31.4-31.4 0-17.34 14.059-31.4 31.4-31.4 17.344 0 31.403 14.059 31.403 31.4"
       id="path26" />
  </g>
</svg>
